G04 EAGLE Gerber RS-274X export*
G75*
%MOMM*%
%FSLAX34Y34*%
%LPD*%
%IN*%
%IPPOS*%
%AMOC8*
5,1,8,0,0,1.08239X$1,22.5*%
G01*
%ADD10C,0.203200*%
%ADD11C,0.000000*%
%ADD12C,0.254000*%


D10*
X63500Y495300D02*
X1778000Y495300D01*
X1778000Y698500D01*
X63500Y698500D01*
X63500Y495300D01*
D11*
X1758500Y660400D02*
X1758502Y660554D01*
X1758508Y660709D01*
X1758518Y660863D01*
X1758532Y661017D01*
X1758550Y661170D01*
X1758571Y661323D01*
X1758597Y661476D01*
X1758627Y661627D01*
X1758660Y661778D01*
X1758698Y661928D01*
X1758739Y662077D01*
X1758784Y662225D01*
X1758833Y662371D01*
X1758886Y662517D01*
X1758942Y662660D01*
X1759002Y662803D01*
X1759066Y662943D01*
X1759133Y663083D01*
X1759204Y663220D01*
X1759278Y663355D01*
X1759356Y663489D01*
X1759437Y663620D01*
X1759522Y663749D01*
X1759610Y663877D01*
X1759701Y664001D01*
X1759795Y664124D01*
X1759893Y664244D01*
X1759993Y664361D01*
X1760097Y664476D01*
X1760203Y664588D01*
X1760312Y664697D01*
X1760424Y664803D01*
X1760539Y664907D01*
X1760656Y665007D01*
X1760776Y665105D01*
X1760899Y665199D01*
X1761023Y665290D01*
X1761151Y665378D01*
X1761280Y665463D01*
X1761411Y665544D01*
X1761545Y665622D01*
X1761680Y665696D01*
X1761817Y665767D01*
X1761957Y665834D01*
X1762097Y665898D01*
X1762240Y665958D01*
X1762383Y666014D01*
X1762529Y666067D01*
X1762675Y666116D01*
X1762823Y666161D01*
X1762972Y666202D01*
X1763122Y666240D01*
X1763273Y666273D01*
X1763424Y666303D01*
X1763577Y666329D01*
X1763730Y666350D01*
X1763883Y666368D01*
X1764037Y666382D01*
X1764191Y666392D01*
X1764346Y666398D01*
X1764500Y666400D01*
X1764654Y666398D01*
X1764809Y666392D01*
X1764963Y666382D01*
X1765117Y666368D01*
X1765270Y666350D01*
X1765423Y666329D01*
X1765576Y666303D01*
X1765727Y666273D01*
X1765878Y666240D01*
X1766028Y666202D01*
X1766177Y666161D01*
X1766325Y666116D01*
X1766471Y666067D01*
X1766617Y666014D01*
X1766760Y665958D01*
X1766903Y665898D01*
X1767043Y665834D01*
X1767183Y665767D01*
X1767320Y665696D01*
X1767455Y665622D01*
X1767589Y665544D01*
X1767720Y665463D01*
X1767849Y665378D01*
X1767977Y665290D01*
X1768101Y665199D01*
X1768224Y665105D01*
X1768344Y665007D01*
X1768461Y664907D01*
X1768576Y664803D01*
X1768688Y664697D01*
X1768797Y664588D01*
X1768903Y664476D01*
X1769007Y664361D01*
X1769107Y664244D01*
X1769205Y664124D01*
X1769299Y664001D01*
X1769390Y663877D01*
X1769478Y663749D01*
X1769563Y663620D01*
X1769644Y663489D01*
X1769722Y663355D01*
X1769796Y663220D01*
X1769867Y663083D01*
X1769934Y662943D01*
X1769998Y662803D01*
X1770058Y662660D01*
X1770114Y662517D01*
X1770167Y662371D01*
X1770216Y662225D01*
X1770261Y662077D01*
X1770302Y661928D01*
X1770340Y661778D01*
X1770373Y661627D01*
X1770403Y661476D01*
X1770429Y661323D01*
X1770450Y661170D01*
X1770468Y661017D01*
X1770482Y660863D01*
X1770492Y660709D01*
X1770498Y660554D01*
X1770500Y660400D01*
X1770498Y660246D01*
X1770492Y660091D01*
X1770482Y659937D01*
X1770468Y659783D01*
X1770450Y659630D01*
X1770429Y659477D01*
X1770403Y659324D01*
X1770373Y659173D01*
X1770340Y659022D01*
X1770302Y658872D01*
X1770261Y658723D01*
X1770216Y658575D01*
X1770167Y658429D01*
X1770114Y658283D01*
X1770058Y658140D01*
X1769998Y657997D01*
X1769934Y657857D01*
X1769867Y657717D01*
X1769796Y657580D01*
X1769722Y657445D01*
X1769644Y657311D01*
X1769563Y657180D01*
X1769478Y657051D01*
X1769390Y656923D01*
X1769299Y656799D01*
X1769205Y656676D01*
X1769107Y656556D01*
X1769007Y656439D01*
X1768903Y656324D01*
X1768797Y656212D01*
X1768688Y656103D01*
X1768576Y655997D01*
X1768461Y655893D01*
X1768344Y655793D01*
X1768224Y655695D01*
X1768101Y655601D01*
X1767977Y655510D01*
X1767849Y655422D01*
X1767720Y655337D01*
X1767589Y655256D01*
X1767455Y655178D01*
X1767320Y655104D01*
X1767183Y655033D01*
X1767043Y654966D01*
X1766903Y654902D01*
X1766760Y654842D01*
X1766617Y654786D01*
X1766471Y654733D01*
X1766325Y654684D01*
X1766177Y654639D01*
X1766028Y654598D01*
X1765878Y654560D01*
X1765727Y654527D01*
X1765576Y654497D01*
X1765423Y654471D01*
X1765270Y654450D01*
X1765117Y654432D01*
X1764963Y654418D01*
X1764809Y654408D01*
X1764654Y654402D01*
X1764500Y654400D01*
X1764346Y654402D01*
X1764191Y654408D01*
X1764037Y654418D01*
X1763883Y654432D01*
X1763730Y654450D01*
X1763577Y654471D01*
X1763424Y654497D01*
X1763273Y654527D01*
X1763122Y654560D01*
X1762972Y654598D01*
X1762823Y654639D01*
X1762675Y654684D01*
X1762529Y654733D01*
X1762383Y654786D01*
X1762240Y654842D01*
X1762097Y654902D01*
X1761957Y654966D01*
X1761817Y655033D01*
X1761680Y655104D01*
X1761545Y655178D01*
X1761411Y655256D01*
X1761280Y655337D01*
X1761151Y655422D01*
X1761023Y655510D01*
X1760899Y655601D01*
X1760776Y655695D01*
X1760656Y655793D01*
X1760539Y655893D01*
X1760424Y655997D01*
X1760312Y656103D01*
X1760203Y656212D01*
X1760097Y656324D01*
X1759993Y656439D01*
X1759893Y656556D01*
X1759795Y656676D01*
X1759701Y656799D01*
X1759610Y656923D01*
X1759522Y657051D01*
X1759437Y657180D01*
X1759356Y657311D01*
X1759278Y657445D01*
X1759204Y657580D01*
X1759133Y657717D01*
X1759066Y657857D01*
X1759002Y657997D01*
X1758942Y658140D01*
X1758886Y658283D01*
X1758833Y658429D01*
X1758784Y658575D01*
X1758739Y658723D01*
X1758698Y658872D01*
X1758660Y659022D01*
X1758627Y659173D01*
X1758597Y659324D01*
X1758571Y659477D01*
X1758550Y659630D01*
X1758532Y659783D01*
X1758518Y659937D01*
X1758508Y660091D01*
X1758502Y660246D01*
X1758500Y660400D01*
X1758500Y685400D02*
X1758502Y685554D01*
X1758508Y685709D01*
X1758518Y685863D01*
X1758532Y686017D01*
X1758550Y686170D01*
X1758571Y686323D01*
X1758597Y686476D01*
X1758627Y686627D01*
X1758660Y686778D01*
X1758698Y686928D01*
X1758739Y687077D01*
X1758784Y687225D01*
X1758833Y687371D01*
X1758886Y687517D01*
X1758942Y687660D01*
X1759002Y687803D01*
X1759066Y687943D01*
X1759133Y688083D01*
X1759204Y688220D01*
X1759278Y688355D01*
X1759356Y688489D01*
X1759437Y688620D01*
X1759522Y688749D01*
X1759610Y688877D01*
X1759701Y689001D01*
X1759795Y689124D01*
X1759893Y689244D01*
X1759993Y689361D01*
X1760097Y689476D01*
X1760203Y689588D01*
X1760312Y689697D01*
X1760424Y689803D01*
X1760539Y689907D01*
X1760656Y690007D01*
X1760776Y690105D01*
X1760899Y690199D01*
X1761023Y690290D01*
X1761151Y690378D01*
X1761280Y690463D01*
X1761411Y690544D01*
X1761545Y690622D01*
X1761680Y690696D01*
X1761817Y690767D01*
X1761957Y690834D01*
X1762097Y690898D01*
X1762240Y690958D01*
X1762383Y691014D01*
X1762529Y691067D01*
X1762675Y691116D01*
X1762823Y691161D01*
X1762972Y691202D01*
X1763122Y691240D01*
X1763273Y691273D01*
X1763424Y691303D01*
X1763577Y691329D01*
X1763730Y691350D01*
X1763883Y691368D01*
X1764037Y691382D01*
X1764191Y691392D01*
X1764346Y691398D01*
X1764500Y691400D01*
X1764654Y691398D01*
X1764809Y691392D01*
X1764963Y691382D01*
X1765117Y691368D01*
X1765270Y691350D01*
X1765423Y691329D01*
X1765576Y691303D01*
X1765727Y691273D01*
X1765878Y691240D01*
X1766028Y691202D01*
X1766177Y691161D01*
X1766325Y691116D01*
X1766471Y691067D01*
X1766617Y691014D01*
X1766760Y690958D01*
X1766903Y690898D01*
X1767043Y690834D01*
X1767183Y690767D01*
X1767320Y690696D01*
X1767455Y690622D01*
X1767589Y690544D01*
X1767720Y690463D01*
X1767849Y690378D01*
X1767977Y690290D01*
X1768101Y690199D01*
X1768224Y690105D01*
X1768344Y690007D01*
X1768461Y689907D01*
X1768576Y689803D01*
X1768688Y689697D01*
X1768797Y689588D01*
X1768903Y689476D01*
X1769007Y689361D01*
X1769107Y689244D01*
X1769205Y689124D01*
X1769299Y689001D01*
X1769390Y688877D01*
X1769478Y688749D01*
X1769563Y688620D01*
X1769644Y688489D01*
X1769722Y688355D01*
X1769796Y688220D01*
X1769867Y688083D01*
X1769934Y687943D01*
X1769998Y687803D01*
X1770058Y687660D01*
X1770114Y687517D01*
X1770167Y687371D01*
X1770216Y687225D01*
X1770261Y687077D01*
X1770302Y686928D01*
X1770340Y686778D01*
X1770373Y686627D01*
X1770403Y686476D01*
X1770429Y686323D01*
X1770450Y686170D01*
X1770468Y686017D01*
X1770482Y685863D01*
X1770492Y685709D01*
X1770498Y685554D01*
X1770500Y685400D01*
X1770498Y685246D01*
X1770492Y685091D01*
X1770482Y684937D01*
X1770468Y684783D01*
X1770450Y684630D01*
X1770429Y684477D01*
X1770403Y684324D01*
X1770373Y684173D01*
X1770340Y684022D01*
X1770302Y683872D01*
X1770261Y683723D01*
X1770216Y683575D01*
X1770167Y683429D01*
X1770114Y683283D01*
X1770058Y683140D01*
X1769998Y682997D01*
X1769934Y682857D01*
X1769867Y682717D01*
X1769796Y682580D01*
X1769722Y682445D01*
X1769644Y682311D01*
X1769563Y682180D01*
X1769478Y682051D01*
X1769390Y681923D01*
X1769299Y681799D01*
X1769205Y681676D01*
X1769107Y681556D01*
X1769007Y681439D01*
X1768903Y681324D01*
X1768797Y681212D01*
X1768688Y681103D01*
X1768576Y680997D01*
X1768461Y680893D01*
X1768344Y680793D01*
X1768224Y680695D01*
X1768101Y680601D01*
X1767977Y680510D01*
X1767849Y680422D01*
X1767720Y680337D01*
X1767589Y680256D01*
X1767455Y680178D01*
X1767320Y680104D01*
X1767183Y680033D01*
X1767043Y679966D01*
X1766903Y679902D01*
X1766760Y679842D01*
X1766617Y679786D01*
X1766471Y679733D01*
X1766325Y679684D01*
X1766177Y679639D01*
X1766028Y679598D01*
X1765878Y679560D01*
X1765727Y679527D01*
X1765576Y679497D01*
X1765423Y679471D01*
X1765270Y679450D01*
X1765117Y679432D01*
X1764963Y679418D01*
X1764809Y679408D01*
X1764654Y679402D01*
X1764500Y679400D01*
X1764346Y679402D01*
X1764191Y679408D01*
X1764037Y679418D01*
X1763883Y679432D01*
X1763730Y679450D01*
X1763577Y679471D01*
X1763424Y679497D01*
X1763273Y679527D01*
X1763122Y679560D01*
X1762972Y679598D01*
X1762823Y679639D01*
X1762675Y679684D01*
X1762529Y679733D01*
X1762383Y679786D01*
X1762240Y679842D01*
X1762097Y679902D01*
X1761957Y679966D01*
X1761817Y680033D01*
X1761680Y680104D01*
X1761545Y680178D01*
X1761411Y680256D01*
X1761280Y680337D01*
X1761151Y680422D01*
X1761023Y680510D01*
X1760899Y680601D01*
X1760776Y680695D01*
X1760656Y680793D01*
X1760539Y680893D01*
X1760424Y680997D01*
X1760312Y681103D01*
X1760203Y681212D01*
X1760097Y681324D01*
X1759993Y681439D01*
X1759893Y681556D01*
X1759795Y681676D01*
X1759701Y681799D01*
X1759610Y681923D01*
X1759522Y682051D01*
X1759437Y682180D01*
X1759356Y682311D01*
X1759278Y682445D01*
X1759204Y682580D01*
X1759133Y682717D01*
X1759066Y682857D01*
X1759002Y682997D01*
X1758942Y683140D01*
X1758886Y683283D01*
X1758833Y683429D01*
X1758784Y683575D01*
X1758739Y683723D01*
X1758698Y683872D01*
X1758660Y684022D01*
X1758627Y684173D01*
X1758597Y684324D01*
X1758571Y684477D01*
X1758550Y684630D01*
X1758532Y684783D01*
X1758518Y684937D01*
X1758508Y685091D01*
X1758502Y685246D01*
X1758500Y685400D01*
X1658500Y685400D02*
X1658502Y685554D01*
X1658508Y685709D01*
X1658518Y685863D01*
X1658532Y686017D01*
X1658550Y686170D01*
X1658571Y686323D01*
X1658597Y686476D01*
X1658627Y686627D01*
X1658660Y686778D01*
X1658698Y686928D01*
X1658739Y687077D01*
X1658784Y687225D01*
X1658833Y687371D01*
X1658886Y687517D01*
X1658942Y687660D01*
X1659002Y687803D01*
X1659066Y687943D01*
X1659133Y688083D01*
X1659204Y688220D01*
X1659278Y688355D01*
X1659356Y688489D01*
X1659437Y688620D01*
X1659522Y688749D01*
X1659610Y688877D01*
X1659701Y689001D01*
X1659795Y689124D01*
X1659893Y689244D01*
X1659993Y689361D01*
X1660097Y689476D01*
X1660203Y689588D01*
X1660312Y689697D01*
X1660424Y689803D01*
X1660539Y689907D01*
X1660656Y690007D01*
X1660776Y690105D01*
X1660899Y690199D01*
X1661023Y690290D01*
X1661151Y690378D01*
X1661280Y690463D01*
X1661411Y690544D01*
X1661545Y690622D01*
X1661680Y690696D01*
X1661817Y690767D01*
X1661957Y690834D01*
X1662097Y690898D01*
X1662240Y690958D01*
X1662383Y691014D01*
X1662529Y691067D01*
X1662675Y691116D01*
X1662823Y691161D01*
X1662972Y691202D01*
X1663122Y691240D01*
X1663273Y691273D01*
X1663424Y691303D01*
X1663577Y691329D01*
X1663730Y691350D01*
X1663883Y691368D01*
X1664037Y691382D01*
X1664191Y691392D01*
X1664346Y691398D01*
X1664500Y691400D01*
X1664654Y691398D01*
X1664809Y691392D01*
X1664963Y691382D01*
X1665117Y691368D01*
X1665270Y691350D01*
X1665423Y691329D01*
X1665576Y691303D01*
X1665727Y691273D01*
X1665878Y691240D01*
X1666028Y691202D01*
X1666177Y691161D01*
X1666325Y691116D01*
X1666471Y691067D01*
X1666617Y691014D01*
X1666760Y690958D01*
X1666903Y690898D01*
X1667043Y690834D01*
X1667183Y690767D01*
X1667320Y690696D01*
X1667455Y690622D01*
X1667589Y690544D01*
X1667720Y690463D01*
X1667849Y690378D01*
X1667977Y690290D01*
X1668101Y690199D01*
X1668224Y690105D01*
X1668344Y690007D01*
X1668461Y689907D01*
X1668576Y689803D01*
X1668688Y689697D01*
X1668797Y689588D01*
X1668903Y689476D01*
X1669007Y689361D01*
X1669107Y689244D01*
X1669205Y689124D01*
X1669299Y689001D01*
X1669390Y688877D01*
X1669478Y688749D01*
X1669563Y688620D01*
X1669644Y688489D01*
X1669722Y688355D01*
X1669796Y688220D01*
X1669867Y688083D01*
X1669934Y687943D01*
X1669998Y687803D01*
X1670058Y687660D01*
X1670114Y687517D01*
X1670167Y687371D01*
X1670216Y687225D01*
X1670261Y687077D01*
X1670302Y686928D01*
X1670340Y686778D01*
X1670373Y686627D01*
X1670403Y686476D01*
X1670429Y686323D01*
X1670450Y686170D01*
X1670468Y686017D01*
X1670482Y685863D01*
X1670492Y685709D01*
X1670498Y685554D01*
X1670500Y685400D01*
X1670498Y685246D01*
X1670492Y685091D01*
X1670482Y684937D01*
X1670468Y684783D01*
X1670450Y684630D01*
X1670429Y684477D01*
X1670403Y684324D01*
X1670373Y684173D01*
X1670340Y684022D01*
X1670302Y683872D01*
X1670261Y683723D01*
X1670216Y683575D01*
X1670167Y683429D01*
X1670114Y683283D01*
X1670058Y683140D01*
X1669998Y682997D01*
X1669934Y682857D01*
X1669867Y682717D01*
X1669796Y682580D01*
X1669722Y682445D01*
X1669644Y682311D01*
X1669563Y682180D01*
X1669478Y682051D01*
X1669390Y681923D01*
X1669299Y681799D01*
X1669205Y681676D01*
X1669107Y681556D01*
X1669007Y681439D01*
X1668903Y681324D01*
X1668797Y681212D01*
X1668688Y681103D01*
X1668576Y680997D01*
X1668461Y680893D01*
X1668344Y680793D01*
X1668224Y680695D01*
X1668101Y680601D01*
X1667977Y680510D01*
X1667849Y680422D01*
X1667720Y680337D01*
X1667589Y680256D01*
X1667455Y680178D01*
X1667320Y680104D01*
X1667183Y680033D01*
X1667043Y679966D01*
X1666903Y679902D01*
X1666760Y679842D01*
X1666617Y679786D01*
X1666471Y679733D01*
X1666325Y679684D01*
X1666177Y679639D01*
X1666028Y679598D01*
X1665878Y679560D01*
X1665727Y679527D01*
X1665576Y679497D01*
X1665423Y679471D01*
X1665270Y679450D01*
X1665117Y679432D01*
X1664963Y679418D01*
X1664809Y679408D01*
X1664654Y679402D01*
X1664500Y679400D01*
X1664346Y679402D01*
X1664191Y679408D01*
X1664037Y679418D01*
X1663883Y679432D01*
X1663730Y679450D01*
X1663577Y679471D01*
X1663424Y679497D01*
X1663273Y679527D01*
X1663122Y679560D01*
X1662972Y679598D01*
X1662823Y679639D01*
X1662675Y679684D01*
X1662529Y679733D01*
X1662383Y679786D01*
X1662240Y679842D01*
X1662097Y679902D01*
X1661957Y679966D01*
X1661817Y680033D01*
X1661680Y680104D01*
X1661545Y680178D01*
X1661411Y680256D01*
X1661280Y680337D01*
X1661151Y680422D01*
X1661023Y680510D01*
X1660899Y680601D01*
X1660776Y680695D01*
X1660656Y680793D01*
X1660539Y680893D01*
X1660424Y680997D01*
X1660312Y681103D01*
X1660203Y681212D01*
X1660097Y681324D01*
X1659993Y681439D01*
X1659893Y681556D01*
X1659795Y681676D01*
X1659701Y681799D01*
X1659610Y681923D01*
X1659522Y682051D01*
X1659437Y682180D01*
X1659356Y682311D01*
X1659278Y682445D01*
X1659204Y682580D01*
X1659133Y682717D01*
X1659066Y682857D01*
X1659002Y682997D01*
X1658942Y683140D01*
X1658886Y683283D01*
X1658833Y683429D01*
X1658784Y683575D01*
X1658739Y683723D01*
X1658698Y683872D01*
X1658660Y684022D01*
X1658627Y684173D01*
X1658597Y684324D01*
X1658571Y684477D01*
X1658550Y684630D01*
X1658532Y684783D01*
X1658518Y684937D01*
X1658508Y685091D01*
X1658502Y685246D01*
X1658500Y685400D01*
X1658500Y660400D02*
X1658502Y660554D01*
X1658508Y660709D01*
X1658518Y660863D01*
X1658532Y661017D01*
X1658550Y661170D01*
X1658571Y661323D01*
X1658597Y661476D01*
X1658627Y661627D01*
X1658660Y661778D01*
X1658698Y661928D01*
X1658739Y662077D01*
X1658784Y662225D01*
X1658833Y662371D01*
X1658886Y662517D01*
X1658942Y662660D01*
X1659002Y662803D01*
X1659066Y662943D01*
X1659133Y663083D01*
X1659204Y663220D01*
X1659278Y663355D01*
X1659356Y663489D01*
X1659437Y663620D01*
X1659522Y663749D01*
X1659610Y663877D01*
X1659701Y664001D01*
X1659795Y664124D01*
X1659893Y664244D01*
X1659993Y664361D01*
X1660097Y664476D01*
X1660203Y664588D01*
X1660312Y664697D01*
X1660424Y664803D01*
X1660539Y664907D01*
X1660656Y665007D01*
X1660776Y665105D01*
X1660899Y665199D01*
X1661023Y665290D01*
X1661151Y665378D01*
X1661280Y665463D01*
X1661411Y665544D01*
X1661545Y665622D01*
X1661680Y665696D01*
X1661817Y665767D01*
X1661957Y665834D01*
X1662097Y665898D01*
X1662240Y665958D01*
X1662383Y666014D01*
X1662529Y666067D01*
X1662675Y666116D01*
X1662823Y666161D01*
X1662972Y666202D01*
X1663122Y666240D01*
X1663273Y666273D01*
X1663424Y666303D01*
X1663577Y666329D01*
X1663730Y666350D01*
X1663883Y666368D01*
X1664037Y666382D01*
X1664191Y666392D01*
X1664346Y666398D01*
X1664500Y666400D01*
X1664654Y666398D01*
X1664809Y666392D01*
X1664963Y666382D01*
X1665117Y666368D01*
X1665270Y666350D01*
X1665423Y666329D01*
X1665576Y666303D01*
X1665727Y666273D01*
X1665878Y666240D01*
X1666028Y666202D01*
X1666177Y666161D01*
X1666325Y666116D01*
X1666471Y666067D01*
X1666617Y666014D01*
X1666760Y665958D01*
X1666903Y665898D01*
X1667043Y665834D01*
X1667183Y665767D01*
X1667320Y665696D01*
X1667455Y665622D01*
X1667589Y665544D01*
X1667720Y665463D01*
X1667849Y665378D01*
X1667977Y665290D01*
X1668101Y665199D01*
X1668224Y665105D01*
X1668344Y665007D01*
X1668461Y664907D01*
X1668576Y664803D01*
X1668688Y664697D01*
X1668797Y664588D01*
X1668903Y664476D01*
X1669007Y664361D01*
X1669107Y664244D01*
X1669205Y664124D01*
X1669299Y664001D01*
X1669390Y663877D01*
X1669478Y663749D01*
X1669563Y663620D01*
X1669644Y663489D01*
X1669722Y663355D01*
X1669796Y663220D01*
X1669867Y663083D01*
X1669934Y662943D01*
X1669998Y662803D01*
X1670058Y662660D01*
X1670114Y662517D01*
X1670167Y662371D01*
X1670216Y662225D01*
X1670261Y662077D01*
X1670302Y661928D01*
X1670340Y661778D01*
X1670373Y661627D01*
X1670403Y661476D01*
X1670429Y661323D01*
X1670450Y661170D01*
X1670468Y661017D01*
X1670482Y660863D01*
X1670492Y660709D01*
X1670498Y660554D01*
X1670500Y660400D01*
X1670498Y660246D01*
X1670492Y660091D01*
X1670482Y659937D01*
X1670468Y659783D01*
X1670450Y659630D01*
X1670429Y659477D01*
X1670403Y659324D01*
X1670373Y659173D01*
X1670340Y659022D01*
X1670302Y658872D01*
X1670261Y658723D01*
X1670216Y658575D01*
X1670167Y658429D01*
X1670114Y658283D01*
X1670058Y658140D01*
X1669998Y657997D01*
X1669934Y657857D01*
X1669867Y657717D01*
X1669796Y657580D01*
X1669722Y657445D01*
X1669644Y657311D01*
X1669563Y657180D01*
X1669478Y657051D01*
X1669390Y656923D01*
X1669299Y656799D01*
X1669205Y656676D01*
X1669107Y656556D01*
X1669007Y656439D01*
X1668903Y656324D01*
X1668797Y656212D01*
X1668688Y656103D01*
X1668576Y655997D01*
X1668461Y655893D01*
X1668344Y655793D01*
X1668224Y655695D01*
X1668101Y655601D01*
X1667977Y655510D01*
X1667849Y655422D01*
X1667720Y655337D01*
X1667589Y655256D01*
X1667455Y655178D01*
X1667320Y655104D01*
X1667183Y655033D01*
X1667043Y654966D01*
X1666903Y654902D01*
X1666760Y654842D01*
X1666617Y654786D01*
X1666471Y654733D01*
X1666325Y654684D01*
X1666177Y654639D01*
X1666028Y654598D01*
X1665878Y654560D01*
X1665727Y654527D01*
X1665576Y654497D01*
X1665423Y654471D01*
X1665270Y654450D01*
X1665117Y654432D01*
X1664963Y654418D01*
X1664809Y654408D01*
X1664654Y654402D01*
X1664500Y654400D01*
X1664346Y654402D01*
X1664191Y654408D01*
X1664037Y654418D01*
X1663883Y654432D01*
X1663730Y654450D01*
X1663577Y654471D01*
X1663424Y654497D01*
X1663273Y654527D01*
X1663122Y654560D01*
X1662972Y654598D01*
X1662823Y654639D01*
X1662675Y654684D01*
X1662529Y654733D01*
X1662383Y654786D01*
X1662240Y654842D01*
X1662097Y654902D01*
X1661957Y654966D01*
X1661817Y655033D01*
X1661680Y655104D01*
X1661545Y655178D01*
X1661411Y655256D01*
X1661280Y655337D01*
X1661151Y655422D01*
X1661023Y655510D01*
X1660899Y655601D01*
X1660776Y655695D01*
X1660656Y655793D01*
X1660539Y655893D01*
X1660424Y655997D01*
X1660312Y656103D01*
X1660203Y656212D01*
X1660097Y656324D01*
X1659993Y656439D01*
X1659893Y656556D01*
X1659795Y656676D01*
X1659701Y656799D01*
X1659610Y656923D01*
X1659522Y657051D01*
X1659437Y657180D01*
X1659356Y657311D01*
X1659278Y657445D01*
X1659204Y657580D01*
X1659133Y657717D01*
X1659066Y657857D01*
X1659002Y657997D01*
X1658942Y658140D01*
X1658886Y658283D01*
X1658833Y658429D01*
X1658784Y658575D01*
X1658739Y658723D01*
X1658698Y658872D01*
X1658660Y659022D01*
X1658627Y659173D01*
X1658597Y659324D01*
X1658571Y659477D01*
X1658550Y659630D01*
X1658532Y659783D01*
X1658518Y659937D01*
X1658508Y660091D01*
X1658502Y660246D01*
X1658500Y660400D01*
X1708500Y610400D02*
X1708502Y610554D01*
X1708508Y610709D01*
X1708518Y610863D01*
X1708532Y611017D01*
X1708550Y611170D01*
X1708571Y611323D01*
X1708597Y611476D01*
X1708627Y611627D01*
X1708660Y611778D01*
X1708698Y611928D01*
X1708739Y612077D01*
X1708784Y612225D01*
X1708833Y612371D01*
X1708886Y612517D01*
X1708942Y612660D01*
X1709002Y612803D01*
X1709066Y612943D01*
X1709133Y613083D01*
X1709204Y613220D01*
X1709278Y613355D01*
X1709356Y613489D01*
X1709437Y613620D01*
X1709522Y613749D01*
X1709610Y613877D01*
X1709701Y614001D01*
X1709795Y614124D01*
X1709893Y614244D01*
X1709993Y614361D01*
X1710097Y614476D01*
X1710203Y614588D01*
X1710312Y614697D01*
X1710424Y614803D01*
X1710539Y614907D01*
X1710656Y615007D01*
X1710776Y615105D01*
X1710899Y615199D01*
X1711023Y615290D01*
X1711151Y615378D01*
X1711280Y615463D01*
X1711411Y615544D01*
X1711545Y615622D01*
X1711680Y615696D01*
X1711817Y615767D01*
X1711957Y615834D01*
X1712097Y615898D01*
X1712240Y615958D01*
X1712383Y616014D01*
X1712529Y616067D01*
X1712675Y616116D01*
X1712823Y616161D01*
X1712972Y616202D01*
X1713122Y616240D01*
X1713273Y616273D01*
X1713424Y616303D01*
X1713577Y616329D01*
X1713730Y616350D01*
X1713883Y616368D01*
X1714037Y616382D01*
X1714191Y616392D01*
X1714346Y616398D01*
X1714500Y616400D01*
X1714654Y616398D01*
X1714809Y616392D01*
X1714963Y616382D01*
X1715117Y616368D01*
X1715270Y616350D01*
X1715423Y616329D01*
X1715576Y616303D01*
X1715727Y616273D01*
X1715878Y616240D01*
X1716028Y616202D01*
X1716177Y616161D01*
X1716325Y616116D01*
X1716471Y616067D01*
X1716617Y616014D01*
X1716760Y615958D01*
X1716903Y615898D01*
X1717043Y615834D01*
X1717183Y615767D01*
X1717320Y615696D01*
X1717455Y615622D01*
X1717589Y615544D01*
X1717720Y615463D01*
X1717849Y615378D01*
X1717977Y615290D01*
X1718101Y615199D01*
X1718224Y615105D01*
X1718344Y615007D01*
X1718461Y614907D01*
X1718576Y614803D01*
X1718688Y614697D01*
X1718797Y614588D01*
X1718903Y614476D01*
X1719007Y614361D01*
X1719107Y614244D01*
X1719205Y614124D01*
X1719299Y614001D01*
X1719390Y613877D01*
X1719478Y613749D01*
X1719563Y613620D01*
X1719644Y613489D01*
X1719722Y613355D01*
X1719796Y613220D01*
X1719867Y613083D01*
X1719934Y612943D01*
X1719998Y612803D01*
X1720058Y612660D01*
X1720114Y612517D01*
X1720167Y612371D01*
X1720216Y612225D01*
X1720261Y612077D01*
X1720302Y611928D01*
X1720340Y611778D01*
X1720373Y611627D01*
X1720403Y611476D01*
X1720429Y611323D01*
X1720450Y611170D01*
X1720468Y611017D01*
X1720482Y610863D01*
X1720492Y610709D01*
X1720498Y610554D01*
X1720500Y610400D01*
X1720498Y610246D01*
X1720492Y610091D01*
X1720482Y609937D01*
X1720468Y609783D01*
X1720450Y609630D01*
X1720429Y609477D01*
X1720403Y609324D01*
X1720373Y609173D01*
X1720340Y609022D01*
X1720302Y608872D01*
X1720261Y608723D01*
X1720216Y608575D01*
X1720167Y608429D01*
X1720114Y608283D01*
X1720058Y608140D01*
X1719998Y607997D01*
X1719934Y607857D01*
X1719867Y607717D01*
X1719796Y607580D01*
X1719722Y607445D01*
X1719644Y607311D01*
X1719563Y607180D01*
X1719478Y607051D01*
X1719390Y606923D01*
X1719299Y606799D01*
X1719205Y606676D01*
X1719107Y606556D01*
X1719007Y606439D01*
X1718903Y606324D01*
X1718797Y606212D01*
X1718688Y606103D01*
X1718576Y605997D01*
X1718461Y605893D01*
X1718344Y605793D01*
X1718224Y605695D01*
X1718101Y605601D01*
X1717977Y605510D01*
X1717849Y605422D01*
X1717720Y605337D01*
X1717589Y605256D01*
X1717455Y605178D01*
X1717320Y605104D01*
X1717183Y605033D01*
X1717043Y604966D01*
X1716903Y604902D01*
X1716760Y604842D01*
X1716617Y604786D01*
X1716471Y604733D01*
X1716325Y604684D01*
X1716177Y604639D01*
X1716028Y604598D01*
X1715878Y604560D01*
X1715727Y604527D01*
X1715576Y604497D01*
X1715423Y604471D01*
X1715270Y604450D01*
X1715117Y604432D01*
X1714963Y604418D01*
X1714809Y604408D01*
X1714654Y604402D01*
X1714500Y604400D01*
X1714346Y604402D01*
X1714191Y604408D01*
X1714037Y604418D01*
X1713883Y604432D01*
X1713730Y604450D01*
X1713577Y604471D01*
X1713424Y604497D01*
X1713273Y604527D01*
X1713122Y604560D01*
X1712972Y604598D01*
X1712823Y604639D01*
X1712675Y604684D01*
X1712529Y604733D01*
X1712383Y604786D01*
X1712240Y604842D01*
X1712097Y604902D01*
X1711957Y604966D01*
X1711817Y605033D01*
X1711680Y605104D01*
X1711545Y605178D01*
X1711411Y605256D01*
X1711280Y605337D01*
X1711151Y605422D01*
X1711023Y605510D01*
X1710899Y605601D01*
X1710776Y605695D01*
X1710656Y605793D01*
X1710539Y605893D01*
X1710424Y605997D01*
X1710312Y606103D01*
X1710203Y606212D01*
X1710097Y606324D01*
X1709993Y606439D01*
X1709893Y606556D01*
X1709795Y606676D01*
X1709701Y606799D01*
X1709610Y606923D01*
X1709522Y607051D01*
X1709437Y607180D01*
X1709356Y607311D01*
X1709278Y607445D01*
X1709204Y607580D01*
X1709133Y607717D01*
X1709066Y607857D01*
X1709002Y607997D01*
X1708942Y608140D01*
X1708886Y608283D01*
X1708833Y608429D01*
X1708784Y608575D01*
X1708739Y608723D01*
X1708698Y608872D01*
X1708660Y609022D01*
X1708627Y609173D01*
X1708597Y609324D01*
X1708571Y609477D01*
X1708550Y609630D01*
X1708532Y609783D01*
X1708518Y609937D01*
X1708508Y610091D01*
X1708502Y610246D01*
X1708500Y610400D01*
X73660Y520700D02*
X73665Y521074D01*
X73678Y521448D01*
X73701Y521821D01*
X73733Y522194D01*
X73775Y522566D01*
X73825Y522936D01*
X73884Y523305D01*
X73953Y523673D01*
X74030Y524039D01*
X74117Y524403D01*
X74212Y524765D01*
X74316Y525124D01*
X74429Y525481D01*
X74551Y525834D01*
X74681Y526185D01*
X74820Y526532D01*
X74967Y526876D01*
X75123Y527216D01*
X75287Y527552D01*
X75460Y527884D01*
X75640Y528212D01*
X75828Y528535D01*
X76024Y528853D01*
X76228Y529167D01*
X76440Y529475D01*
X76659Y529778D01*
X76886Y530076D01*
X77119Y530368D01*
X77360Y530654D01*
X77608Y530935D01*
X77862Y531209D01*
X78124Y531476D01*
X78391Y531738D01*
X78665Y531992D01*
X78946Y532240D01*
X79232Y532481D01*
X79524Y532714D01*
X79822Y532941D01*
X80125Y533160D01*
X80433Y533372D01*
X80747Y533576D01*
X81065Y533772D01*
X81388Y533960D01*
X81716Y534140D01*
X82048Y534313D01*
X82384Y534477D01*
X82724Y534633D01*
X83068Y534780D01*
X83415Y534919D01*
X83766Y535049D01*
X84119Y535171D01*
X84476Y535284D01*
X84835Y535388D01*
X85197Y535483D01*
X85561Y535570D01*
X85927Y535647D01*
X86295Y535716D01*
X86664Y535775D01*
X87034Y535825D01*
X87406Y535867D01*
X87779Y535899D01*
X88152Y535922D01*
X88526Y535935D01*
X88900Y535940D01*
X89274Y535935D01*
X89648Y535922D01*
X90021Y535899D01*
X90394Y535867D01*
X90766Y535825D01*
X91136Y535775D01*
X91505Y535716D01*
X91873Y535647D01*
X92239Y535570D01*
X92603Y535483D01*
X92965Y535388D01*
X93324Y535284D01*
X93681Y535171D01*
X94034Y535049D01*
X94385Y534919D01*
X94732Y534780D01*
X95076Y534633D01*
X95416Y534477D01*
X95752Y534313D01*
X96084Y534140D01*
X96412Y533960D01*
X96735Y533772D01*
X97053Y533576D01*
X97367Y533372D01*
X97675Y533160D01*
X97978Y532941D01*
X98276Y532714D01*
X98568Y532481D01*
X98854Y532240D01*
X99135Y531992D01*
X99409Y531738D01*
X99676Y531476D01*
X99938Y531209D01*
X100192Y530935D01*
X100440Y530654D01*
X100681Y530368D01*
X100914Y530076D01*
X101141Y529778D01*
X101360Y529475D01*
X101572Y529167D01*
X101776Y528853D01*
X101972Y528535D01*
X102160Y528212D01*
X102340Y527884D01*
X102513Y527552D01*
X102677Y527216D01*
X102833Y526876D01*
X102980Y526532D01*
X103119Y526185D01*
X103249Y525834D01*
X103371Y525481D01*
X103484Y525124D01*
X103588Y524765D01*
X103683Y524403D01*
X103770Y524039D01*
X103847Y523673D01*
X103916Y523305D01*
X103975Y522936D01*
X104025Y522566D01*
X104067Y522194D01*
X104099Y521821D01*
X104122Y521448D01*
X104135Y521074D01*
X104140Y520700D01*
X104135Y520326D01*
X104122Y519952D01*
X104099Y519579D01*
X104067Y519206D01*
X104025Y518834D01*
X103975Y518464D01*
X103916Y518095D01*
X103847Y517727D01*
X103770Y517361D01*
X103683Y516997D01*
X103588Y516635D01*
X103484Y516276D01*
X103371Y515919D01*
X103249Y515566D01*
X103119Y515215D01*
X102980Y514868D01*
X102833Y514524D01*
X102677Y514184D01*
X102513Y513848D01*
X102340Y513516D01*
X102160Y513188D01*
X101972Y512865D01*
X101776Y512547D01*
X101572Y512233D01*
X101360Y511925D01*
X101141Y511622D01*
X100914Y511324D01*
X100681Y511032D01*
X100440Y510746D01*
X100192Y510465D01*
X99938Y510191D01*
X99676Y509924D01*
X99409Y509662D01*
X99135Y509408D01*
X98854Y509160D01*
X98568Y508919D01*
X98276Y508686D01*
X97978Y508459D01*
X97675Y508240D01*
X97367Y508028D01*
X97053Y507824D01*
X96735Y507628D01*
X96412Y507440D01*
X96084Y507260D01*
X95752Y507087D01*
X95416Y506923D01*
X95076Y506767D01*
X94732Y506620D01*
X94385Y506481D01*
X94034Y506351D01*
X93681Y506229D01*
X93324Y506116D01*
X92965Y506012D01*
X92603Y505917D01*
X92239Y505830D01*
X91873Y505753D01*
X91505Y505684D01*
X91136Y505625D01*
X90766Y505575D01*
X90394Y505533D01*
X90021Y505501D01*
X89648Y505478D01*
X89274Y505465D01*
X88900Y505460D01*
X88526Y505465D01*
X88152Y505478D01*
X87779Y505501D01*
X87406Y505533D01*
X87034Y505575D01*
X86664Y505625D01*
X86295Y505684D01*
X85927Y505753D01*
X85561Y505830D01*
X85197Y505917D01*
X84835Y506012D01*
X84476Y506116D01*
X84119Y506229D01*
X83766Y506351D01*
X83415Y506481D01*
X83068Y506620D01*
X82724Y506767D01*
X82384Y506923D01*
X82048Y507087D01*
X81716Y507260D01*
X81388Y507440D01*
X81065Y507628D01*
X80747Y507824D01*
X80433Y508028D01*
X80125Y508240D01*
X79822Y508459D01*
X79524Y508686D01*
X79232Y508919D01*
X78946Y509160D01*
X78665Y509408D01*
X78391Y509662D01*
X78124Y509924D01*
X77862Y510191D01*
X77608Y510465D01*
X77360Y510746D01*
X77119Y511032D01*
X76886Y511324D01*
X76659Y511622D01*
X76440Y511925D01*
X76228Y512233D01*
X76024Y512547D01*
X75828Y512865D01*
X75640Y513188D01*
X75460Y513516D01*
X75287Y513848D01*
X75123Y514184D01*
X74967Y514524D01*
X74820Y514868D01*
X74681Y515215D01*
X74551Y515566D01*
X74429Y515919D01*
X74316Y516276D01*
X74212Y516635D01*
X74117Y516997D01*
X74030Y517361D01*
X73953Y517727D01*
X73884Y518095D01*
X73825Y518464D01*
X73775Y518834D01*
X73733Y519206D01*
X73701Y519579D01*
X73678Y519952D01*
X73665Y520326D01*
X73660Y520700D01*
X810260Y673100D02*
X810265Y673474D01*
X810278Y673848D01*
X810301Y674221D01*
X810333Y674594D01*
X810375Y674966D01*
X810425Y675336D01*
X810484Y675705D01*
X810553Y676073D01*
X810630Y676439D01*
X810717Y676803D01*
X810812Y677165D01*
X810916Y677524D01*
X811029Y677881D01*
X811151Y678234D01*
X811281Y678585D01*
X811420Y678932D01*
X811567Y679276D01*
X811723Y679616D01*
X811887Y679952D01*
X812060Y680284D01*
X812240Y680612D01*
X812428Y680935D01*
X812624Y681253D01*
X812828Y681567D01*
X813040Y681875D01*
X813259Y682178D01*
X813486Y682476D01*
X813719Y682768D01*
X813960Y683054D01*
X814208Y683335D01*
X814462Y683609D01*
X814724Y683876D01*
X814991Y684138D01*
X815265Y684392D01*
X815546Y684640D01*
X815832Y684881D01*
X816124Y685114D01*
X816422Y685341D01*
X816725Y685560D01*
X817033Y685772D01*
X817347Y685976D01*
X817665Y686172D01*
X817988Y686360D01*
X818316Y686540D01*
X818648Y686713D01*
X818984Y686877D01*
X819324Y687033D01*
X819668Y687180D01*
X820015Y687319D01*
X820366Y687449D01*
X820719Y687571D01*
X821076Y687684D01*
X821435Y687788D01*
X821797Y687883D01*
X822161Y687970D01*
X822527Y688047D01*
X822895Y688116D01*
X823264Y688175D01*
X823634Y688225D01*
X824006Y688267D01*
X824379Y688299D01*
X824752Y688322D01*
X825126Y688335D01*
X825500Y688340D01*
X825874Y688335D01*
X826248Y688322D01*
X826621Y688299D01*
X826994Y688267D01*
X827366Y688225D01*
X827736Y688175D01*
X828105Y688116D01*
X828473Y688047D01*
X828839Y687970D01*
X829203Y687883D01*
X829565Y687788D01*
X829924Y687684D01*
X830281Y687571D01*
X830634Y687449D01*
X830985Y687319D01*
X831332Y687180D01*
X831676Y687033D01*
X832016Y686877D01*
X832352Y686713D01*
X832684Y686540D01*
X833012Y686360D01*
X833335Y686172D01*
X833653Y685976D01*
X833967Y685772D01*
X834275Y685560D01*
X834578Y685341D01*
X834876Y685114D01*
X835168Y684881D01*
X835454Y684640D01*
X835735Y684392D01*
X836009Y684138D01*
X836276Y683876D01*
X836538Y683609D01*
X836792Y683335D01*
X837040Y683054D01*
X837281Y682768D01*
X837514Y682476D01*
X837741Y682178D01*
X837960Y681875D01*
X838172Y681567D01*
X838376Y681253D01*
X838572Y680935D01*
X838760Y680612D01*
X838940Y680284D01*
X839113Y679952D01*
X839277Y679616D01*
X839433Y679276D01*
X839580Y678932D01*
X839719Y678585D01*
X839849Y678234D01*
X839971Y677881D01*
X840084Y677524D01*
X840188Y677165D01*
X840283Y676803D01*
X840370Y676439D01*
X840447Y676073D01*
X840516Y675705D01*
X840575Y675336D01*
X840625Y674966D01*
X840667Y674594D01*
X840699Y674221D01*
X840722Y673848D01*
X840735Y673474D01*
X840740Y673100D01*
X840735Y672726D01*
X840722Y672352D01*
X840699Y671979D01*
X840667Y671606D01*
X840625Y671234D01*
X840575Y670864D01*
X840516Y670495D01*
X840447Y670127D01*
X840370Y669761D01*
X840283Y669397D01*
X840188Y669035D01*
X840084Y668676D01*
X839971Y668319D01*
X839849Y667966D01*
X839719Y667615D01*
X839580Y667268D01*
X839433Y666924D01*
X839277Y666584D01*
X839113Y666248D01*
X838940Y665916D01*
X838760Y665588D01*
X838572Y665265D01*
X838376Y664947D01*
X838172Y664633D01*
X837960Y664325D01*
X837741Y664022D01*
X837514Y663724D01*
X837281Y663432D01*
X837040Y663146D01*
X836792Y662865D01*
X836538Y662591D01*
X836276Y662324D01*
X836009Y662062D01*
X835735Y661808D01*
X835454Y661560D01*
X835168Y661319D01*
X834876Y661086D01*
X834578Y660859D01*
X834275Y660640D01*
X833967Y660428D01*
X833653Y660224D01*
X833335Y660028D01*
X833012Y659840D01*
X832684Y659660D01*
X832352Y659487D01*
X832016Y659323D01*
X831676Y659167D01*
X831332Y659020D01*
X830985Y658881D01*
X830634Y658751D01*
X830281Y658629D01*
X829924Y658516D01*
X829565Y658412D01*
X829203Y658317D01*
X828839Y658230D01*
X828473Y658153D01*
X828105Y658084D01*
X827736Y658025D01*
X827366Y657975D01*
X826994Y657933D01*
X826621Y657901D01*
X826248Y657878D01*
X825874Y657865D01*
X825500Y657860D01*
X825126Y657865D01*
X824752Y657878D01*
X824379Y657901D01*
X824006Y657933D01*
X823634Y657975D01*
X823264Y658025D01*
X822895Y658084D01*
X822527Y658153D01*
X822161Y658230D01*
X821797Y658317D01*
X821435Y658412D01*
X821076Y658516D01*
X820719Y658629D01*
X820366Y658751D01*
X820015Y658881D01*
X819668Y659020D01*
X819324Y659167D01*
X818984Y659323D01*
X818648Y659487D01*
X818316Y659660D01*
X817988Y659840D01*
X817665Y660028D01*
X817347Y660224D01*
X817033Y660428D01*
X816725Y660640D01*
X816422Y660859D01*
X816124Y661086D01*
X815832Y661319D01*
X815546Y661560D01*
X815265Y661808D01*
X814991Y662062D01*
X814724Y662324D01*
X814462Y662591D01*
X814208Y662865D01*
X813960Y663146D01*
X813719Y663432D01*
X813486Y663724D01*
X813259Y664022D01*
X813040Y664325D01*
X812828Y664633D01*
X812624Y664947D01*
X812428Y665265D01*
X812240Y665588D01*
X812060Y665916D01*
X811887Y666248D01*
X811723Y666584D01*
X811567Y666924D01*
X811420Y667268D01*
X811281Y667615D01*
X811151Y667966D01*
X811029Y668319D01*
X810916Y668676D01*
X810812Y669035D01*
X810717Y669397D01*
X810630Y669761D01*
X810553Y670127D01*
X810484Y670495D01*
X810425Y670864D01*
X810375Y671234D01*
X810333Y671606D01*
X810301Y671979D01*
X810278Y672352D01*
X810265Y672726D01*
X810260Y673100D01*
X1737360Y520700D02*
X1737365Y521074D01*
X1737378Y521448D01*
X1737401Y521821D01*
X1737433Y522194D01*
X1737475Y522566D01*
X1737525Y522936D01*
X1737584Y523305D01*
X1737653Y523673D01*
X1737730Y524039D01*
X1737817Y524403D01*
X1737912Y524765D01*
X1738016Y525124D01*
X1738129Y525481D01*
X1738251Y525834D01*
X1738381Y526185D01*
X1738520Y526532D01*
X1738667Y526876D01*
X1738823Y527216D01*
X1738987Y527552D01*
X1739160Y527884D01*
X1739340Y528212D01*
X1739528Y528535D01*
X1739724Y528853D01*
X1739928Y529167D01*
X1740140Y529475D01*
X1740359Y529778D01*
X1740586Y530076D01*
X1740819Y530368D01*
X1741060Y530654D01*
X1741308Y530935D01*
X1741562Y531209D01*
X1741824Y531476D01*
X1742091Y531738D01*
X1742365Y531992D01*
X1742646Y532240D01*
X1742932Y532481D01*
X1743224Y532714D01*
X1743522Y532941D01*
X1743825Y533160D01*
X1744133Y533372D01*
X1744447Y533576D01*
X1744765Y533772D01*
X1745088Y533960D01*
X1745416Y534140D01*
X1745748Y534313D01*
X1746084Y534477D01*
X1746424Y534633D01*
X1746768Y534780D01*
X1747115Y534919D01*
X1747466Y535049D01*
X1747819Y535171D01*
X1748176Y535284D01*
X1748535Y535388D01*
X1748897Y535483D01*
X1749261Y535570D01*
X1749627Y535647D01*
X1749995Y535716D01*
X1750364Y535775D01*
X1750734Y535825D01*
X1751106Y535867D01*
X1751479Y535899D01*
X1751852Y535922D01*
X1752226Y535935D01*
X1752600Y535940D01*
X1752974Y535935D01*
X1753348Y535922D01*
X1753721Y535899D01*
X1754094Y535867D01*
X1754466Y535825D01*
X1754836Y535775D01*
X1755205Y535716D01*
X1755573Y535647D01*
X1755939Y535570D01*
X1756303Y535483D01*
X1756665Y535388D01*
X1757024Y535284D01*
X1757381Y535171D01*
X1757734Y535049D01*
X1758085Y534919D01*
X1758432Y534780D01*
X1758776Y534633D01*
X1759116Y534477D01*
X1759452Y534313D01*
X1759784Y534140D01*
X1760112Y533960D01*
X1760435Y533772D01*
X1760753Y533576D01*
X1761067Y533372D01*
X1761375Y533160D01*
X1761678Y532941D01*
X1761976Y532714D01*
X1762268Y532481D01*
X1762554Y532240D01*
X1762835Y531992D01*
X1763109Y531738D01*
X1763376Y531476D01*
X1763638Y531209D01*
X1763892Y530935D01*
X1764140Y530654D01*
X1764381Y530368D01*
X1764614Y530076D01*
X1764841Y529778D01*
X1765060Y529475D01*
X1765272Y529167D01*
X1765476Y528853D01*
X1765672Y528535D01*
X1765860Y528212D01*
X1766040Y527884D01*
X1766213Y527552D01*
X1766377Y527216D01*
X1766533Y526876D01*
X1766680Y526532D01*
X1766819Y526185D01*
X1766949Y525834D01*
X1767071Y525481D01*
X1767184Y525124D01*
X1767288Y524765D01*
X1767383Y524403D01*
X1767470Y524039D01*
X1767547Y523673D01*
X1767616Y523305D01*
X1767675Y522936D01*
X1767725Y522566D01*
X1767767Y522194D01*
X1767799Y521821D01*
X1767822Y521448D01*
X1767835Y521074D01*
X1767840Y520700D01*
X1767835Y520326D01*
X1767822Y519952D01*
X1767799Y519579D01*
X1767767Y519206D01*
X1767725Y518834D01*
X1767675Y518464D01*
X1767616Y518095D01*
X1767547Y517727D01*
X1767470Y517361D01*
X1767383Y516997D01*
X1767288Y516635D01*
X1767184Y516276D01*
X1767071Y515919D01*
X1766949Y515566D01*
X1766819Y515215D01*
X1766680Y514868D01*
X1766533Y514524D01*
X1766377Y514184D01*
X1766213Y513848D01*
X1766040Y513516D01*
X1765860Y513188D01*
X1765672Y512865D01*
X1765476Y512547D01*
X1765272Y512233D01*
X1765060Y511925D01*
X1764841Y511622D01*
X1764614Y511324D01*
X1764381Y511032D01*
X1764140Y510746D01*
X1763892Y510465D01*
X1763638Y510191D01*
X1763376Y509924D01*
X1763109Y509662D01*
X1762835Y509408D01*
X1762554Y509160D01*
X1762268Y508919D01*
X1761976Y508686D01*
X1761678Y508459D01*
X1761375Y508240D01*
X1761067Y508028D01*
X1760753Y507824D01*
X1760435Y507628D01*
X1760112Y507440D01*
X1759784Y507260D01*
X1759452Y507087D01*
X1759116Y506923D01*
X1758776Y506767D01*
X1758432Y506620D01*
X1758085Y506481D01*
X1757734Y506351D01*
X1757381Y506229D01*
X1757024Y506116D01*
X1756665Y506012D01*
X1756303Y505917D01*
X1755939Y505830D01*
X1755573Y505753D01*
X1755205Y505684D01*
X1754836Y505625D01*
X1754466Y505575D01*
X1754094Y505533D01*
X1753721Y505501D01*
X1753348Y505478D01*
X1752974Y505465D01*
X1752600Y505460D01*
X1752226Y505465D01*
X1751852Y505478D01*
X1751479Y505501D01*
X1751106Y505533D01*
X1750734Y505575D01*
X1750364Y505625D01*
X1749995Y505684D01*
X1749627Y505753D01*
X1749261Y505830D01*
X1748897Y505917D01*
X1748535Y506012D01*
X1748176Y506116D01*
X1747819Y506229D01*
X1747466Y506351D01*
X1747115Y506481D01*
X1746768Y506620D01*
X1746424Y506767D01*
X1746084Y506923D01*
X1745748Y507087D01*
X1745416Y507260D01*
X1745088Y507440D01*
X1744765Y507628D01*
X1744447Y507824D01*
X1744133Y508028D01*
X1743825Y508240D01*
X1743522Y508459D01*
X1743224Y508686D01*
X1742932Y508919D01*
X1742646Y509160D01*
X1742365Y509408D01*
X1742091Y509662D01*
X1741824Y509924D01*
X1741562Y510191D01*
X1741308Y510465D01*
X1741060Y510746D01*
X1740819Y511032D01*
X1740586Y511324D01*
X1740359Y511622D01*
X1740140Y511925D01*
X1739928Y512233D01*
X1739724Y512547D01*
X1739528Y512865D01*
X1739340Y513188D01*
X1739160Y513516D01*
X1738987Y513848D01*
X1738823Y514184D01*
X1738667Y514524D01*
X1738520Y514868D01*
X1738381Y515215D01*
X1738251Y515566D01*
X1738129Y515919D01*
X1738016Y516276D01*
X1737912Y516635D01*
X1737817Y516997D01*
X1737730Y517361D01*
X1737653Y517727D01*
X1737584Y518095D01*
X1737525Y518464D01*
X1737475Y518834D01*
X1737433Y519206D01*
X1737401Y519579D01*
X1737378Y519952D01*
X1737365Y520326D01*
X1737360Y520700D01*
D12*
X63500Y495300D02*
X1778000Y495300D01*
X1778000Y698500D01*
X63500Y698500D01*
X63500Y495300D01*
X1764163Y654400D02*
X1763493Y654475D01*
X1762836Y654625D01*
X1762200Y654848D01*
X1761593Y655140D01*
X1761023Y655499D01*
X1760496Y655919D01*
X1760019Y656396D01*
X1759599Y656923D01*
X1759240Y657493D01*
X1758948Y658100D01*
X1758725Y658736D01*
X1758575Y659393D01*
X1758500Y660063D01*
X1758500Y660737D01*
X1758575Y661407D01*
X1758725Y662064D01*
X1758948Y662700D01*
X1759240Y663307D01*
X1759599Y663878D01*
X1760019Y664404D01*
X1760496Y664881D01*
X1761023Y665301D01*
X1761593Y665660D01*
X1762200Y665952D01*
X1762836Y666175D01*
X1763493Y666325D01*
X1764163Y666400D01*
X1764837Y666400D01*
X1765507Y666325D01*
X1766164Y666175D01*
X1766800Y665952D01*
X1767407Y665660D01*
X1767978Y665301D01*
X1768504Y664881D01*
X1768981Y664404D01*
X1769401Y663878D01*
X1769760Y663307D01*
X1770052Y662700D01*
X1770275Y662064D01*
X1770425Y661407D01*
X1770500Y660737D01*
X1770500Y660063D01*
X1770425Y659393D01*
X1770275Y658736D01*
X1770052Y658100D01*
X1769760Y657493D01*
X1769401Y656923D01*
X1768981Y656396D01*
X1768504Y655919D01*
X1767978Y655499D01*
X1767407Y655140D01*
X1766800Y654848D01*
X1766164Y654625D01*
X1765507Y654475D01*
X1764837Y654400D01*
X1764163Y654400D01*
X1764163Y679400D02*
X1763493Y679475D01*
X1762836Y679625D01*
X1762200Y679848D01*
X1761593Y680140D01*
X1761023Y680499D01*
X1760496Y680919D01*
X1760019Y681396D01*
X1759599Y681923D01*
X1759240Y682493D01*
X1758948Y683100D01*
X1758725Y683736D01*
X1758575Y684393D01*
X1758500Y685063D01*
X1758500Y685737D01*
X1758575Y686407D01*
X1758725Y687064D01*
X1758948Y687700D01*
X1759240Y688307D01*
X1759599Y688878D01*
X1760019Y689404D01*
X1760496Y689881D01*
X1761023Y690301D01*
X1761593Y690660D01*
X1762200Y690952D01*
X1762836Y691175D01*
X1763493Y691325D01*
X1764163Y691400D01*
X1764837Y691400D01*
X1765507Y691325D01*
X1766164Y691175D01*
X1766800Y690952D01*
X1767407Y690660D01*
X1767978Y690301D01*
X1768504Y689881D01*
X1768981Y689404D01*
X1769401Y688878D01*
X1769760Y688307D01*
X1770052Y687700D01*
X1770275Y687064D01*
X1770425Y686407D01*
X1770500Y685737D01*
X1770500Y685063D01*
X1770425Y684393D01*
X1770275Y683736D01*
X1770052Y683100D01*
X1769760Y682493D01*
X1769401Y681923D01*
X1768981Y681396D01*
X1768504Y680919D01*
X1767978Y680499D01*
X1767407Y680140D01*
X1766800Y679848D01*
X1766164Y679625D01*
X1765507Y679475D01*
X1764837Y679400D01*
X1764163Y679400D01*
X1664163Y679400D02*
X1663493Y679475D01*
X1662836Y679625D01*
X1662200Y679848D01*
X1661593Y680140D01*
X1661023Y680499D01*
X1660496Y680919D01*
X1660019Y681396D01*
X1659599Y681923D01*
X1659240Y682493D01*
X1658948Y683100D01*
X1658725Y683736D01*
X1658575Y684393D01*
X1658500Y685063D01*
X1658500Y685737D01*
X1658575Y686407D01*
X1658725Y687064D01*
X1658948Y687700D01*
X1659240Y688307D01*
X1659599Y688878D01*
X1660019Y689404D01*
X1660496Y689881D01*
X1661023Y690301D01*
X1661593Y690660D01*
X1662200Y690952D01*
X1662836Y691175D01*
X1663493Y691325D01*
X1664163Y691400D01*
X1664837Y691400D01*
X1665507Y691325D01*
X1666164Y691175D01*
X1666800Y690952D01*
X1667407Y690660D01*
X1667978Y690301D01*
X1668504Y689881D01*
X1668981Y689404D01*
X1669401Y688878D01*
X1669760Y688307D01*
X1670052Y687700D01*
X1670275Y687064D01*
X1670425Y686407D01*
X1670500Y685737D01*
X1670500Y685063D01*
X1670425Y684393D01*
X1670275Y683736D01*
X1670052Y683100D01*
X1669760Y682493D01*
X1669401Y681923D01*
X1668981Y681396D01*
X1668504Y680919D01*
X1667978Y680499D01*
X1667407Y680140D01*
X1666800Y679848D01*
X1666164Y679625D01*
X1665507Y679475D01*
X1664837Y679400D01*
X1664163Y679400D01*
X1664163Y654400D02*
X1663493Y654475D01*
X1662836Y654625D01*
X1662200Y654848D01*
X1661593Y655140D01*
X1661023Y655499D01*
X1660496Y655919D01*
X1660019Y656396D01*
X1659599Y656923D01*
X1659240Y657493D01*
X1658948Y658100D01*
X1658725Y658736D01*
X1658575Y659393D01*
X1658500Y660063D01*
X1658500Y660737D01*
X1658575Y661407D01*
X1658725Y662064D01*
X1658948Y662700D01*
X1659240Y663307D01*
X1659599Y663878D01*
X1660019Y664404D01*
X1660496Y664881D01*
X1661023Y665301D01*
X1661593Y665660D01*
X1662200Y665952D01*
X1662836Y666175D01*
X1663493Y666325D01*
X1664163Y666400D01*
X1664837Y666400D01*
X1665507Y666325D01*
X1666164Y666175D01*
X1666800Y665952D01*
X1667407Y665660D01*
X1667978Y665301D01*
X1668504Y664881D01*
X1668981Y664404D01*
X1669401Y663878D01*
X1669760Y663307D01*
X1670052Y662700D01*
X1670275Y662064D01*
X1670425Y661407D01*
X1670500Y660737D01*
X1670500Y660063D01*
X1670425Y659393D01*
X1670275Y658736D01*
X1670052Y658100D01*
X1669760Y657493D01*
X1669401Y656923D01*
X1668981Y656396D01*
X1668504Y655919D01*
X1667978Y655499D01*
X1667407Y655140D01*
X1666800Y654848D01*
X1666164Y654625D01*
X1665507Y654475D01*
X1664837Y654400D01*
X1664163Y654400D01*
X1714163Y604400D02*
X1713493Y604475D01*
X1712836Y604625D01*
X1712200Y604848D01*
X1711593Y605140D01*
X1711023Y605499D01*
X1710496Y605919D01*
X1710019Y606396D01*
X1709599Y606923D01*
X1709240Y607493D01*
X1708948Y608100D01*
X1708725Y608736D01*
X1708575Y609393D01*
X1708500Y610063D01*
X1708500Y610737D01*
X1708575Y611407D01*
X1708725Y612064D01*
X1708948Y612700D01*
X1709240Y613307D01*
X1709599Y613878D01*
X1710019Y614404D01*
X1710496Y614881D01*
X1711023Y615301D01*
X1711593Y615660D01*
X1712200Y615952D01*
X1712836Y616175D01*
X1713493Y616325D01*
X1714163Y616400D01*
X1714837Y616400D01*
X1715507Y616325D01*
X1716164Y616175D01*
X1716800Y615952D01*
X1717407Y615660D01*
X1717978Y615301D01*
X1718504Y614881D01*
X1718981Y614404D01*
X1719401Y613878D01*
X1719760Y613307D01*
X1720052Y612700D01*
X1720275Y612064D01*
X1720425Y611407D01*
X1720500Y610737D01*
X1720500Y610063D01*
X1720425Y609393D01*
X1720275Y608736D01*
X1720052Y608100D01*
X1719760Y607493D01*
X1719401Y606923D01*
X1718981Y606396D01*
X1718504Y605919D01*
X1717978Y605499D01*
X1717407Y605140D01*
X1716800Y604848D01*
X1716164Y604625D01*
X1715507Y604475D01*
X1714837Y604400D01*
X1714163Y604400D01*
X104140Y520156D02*
X104062Y519070D01*
X103907Y517992D01*
X103676Y516929D01*
X103369Y515884D01*
X102989Y514864D01*
X102537Y513874D01*
X102015Y512919D01*
X101426Y512003D01*
X100774Y511131D01*
X100061Y510309D01*
X99291Y509539D01*
X98469Y508826D01*
X97597Y508174D01*
X96681Y507585D01*
X95726Y507063D01*
X94736Y506611D01*
X93716Y506231D01*
X92671Y505924D01*
X91608Y505693D01*
X90530Y505538D01*
X89444Y505460D01*
X88356Y505460D01*
X87270Y505538D01*
X86192Y505693D01*
X85129Y505924D01*
X84084Y506231D01*
X83064Y506611D01*
X82074Y507063D01*
X81119Y507585D01*
X80203Y508174D01*
X79331Y508826D01*
X78509Y509539D01*
X77739Y510309D01*
X77026Y511131D01*
X76374Y512003D01*
X75785Y512919D01*
X75263Y513874D01*
X74811Y514864D01*
X74431Y515884D01*
X74124Y516929D01*
X73893Y517992D01*
X73738Y519070D01*
X73660Y520156D01*
X73660Y521244D01*
X73738Y522330D01*
X73893Y523408D01*
X74124Y524471D01*
X74431Y525516D01*
X74811Y526536D01*
X75263Y527526D01*
X75785Y528481D01*
X76374Y529397D01*
X77026Y530269D01*
X77739Y531091D01*
X78509Y531861D01*
X79331Y532574D01*
X80203Y533226D01*
X81119Y533815D01*
X82074Y534337D01*
X83064Y534789D01*
X84084Y535169D01*
X85129Y535476D01*
X86192Y535707D01*
X87270Y535862D01*
X88356Y535940D01*
X89444Y535940D01*
X90530Y535862D01*
X91608Y535707D01*
X92671Y535476D01*
X93716Y535169D01*
X94736Y534789D01*
X95726Y534337D01*
X96681Y533815D01*
X97597Y533226D01*
X98469Y532574D01*
X99291Y531861D01*
X100061Y531091D01*
X100774Y530269D01*
X101426Y529397D01*
X102015Y528481D01*
X102537Y527526D01*
X102989Y526536D01*
X103369Y525516D01*
X103676Y524471D01*
X103907Y523408D01*
X104062Y522330D01*
X104140Y521244D01*
X104140Y520156D01*
X840740Y672556D02*
X840662Y671470D01*
X840507Y670392D01*
X840276Y669329D01*
X839969Y668284D01*
X839589Y667264D01*
X839137Y666274D01*
X838615Y665319D01*
X838026Y664403D01*
X837374Y663531D01*
X836661Y662709D01*
X835891Y661939D01*
X835069Y661226D01*
X834197Y660574D01*
X833281Y659985D01*
X832326Y659463D01*
X831336Y659011D01*
X830316Y658631D01*
X829271Y658324D01*
X828208Y658093D01*
X827130Y657938D01*
X826044Y657860D01*
X824956Y657860D01*
X823870Y657938D01*
X822792Y658093D01*
X821729Y658324D01*
X820684Y658631D01*
X819664Y659011D01*
X818674Y659463D01*
X817719Y659985D01*
X816803Y660574D01*
X815931Y661226D01*
X815109Y661939D01*
X814339Y662709D01*
X813626Y663531D01*
X812974Y664403D01*
X812385Y665319D01*
X811863Y666274D01*
X811411Y667264D01*
X811031Y668284D01*
X810724Y669329D01*
X810493Y670392D01*
X810338Y671470D01*
X810260Y672556D01*
X810260Y673644D01*
X810338Y674730D01*
X810493Y675808D01*
X810724Y676871D01*
X811031Y677916D01*
X811411Y678936D01*
X811863Y679926D01*
X812385Y680881D01*
X812974Y681797D01*
X813626Y682669D01*
X814339Y683491D01*
X815109Y684261D01*
X815931Y684974D01*
X816803Y685626D01*
X817719Y686215D01*
X818674Y686737D01*
X819664Y687189D01*
X820684Y687569D01*
X821729Y687876D01*
X822792Y688107D01*
X823870Y688262D01*
X824956Y688340D01*
X826044Y688340D01*
X827130Y688262D01*
X828208Y688107D01*
X829271Y687876D01*
X830316Y687569D01*
X831336Y687189D01*
X832326Y686737D01*
X833281Y686215D01*
X834197Y685626D01*
X835069Y684974D01*
X835891Y684261D01*
X836661Y683491D01*
X837374Y682669D01*
X838026Y681797D01*
X838615Y680881D01*
X839137Y679926D01*
X839589Y678936D01*
X839969Y677916D01*
X840276Y676871D01*
X840507Y675808D01*
X840662Y674730D01*
X840740Y673644D01*
X840740Y672556D01*
X1767840Y520156D02*
X1767762Y519070D01*
X1767607Y517992D01*
X1767376Y516929D01*
X1767069Y515884D01*
X1766689Y514864D01*
X1766237Y513874D01*
X1765715Y512919D01*
X1765126Y512003D01*
X1764474Y511131D01*
X1763761Y510309D01*
X1762991Y509539D01*
X1762169Y508826D01*
X1761297Y508174D01*
X1760381Y507585D01*
X1759426Y507063D01*
X1758436Y506611D01*
X1757416Y506231D01*
X1756371Y505924D01*
X1755308Y505693D01*
X1754230Y505538D01*
X1753144Y505460D01*
X1752056Y505460D01*
X1750970Y505538D01*
X1749892Y505693D01*
X1748829Y505924D01*
X1747784Y506231D01*
X1746764Y506611D01*
X1745774Y507063D01*
X1744819Y507585D01*
X1743903Y508174D01*
X1743031Y508826D01*
X1742209Y509539D01*
X1741439Y510309D01*
X1740726Y511131D01*
X1740074Y512003D01*
X1739485Y512919D01*
X1738963Y513874D01*
X1738511Y514864D01*
X1738131Y515884D01*
X1737824Y516929D01*
X1737593Y517992D01*
X1737438Y519070D01*
X1737360Y520156D01*
X1737360Y521244D01*
X1737438Y522330D01*
X1737593Y523408D01*
X1737824Y524471D01*
X1738131Y525516D01*
X1738511Y526536D01*
X1738963Y527526D01*
X1739485Y528481D01*
X1740074Y529397D01*
X1740726Y530269D01*
X1741439Y531091D01*
X1742209Y531861D01*
X1743031Y532574D01*
X1743903Y533226D01*
X1744819Y533815D01*
X1745774Y534337D01*
X1746764Y534789D01*
X1747784Y535169D01*
X1748829Y535476D01*
X1749892Y535707D01*
X1750970Y535862D01*
X1752056Y535940D01*
X1753144Y535940D01*
X1754230Y535862D01*
X1755308Y535707D01*
X1756371Y535476D01*
X1757416Y535169D01*
X1758436Y534789D01*
X1759426Y534337D01*
X1760381Y533815D01*
X1761297Y533226D01*
X1762169Y532574D01*
X1762991Y531861D01*
X1763761Y531091D01*
X1764474Y530269D01*
X1765126Y529397D01*
X1765715Y528481D01*
X1766237Y527526D01*
X1766689Y526536D01*
X1767069Y525516D01*
X1767376Y524471D01*
X1767607Y523408D01*
X1767762Y522330D01*
X1767840Y521244D01*
X1767840Y520156D01*
M02*
