G04 EAGLE Gerber RS-274X export*
G75*
%MOMM*%
%FSLAX34Y34*%
%LPD*%
%INTop Copper*%
%IPPOS*%
%AMOC8*
5,1,8,0,0,1.08239X$1,22.5*%
G01*
%ADD10C,1.879600*%
%ADD11R,1.524000X1.524000*%
%ADD12C,4.216000*%
%ADD13C,4.114800*%
%ADD14C,2.184400*%
%ADD15C,0.203200*%
%ADD16C,0.736600*%
%ADD17C,1.524000*%

G36*
X1740140Y499375D02*
X1740140Y499375D01*
X1740214Y499375D01*
X1740280Y499395D01*
X1740349Y499405D01*
X1740416Y499435D01*
X1740486Y499455D01*
X1740545Y499492D01*
X1740608Y499521D01*
X1740664Y499568D01*
X1740726Y499608D01*
X1740772Y499660D01*
X1740825Y499704D01*
X1740866Y499766D01*
X1740915Y499821D01*
X1740944Y499883D01*
X1740983Y499941D01*
X1741005Y500011D01*
X1741036Y500078D01*
X1741048Y500146D01*
X1741068Y500212D01*
X1741070Y500286D01*
X1741082Y500358D01*
X1741074Y500427D01*
X1741076Y500496D01*
X1741057Y500567D01*
X1741048Y500641D01*
X1741021Y500704D01*
X1741004Y500771D01*
X1740966Y500835D01*
X1740938Y500902D01*
X1740899Y500947D01*
X1740859Y501016D01*
X1740769Y501100D01*
X1740720Y501158D01*
X1735015Y505944D01*
X1731029Y512849D01*
X1729645Y520700D01*
X1731029Y528551D01*
X1735015Y535455D01*
X1741122Y540580D01*
X1748614Y543307D01*
X1756586Y543307D01*
X1764078Y540580D01*
X1770185Y535456D01*
X1772041Y532241D01*
X1772053Y532226D01*
X1772061Y532208D01*
X1772140Y532114D01*
X1772216Y532017D01*
X1772232Y532006D01*
X1772245Y531991D01*
X1772347Y531923D01*
X1772446Y531851D01*
X1772465Y531844D01*
X1772481Y531833D01*
X1772598Y531796D01*
X1772714Y531754D01*
X1772734Y531753D01*
X1772752Y531747D01*
X1772875Y531744D01*
X1772998Y531736D01*
X1773017Y531741D01*
X1773036Y531740D01*
X1773155Y531771D01*
X1773275Y531798D01*
X1773293Y531807D01*
X1773311Y531812D01*
X1773417Y531874D01*
X1773525Y531933D01*
X1773539Y531947D01*
X1773556Y531957D01*
X1773640Y532047D01*
X1773727Y532133D01*
X1773737Y532150D01*
X1773750Y532164D01*
X1773806Y532274D01*
X1773866Y532381D01*
X1773871Y532400D01*
X1773880Y532418D01*
X1773892Y532490D01*
X1773931Y532658D01*
X1773929Y532709D01*
X1773935Y532749D01*
X1773935Y597667D01*
X1773919Y597781D01*
X1773909Y597895D01*
X1773899Y597921D01*
X1773895Y597948D01*
X1773848Y598053D01*
X1773807Y598160D01*
X1773791Y598183D01*
X1773779Y598208D01*
X1773705Y598295D01*
X1773636Y598387D01*
X1773613Y598404D01*
X1773596Y598425D01*
X1773500Y598489D01*
X1773408Y598557D01*
X1773382Y598567D01*
X1773359Y598582D01*
X1773249Y598617D01*
X1773142Y598658D01*
X1773114Y598660D01*
X1773088Y598668D01*
X1772973Y598671D01*
X1772859Y598680D01*
X1772834Y598675D01*
X1772804Y598676D01*
X1772547Y598608D01*
X1772531Y598605D01*
X1767279Y596429D01*
X1761721Y596429D01*
X1756586Y598556D01*
X1752718Y602424D01*
X1752671Y602460D01*
X1752631Y602502D01*
X1752558Y602545D01*
X1752491Y602595D01*
X1752436Y602616D01*
X1752386Y602646D01*
X1752304Y602667D01*
X1752225Y602697D01*
X1752167Y602701D01*
X1752110Y602716D01*
X1752026Y602713D01*
X1751942Y602720D01*
X1751884Y602709D01*
X1751826Y602707D01*
X1751746Y602681D01*
X1751663Y602664D01*
X1751611Y602637D01*
X1751555Y602619D01*
X1751499Y602579D01*
X1751411Y602533D01*
X1751338Y602465D01*
X1751282Y602424D01*
X1747414Y598556D01*
X1742279Y596429D01*
X1736721Y596429D01*
X1733449Y597785D01*
X1733448Y597785D01*
X1733446Y597786D01*
X1733312Y597820D01*
X1733174Y597855D01*
X1733172Y597855D01*
X1733171Y597856D01*
X1733030Y597851D01*
X1732890Y597847D01*
X1732888Y597847D01*
X1732887Y597847D01*
X1732754Y597804D01*
X1732619Y597761D01*
X1732618Y597760D01*
X1732616Y597759D01*
X1732604Y597751D01*
X1732527Y597699D01*
X1732502Y597688D01*
X1732470Y597661D01*
X1732383Y597602D01*
X1732363Y597579D01*
X1732343Y597564D01*
X1723550Y588771D01*
X1657698Y588771D01*
X1644395Y602074D01*
X1644395Y633150D01*
X1644383Y633236D01*
X1644380Y633324D01*
X1644363Y633376D01*
X1644355Y633431D01*
X1644320Y633511D01*
X1644293Y633594D01*
X1644265Y633634D01*
X1644239Y633691D01*
X1644143Y633804D01*
X1644098Y633868D01*
X1609228Y668738D01*
X1609158Y668790D01*
X1609094Y668850D01*
X1609045Y668876D01*
X1609000Y668909D01*
X1608919Y668940D01*
X1608841Y668980D01*
X1608793Y668988D01*
X1608735Y669010D01*
X1608587Y669022D01*
X1608510Y669035D01*
X1587064Y669035D01*
X1587035Y669031D01*
X1587006Y669034D01*
X1586895Y669011D01*
X1586783Y668995D01*
X1586756Y668983D01*
X1586727Y668978D01*
X1586626Y668925D01*
X1586523Y668879D01*
X1586501Y668860D01*
X1586475Y668847D01*
X1586393Y668769D01*
X1586306Y668696D01*
X1586290Y668671D01*
X1586269Y668651D01*
X1586211Y668553D01*
X1586149Y668459D01*
X1586140Y668431D01*
X1586125Y668406D01*
X1586097Y668296D01*
X1586063Y668188D01*
X1586062Y668158D01*
X1586055Y668130D01*
X1586058Y668017D01*
X1586056Y667904D01*
X1586063Y667875D01*
X1586064Y667846D01*
X1586099Y667738D01*
X1586127Y667629D01*
X1586142Y667603D01*
X1586151Y667575D01*
X1586197Y667511D01*
X1586273Y667384D01*
X1586318Y667341D01*
X1586346Y667302D01*
X1587036Y666612D01*
X1594259Y659390D01*
X1594260Y659389D01*
X1594261Y659387D01*
X1594371Y659305D01*
X1594486Y659219D01*
X1594487Y659218D01*
X1594489Y659217D01*
X1594621Y659167D01*
X1594752Y659118D01*
X1594753Y659117D01*
X1594755Y659117D01*
X1594899Y659105D01*
X1595035Y659094D01*
X1595036Y659094D01*
X1595038Y659094D01*
X1595054Y659098D01*
X1595314Y659150D01*
X1595341Y659164D01*
X1595365Y659170D01*
X1597724Y660147D01*
X1602676Y660147D01*
X1607251Y658252D01*
X1610752Y654751D01*
X1612647Y650176D01*
X1612647Y645224D01*
X1610752Y640649D01*
X1607251Y637148D01*
X1603589Y635631D01*
X1603529Y635596D01*
X1603465Y635570D01*
X1603407Y635524D01*
X1603344Y635487D01*
X1603296Y635437D01*
X1603242Y635394D01*
X1603199Y635334D01*
X1603149Y635280D01*
X1603117Y635219D01*
X1603077Y635162D01*
X1603052Y635093D01*
X1603018Y635027D01*
X1603005Y634960D01*
X1602982Y634894D01*
X1602978Y634821D01*
X1602963Y634749D01*
X1602969Y634680D01*
X1602965Y634611D01*
X1602981Y634539D01*
X1602988Y634465D01*
X1603013Y634401D01*
X1603028Y634333D01*
X1603063Y634269D01*
X1603090Y634200D01*
X1603132Y634145D01*
X1603165Y634084D01*
X1603217Y634032D01*
X1603261Y633973D01*
X1603317Y633932D01*
X1603366Y633883D01*
X1603421Y633854D01*
X1603489Y633803D01*
X1603597Y633762D01*
X1603663Y633728D01*
X1604783Y633364D01*
X1606457Y632511D01*
X1607978Y631406D01*
X1609306Y630078D01*
X1610411Y628557D01*
X1611264Y626883D01*
X1611845Y625096D01*
X1611966Y624331D01*
X1601216Y624331D01*
X1601158Y624323D01*
X1601100Y624325D01*
X1601018Y624303D01*
X1600935Y624291D01*
X1600881Y624267D01*
X1600825Y624253D01*
X1600752Y624210D01*
X1600675Y624175D01*
X1600631Y624137D01*
X1600580Y624107D01*
X1600523Y624046D01*
X1600458Y623991D01*
X1600426Y623943D01*
X1600386Y623900D01*
X1600347Y623825D01*
X1600301Y623755D01*
X1600283Y623699D01*
X1600256Y623647D01*
X1600245Y623579D01*
X1600215Y623484D01*
X1600212Y623384D01*
X1600201Y623316D01*
X1600201Y622299D01*
X1600199Y622299D01*
X1600199Y623316D01*
X1600191Y623374D01*
X1600192Y623432D01*
X1600171Y623514D01*
X1600159Y623597D01*
X1600135Y623651D01*
X1600121Y623707D01*
X1600078Y623780D01*
X1600043Y623857D01*
X1600005Y623902D01*
X1599975Y623952D01*
X1599914Y624010D01*
X1599859Y624074D01*
X1599811Y624106D01*
X1599768Y624146D01*
X1599693Y624185D01*
X1599623Y624231D01*
X1599567Y624249D01*
X1599515Y624276D01*
X1599447Y624287D01*
X1599352Y624317D01*
X1599252Y624320D01*
X1599184Y624331D01*
X1575816Y624331D01*
X1575758Y624323D01*
X1575700Y624325D01*
X1575618Y624303D01*
X1575535Y624291D01*
X1575481Y624267D01*
X1575425Y624253D01*
X1575352Y624210D01*
X1575275Y624175D01*
X1575231Y624137D01*
X1575180Y624107D01*
X1575123Y624046D01*
X1575058Y623991D01*
X1575026Y623943D01*
X1574986Y623900D01*
X1574947Y623825D01*
X1574901Y623755D01*
X1574883Y623699D01*
X1574856Y623647D01*
X1574845Y623579D01*
X1574815Y623484D01*
X1574812Y623384D01*
X1574801Y623316D01*
X1574801Y622299D01*
X1574799Y622299D01*
X1574799Y623316D01*
X1574791Y623374D01*
X1574792Y623432D01*
X1574771Y623514D01*
X1574759Y623597D01*
X1574735Y623651D01*
X1574721Y623707D01*
X1574678Y623780D01*
X1574643Y623857D01*
X1574605Y623902D01*
X1574575Y623952D01*
X1574514Y624010D01*
X1574459Y624074D01*
X1574411Y624106D01*
X1574368Y624146D01*
X1574293Y624185D01*
X1574223Y624231D01*
X1574167Y624249D01*
X1574115Y624276D01*
X1574047Y624287D01*
X1573952Y624317D01*
X1573852Y624320D01*
X1573784Y624331D01*
X1550416Y624331D01*
X1550358Y624323D01*
X1550300Y624325D01*
X1550218Y624303D01*
X1550135Y624291D01*
X1550081Y624267D01*
X1550025Y624253D01*
X1549952Y624210D01*
X1549875Y624175D01*
X1549831Y624137D01*
X1549780Y624107D01*
X1549723Y624046D01*
X1549658Y623991D01*
X1549626Y623943D01*
X1549586Y623900D01*
X1549547Y623825D01*
X1549501Y623755D01*
X1549483Y623699D01*
X1549456Y623647D01*
X1549445Y623579D01*
X1549415Y623484D01*
X1549412Y623384D01*
X1549401Y623316D01*
X1549401Y622299D01*
X1549399Y622299D01*
X1549399Y623316D01*
X1549391Y623374D01*
X1549392Y623432D01*
X1549371Y623514D01*
X1549359Y623597D01*
X1549335Y623651D01*
X1549321Y623707D01*
X1549278Y623780D01*
X1549243Y623857D01*
X1549205Y623902D01*
X1549175Y623952D01*
X1549114Y624010D01*
X1549059Y624074D01*
X1549011Y624106D01*
X1548968Y624146D01*
X1548893Y624185D01*
X1548823Y624231D01*
X1548767Y624249D01*
X1548715Y624276D01*
X1548647Y624287D01*
X1548552Y624317D01*
X1548452Y624320D01*
X1548384Y624331D01*
X1525016Y624331D01*
X1524958Y624323D01*
X1524900Y624325D01*
X1524818Y624303D01*
X1524735Y624291D01*
X1524681Y624267D01*
X1524625Y624253D01*
X1524552Y624210D01*
X1524475Y624175D01*
X1524431Y624137D01*
X1524380Y624107D01*
X1524323Y624046D01*
X1524258Y623991D01*
X1524226Y623943D01*
X1524186Y623900D01*
X1524147Y623825D01*
X1524101Y623755D01*
X1524083Y623699D01*
X1524056Y623647D01*
X1524045Y623579D01*
X1524015Y623484D01*
X1524012Y623384D01*
X1524001Y623316D01*
X1524001Y622299D01*
X1523999Y622299D01*
X1523999Y623316D01*
X1523991Y623374D01*
X1523992Y623432D01*
X1523971Y623514D01*
X1523959Y623597D01*
X1523935Y623651D01*
X1523921Y623707D01*
X1523878Y623780D01*
X1523843Y623857D01*
X1523805Y623902D01*
X1523775Y623952D01*
X1523714Y624010D01*
X1523659Y624074D01*
X1523611Y624106D01*
X1523568Y624146D01*
X1523493Y624185D01*
X1523423Y624231D01*
X1523367Y624249D01*
X1523315Y624276D01*
X1523247Y624287D01*
X1523152Y624317D01*
X1523052Y624320D01*
X1522984Y624331D01*
X1499616Y624331D01*
X1499558Y624323D01*
X1499500Y624325D01*
X1499418Y624303D01*
X1499335Y624291D01*
X1499281Y624267D01*
X1499225Y624253D01*
X1499152Y624210D01*
X1499075Y624175D01*
X1499031Y624137D01*
X1498980Y624107D01*
X1498923Y624046D01*
X1498858Y623991D01*
X1498826Y623943D01*
X1498786Y623900D01*
X1498747Y623825D01*
X1498701Y623755D01*
X1498683Y623699D01*
X1498656Y623647D01*
X1498645Y623579D01*
X1498615Y623484D01*
X1498612Y623384D01*
X1498601Y623316D01*
X1498601Y622299D01*
X1498599Y622299D01*
X1498599Y623316D01*
X1498591Y623374D01*
X1498592Y623432D01*
X1498571Y623514D01*
X1498559Y623597D01*
X1498535Y623651D01*
X1498521Y623707D01*
X1498478Y623780D01*
X1498443Y623857D01*
X1498405Y623902D01*
X1498375Y623952D01*
X1498314Y624010D01*
X1498259Y624074D01*
X1498211Y624106D01*
X1498168Y624146D01*
X1498093Y624185D01*
X1498023Y624231D01*
X1497967Y624249D01*
X1497915Y624276D01*
X1497847Y624287D01*
X1497752Y624317D01*
X1497652Y624320D01*
X1497584Y624331D01*
X1474216Y624331D01*
X1474158Y624323D01*
X1474100Y624325D01*
X1474018Y624303D01*
X1473935Y624291D01*
X1473881Y624267D01*
X1473825Y624253D01*
X1473752Y624210D01*
X1473675Y624175D01*
X1473631Y624137D01*
X1473580Y624107D01*
X1473523Y624046D01*
X1473458Y623991D01*
X1473426Y623943D01*
X1473386Y623900D01*
X1473347Y623825D01*
X1473301Y623755D01*
X1473283Y623699D01*
X1473256Y623647D01*
X1473245Y623579D01*
X1473215Y623484D01*
X1473212Y623384D01*
X1473201Y623316D01*
X1473201Y622299D01*
X1472184Y622299D01*
X1472126Y622291D01*
X1472068Y622292D01*
X1471986Y622271D01*
X1471903Y622259D01*
X1471849Y622235D01*
X1471793Y622221D01*
X1471720Y622178D01*
X1471643Y622143D01*
X1471598Y622105D01*
X1471548Y622075D01*
X1471490Y622014D01*
X1471426Y621959D01*
X1471394Y621911D01*
X1471354Y621868D01*
X1471315Y621793D01*
X1471269Y621723D01*
X1471251Y621667D01*
X1471224Y621615D01*
X1471213Y621547D01*
X1471183Y621452D01*
X1471180Y621352D01*
X1471169Y621284D01*
X1471169Y609926D01*
X1471181Y609840D01*
X1471184Y609752D01*
X1471201Y609699D01*
X1471209Y609645D01*
X1471244Y609565D01*
X1471271Y609482D01*
X1471299Y609442D01*
X1471325Y609385D01*
X1471421Y609272D01*
X1471466Y609208D01*
X1474078Y606596D01*
X1474148Y606544D01*
X1474212Y606484D01*
X1474261Y606458D01*
X1474306Y606425D01*
X1474387Y606394D01*
X1474465Y606354D01*
X1474513Y606346D01*
X1474571Y606324D01*
X1474719Y606312D01*
X1474796Y606299D01*
X1533050Y606299D01*
X1606959Y532390D01*
X1606960Y532389D01*
X1606961Y532387D01*
X1607076Y532301D01*
X1607186Y532219D01*
X1607187Y532218D01*
X1607189Y532217D01*
X1607325Y532166D01*
X1607452Y532118D01*
X1607453Y532117D01*
X1607455Y532117D01*
X1607599Y532105D01*
X1607735Y532094D01*
X1607736Y532094D01*
X1607738Y532094D01*
X1607754Y532098D01*
X1608014Y532150D01*
X1608041Y532164D01*
X1608065Y532170D01*
X1610424Y533147D01*
X1615376Y533147D01*
X1619951Y531252D01*
X1623452Y527751D01*
X1624969Y524089D01*
X1625004Y524029D01*
X1625030Y523965D01*
X1625076Y523907D01*
X1625113Y523844D01*
X1625163Y523796D01*
X1625206Y523742D01*
X1625266Y523699D01*
X1625320Y523649D01*
X1625381Y523617D01*
X1625438Y523577D01*
X1625507Y523552D01*
X1625573Y523518D01*
X1625640Y523505D01*
X1625706Y523482D01*
X1625779Y523478D01*
X1625852Y523463D01*
X1625920Y523469D01*
X1625989Y523465D01*
X1626061Y523481D01*
X1626135Y523488D01*
X1626199Y523513D01*
X1626267Y523528D01*
X1626331Y523563D01*
X1626400Y523590D01*
X1626455Y523631D01*
X1626516Y523665D01*
X1626568Y523717D01*
X1626627Y523761D01*
X1626668Y523817D01*
X1626717Y523866D01*
X1626746Y523921D01*
X1626797Y523989D01*
X1626838Y524097D01*
X1626872Y524163D01*
X1627236Y525283D01*
X1628089Y526957D01*
X1629194Y528478D01*
X1630522Y529806D01*
X1632043Y530911D01*
X1633717Y531764D01*
X1635504Y532345D01*
X1636269Y532466D01*
X1636269Y521716D01*
X1636277Y521658D01*
X1636275Y521600D01*
X1636297Y521518D01*
X1636309Y521435D01*
X1636333Y521381D01*
X1636347Y521325D01*
X1636390Y521252D01*
X1636425Y521175D01*
X1636463Y521131D01*
X1636493Y521080D01*
X1636554Y521023D01*
X1636609Y520958D01*
X1636657Y520926D01*
X1636700Y520886D01*
X1636775Y520847D01*
X1636845Y520801D01*
X1636901Y520783D01*
X1636953Y520756D01*
X1637021Y520745D01*
X1637116Y520715D01*
X1637216Y520712D01*
X1637284Y520701D01*
X1639316Y520701D01*
X1639374Y520709D01*
X1639432Y520708D01*
X1639514Y520729D01*
X1639597Y520741D01*
X1639651Y520765D01*
X1639707Y520779D01*
X1639780Y520822D01*
X1639857Y520857D01*
X1639902Y520895D01*
X1639952Y520925D01*
X1640010Y520986D01*
X1640074Y521041D01*
X1640106Y521089D01*
X1640146Y521132D01*
X1640185Y521207D01*
X1640231Y521277D01*
X1640249Y521333D01*
X1640276Y521385D01*
X1640287Y521453D01*
X1640317Y521548D01*
X1640320Y521648D01*
X1640331Y521716D01*
X1640331Y532466D01*
X1641096Y532345D01*
X1642883Y531764D01*
X1644557Y530911D01*
X1646078Y529806D01*
X1647406Y528478D01*
X1648511Y526957D01*
X1649364Y525283D01*
X1649728Y524163D01*
X1649758Y524101D01*
X1649779Y524035D01*
X1649820Y523974D01*
X1649853Y523908D01*
X1649899Y523857D01*
X1649938Y523799D01*
X1649994Y523752D01*
X1650043Y523697D01*
X1650102Y523661D01*
X1650155Y523616D01*
X1650222Y523586D01*
X1650285Y523547D01*
X1650352Y523529D01*
X1650415Y523501D01*
X1650488Y523491D01*
X1650559Y523471D01*
X1650628Y523471D01*
X1650697Y523462D01*
X1650769Y523472D01*
X1650843Y523473D01*
X1650910Y523493D01*
X1650978Y523502D01*
X1651045Y523533D01*
X1651116Y523554D01*
X1651174Y523591D01*
X1651237Y523620D01*
X1651293Y523667D01*
X1651355Y523707D01*
X1651401Y523759D01*
X1651453Y523804D01*
X1651486Y523857D01*
X1651543Y523921D01*
X1651592Y524025D01*
X1651631Y524089D01*
X1653148Y527751D01*
X1656649Y531252D01*
X1661224Y533147D01*
X1666176Y533147D01*
X1670751Y531252D01*
X1674252Y527751D01*
X1675462Y524829D01*
X1675477Y524804D01*
X1675486Y524776D01*
X1675549Y524681D01*
X1675607Y524584D01*
X1675628Y524564D01*
X1675644Y524539D01*
X1675731Y524467D01*
X1675813Y524389D01*
X1675839Y524375D01*
X1675862Y524357D01*
X1675965Y524311D01*
X1676066Y524259D01*
X1676095Y524253D01*
X1676122Y524241D01*
X1676234Y524225D01*
X1676345Y524204D01*
X1676374Y524206D01*
X1676403Y524202D01*
X1676515Y524218D01*
X1676628Y524228D01*
X1676655Y524239D01*
X1676684Y524243D01*
X1676788Y524289D01*
X1676893Y524330D01*
X1676917Y524348D01*
X1676944Y524360D01*
X1677030Y524433D01*
X1677120Y524502D01*
X1677138Y524525D01*
X1677160Y524544D01*
X1677202Y524611D01*
X1677290Y524729D01*
X1677312Y524788D01*
X1677338Y524829D01*
X1678548Y527751D01*
X1682049Y531252D01*
X1686624Y533147D01*
X1691576Y533147D01*
X1696151Y531252D01*
X1699652Y527751D01*
X1701547Y523176D01*
X1701547Y518224D01*
X1699652Y513649D01*
X1696151Y510148D01*
X1691576Y508253D01*
X1686624Y508253D01*
X1682049Y510148D01*
X1678548Y513649D01*
X1677338Y516571D01*
X1677323Y516596D01*
X1677314Y516624D01*
X1677251Y516719D01*
X1677193Y516816D01*
X1677172Y516836D01*
X1677156Y516861D01*
X1677069Y516934D01*
X1676987Y517011D01*
X1676961Y517025D01*
X1676938Y517044D01*
X1676835Y517090D01*
X1676734Y517141D01*
X1676705Y517147D01*
X1676678Y517159D01*
X1676566Y517175D01*
X1676455Y517196D01*
X1676426Y517194D01*
X1676397Y517198D01*
X1676285Y517182D01*
X1676172Y517172D01*
X1676145Y517161D01*
X1676115Y517157D01*
X1676012Y517111D01*
X1675907Y517070D01*
X1675883Y517052D01*
X1675856Y517040D01*
X1675770Y516967D01*
X1675680Y516898D01*
X1675662Y516875D01*
X1675640Y516856D01*
X1675598Y516789D01*
X1675510Y516671D01*
X1675488Y516612D01*
X1675462Y516571D01*
X1674252Y513649D01*
X1670751Y510148D01*
X1666176Y508253D01*
X1661224Y508253D01*
X1656649Y510148D01*
X1653148Y513649D01*
X1651631Y517311D01*
X1651596Y517371D01*
X1651570Y517435D01*
X1651524Y517493D01*
X1651487Y517556D01*
X1651437Y517604D01*
X1651394Y517658D01*
X1651334Y517701D01*
X1651280Y517751D01*
X1651219Y517783D01*
X1651162Y517823D01*
X1651093Y517848D01*
X1651027Y517882D01*
X1650960Y517895D01*
X1650894Y517918D01*
X1650821Y517922D01*
X1650748Y517937D01*
X1650680Y517931D01*
X1650611Y517935D01*
X1650539Y517919D01*
X1650465Y517912D01*
X1650401Y517887D01*
X1650333Y517872D01*
X1650269Y517837D01*
X1650200Y517810D01*
X1650145Y517769D01*
X1650084Y517735D01*
X1650032Y517683D01*
X1649973Y517639D01*
X1649932Y517583D01*
X1649883Y517534D01*
X1649854Y517479D01*
X1649803Y517411D01*
X1649762Y517303D01*
X1649728Y517237D01*
X1649364Y516117D01*
X1648511Y514443D01*
X1647406Y512922D01*
X1646078Y511594D01*
X1644557Y510489D01*
X1642883Y509636D01*
X1641096Y509055D01*
X1640331Y508934D01*
X1640331Y519684D01*
X1640323Y519740D01*
X1640325Y519786D01*
X1640324Y519787D01*
X1640325Y519800D01*
X1640303Y519882D01*
X1640291Y519965D01*
X1640267Y520019D01*
X1640253Y520075D01*
X1640210Y520148D01*
X1640175Y520225D01*
X1640137Y520269D01*
X1640107Y520320D01*
X1640046Y520377D01*
X1639991Y520442D01*
X1639943Y520474D01*
X1639900Y520514D01*
X1639825Y520553D01*
X1639755Y520599D01*
X1639699Y520617D01*
X1639647Y520644D01*
X1639579Y520655D01*
X1639484Y520685D01*
X1639384Y520688D01*
X1639316Y520699D01*
X1637284Y520699D01*
X1637226Y520691D01*
X1637168Y520692D01*
X1637086Y520671D01*
X1637003Y520659D01*
X1636949Y520635D01*
X1636893Y520621D01*
X1636820Y520578D01*
X1636743Y520543D01*
X1636698Y520505D01*
X1636648Y520475D01*
X1636590Y520414D01*
X1636526Y520359D01*
X1636494Y520311D01*
X1636454Y520268D01*
X1636415Y520193D01*
X1636369Y520123D01*
X1636351Y520067D01*
X1636324Y520015D01*
X1636313Y519947D01*
X1636283Y519852D01*
X1636280Y519752D01*
X1636269Y519684D01*
X1636269Y508934D01*
X1635504Y509055D01*
X1633717Y509636D01*
X1632043Y510489D01*
X1630522Y511594D01*
X1629194Y512922D01*
X1628089Y514443D01*
X1627236Y516117D01*
X1626872Y517237D01*
X1626842Y517299D01*
X1626821Y517365D01*
X1626780Y517426D01*
X1626747Y517492D01*
X1626701Y517543D01*
X1626662Y517601D01*
X1626606Y517648D01*
X1626557Y517703D01*
X1626498Y517739D01*
X1626445Y517784D01*
X1626378Y517814D01*
X1626315Y517853D01*
X1626248Y517871D01*
X1626185Y517899D01*
X1626112Y517909D01*
X1626041Y517929D01*
X1625972Y517929D01*
X1625903Y517938D01*
X1625831Y517928D01*
X1625757Y517927D01*
X1625690Y517907D01*
X1625622Y517898D01*
X1625555Y517867D01*
X1625484Y517846D01*
X1625426Y517809D01*
X1625363Y517780D01*
X1625307Y517733D01*
X1625245Y517693D01*
X1625199Y517641D01*
X1625147Y517596D01*
X1625114Y517543D01*
X1625057Y517479D01*
X1625008Y517375D01*
X1624969Y517311D01*
X1623452Y513649D01*
X1619951Y510148D01*
X1615376Y508253D01*
X1610424Y508253D01*
X1605849Y510148D01*
X1602348Y513649D01*
X1601138Y516571D01*
X1601123Y516596D01*
X1601114Y516624D01*
X1601051Y516719D01*
X1600993Y516816D01*
X1600972Y516836D01*
X1600956Y516861D01*
X1600869Y516934D01*
X1600787Y517011D01*
X1600761Y517025D01*
X1600738Y517044D01*
X1600635Y517090D01*
X1600534Y517141D01*
X1600505Y517147D01*
X1600478Y517159D01*
X1600366Y517175D01*
X1600255Y517196D01*
X1600226Y517194D01*
X1600197Y517198D01*
X1600085Y517182D01*
X1599972Y517172D01*
X1599945Y517161D01*
X1599915Y517157D01*
X1599812Y517111D01*
X1599707Y517070D01*
X1599683Y517052D01*
X1599656Y517040D01*
X1599570Y516967D01*
X1599480Y516898D01*
X1599462Y516875D01*
X1599440Y516856D01*
X1599398Y516789D01*
X1599310Y516671D01*
X1599288Y516612D01*
X1599262Y516571D01*
X1598052Y513649D01*
X1594551Y510148D01*
X1589976Y508253D01*
X1585024Y508253D01*
X1580449Y510148D01*
X1576948Y513649D01*
X1575431Y517311D01*
X1575396Y517371D01*
X1575370Y517435D01*
X1575324Y517493D01*
X1575287Y517556D01*
X1575237Y517604D01*
X1575194Y517658D01*
X1575134Y517701D01*
X1575080Y517751D01*
X1575019Y517783D01*
X1574962Y517823D01*
X1574893Y517848D01*
X1574827Y517882D01*
X1574760Y517895D01*
X1574694Y517918D01*
X1574621Y517922D01*
X1574548Y517937D01*
X1574480Y517931D01*
X1574411Y517935D01*
X1574339Y517919D01*
X1574265Y517912D01*
X1574201Y517887D01*
X1574133Y517872D01*
X1574069Y517837D01*
X1574000Y517810D01*
X1573945Y517769D01*
X1573884Y517735D01*
X1573832Y517683D01*
X1573773Y517639D01*
X1573732Y517583D01*
X1573683Y517534D01*
X1573654Y517479D01*
X1573603Y517411D01*
X1573562Y517303D01*
X1573528Y517237D01*
X1573164Y516117D01*
X1572311Y514443D01*
X1571206Y512922D01*
X1569878Y511594D01*
X1568357Y510489D01*
X1566683Y509636D01*
X1564896Y509055D01*
X1564131Y508934D01*
X1564131Y519684D01*
X1564123Y519740D01*
X1564125Y519786D01*
X1564124Y519787D01*
X1564125Y519800D01*
X1564103Y519882D01*
X1564091Y519965D01*
X1564067Y520019D01*
X1564053Y520075D01*
X1564010Y520148D01*
X1563975Y520225D01*
X1563937Y520269D01*
X1563907Y520320D01*
X1563846Y520377D01*
X1563791Y520442D01*
X1563743Y520474D01*
X1563700Y520514D01*
X1563625Y520553D01*
X1563555Y520599D01*
X1563499Y520617D01*
X1563447Y520644D01*
X1563379Y520655D01*
X1563284Y520685D01*
X1563184Y520688D01*
X1563116Y520699D01*
X1561084Y520699D01*
X1561026Y520691D01*
X1560968Y520692D01*
X1560886Y520671D01*
X1560803Y520659D01*
X1560749Y520635D01*
X1560693Y520621D01*
X1560620Y520578D01*
X1560543Y520543D01*
X1560498Y520505D01*
X1560448Y520475D01*
X1560390Y520414D01*
X1560326Y520359D01*
X1560294Y520311D01*
X1560254Y520268D01*
X1560215Y520193D01*
X1560169Y520123D01*
X1560151Y520067D01*
X1560124Y520015D01*
X1560113Y519947D01*
X1560083Y519852D01*
X1560080Y519752D01*
X1560069Y519684D01*
X1560069Y508934D01*
X1559304Y509055D01*
X1557517Y509636D01*
X1555843Y510489D01*
X1554322Y511594D01*
X1552994Y512922D01*
X1551889Y514443D01*
X1551036Y516117D01*
X1550672Y517237D01*
X1550642Y517299D01*
X1550621Y517365D01*
X1550580Y517426D01*
X1550547Y517492D01*
X1550501Y517543D01*
X1550462Y517601D01*
X1550406Y517648D01*
X1550357Y517703D01*
X1550298Y517739D01*
X1550245Y517784D01*
X1550178Y517814D01*
X1550115Y517853D01*
X1550048Y517871D01*
X1549985Y517899D01*
X1549912Y517909D01*
X1549841Y517929D01*
X1549772Y517929D01*
X1549703Y517938D01*
X1549631Y517928D01*
X1549557Y517927D01*
X1549490Y517907D01*
X1549422Y517898D01*
X1549355Y517867D01*
X1549284Y517846D01*
X1549226Y517809D01*
X1549163Y517780D01*
X1549107Y517733D01*
X1549045Y517693D01*
X1548999Y517641D01*
X1548947Y517596D01*
X1548914Y517543D01*
X1548857Y517479D01*
X1548808Y517375D01*
X1548769Y517311D01*
X1547252Y513649D01*
X1543751Y510148D01*
X1539176Y508253D01*
X1534224Y508253D01*
X1529649Y510148D01*
X1526148Y513649D01*
X1524938Y516571D01*
X1524923Y516596D01*
X1524914Y516624D01*
X1524851Y516719D01*
X1524793Y516816D01*
X1524772Y516836D01*
X1524756Y516861D01*
X1524669Y516934D01*
X1524587Y517011D01*
X1524561Y517025D01*
X1524538Y517044D01*
X1524435Y517090D01*
X1524334Y517141D01*
X1524305Y517147D01*
X1524278Y517159D01*
X1524166Y517175D01*
X1524055Y517196D01*
X1524026Y517194D01*
X1523997Y517198D01*
X1523885Y517182D01*
X1523772Y517172D01*
X1523745Y517161D01*
X1523715Y517157D01*
X1523612Y517111D01*
X1523507Y517070D01*
X1523483Y517052D01*
X1523456Y517040D01*
X1523370Y516967D01*
X1523280Y516898D01*
X1523262Y516875D01*
X1523240Y516856D01*
X1523198Y516789D01*
X1523110Y516671D01*
X1523088Y516612D01*
X1523062Y516571D01*
X1521852Y513649D01*
X1518351Y510148D01*
X1513776Y508253D01*
X1508824Y508253D01*
X1504249Y510148D01*
X1500748Y513649D01*
X1499231Y517311D01*
X1499196Y517371D01*
X1499170Y517435D01*
X1499124Y517493D01*
X1499087Y517556D01*
X1499037Y517604D01*
X1498994Y517658D01*
X1498934Y517701D01*
X1498880Y517751D01*
X1498819Y517783D01*
X1498762Y517823D01*
X1498693Y517848D01*
X1498627Y517882D01*
X1498560Y517895D01*
X1498494Y517918D01*
X1498421Y517922D01*
X1498348Y517937D01*
X1498280Y517931D01*
X1498211Y517935D01*
X1498139Y517919D01*
X1498065Y517912D01*
X1498001Y517887D01*
X1497933Y517872D01*
X1497869Y517837D01*
X1497800Y517810D01*
X1497745Y517769D01*
X1497684Y517735D01*
X1497632Y517683D01*
X1497573Y517639D01*
X1497532Y517583D01*
X1497483Y517534D01*
X1497454Y517479D01*
X1497403Y517411D01*
X1497362Y517303D01*
X1497328Y517237D01*
X1496964Y516117D01*
X1496111Y514443D01*
X1495006Y512922D01*
X1493678Y511594D01*
X1492157Y510489D01*
X1490483Y509636D01*
X1488696Y509055D01*
X1487931Y508934D01*
X1487931Y519684D01*
X1487923Y519740D01*
X1487925Y519786D01*
X1487924Y519787D01*
X1487925Y519800D01*
X1487903Y519882D01*
X1487891Y519965D01*
X1487867Y520019D01*
X1487853Y520075D01*
X1487810Y520148D01*
X1487775Y520225D01*
X1487737Y520269D01*
X1487707Y520320D01*
X1487646Y520377D01*
X1487591Y520442D01*
X1487543Y520474D01*
X1487500Y520514D01*
X1487425Y520553D01*
X1487355Y520599D01*
X1487299Y520617D01*
X1487247Y520644D01*
X1487179Y520655D01*
X1487084Y520685D01*
X1486984Y520688D01*
X1486916Y520699D01*
X1484884Y520699D01*
X1484826Y520691D01*
X1484768Y520692D01*
X1484686Y520671D01*
X1484603Y520659D01*
X1484549Y520635D01*
X1484493Y520621D01*
X1484420Y520578D01*
X1484343Y520543D01*
X1484298Y520505D01*
X1484248Y520475D01*
X1484190Y520414D01*
X1484126Y520359D01*
X1484094Y520311D01*
X1484054Y520268D01*
X1484015Y520193D01*
X1483969Y520123D01*
X1483951Y520067D01*
X1483924Y520015D01*
X1483913Y519947D01*
X1483883Y519852D01*
X1483880Y519752D01*
X1483869Y519684D01*
X1483869Y508934D01*
X1483104Y509055D01*
X1481317Y509636D01*
X1479643Y510489D01*
X1478122Y511594D01*
X1476794Y512922D01*
X1475689Y514443D01*
X1474836Y516117D01*
X1474472Y517237D01*
X1474442Y517299D01*
X1474421Y517365D01*
X1474380Y517426D01*
X1474347Y517492D01*
X1474301Y517543D01*
X1474262Y517601D01*
X1474206Y517648D01*
X1474157Y517703D01*
X1474098Y517739D01*
X1474045Y517784D01*
X1473978Y517814D01*
X1473915Y517853D01*
X1473848Y517871D01*
X1473785Y517899D01*
X1473712Y517909D01*
X1473641Y517929D01*
X1473572Y517929D01*
X1473503Y517938D01*
X1473431Y517928D01*
X1473357Y517927D01*
X1473290Y517907D01*
X1473222Y517898D01*
X1473155Y517867D01*
X1473084Y517846D01*
X1473026Y517809D01*
X1472963Y517780D01*
X1472907Y517733D01*
X1472845Y517693D01*
X1472799Y517641D01*
X1472747Y517596D01*
X1472714Y517543D01*
X1472657Y517479D01*
X1472608Y517375D01*
X1472569Y517311D01*
X1471052Y513649D01*
X1467551Y510148D01*
X1462976Y508253D01*
X1458024Y508253D01*
X1453449Y510148D01*
X1449948Y513649D01*
X1448053Y518224D01*
X1448053Y523176D01*
X1449948Y527751D01*
X1451070Y528872D01*
X1451087Y528896D01*
X1451110Y528915D01*
X1451173Y529009D01*
X1451241Y529099D01*
X1451251Y529127D01*
X1451267Y529151D01*
X1451302Y529259D01*
X1451342Y529365D01*
X1451344Y529394D01*
X1451353Y529422D01*
X1451356Y529536D01*
X1451365Y529648D01*
X1451360Y529677D01*
X1451360Y529706D01*
X1451332Y529816D01*
X1451310Y529927D01*
X1451296Y529953D01*
X1451289Y529981D01*
X1451231Y530079D01*
X1451179Y530179D01*
X1451158Y530201D01*
X1451143Y530226D01*
X1451061Y530303D01*
X1450983Y530385D01*
X1450957Y530400D01*
X1450936Y530420D01*
X1450835Y530472D01*
X1450738Y530529D01*
X1450709Y530536D01*
X1450683Y530550D01*
X1450606Y530563D01*
X1450462Y530599D01*
X1450400Y530597D01*
X1450352Y530605D01*
X1432548Y530605D01*
X1432519Y530601D01*
X1432490Y530604D01*
X1432379Y530581D01*
X1432267Y530565D01*
X1432240Y530553D01*
X1432211Y530548D01*
X1432110Y530495D01*
X1432007Y530449D01*
X1431985Y530430D01*
X1431959Y530417D01*
X1431877Y530339D01*
X1431790Y530266D01*
X1431774Y530241D01*
X1431753Y530221D01*
X1431695Y530123D01*
X1431633Y530029D01*
X1431624Y530001D01*
X1431609Y529976D01*
X1431581Y529866D01*
X1431547Y529758D01*
X1431546Y529728D01*
X1431539Y529700D01*
X1431542Y529587D01*
X1431540Y529474D01*
X1431547Y529445D01*
X1431548Y529416D01*
X1431583Y529308D01*
X1431611Y529199D01*
X1431626Y529173D01*
X1431635Y529145D01*
X1431681Y529081D01*
X1431757Y528954D01*
X1431802Y528911D01*
X1431830Y528872D01*
X1432952Y527751D01*
X1434847Y523176D01*
X1434847Y518224D01*
X1432952Y513649D01*
X1429451Y510148D01*
X1424876Y508253D01*
X1419924Y508253D01*
X1415349Y510148D01*
X1411848Y513649D01*
X1410638Y516571D01*
X1410623Y516596D01*
X1410614Y516624D01*
X1410551Y516719D01*
X1410493Y516816D01*
X1410472Y516836D01*
X1410456Y516861D01*
X1410369Y516934D01*
X1410287Y517011D01*
X1410261Y517025D01*
X1410238Y517044D01*
X1410135Y517090D01*
X1410034Y517141D01*
X1410005Y517147D01*
X1409978Y517159D01*
X1409866Y517175D01*
X1409755Y517196D01*
X1409726Y517194D01*
X1409697Y517198D01*
X1409585Y517182D01*
X1409472Y517172D01*
X1409445Y517161D01*
X1409415Y517157D01*
X1409312Y517111D01*
X1409207Y517070D01*
X1409183Y517052D01*
X1409156Y517040D01*
X1409070Y516967D01*
X1408980Y516898D01*
X1408962Y516875D01*
X1408940Y516856D01*
X1408898Y516789D01*
X1408810Y516671D01*
X1408788Y516612D01*
X1408762Y516571D01*
X1407552Y513649D01*
X1404051Y510148D01*
X1399476Y508253D01*
X1394524Y508253D01*
X1389949Y510148D01*
X1386448Y513649D01*
X1384931Y517311D01*
X1384896Y517371D01*
X1384870Y517435D01*
X1384824Y517493D01*
X1384787Y517556D01*
X1384737Y517604D01*
X1384694Y517658D01*
X1384634Y517701D01*
X1384580Y517751D01*
X1384519Y517783D01*
X1384462Y517823D01*
X1384393Y517848D01*
X1384327Y517882D01*
X1384260Y517895D01*
X1384194Y517918D01*
X1384121Y517922D01*
X1384048Y517937D01*
X1383980Y517931D01*
X1383911Y517935D01*
X1383839Y517919D01*
X1383765Y517912D01*
X1383701Y517887D01*
X1383633Y517872D01*
X1383569Y517837D01*
X1383500Y517810D01*
X1383445Y517768D01*
X1383384Y517735D01*
X1383332Y517683D01*
X1383273Y517639D01*
X1383232Y517583D01*
X1383183Y517534D01*
X1383154Y517479D01*
X1383103Y517411D01*
X1383062Y517303D01*
X1383028Y517237D01*
X1382664Y516117D01*
X1381811Y514443D01*
X1380706Y512922D01*
X1379378Y511594D01*
X1377857Y510489D01*
X1376183Y509636D01*
X1374396Y509055D01*
X1373631Y508934D01*
X1373631Y519684D01*
X1373623Y519740D01*
X1373625Y519786D01*
X1373624Y519787D01*
X1373625Y519800D01*
X1373603Y519882D01*
X1373591Y519965D01*
X1373567Y520019D01*
X1373553Y520075D01*
X1373510Y520148D01*
X1373475Y520225D01*
X1373437Y520269D01*
X1373407Y520320D01*
X1373346Y520377D01*
X1373291Y520442D01*
X1373243Y520474D01*
X1373200Y520514D01*
X1373125Y520553D01*
X1373055Y520599D01*
X1372999Y520617D01*
X1372947Y520644D01*
X1372879Y520655D01*
X1372784Y520685D01*
X1372684Y520688D01*
X1372616Y520699D01*
X1370584Y520699D01*
X1370526Y520691D01*
X1370468Y520692D01*
X1370386Y520671D01*
X1370303Y520659D01*
X1370249Y520635D01*
X1370193Y520621D01*
X1370120Y520578D01*
X1370043Y520543D01*
X1369998Y520505D01*
X1369948Y520475D01*
X1369890Y520414D01*
X1369826Y520359D01*
X1369794Y520311D01*
X1369754Y520268D01*
X1369715Y520193D01*
X1369669Y520123D01*
X1369651Y520067D01*
X1369624Y520015D01*
X1369613Y519947D01*
X1369583Y519852D01*
X1369580Y519752D01*
X1369569Y519684D01*
X1369569Y508934D01*
X1368804Y509055D01*
X1367017Y509636D01*
X1365343Y510489D01*
X1363822Y511594D01*
X1362494Y512922D01*
X1361389Y514443D01*
X1360536Y516117D01*
X1360172Y517237D01*
X1360142Y517299D01*
X1360121Y517365D01*
X1360080Y517426D01*
X1360047Y517492D01*
X1360001Y517543D01*
X1359962Y517601D01*
X1359906Y517648D01*
X1359857Y517703D01*
X1359798Y517739D01*
X1359745Y517784D01*
X1359677Y517814D01*
X1359615Y517852D01*
X1359548Y517871D01*
X1359485Y517899D01*
X1359412Y517909D01*
X1359341Y517929D01*
X1359272Y517929D01*
X1359203Y517938D01*
X1359130Y517928D01*
X1359057Y517927D01*
X1358991Y517907D01*
X1358922Y517897D01*
X1358855Y517867D01*
X1358784Y517846D01*
X1358726Y517809D01*
X1358663Y517780D01*
X1358607Y517733D01*
X1358545Y517693D01*
X1358499Y517641D01*
X1358447Y517596D01*
X1358414Y517543D01*
X1358357Y517479D01*
X1358308Y517375D01*
X1358269Y517311D01*
X1356752Y513649D01*
X1353251Y510148D01*
X1348676Y508253D01*
X1343724Y508253D01*
X1339149Y510148D01*
X1335648Y513649D01*
X1334438Y516571D01*
X1334423Y516596D01*
X1334414Y516624D01*
X1334351Y516719D01*
X1334293Y516816D01*
X1334272Y516836D01*
X1334256Y516861D01*
X1334169Y516934D01*
X1334087Y517011D01*
X1334061Y517025D01*
X1334038Y517044D01*
X1333935Y517090D01*
X1333834Y517141D01*
X1333805Y517147D01*
X1333778Y517159D01*
X1333666Y517175D01*
X1333555Y517196D01*
X1333526Y517194D01*
X1333497Y517198D01*
X1333385Y517182D01*
X1333272Y517172D01*
X1333245Y517161D01*
X1333215Y517157D01*
X1333112Y517111D01*
X1333007Y517070D01*
X1332983Y517052D01*
X1332956Y517040D01*
X1332870Y516967D01*
X1332780Y516898D01*
X1332762Y516875D01*
X1332740Y516856D01*
X1332698Y516789D01*
X1332610Y516671D01*
X1332588Y516612D01*
X1332562Y516571D01*
X1331352Y513649D01*
X1327851Y510148D01*
X1323276Y508253D01*
X1318324Y508253D01*
X1313749Y510148D01*
X1310248Y513649D01*
X1308731Y517311D01*
X1308696Y517371D01*
X1308670Y517435D01*
X1308624Y517493D01*
X1308587Y517556D01*
X1308537Y517604D01*
X1308494Y517658D01*
X1308434Y517701D01*
X1308380Y517751D01*
X1308319Y517783D01*
X1308262Y517823D01*
X1308193Y517848D01*
X1308127Y517882D01*
X1308060Y517895D01*
X1307994Y517918D01*
X1307921Y517922D01*
X1307848Y517937D01*
X1307780Y517931D01*
X1307711Y517935D01*
X1307639Y517919D01*
X1307565Y517912D01*
X1307501Y517887D01*
X1307433Y517872D01*
X1307369Y517837D01*
X1307300Y517810D01*
X1307245Y517768D01*
X1307184Y517735D01*
X1307132Y517683D01*
X1307073Y517639D01*
X1307032Y517583D01*
X1306983Y517534D01*
X1306954Y517479D01*
X1306903Y517411D01*
X1306862Y517303D01*
X1306828Y517237D01*
X1306464Y516117D01*
X1305611Y514443D01*
X1304506Y512922D01*
X1303178Y511594D01*
X1301657Y510489D01*
X1299983Y509636D01*
X1298196Y509055D01*
X1297431Y508934D01*
X1297431Y519684D01*
X1297423Y519740D01*
X1297425Y519786D01*
X1297424Y519787D01*
X1297425Y519800D01*
X1297403Y519882D01*
X1297391Y519965D01*
X1297367Y520019D01*
X1297353Y520075D01*
X1297310Y520148D01*
X1297275Y520225D01*
X1297237Y520269D01*
X1297207Y520320D01*
X1297146Y520377D01*
X1297091Y520442D01*
X1297043Y520474D01*
X1297000Y520514D01*
X1296925Y520553D01*
X1296855Y520599D01*
X1296799Y520617D01*
X1296747Y520644D01*
X1296679Y520655D01*
X1296584Y520685D01*
X1296484Y520688D01*
X1296416Y520699D01*
X1294384Y520699D01*
X1294326Y520691D01*
X1294268Y520692D01*
X1294186Y520671D01*
X1294103Y520659D01*
X1294049Y520635D01*
X1293993Y520621D01*
X1293920Y520578D01*
X1293843Y520543D01*
X1293798Y520505D01*
X1293748Y520475D01*
X1293690Y520414D01*
X1293626Y520359D01*
X1293594Y520311D01*
X1293554Y520268D01*
X1293515Y520193D01*
X1293469Y520123D01*
X1293451Y520067D01*
X1293424Y520015D01*
X1293413Y519947D01*
X1293383Y519852D01*
X1293380Y519752D01*
X1293369Y519684D01*
X1293369Y508934D01*
X1292604Y509055D01*
X1290817Y509636D01*
X1289143Y510489D01*
X1287622Y511594D01*
X1286294Y512922D01*
X1285189Y514443D01*
X1284336Y516117D01*
X1283972Y517237D01*
X1283942Y517299D01*
X1283921Y517365D01*
X1283880Y517426D01*
X1283847Y517492D01*
X1283801Y517543D01*
X1283762Y517601D01*
X1283706Y517648D01*
X1283657Y517703D01*
X1283598Y517739D01*
X1283545Y517784D01*
X1283478Y517814D01*
X1283415Y517853D01*
X1283348Y517871D01*
X1283285Y517899D01*
X1283212Y517909D01*
X1283141Y517929D01*
X1283072Y517929D01*
X1283003Y517938D01*
X1282931Y517928D01*
X1282857Y517927D01*
X1282790Y517907D01*
X1282722Y517898D01*
X1282655Y517867D01*
X1282584Y517846D01*
X1282526Y517809D01*
X1282463Y517780D01*
X1282407Y517733D01*
X1282345Y517693D01*
X1282299Y517641D01*
X1282247Y517596D01*
X1282214Y517543D01*
X1282157Y517479D01*
X1282108Y517375D01*
X1282069Y517311D01*
X1280552Y513649D01*
X1277051Y510148D01*
X1272476Y508253D01*
X1267524Y508253D01*
X1262949Y510148D01*
X1259448Y513649D01*
X1258238Y516571D01*
X1258223Y516596D01*
X1258214Y516624D01*
X1258151Y516719D01*
X1258093Y516816D01*
X1258072Y516836D01*
X1258056Y516861D01*
X1257969Y516934D01*
X1257887Y517011D01*
X1257861Y517025D01*
X1257838Y517044D01*
X1257735Y517090D01*
X1257634Y517141D01*
X1257605Y517147D01*
X1257578Y517159D01*
X1257466Y517175D01*
X1257355Y517196D01*
X1257326Y517194D01*
X1257297Y517198D01*
X1257185Y517182D01*
X1257072Y517172D01*
X1257045Y517161D01*
X1257015Y517157D01*
X1256912Y517111D01*
X1256807Y517070D01*
X1256783Y517052D01*
X1256756Y517040D01*
X1256670Y516967D01*
X1256580Y516898D01*
X1256562Y516875D01*
X1256540Y516856D01*
X1256498Y516789D01*
X1256410Y516671D01*
X1256388Y516612D01*
X1256362Y516571D01*
X1255152Y513649D01*
X1251651Y510148D01*
X1247076Y508253D01*
X1242124Y508253D01*
X1237549Y510148D01*
X1234048Y513649D01*
X1232531Y517311D01*
X1232496Y517371D01*
X1232470Y517435D01*
X1232424Y517493D01*
X1232387Y517556D01*
X1232337Y517604D01*
X1232294Y517658D01*
X1232234Y517701D01*
X1232180Y517751D01*
X1232119Y517783D01*
X1232062Y517823D01*
X1231993Y517848D01*
X1231927Y517882D01*
X1231860Y517895D01*
X1231794Y517918D01*
X1231721Y517922D01*
X1231648Y517937D01*
X1231580Y517931D01*
X1231511Y517935D01*
X1231439Y517919D01*
X1231365Y517912D01*
X1231301Y517887D01*
X1231233Y517872D01*
X1231169Y517837D01*
X1231100Y517810D01*
X1231045Y517769D01*
X1230984Y517735D01*
X1230932Y517683D01*
X1230873Y517639D01*
X1230832Y517583D01*
X1230783Y517534D01*
X1230754Y517479D01*
X1230703Y517411D01*
X1230662Y517303D01*
X1230628Y517237D01*
X1230264Y516117D01*
X1229411Y514443D01*
X1228306Y512922D01*
X1226978Y511594D01*
X1225457Y510489D01*
X1223783Y509636D01*
X1221996Y509055D01*
X1221231Y508934D01*
X1221231Y519684D01*
X1221223Y519740D01*
X1221225Y519786D01*
X1221224Y519787D01*
X1221225Y519800D01*
X1221203Y519882D01*
X1221191Y519965D01*
X1221167Y520019D01*
X1221153Y520075D01*
X1221110Y520148D01*
X1221075Y520225D01*
X1221037Y520269D01*
X1221007Y520320D01*
X1220946Y520377D01*
X1220891Y520442D01*
X1220843Y520474D01*
X1220800Y520514D01*
X1220725Y520553D01*
X1220655Y520599D01*
X1220599Y520617D01*
X1220547Y520644D01*
X1220479Y520655D01*
X1220384Y520685D01*
X1220284Y520688D01*
X1220216Y520699D01*
X1218184Y520699D01*
X1218126Y520691D01*
X1218068Y520692D01*
X1217986Y520671D01*
X1217903Y520659D01*
X1217849Y520635D01*
X1217793Y520621D01*
X1217720Y520578D01*
X1217643Y520543D01*
X1217598Y520505D01*
X1217548Y520475D01*
X1217490Y520414D01*
X1217426Y520359D01*
X1217394Y520311D01*
X1217354Y520268D01*
X1217315Y520193D01*
X1217269Y520123D01*
X1217251Y520067D01*
X1217224Y520015D01*
X1217213Y519947D01*
X1217183Y519852D01*
X1217180Y519752D01*
X1217169Y519684D01*
X1217169Y508934D01*
X1216404Y509055D01*
X1214617Y509636D01*
X1212943Y510489D01*
X1211422Y511594D01*
X1210094Y512922D01*
X1208989Y514443D01*
X1208136Y516117D01*
X1207772Y517237D01*
X1207742Y517299D01*
X1207721Y517365D01*
X1207680Y517426D01*
X1207647Y517492D01*
X1207601Y517543D01*
X1207562Y517601D01*
X1207506Y517648D01*
X1207457Y517703D01*
X1207398Y517739D01*
X1207345Y517784D01*
X1207278Y517814D01*
X1207215Y517853D01*
X1207148Y517871D01*
X1207085Y517899D01*
X1207012Y517909D01*
X1206941Y517929D01*
X1206872Y517929D01*
X1206803Y517938D01*
X1206731Y517928D01*
X1206657Y517927D01*
X1206590Y517907D01*
X1206522Y517898D01*
X1206455Y517867D01*
X1206384Y517846D01*
X1206326Y517809D01*
X1206263Y517780D01*
X1206207Y517733D01*
X1206145Y517693D01*
X1206099Y517641D01*
X1206047Y517596D01*
X1206014Y517543D01*
X1205957Y517479D01*
X1205908Y517375D01*
X1205869Y517311D01*
X1204352Y513649D01*
X1200851Y510148D01*
X1196276Y508253D01*
X1191324Y508253D01*
X1186749Y510148D01*
X1183248Y513649D01*
X1181353Y518224D01*
X1181353Y523176D01*
X1183248Y527751D01*
X1186749Y531252D01*
X1191324Y533147D01*
X1196276Y533147D01*
X1200851Y531252D01*
X1204352Y527751D01*
X1205869Y524089D01*
X1205904Y524029D01*
X1205930Y523965D01*
X1205976Y523907D01*
X1206013Y523844D01*
X1206063Y523796D01*
X1206106Y523742D01*
X1206166Y523699D01*
X1206220Y523649D01*
X1206281Y523617D01*
X1206338Y523577D01*
X1206407Y523552D01*
X1206473Y523518D01*
X1206540Y523505D01*
X1206606Y523482D01*
X1206679Y523478D01*
X1206752Y523463D01*
X1206820Y523469D01*
X1206889Y523465D01*
X1206961Y523481D01*
X1207035Y523488D01*
X1207099Y523513D01*
X1207167Y523528D01*
X1207231Y523563D01*
X1207300Y523590D01*
X1207355Y523631D01*
X1207416Y523665D01*
X1207468Y523717D01*
X1207527Y523761D01*
X1207568Y523817D01*
X1207617Y523866D01*
X1207646Y523921D01*
X1207697Y523989D01*
X1207738Y524097D01*
X1207772Y524163D01*
X1208136Y525283D01*
X1208989Y526957D01*
X1210094Y528478D01*
X1211422Y529806D01*
X1212943Y530911D01*
X1214617Y531764D01*
X1216404Y532345D01*
X1217169Y532466D01*
X1217169Y521716D01*
X1217177Y521658D01*
X1217175Y521600D01*
X1217197Y521518D01*
X1217209Y521435D01*
X1217233Y521381D01*
X1217247Y521325D01*
X1217290Y521252D01*
X1217325Y521175D01*
X1217363Y521131D01*
X1217393Y521080D01*
X1217454Y521023D01*
X1217509Y520958D01*
X1217557Y520926D01*
X1217600Y520886D01*
X1217675Y520847D01*
X1217745Y520801D01*
X1217801Y520783D01*
X1217853Y520756D01*
X1217921Y520745D01*
X1218016Y520715D01*
X1218116Y520712D01*
X1218184Y520701D01*
X1220216Y520701D01*
X1220274Y520709D01*
X1220332Y520708D01*
X1220414Y520729D01*
X1220497Y520741D01*
X1220551Y520765D01*
X1220607Y520779D01*
X1220680Y520822D01*
X1220757Y520857D01*
X1220802Y520895D01*
X1220852Y520925D01*
X1220910Y520986D01*
X1220974Y521041D01*
X1221006Y521089D01*
X1221046Y521132D01*
X1221085Y521207D01*
X1221131Y521277D01*
X1221149Y521333D01*
X1221176Y521385D01*
X1221187Y521453D01*
X1221217Y521548D01*
X1221220Y521648D01*
X1221231Y521716D01*
X1221231Y532466D01*
X1221996Y532345D01*
X1223783Y531764D01*
X1225457Y530911D01*
X1226978Y529806D01*
X1228306Y528478D01*
X1229411Y526957D01*
X1230264Y525283D01*
X1230628Y524163D01*
X1230658Y524101D01*
X1230679Y524035D01*
X1230720Y523974D01*
X1230753Y523908D01*
X1230799Y523857D01*
X1230838Y523799D01*
X1230894Y523752D01*
X1230943Y523697D01*
X1231002Y523661D01*
X1231055Y523616D01*
X1231122Y523586D01*
X1231185Y523547D01*
X1231252Y523529D01*
X1231315Y523501D01*
X1231388Y523491D01*
X1231459Y523471D01*
X1231528Y523471D01*
X1231596Y523462D01*
X1231669Y523472D01*
X1231743Y523473D01*
X1231810Y523493D01*
X1231878Y523502D01*
X1231945Y523533D01*
X1232016Y523554D01*
X1232074Y523591D01*
X1232137Y523620D01*
X1232193Y523667D01*
X1232255Y523707D01*
X1232301Y523759D01*
X1232353Y523804D01*
X1232386Y523857D01*
X1232443Y523921D01*
X1232492Y524025D01*
X1232531Y524089D01*
X1233854Y527282D01*
X1233862Y527312D01*
X1233876Y527339D01*
X1233889Y527417D01*
X1233925Y527557D01*
X1233923Y527621D01*
X1233931Y527670D01*
X1233931Y553706D01*
X1233919Y553793D01*
X1233916Y553880D01*
X1233899Y553933D01*
X1233891Y553988D01*
X1233856Y554068D01*
X1233829Y554151D01*
X1233801Y554190D01*
X1233775Y554247D01*
X1233679Y554361D01*
X1233634Y554424D01*
X1220158Y567900D01*
X1220088Y567952D01*
X1220025Y568012D01*
X1219975Y568038D01*
X1219931Y568071D01*
X1219849Y568102D01*
X1219771Y568142D01*
X1219724Y568150D01*
X1219665Y568172D01*
X1219518Y568184D01*
X1219440Y568197D01*
X991122Y568197D01*
X991093Y568193D01*
X991063Y568196D01*
X990952Y568173D01*
X990840Y568157D01*
X990813Y568145D01*
X990785Y568140D01*
X990684Y568088D01*
X990581Y568041D01*
X990558Y568022D01*
X990532Y568009D01*
X990450Y567931D01*
X990364Y567858D01*
X990347Y567833D01*
X990326Y567813D01*
X990269Y567715D01*
X990206Y567621D01*
X990197Y567593D01*
X990182Y567568D01*
X990155Y567458D01*
X990120Y567350D01*
X990120Y567320D01*
X990112Y567292D01*
X990116Y567179D01*
X990113Y567066D01*
X990120Y567037D01*
X990121Y567008D01*
X990156Y566900D01*
X990185Y566791D01*
X990200Y566765D01*
X990209Y566737D01*
X990254Y566674D01*
X990330Y566546D01*
X990376Y566503D01*
X990404Y566464D01*
X1012345Y544523D01*
X1013969Y540602D01*
X1013969Y527670D01*
X1013973Y527640D01*
X1013971Y527609D01*
X1013988Y527532D01*
X1014009Y527389D01*
X1014035Y527330D01*
X1014046Y527282D01*
X1015369Y524089D01*
X1015404Y524029D01*
X1015430Y523965D01*
X1015476Y523907D01*
X1015513Y523844D01*
X1015563Y523796D01*
X1015606Y523742D01*
X1015666Y523699D01*
X1015720Y523649D01*
X1015781Y523617D01*
X1015838Y523577D01*
X1015907Y523552D01*
X1015973Y523518D01*
X1016040Y523505D01*
X1016106Y523482D01*
X1016179Y523478D01*
X1016252Y523463D01*
X1016320Y523469D01*
X1016389Y523465D01*
X1016461Y523481D01*
X1016535Y523488D01*
X1016599Y523513D01*
X1016667Y523528D01*
X1016731Y523563D01*
X1016800Y523590D01*
X1016855Y523632D01*
X1016916Y523665D01*
X1016968Y523717D01*
X1017027Y523761D01*
X1017068Y523817D01*
X1017117Y523866D01*
X1017146Y523921D01*
X1017197Y523989D01*
X1017238Y524097D01*
X1017272Y524163D01*
X1017636Y525283D01*
X1018489Y526957D01*
X1019594Y528478D01*
X1020922Y529806D01*
X1022443Y530911D01*
X1024117Y531764D01*
X1025904Y532345D01*
X1026669Y532466D01*
X1026669Y521716D01*
X1026677Y521658D01*
X1026675Y521600D01*
X1026697Y521518D01*
X1026709Y521435D01*
X1026733Y521381D01*
X1026747Y521325D01*
X1026790Y521252D01*
X1026825Y521175D01*
X1026863Y521131D01*
X1026893Y521080D01*
X1026954Y521023D01*
X1027009Y520958D01*
X1027057Y520926D01*
X1027100Y520886D01*
X1027175Y520847D01*
X1027245Y520801D01*
X1027301Y520783D01*
X1027353Y520756D01*
X1027421Y520745D01*
X1027516Y520715D01*
X1027616Y520712D01*
X1027684Y520701D01*
X1029716Y520701D01*
X1029774Y520709D01*
X1029832Y520708D01*
X1029914Y520729D01*
X1029997Y520741D01*
X1030051Y520765D01*
X1030107Y520779D01*
X1030180Y520822D01*
X1030257Y520857D01*
X1030302Y520895D01*
X1030352Y520925D01*
X1030410Y520986D01*
X1030474Y521041D01*
X1030506Y521089D01*
X1030546Y521132D01*
X1030585Y521207D01*
X1030631Y521277D01*
X1030649Y521333D01*
X1030676Y521385D01*
X1030687Y521453D01*
X1030717Y521548D01*
X1030720Y521648D01*
X1030731Y521716D01*
X1030731Y532466D01*
X1031496Y532345D01*
X1033283Y531764D01*
X1034957Y530911D01*
X1036478Y529806D01*
X1037806Y528478D01*
X1038911Y526957D01*
X1039764Y525283D01*
X1040128Y524163D01*
X1040158Y524101D01*
X1040179Y524035D01*
X1040220Y523974D01*
X1040253Y523908D01*
X1040299Y523857D01*
X1040338Y523799D01*
X1040394Y523752D01*
X1040443Y523697D01*
X1040502Y523661D01*
X1040555Y523616D01*
X1040623Y523586D01*
X1040685Y523547D01*
X1040752Y523529D01*
X1040815Y523501D01*
X1040888Y523491D01*
X1040959Y523471D01*
X1041028Y523471D01*
X1041097Y523462D01*
X1041170Y523472D01*
X1041243Y523473D01*
X1041309Y523493D01*
X1041378Y523502D01*
X1041445Y523533D01*
X1041516Y523554D01*
X1041574Y523591D01*
X1041637Y523620D01*
X1041693Y523667D01*
X1041755Y523707D01*
X1041801Y523759D01*
X1041853Y523804D01*
X1041886Y523857D01*
X1041943Y523921D01*
X1041992Y524025D01*
X1042031Y524089D01*
X1043548Y527751D01*
X1047049Y531252D01*
X1051624Y533147D01*
X1056576Y533147D01*
X1061151Y531252D01*
X1064652Y527751D01*
X1065862Y524829D01*
X1065877Y524804D01*
X1065886Y524776D01*
X1065949Y524681D01*
X1066007Y524584D01*
X1066028Y524564D01*
X1066044Y524539D01*
X1066131Y524466D01*
X1066213Y524389D01*
X1066239Y524375D01*
X1066262Y524356D01*
X1066365Y524310D01*
X1066466Y524259D01*
X1066495Y524253D01*
X1066522Y524241D01*
X1066634Y524225D01*
X1066745Y524204D01*
X1066774Y524206D01*
X1066803Y524202D01*
X1066915Y524218D01*
X1067028Y524228D01*
X1067055Y524239D01*
X1067084Y524243D01*
X1067188Y524289D01*
X1067293Y524330D01*
X1067317Y524348D01*
X1067344Y524360D01*
X1067430Y524433D01*
X1067520Y524502D01*
X1067538Y524525D01*
X1067560Y524544D01*
X1067602Y524611D01*
X1067690Y524729D01*
X1067712Y524788D01*
X1067738Y524829D01*
X1068948Y527751D01*
X1072449Y531252D01*
X1077024Y533147D01*
X1081976Y533147D01*
X1086551Y531252D01*
X1090052Y527751D01*
X1091569Y524089D01*
X1091604Y524029D01*
X1091630Y523965D01*
X1091676Y523907D01*
X1091713Y523844D01*
X1091763Y523796D01*
X1091806Y523742D01*
X1091866Y523699D01*
X1091920Y523649D01*
X1091981Y523617D01*
X1092038Y523577D01*
X1092107Y523552D01*
X1092173Y523518D01*
X1092240Y523505D01*
X1092306Y523482D01*
X1092379Y523478D01*
X1092452Y523463D01*
X1092520Y523469D01*
X1092589Y523465D01*
X1092661Y523481D01*
X1092735Y523488D01*
X1092799Y523513D01*
X1092867Y523528D01*
X1092931Y523563D01*
X1093000Y523590D01*
X1093055Y523631D01*
X1093116Y523665D01*
X1093168Y523717D01*
X1093227Y523761D01*
X1093268Y523817D01*
X1093317Y523866D01*
X1093346Y523921D01*
X1093397Y523989D01*
X1093438Y524097D01*
X1093472Y524163D01*
X1093836Y525283D01*
X1094689Y526957D01*
X1095794Y528478D01*
X1097122Y529806D01*
X1098643Y530911D01*
X1100317Y531764D01*
X1102104Y532345D01*
X1102869Y532466D01*
X1102869Y521716D01*
X1102877Y521658D01*
X1102875Y521600D01*
X1102897Y521518D01*
X1102909Y521435D01*
X1102933Y521381D01*
X1102947Y521325D01*
X1102990Y521252D01*
X1103025Y521175D01*
X1103063Y521131D01*
X1103093Y521080D01*
X1103154Y521023D01*
X1103209Y520958D01*
X1103257Y520926D01*
X1103300Y520886D01*
X1103375Y520847D01*
X1103445Y520801D01*
X1103501Y520783D01*
X1103553Y520756D01*
X1103621Y520745D01*
X1103716Y520715D01*
X1103816Y520712D01*
X1103884Y520701D01*
X1105916Y520701D01*
X1105974Y520709D01*
X1106032Y520708D01*
X1106114Y520729D01*
X1106197Y520741D01*
X1106251Y520765D01*
X1106307Y520779D01*
X1106380Y520822D01*
X1106457Y520857D01*
X1106502Y520895D01*
X1106552Y520925D01*
X1106610Y520986D01*
X1106674Y521041D01*
X1106706Y521089D01*
X1106746Y521132D01*
X1106785Y521207D01*
X1106831Y521277D01*
X1106849Y521333D01*
X1106876Y521385D01*
X1106887Y521453D01*
X1106917Y521548D01*
X1106920Y521648D01*
X1106931Y521716D01*
X1106931Y532466D01*
X1107696Y532345D01*
X1109483Y531764D01*
X1111157Y530911D01*
X1112678Y529806D01*
X1114006Y528478D01*
X1115111Y526957D01*
X1115964Y525283D01*
X1116328Y524163D01*
X1116358Y524101D01*
X1116379Y524035D01*
X1116420Y523974D01*
X1116453Y523908D01*
X1116499Y523857D01*
X1116538Y523799D01*
X1116594Y523752D01*
X1116643Y523697D01*
X1116702Y523661D01*
X1116755Y523616D01*
X1116822Y523586D01*
X1116885Y523547D01*
X1116952Y523529D01*
X1117015Y523501D01*
X1117088Y523491D01*
X1117159Y523471D01*
X1117228Y523471D01*
X1117297Y523462D01*
X1117369Y523472D01*
X1117443Y523473D01*
X1117510Y523493D01*
X1117578Y523502D01*
X1117645Y523533D01*
X1117716Y523554D01*
X1117774Y523591D01*
X1117837Y523620D01*
X1117893Y523667D01*
X1117955Y523707D01*
X1118001Y523759D01*
X1118053Y523804D01*
X1118086Y523857D01*
X1118143Y523921D01*
X1118192Y524025D01*
X1118231Y524089D01*
X1119748Y527751D01*
X1123249Y531252D01*
X1127824Y533147D01*
X1132776Y533147D01*
X1137351Y531252D01*
X1140852Y527751D01*
X1142062Y524829D01*
X1142077Y524804D01*
X1142086Y524776D01*
X1142149Y524681D01*
X1142207Y524584D01*
X1142228Y524564D01*
X1142244Y524539D01*
X1142331Y524466D01*
X1142413Y524389D01*
X1142439Y524375D01*
X1142462Y524356D01*
X1142565Y524310D01*
X1142666Y524259D01*
X1142695Y524253D01*
X1142722Y524241D01*
X1142834Y524225D01*
X1142945Y524204D01*
X1142974Y524206D01*
X1143003Y524202D01*
X1143115Y524218D01*
X1143228Y524228D01*
X1143255Y524239D01*
X1143284Y524243D01*
X1143388Y524289D01*
X1143493Y524330D01*
X1143517Y524348D01*
X1143544Y524360D01*
X1143630Y524433D01*
X1143720Y524502D01*
X1143738Y524525D01*
X1143760Y524544D01*
X1143802Y524611D01*
X1143890Y524729D01*
X1143912Y524788D01*
X1143938Y524829D01*
X1145148Y527751D01*
X1148649Y531252D01*
X1153224Y533147D01*
X1158176Y533147D01*
X1162751Y531252D01*
X1166252Y527751D01*
X1168147Y523176D01*
X1168147Y518224D01*
X1166252Y513649D01*
X1162751Y510148D01*
X1158176Y508253D01*
X1153224Y508253D01*
X1148649Y510148D01*
X1145148Y513649D01*
X1143938Y516571D01*
X1143923Y516596D01*
X1143914Y516624D01*
X1143851Y516719D01*
X1143793Y516816D01*
X1143772Y516836D01*
X1143756Y516861D01*
X1143669Y516934D01*
X1143587Y517011D01*
X1143561Y517025D01*
X1143538Y517044D01*
X1143435Y517090D01*
X1143334Y517141D01*
X1143305Y517147D01*
X1143278Y517159D01*
X1143166Y517175D01*
X1143055Y517196D01*
X1143026Y517194D01*
X1142997Y517198D01*
X1142885Y517182D01*
X1142772Y517172D01*
X1142745Y517161D01*
X1142715Y517157D01*
X1142612Y517111D01*
X1142507Y517070D01*
X1142483Y517052D01*
X1142456Y517040D01*
X1142370Y516967D01*
X1142280Y516898D01*
X1142262Y516875D01*
X1142240Y516856D01*
X1142198Y516789D01*
X1142110Y516671D01*
X1142088Y516612D01*
X1142062Y516571D01*
X1140852Y513649D01*
X1137351Y510148D01*
X1132776Y508253D01*
X1127824Y508253D01*
X1123249Y510148D01*
X1119748Y513649D01*
X1118231Y517311D01*
X1118196Y517371D01*
X1118170Y517435D01*
X1118124Y517493D01*
X1118087Y517556D01*
X1118037Y517604D01*
X1117994Y517658D01*
X1117934Y517701D01*
X1117880Y517751D01*
X1117819Y517783D01*
X1117762Y517823D01*
X1117693Y517848D01*
X1117627Y517882D01*
X1117560Y517895D01*
X1117494Y517918D01*
X1117421Y517922D01*
X1117348Y517937D01*
X1117280Y517931D01*
X1117211Y517935D01*
X1117139Y517919D01*
X1117065Y517912D01*
X1117001Y517887D01*
X1116933Y517872D01*
X1116869Y517837D01*
X1116800Y517810D01*
X1116745Y517769D01*
X1116684Y517735D01*
X1116632Y517683D01*
X1116573Y517639D01*
X1116532Y517583D01*
X1116483Y517534D01*
X1116454Y517479D01*
X1116403Y517411D01*
X1116362Y517303D01*
X1116328Y517237D01*
X1115964Y516117D01*
X1115111Y514443D01*
X1114006Y512922D01*
X1112678Y511594D01*
X1111157Y510489D01*
X1109483Y509636D01*
X1107696Y509055D01*
X1106931Y508934D01*
X1106931Y519684D01*
X1106923Y519740D01*
X1106925Y519786D01*
X1106924Y519787D01*
X1106925Y519800D01*
X1106903Y519882D01*
X1106891Y519965D01*
X1106867Y520019D01*
X1106853Y520075D01*
X1106810Y520148D01*
X1106775Y520225D01*
X1106737Y520269D01*
X1106707Y520320D01*
X1106646Y520377D01*
X1106591Y520442D01*
X1106543Y520474D01*
X1106500Y520514D01*
X1106425Y520553D01*
X1106355Y520599D01*
X1106299Y520617D01*
X1106247Y520644D01*
X1106179Y520655D01*
X1106084Y520685D01*
X1105984Y520688D01*
X1105916Y520699D01*
X1103884Y520699D01*
X1103826Y520691D01*
X1103768Y520692D01*
X1103686Y520671D01*
X1103603Y520659D01*
X1103549Y520635D01*
X1103493Y520621D01*
X1103420Y520578D01*
X1103343Y520543D01*
X1103298Y520505D01*
X1103248Y520475D01*
X1103190Y520414D01*
X1103126Y520359D01*
X1103094Y520311D01*
X1103054Y520268D01*
X1103015Y520193D01*
X1102969Y520123D01*
X1102951Y520067D01*
X1102924Y520015D01*
X1102913Y519947D01*
X1102883Y519852D01*
X1102880Y519752D01*
X1102869Y519684D01*
X1102869Y508934D01*
X1102104Y509055D01*
X1100317Y509636D01*
X1098643Y510489D01*
X1097122Y511594D01*
X1095794Y512922D01*
X1094689Y514443D01*
X1093836Y516117D01*
X1093472Y517237D01*
X1093442Y517299D01*
X1093421Y517365D01*
X1093380Y517426D01*
X1093347Y517492D01*
X1093301Y517543D01*
X1093262Y517601D01*
X1093206Y517648D01*
X1093157Y517703D01*
X1093098Y517739D01*
X1093045Y517784D01*
X1092978Y517814D01*
X1092915Y517853D01*
X1092848Y517871D01*
X1092785Y517899D01*
X1092712Y517909D01*
X1092641Y517929D01*
X1092572Y517929D01*
X1092503Y517938D01*
X1092431Y517928D01*
X1092357Y517927D01*
X1092290Y517907D01*
X1092222Y517898D01*
X1092155Y517867D01*
X1092084Y517846D01*
X1092026Y517809D01*
X1091963Y517780D01*
X1091907Y517733D01*
X1091845Y517693D01*
X1091799Y517641D01*
X1091747Y517596D01*
X1091714Y517543D01*
X1091657Y517479D01*
X1091608Y517375D01*
X1091569Y517311D01*
X1090052Y513649D01*
X1086551Y510148D01*
X1081976Y508253D01*
X1077024Y508253D01*
X1072449Y510148D01*
X1068948Y513649D01*
X1067738Y516571D01*
X1067723Y516596D01*
X1067714Y516624D01*
X1067651Y516719D01*
X1067593Y516816D01*
X1067572Y516836D01*
X1067556Y516861D01*
X1067469Y516934D01*
X1067387Y517011D01*
X1067361Y517025D01*
X1067338Y517044D01*
X1067235Y517090D01*
X1067134Y517141D01*
X1067105Y517147D01*
X1067078Y517159D01*
X1066966Y517175D01*
X1066855Y517196D01*
X1066826Y517194D01*
X1066797Y517198D01*
X1066685Y517182D01*
X1066572Y517172D01*
X1066545Y517161D01*
X1066515Y517157D01*
X1066412Y517111D01*
X1066307Y517070D01*
X1066283Y517052D01*
X1066256Y517040D01*
X1066170Y516967D01*
X1066080Y516898D01*
X1066062Y516875D01*
X1066040Y516856D01*
X1065998Y516789D01*
X1065910Y516671D01*
X1065888Y516612D01*
X1065862Y516571D01*
X1064652Y513649D01*
X1061151Y510148D01*
X1056576Y508253D01*
X1051624Y508253D01*
X1047049Y510148D01*
X1043548Y513649D01*
X1042031Y517311D01*
X1041996Y517371D01*
X1041970Y517435D01*
X1041924Y517493D01*
X1041887Y517556D01*
X1041837Y517604D01*
X1041794Y517658D01*
X1041734Y517701D01*
X1041680Y517751D01*
X1041619Y517783D01*
X1041562Y517823D01*
X1041493Y517848D01*
X1041427Y517882D01*
X1041360Y517895D01*
X1041294Y517918D01*
X1041221Y517922D01*
X1041149Y517937D01*
X1041080Y517931D01*
X1041011Y517935D01*
X1040939Y517919D01*
X1040865Y517912D01*
X1040801Y517887D01*
X1040733Y517872D01*
X1040669Y517837D01*
X1040600Y517810D01*
X1040545Y517768D01*
X1040484Y517735D01*
X1040432Y517683D01*
X1040373Y517639D01*
X1040332Y517583D01*
X1040283Y517534D01*
X1040254Y517479D01*
X1040203Y517411D01*
X1040162Y517303D01*
X1040128Y517237D01*
X1039764Y516117D01*
X1038911Y514443D01*
X1037806Y512922D01*
X1036478Y511594D01*
X1034957Y510489D01*
X1033283Y509636D01*
X1031496Y509055D01*
X1030731Y508934D01*
X1030731Y519684D01*
X1030723Y519740D01*
X1030725Y519786D01*
X1030724Y519787D01*
X1030725Y519800D01*
X1030703Y519882D01*
X1030691Y519965D01*
X1030667Y520019D01*
X1030653Y520075D01*
X1030610Y520148D01*
X1030575Y520225D01*
X1030537Y520269D01*
X1030507Y520320D01*
X1030446Y520377D01*
X1030391Y520442D01*
X1030343Y520474D01*
X1030300Y520514D01*
X1030225Y520553D01*
X1030155Y520599D01*
X1030099Y520617D01*
X1030047Y520644D01*
X1029979Y520655D01*
X1029884Y520685D01*
X1029784Y520688D01*
X1029716Y520699D01*
X1027684Y520699D01*
X1027626Y520691D01*
X1027568Y520692D01*
X1027486Y520671D01*
X1027403Y520659D01*
X1027349Y520635D01*
X1027293Y520621D01*
X1027220Y520578D01*
X1027143Y520543D01*
X1027098Y520505D01*
X1027048Y520475D01*
X1026990Y520414D01*
X1026926Y520359D01*
X1026894Y520311D01*
X1026854Y520268D01*
X1026815Y520193D01*
X1026769Y520123D01*
X1026751Y520067D01*
X1026724Y520015D01*
X1026713Y519947D01*
X1026683Y519852D01*
X1026680Y519752D01*
X1026669Y519684D01*
X1026669Y508934D01*
X1025904Y509055D01*
X1024117Y509636D01*
X1022443Y510489D01*
X1020922Y511594D01*
X1019594Y512922D01*
X1018489Y514443D01*
X1017636Y516117D01*
X1017272Y517237D01*
X1017242Y517299D01*
X1017221Y517365D01*
X1017180Y517426D01*
X1017147Y517492D01*
X1017101Y517543D01*
X1017062Y517601D01*
X1017006Y517648D01*
X1016957Y517703D01*
X1016898Y517739D01*
X1016845Y517784D01*
X1016778Y517814D01*
X1016715Y517853D01*
X1016648Y517871D01*
X1016585Y517899D01*
X1016512Y517909D01*
X1016441Y517929D01*
X1016372Y517929D01*
X1016303Y517938D01*
X1016231Y517928D01*
X1016157Y517927D01*
X1016090Y517907D01*
X1016022Y517898D01*
X1015955Y517867D01*
X1015884Y517846D01*
X1015826Y517809D01*
X1015763Y517780D01*
X1015707Y517733D01*
X1015645Y517693D01*
X1015599Y517641D01*
X1015547Y517596D01*
X1015514Y517543D01*
X1015457Y517479D01*
X1015408Y517375D01*
X1015369Y517311D01*
X1013852Y513649D01*
X1010351Y510148D01*
X1005776Y508253D01*
X1000824Y508253D01*
X996249Y510148D01*
X992748Y513649D01*
X991538Y516571D01*
X991523Y516596D01*
X991514Y516624D01*
X991451Y516719D01*
X991393Y516816D01*
X991372Y516836D01*
X991356Y516861D01*
X991269Y516934D01*
X991187Y517011D01*
X991161Y517025D01*
X991138Y517044D01*
X991035Y517090D01*
X990934Y517141D01*
X990905Y517147D01*
X990878Y517159D01*
X990766Y517175D01*
X990655Y517196D01*
X990626Y517194D01*
X990597Y517198D01*
X990485Y517182D01*
X990372Y517172D01*
X990345Y517161D01*
X990315Y517157D01*
X990212Y517111D01*
X990107Y517070D01*
X990083Y517052D01*
X990056Y517040D01*
X989970Y516967D01*
X989880Y516898D01*
X989862Y516875D01*
X989840Y516856D01*
X989798Y516789D01*
X989710Y516671D01*
X989688Y516612D01*
X989662Y516571D01*
X988452Y513649D01*
X984951Y510148D01*
X980376Y508253D01*
X975424Y508253D01*
X970849Y510148D01*
X967348Y513649D01*
X965831Y517311D01*
X965796Y517371D01*
X965770Y517435D01*
X965724Y517493D01*
X965687Y517556D01*
X965637Y517604D01*
X965594Y517658D01*
X965534Y517701D01*
X965480Y517751D01*
X965419Y517783D01*
X965362Y517823D01*
X965293Y517848D01*
X965227Y517882D01*
X965160Y517895D01*
X965094Y517918D01*
X965021Y517922D01*
X964948Y517937D01*
X964880Y517931D01*
X964811Y517935D01*
X964739Y517919D01*
X964665Y517912D01*
X964601Y517887D01*
X964533Y517872D01*
X964469Y517837D01*
X964400Y517810D01*
X964345Y517768D01*
X964284Y517735D01*
X964232Y517683D01*
X964173Y517639D01*
X964132Y517583D01*
X964083Y517534D01*
X964054Y517479D01*
X964003Y517411D01*
X963962Y517303D01*
X963928Y517237D01*
X963564Y516117D01*
X962711Y514443D01*
X961606Y512922D01*
X960278Y511594D01*
X958757Y510489D01*
X957083Y509636D01*
X955296Y509055D01*
X954531Y508934D01*
X954531Y519684D01*
X954523Y519740D01*
X954525Y519786D01*
X954524Y519787D01*
X954525Y519800D01*
X954503Y519882D01*
X954491Y519965D01*
X954467Y520019D01*
X954453Y520075D01*
X954410Y520148D01*
X954375Y520225D01*
X954337Y520269D01*
X954307Y520320D01*
X954246Y520377D01*
X954191Y520442D01*
X954143Y520474D01*
X954100Y520514D01*
X954025Y520553D01*
X953955Y520599D01*
X953899Y520617D01*
X953847Y520644D01*
X953779Y520655D01*
X953684Y520685D01*
X953584Y520688D01*
X953516Y520699D01*
X951484Y520699D01*
X951426Y520691D01*
X951368Y520692D01*
X951286Y520671D01*
X951203Y520659D01*
X951149Y520635D01*
X951093Y520621D01*
X951020Y520578D01*
X950943Y520543D01*
X950898Y520505D01*
X950848Y520475D01*
X950790Y520414D01*
X950726Y520359D01*
X950694Y520311D01*
X950654Y520268D01*
X950615Y520193D01*
X950569Y520123D01*
X950551Y520067D01*
X950524Y520015D01*
X950513Y519947D01*
X950483Y519852D01*
X950480Y519752D01*
X950469Y519684D01*
X950469Y508934D01*
X949704Y509055D01*
X947917Y509636D01*
X946243Y510489D01*
X944722Y511594D01*
X943394Y512922D01*
X942289Y514443D01*
X941436Y516117D01*
X941072Y517237D01*
X941042Y517299D01*
X941021Y517365D01*
X940980Y517426D01*
X940947Y517492D01*
X940901Y517543D01*
X940862Y517601D01*
X940806Y517648D01*
X940757Y517703D01*
X940698Y517739D01*
X940645Y517784D01*
X940577Y517814D01*
X940515Y517852D01*
X940448Y517871D01*
X940385Y517899D01*
X940312Y517909D01*
X940241Y517929D01*
X940172Y517929D01*
X940103Y517938D01*
X940030Y517928D01*
X939957Y517927D01*
X939891Y517907D01*
X939822Y517897D01*
X939755Y517867D01*
X939684Y517846D01*
X939626Y517809D01*
X939563Y517780D01*
X939507Y517733D01*
X939445Y517693D01*
X939399Y517641D01*
X939347Y517596D01*
X939314Y517543D01*
X939257Y517479D01*
X939208Y517375D01*
X939169Y517311D01*
X937652Y513649D01*
X934151Y510148D01*
X929576Y508253D01*
X924624Y508253D01*
X920049Y510148D01*
X916548Y513649D01*
X914653Y518224D01*
X914653Y523176D01*
X916548Y527751D01*
X918940Y530142D01*
X918950Y530156D01*
X918957Y530162D01*
X918963Y530170D01*
X918980Y530185D01*
X919043Y530279D01*
X919111Y530369D01*
X919121Y530397D01*
X919137Y530421D01*
X919172Y530529D01*
X919212Y530635D01*
X919214Y530664D01*
X919223Y530692D01*
X919226Y530806D01*
X919235Y530918D01*
X919230Y530947D01*
X919230Y530976D01*
X919202Y531086D01*
X919180Y531197D01*
X919166Y531223D01*
X919159Y531251D01*
X919101Y531349D01*
X919049Y531449D01*
X919028Y531471D01*
X919013Y531496D01*
X918931Y531573D01*
X918853Y531655D01*
X918827Y531670D01*
X918806Y531690D01*
X918705Y531742D01*
X918608Y531799D01*
X918579Y531806D01*
X918553Y531820D01*
X918476Y531833D01*
X918332Y531869D01*
X918270Y531867D01*
X918222Y531875D01*
X897878Y531875D01*
X897849Y531871D01*
X897820Y531874D01*
X897709Y531851D01*
X897597Y531835D01*
X897570Y531823D01*
X897541Y531818D01*
X897440Y531765D01*
X897337Y531719D01*
X897315Y531700D01*
X897289Y531687D01*
X897207Y531609D01*
X897120Y531536D01*
X897104Y531511D01*
X897083Y531491D01*
X897025Y531393D01*
X896963Y531299D01*
X896954Y531271D01*
X896939Y531246D01*
X896911Y531136D01*
X896877Y531028D01*
X896876Y530998D01*
X896869Y530970D01*
X896872Y530857D01*
X896870Y530744D01*
X896877Y530715D01*
X896878Y530686D01*
X896913Y530578D01*
X896941Y530469D01*
X896956Y530443D01*
X896965Y530415D01*
X897011Y530352D01*
X897087Y530224D01*
X897107Y530205D01*
X897109Y530202D01*
X897135Y530177D01*
X897160Y530142D01*
X899552Y527751D01*
X901447Y523176D01*
X901447Y518224D01*
X899552Y513649D01*
X896051Y510148D01*
X891476Y508253D01*
X886524Y508253D01*
X881949Y510148D01*
X878448Y513649D01*
X877238Y516571D01*
X877223Y516596D01*
X877214Y516624D01*
X877151Y516719D01*
X877093Y516816D01*
X877072Y516836D01*
X877056Y516861D01*
X876969Y516934D01*
X876887Y517011D01*
X876861Y517025D01*
X876838Y517044D01*
X876735Y517090D01*
X876634Y517141D01*
X876605Y517147D01*
X876578Y517159D01*
X876466Y517175D01*
X876355Y517196D01*
X876326Y517194D01*
X876297Y517198D01*
X876185Y517182D01*
X876072Y517172D01*
X876045Y517161D01*
X876015Y517157D01*
X875912Y517111D01*
X875807Y517070D01*
X875783Y517052D01*
X875756Y517040D01*
X875670Y516967D01*
X875580Y516898D01*
X875562Y516875D01*
X875540Y516856D01*
X875498Y516789D01*
X875410Y516671D01*
X875388Y516612D01*
X875362Y516571D01*
X874152Y513649D01*
X870651Y510148D01*
X866076Y508253D01*
X861124Y508253D01*
X856549Y510148D01*
X853048Y513649D01*
X851531Y517311D01*
X851496Y517371D01*
X851470Y517435D01*
X851424Y517493D01*
X851387Y517556D01*
X851337Y517604D01*
X851294Y517658D01*
X851234Y517701D01*
X851180Y517751D01*
X851119Y517783D01*
X851062Y517823D01*
X850993Y517848D01*
X850927Y517882D01*
X850860Y517895D01*
X850794Y517918D01*
X850721Y517922D01*
X850648Y517937D01*
X850580Y517931D01*
X850511Y517935D01*
X850439Y517919D01*
X850365Y517912D01*
X850301Y517887D01*
X850233Y517872D01*
X850169Y517837D01*
X850100Y517810D01*
X850045Y517768D01*
X849984Y517735D01*
X849932Y517683D01*
X849873Y517639D01*
X849832Y517583D01*
X849783Y517534D01*
X849754Y517479D01*
X849703Y517411D01*
X849662Y517303D01*
X849628Y517237D01*
X849264Y516117D01*
X848411Y514443D01*
X847306Y512922D01*
X845978Y511594D01*
X844457Y510489D01*
X842783Y509636D01*
X840996Y509055D01*
X840231Y508934D01*
X840231Y519684D01*
X840223Y519740D01*
X840225Y519786D01*
X840224Y519787D01*
X840225Y519800D01*
X840203Y519882D01*
X840191Y519965D01*
X840167Y520019D01*
X840153Y520075D01*
X840110Y520148D01*
X840075Y520225D01*
X840037Y520269D01*
X840007Y520320D01*
X839946Y520377D01*
X839891Y520442D01*
X839843Y520474D01*
X839800Y520514D01*
X839725Y520553D01*
X839655Y520599D01*
X839599Y520617D01*
X839547Y520644D01*
X839479Y520655D01*
X839384Y520685D01*
X839284Y520688D01*
X839216Y520699D01*
X837184Y520699D01*
X837126Y520691D01*
X837068Y520692D01*
X836986Y520671D01*
X836903Y520659D01*
X836849Y520635D01*
X836793Y520621D01*
X836720Y520578D01*
X836643Y520543D01*
X836598Y520505D01*
X836548Y520475D01*
X836490Y520414D01*
X836426Y520359D01*
X836394Y520311D01*
X836354Y520268D01*
X836315Y520193D01*
X836269Y520123D01*
X836251Y520067D01*
X836224Y520015D01*
X836213Y519947D01*
X836183Y519852D01*
X836180Y519752D01*
X836169Y519684D01*
X836169Y508934D01*
X835404Y509055D01*
X833617Y509636D01*
X831943Y510489D01*
X830422Y511594D01*
X829094Y512922D01*
X827989Y514443D01*
X827136Y516117D01*
X826772Y517237D01*
X826742Y517299D01*
X826721Y517365D01*
X826680Y517426D01*
X826647Y517492D01*
X826601Y517543D01*
X826562Y517601D01*
X826506Y517648D01*
X826457Y517703D01*
X826398Y517739D01*
X826345Y517784D01*
X826278Y517814D01*
X826215Y517853D01*
X826148Y517871D01*
X826085Y517899D01*
X826012Y517909D01*
X825941Y517929D01*
X825872Y517929D01*
X825803Y517938D01*
X825731Y517928D01*
X825657Y517927D01*
X825590Y517907D01*
X825522Y517898D01*
X825455Y517867D01*
X825384Y517846D01*
X825326Y517809D01*
X825263Y517780D01*
X825207Y517733D01*
X825145Y517693D01*
X825099Y517641D01*
X825047Y517596D01*
X825014Y517543D01*
X824957Y517479D01*
X824908Y517375D01*
X824869Y517311D01*
X823352Y513649D01*
X819851Y510148D01*
X815276Y508253D01*
X810324Y508253D01*
X805749Y510148D01*
X802248Y513649D01*
X801038Y516571D01*
X801023Y516596D01*
X801014Y516624D01*
X800951Y516719D01*
X800893Y516816D01*
X800872Y516836D01*
X800856Y516861D01*
X800769Y516934D01*
X800687Y517011D01*
X800661Y517025D01*
X800638Y517044D01*
X800535Y517090D01*
X800434Y517141D01*
X800405Y517147D01*
X800378Y517159D01*
X800266Y517175D01*
X800155Y517196D01*
X800126Y517194D01*
X800097Y517198D01*
X799985Y517182D01*
X799872Y517172D01*
X799845Y517161D01*
X799815Y517157D01*
X799712Y517111D01*
X799607Y517070D01*
X799583Y517052D01*
X799556Y517040D01*
X799470Y516967D01*
X799380Y516898D01*
X799362Y516875D01*
X799340Y516856D01*
X799298Y516789D01*
X799210Y516671D01*
X799188Y516612D01*
X799162Y516571D01*
X797952Y513649D01*
X794451Y510148D01*
X789876Y508253D01*
X784924Y508253D01*
X780349Y510148D01*
X776848Y513649D01*
X775331Y517311D01*
X775296Y517371D01*
X775270Y517435D01*
X775224Y517493D01*
X775187Y517556D01*
X775137Y517604D01*
X775094Y517658D01*
X775034Y517701D01*
X774980Y517751D01*
X774919Y517783D01*
X774862Y517823D01*
X774793Y517848D01*
X774727Y517882D01*
X774660Y517895D01*
X774594Y517918D01*
X774521Y517922D01*
X774448Y517937D01*
X774380Y517931D01*
X774311Y517935D01*
X774239Y517919D01*
X774165Y517912D01*
X774101Y517887D01*
X774033Y517872D01*
X773969Y517837D01*
X773900Y517810D01*
X773845Y517769D01*
X773784Y517735D01*
X773732Y517683D01*
X773673Y517639D01*
X773632Y517583D01*
X773583Y517534D01*
X773554Y517479D01*
X773503Y517411D01*
X773462Y517303D01*
X773428Y517237D01*
X773064Y516117D01*
X772211Y514443D01*
X771106Y512922D01*
X769778Y511594D01*
X768257Y510489D01*
X766583Y509636D01*
X764796Y509055D01*
X764031Y508934D01*
X764031Y519684D01*
X764023Y519740D01*
X764025Y519786D01*
X764024Y519787D01*
X764025Y519800D01*
X764003Y519882D01*
X763991Y519965D01*
X763967Y520019D01*
X763953Y520075D01*
X763910Y520148D01*
X763875Y520225D01*
X763837Y520269D01*
X763807Y520320D01*
X763746Y520377D01*
X763691Y520442D01*
X763643Y520474D01*
X763600Y520514D01*
X763525Y520553D01*
X763455Y520599D01*
X763399Y520617D01*
X763347Y520644D01*
X763279Y520655D01*
X763184Y520685D01*
X763084Y520688D01*
X763016Y520699D01*
X760984Y520699D01*
X760926Y520691D01*
X760868Y520692D01*
X760786Y520671D01*
X760703Y520659D01*
X760649Y520635D01*
X760593Y520621D01*
X760520Y520578D01*
X760443Y520543D01*
X760398Y520505D01*
X760348Y520475D01*
X760290Y520414D01*
X760226Y520359D01*
X760194Y520311D01*
X760154Y520268D01*
X760115Y520193D01*
X760069Y520123D01*
X760051Y520067D01*
X760024Y520015D01*
X760013Y519947D01*
X759983Y519852D01*
X759980Y519752D01*
X759969Y519684D01*
X759969Y508934D01*
X759204Y509055D01*
X757417Y509636D01*
X755743Y510489D01*
X754222Y511594D01*
X752894Y512922D01*
X751789Y514443D01*
X750936Y516117D01*
X750572Y517237D01*
X750542Y517299D01*
X750521Y517365D01*
X750480Y517426D01*
X750447Y517492D01*
X750401Y517543D01*
X750362Y517601D01*
X750306Y517648D01*
X750257Y517703D01*
X750198Y517739D01*
X750145Y517784D01*
X750078Y517814D01*
X750015Y517853D01*
X749948Y517871D01*
X749885Y517899D01*
X749812Y517909D01*
X749741Y517929D01*
X749672Y517929D01*
X749603Y517938D01*
X749531Y517928D01*
X749457Y517927D01*
X749390Y517907D01*
X749322Y517898D01*
X749255Y517867D01*
X749184Y517846D01*
X749126Y517809D01*
X749063Y517780D01*
X749007Y517733D01*
X748945Y517693D01*
X748899Y517641D01*
X748847Y517596D01*
X748814Y517543D01*
X748757Y517479D01*
X748708Y517375D01*
X748669Y517311D01*
X747152Y513649D01*
X743651Y510148D01*
X739076Y508253D01*
X734124Y508253D01*
X729549Y510148D01*
X726048Y513649D01*
X724838Y516571D01*
X724823Y516596D01*
X724814Y516624D01*
X724751Y516719D01*
X724693Y516816D01*
X724672Y516836D01*
X724656Y516861D01*
X724569Y516934D01*
X724487Y517011D01*
X724461Y517025D01*
X724438Y517044D01*
X724335Y517090D01*
X724234Y517141D01*
X724205Y517147D01*
X724178Y517159D01*
X724066Y517175D01*
X723955Y517196D01*
X723926Y517194D01*
X723897Y517198D01*
X723785Y517182D01*
X723672Y517172D01*
X723645Y517161D01*
X723615Y517157D01*
X723512Y517111D01*
X723407Y517070D01*
X723383Y517052D01*
X723356Y517040D01*
X723270Y516967D01*
X723180Y516898D01*
X723162Y516875D01*
X723140Y516856D01*
X723098Y516789D01*
X723010Y516671D01*
X722988Y516612D01*
X722962Y516571D01*
X721752Y513649D01*
X718251Y510148D01*
X713676Y508253D01*
X708724Y508253D01*
X704149Y510148D01*
X700648Y513649D01*
X699131Y517311D01*
X699096Y517371D01*
X699070Y517435D01*
X699024Y517493D01*
X698987Y517556D01*
X698937Y517604D01*
X698894Y517658D01*
X698834Y517701D01*
X698780Y517751D01*
X698719Y517783D01*
X698662Y517823D01*
X698593Y517848D01*
X698527Y517882D01*
X698460Y517895D01*
X698394Y517918D01*
X698321Y517922D01*
X698248Y517937D01*
X698180Y517931D01*
X698111Y517935D01*
X698039Y517919D01*
X697965Y517912D01*
X697901Y517887D01*
X697833Y517872D01*
X697769Y517837D01*
X697700Y517810D01*
X697645Y517769D01*
X697584Y517735D01*
X697532Y517683D01*
X697473Y517639D01*
X697432Y517583D01*
X697383Y517534D01*
X697354Y517479D01*
X697303Y517411D01*
X697262Y517303D01*
X697228Y517237D01*
X696864Y516117D01*
X696011Y514443D01*
X694906Y512922D01*
X693578Y511594D01*
X692057Y510489D01*
X690383Y509636D01*
X688596Y509055D01*
X687831Y508934D01*
X687831Y519684D01*
X687823Y519740D01*
X687825Y519786D01*
X687824Y519787D01*
X687825Y519800D01*
X687803Y519882D01*
X687791Y519965D01*
X687767Y520019D01*
X687753Y520075D01*
X687710Y520148D01*
X687675Y520225D01*
X687637Y520269D01*
X687607Y520320D01*
X687546Y520377D01*
X687491Y520442D01*
X687443Y520474D01*
X687400Y520514D01*
X687325Y520553D01*
X687255Y520599D01*
X687199Y520617D01*
X687147Y520644D01*
X687079Y520655D01*
X686984Y520685D01*
X686884Y520688D01*
X686816Y520699D01*
X684784Y520699D01*
X684726Y520691D01*
X684668Y520692D01*
X684586Y520671D01*
X684503Y520659D01*
X684449Y520635D01*
X684393Y520621D01*
X684320Y520578D01*
X684243Y520543D01*
X684198Y520505D01*
X684148Y520475D01*
X684090Y520414D01*
X684026Y520359D01*
X683994Y520311D01*
X683954Y520268D01*
X683915Y520193D01*
X683869Y520123D01*
X683851Y520067D01*
X683824Y520015D01*
X683813Y519947D01*
X683783Y519852D01*
X683780Y519752D01*
X683769Y519684D01*
X683769Y508934D01*
X683004Y509055D01*
X681217Y509636D01*
X679543Y510489D01*
X678022Y511594D01*
X676694Y512922D01*
X675589Y514443D01*
X674736Y516117D01*
X674372Y517237D01*
X674342Y517299D01*
X674321Y517365D01*
X674280Y517426D01*
X674247Y517492D01*
X674201Y517543D01*
X674162Y517601D01*
X674106Y517648D01*
X674057Y517703D01*
X673998Y517739D01*
X673945Y517784D01*
X673878Y517814D01*
X673815Y517853D01*
X673748Y517871D01*
X673685Y517899D01*
X673612Y517909D01*
X673541Y517929D01*
X673472Y517929D01*
X673403Y517938D01*
X673331Y517928D01*
X673257Y517927D01*
X673190Y517907D01*
X673122Y517898D01*
X673055Y517867D01*
X672984Y517846D01*
X672926Y517809D01*
X672863Y517780D01*
X672807Y517733D01*
X672745Y517693D01*
X672699Y517641D01*
X672647Y517596D01*
X672614Y517543D01*
X672557Y517479D01*
X672508Y517375D01*
X672469Y517311D01*
X670952Y513649D01*
X667451Y510148D01*
X662876Y508253D01*
X657924Y508253D01*
X653349Y510148D01*
X649848Y513649D01*
X647953Y518224D01*
X647953Y523176D01*
X649848Y527751D01*
X652240Y530142D01*
X652250Y530156D01*
X652257Y530162D01*
X652263Y530170D01*
X652280Y530185D01*
X652343Y530279D01*
X652411Y530369D01*
X652421Y530397D01*
X652437Y530421D01*
X652472Y530529D01*
X652512Y530635D01*
X652514Y530664D01*
X652523Y530692D01*
X652526Y530806D01*
X652535Y530918D01*
X652530Y530947D01*
X652530Y530976D01*
X652502Y531086D01*
X652480Y531197D01*
X652466Y531223D01*
X652459Y531251D01*
X652401Y531349D01*
X652349Y531449D01*
X652328Y531471D01*
X652313Y531496D01*
X652231Y531573D01*
X652153Y531655D01*
X652127Y531670D01*
X652106Y531690D01*
X652005Y531742D01*
X651908Y531799D01*
X651879Y531806D01*
X651853Y531820D01*
X651776Y531833D01*
X651632Y531869D01*
X651570Y531867D01*
X651522Y531875D01*
X619709Y531875D01*
X619680Y531871D01*
X619651Y531874D01*
X619540Y531851D01*
X619427Y531835D01*
X619401Y531823D01*
X619372Y531818D01*
X619271Y531765D01*
X619168Y531719D01*
X619146Y531700D01*
X619119Y531687D01*
X619037Y531609D01*
X618951Y531536D01*
X618935Y531511D01*
X618913Y531491D01*
X618856Y531393D01*
X618793Y531299D01*
X618784Y531271D01*
X618770Y531246D01*
X618742Y531136D01*
X618708Y531028D01*
X618707Y530999D01*
X618700Y530970D01*
X618703Y530857D01*
X618700Y530744D01*
X618708Y530715D01*
X618709Y530686D01*
X618744Y530578D01*
X618772Y530469D01*
X618787Y530443D01*
X618796Y530415D01*
X618842Y530352D01*
X618917Y530224D01*
X618938Y530205D01*
X618940Y530202D01*
X618966Y530177D01*
X618991Y530142D01*
X619253Y529880D01*
X619588Y529301D01*
X619761Y528654D01*
X619761Y522731D01*
X610616Y522731D01*
X610558Y522723D01*
X610500Y522725D01*
X610418Y522703D01*
X610335Y522691D01*
X610281Y522667D01*
X610225Y522653D01*
X610152Y522610D01*
X610075Y522575D01*
X610031Y522537D01*
X609980Y522507D01*
X609923Y522446D01*
X609858Y522391D01*
X609826Y522343D01*
X609786Y522300D01*
X609747Y522225D01*
X609701Y522155D01*
X609683Y522099D01*
X609656Y522047D01*
X609645Y521979D01*
X609615Y521884D01*
X609612Y521784D01*
X609601Y521716D01*
X609601Y520699D01*
X609599Y520699D01*
X609599Y521716D01*
X609591Y521771D01*
X609592Y521817D01*
X609592Y521818D01*
X609592Y521832D01*
X609571Y521914D01*
X609559Y521997D01*
X609535Y522051D01*
X609521Y522107D01*
X609478Y522180D01*
X609443Y522257D01*
X609405Y522302D01*
X609375Y522352D01*
X609314Y522410D01*
X609259Y522474D01*
X609211Y522506D01*
X609168Y522546D01*
X609093Y522585D01*
X609023Y522631D01*
X608967Y522649D01*
X608915Y522676D01*
X608847Y522687D01*
X608752Y522717D01*
X608652Y522720D01*
X608584Y522731D01*
X599439Y522731D01*
X599439Y528654D01*
X599612Y529301D01*
X599947Y529880D01*
X600209Y530142D01*
X600219Y530156D01*
X600227Y530162D01*
X600232Y530170D01*
X600249Y530185D01*
X600312Y530279D01*
X600380Y530369D01*
X600390Y530397D01*
X600407Y530421D01*
X600441Y530529D01*
X600481Y530635D01*
X600484Y530664D01*
X600492Y530692D01*
X600495Y530805D01*
X600505Y530918D01*
X600499Y530947D01*
X600500Y530976D01*
X600471Y531086D01*
X600449Y531197D01*
X600435Y531223D01*
X600428Y531251D01*
X600370Y531349D01*
X600318Y531449D01*
X600298Y531471D01*
X600283Y531496D01*
X600200Y531573D01*
X600122Y531655D01*
X600097Y531670D01*
X600075Y531690D01*
X599975Y531742D01*
X599877Y531799D01*
X599848Y531806D01*
X599822Y531820D01*
X599745Y531833D01*
X599601Y531869D01*
X599539Y531867D01*
X599491Y531875D01*
X595027Y531875D01*
X594998Y531871D01*
X594969Y531874D01*
X594858Y531851D01*
X594746Y531835D01*
X594719Y531823D01*
X594690Y531818D01*
X594590Y531765D01*
X594486Y531719D01*
X594464Y531700D01*
X594438Y531687D01*
X594356Y531609D01*
X594269Y531536D01*
X594253Y531511D01*
X594232Y531491D01*
X594175Y531393D01*
X594112Y531299D01*
X594103Y531271D01*
X594088Y531246D01*
X594060Y531136D01*
X594026Y531028D01*
X594025Y530998D01*
X594018Y530970D01*
X594022Y530857D01*
X594019Y530744D01*
X594026Y530715D01*
X594027Y530686D01*
X594062Y530578D01*
X594091Y530469D01*
X594105Y530443D01*
X594115Y530415D01*
X594160Y530351D01*
X594236Y530224D01*
X594257Y530205D01*
X594258Y530202D01*
X594284Y530177D01*
X594309Y530142D01*
X594869Y529583D01*
X594869Y511817D01*
X593083Y510031D01*
X575317Y510031D01*
X573531Y511817D01*
X573531Y529583D01*
X574091Y530142D01*
X574101Y530156D01*
X574108Y530162D01*
X574113Y530170D01*
X574131Y530185D01*
X574193Y530279D01*
X574261Y530369D01*
X574272Y530397D01*
X574288Y530421D01*
X574322Y530529D01*
X574363Y530635D01*
X574365Y530664D01*
X574374Y530692D01*
X574377Y530806D01*
X574386Y530918D01*
X574381Y530947D01*
X574381Y530976D01*
X574353Y531086D01*
X574330Y531197D01*
X574317Y531223D01*
X574309Y531251D01*
X574252Y531349D01*
X574199Y531449D01*
X574179Y531471D01*
X574164Y531496D01*
X574082Y531573D01*
X574004Y531655D01*
X573978Y531670D01*
X573957Y531690D01*
X573856Y531742D01*
X573758Y531799D01*
X573730Y531806D01*
X573704Y531820D01*
X573626Y531833D01*
X573483Y531869D01*
X573420Y531867D01*
X573373Y531875D01*
X556209Y531875D01*
X556180Y531871D01*
X556151Y531874D01*
X556040Y531851D01*
X555927Y531835D01*
X555901Y531823D01*
X555872Y531818D01*
X555771Y531765D01*
X555668Y531719D01*
X555646Y531700D01*
X555619Y531687D01*
X555537Y531609D01*
X555451Y531536D01*
X555435Y531511D01*
X555413Y531491D01*
X555356Y531393D01*
X555293Y531299D01*
X555284Y531271D01*
X555270Y531246D01*
X555242Y531136D01*
X555208Y531028D01*
X555207Y530999D01*
X555200Y530970D01*
X555203Y530857D01*
X555200Y530744D01*
X555208Y530715D01*
X555209Y530686D01*
X555244Y530578D01*
X555272Y530469D01*
X555287Y530443D01*
X555296Y530415D01*
X555342Y530352D01*
X555417Y530224D01*
X555438Y530205D01*
X555440Y530202D01*
X555466Y530177D01*
X555491Y530142D01*
X555753Y529880D01*
X556088Y529301D01*
X556261Y528654D01*
X556261Y522731D01*
X547116Y522731D01*
X547058Y522723D01*
X547000Y522725D01*
X546918Y522703D01*
X546835Y522691D01*
X546781Y522667D01*
X546725Y522653D01*
X546652Y522610D01*
X546575Y522575D01*
X546531Y522537D01*
X546480Y522507D01*
X546423Y522446D01*
X546358Y522391D01*
X546326Y522343D01*
X546286Y522300D01*
X546247Y522225D01*
X546201Y522155D01*
X546183Y522099D01*
X546156Y522047D01*
X546145Y521979D01*
X546115Y521884D01*
X546112Y521784D01*
X546101Y521716D01*
X546101Y520699D01*
X546099Y520699D01*
X546099Y521716D01*
X546091Y521771D01*
X546092Y521817D01*
X546092Y521818D01*
X546092Y521832D01*
X546071Y521914D01*
X546059Y521997D01*
X546035Y522051D01*
X546021Y522107D01*
X545978Y522180D01*
X545943Y522257D01*
X545905Y522302D01*
X545875Y522352D01*
X545814Y522410D01*
X545759Y522474D01*
X545711Y522506D01*
X545668Y522546D01*
X545593Y522585D01*
X545523Y522631D01*
X545467Y522649D01*
X545415Y522676D01*
X545347Y522687D01*
X545252Y522717D01*
X545152Y522720D01*
X545084Y522731D01*
X535939Y522731D01*
X535939Y528654D01*
X536112Y529301D01*
X536447Y529880D01*
X536709Y530142D01*
X536719Y530156D01*
X536727Y530162D01*
X536732Y530170D01*
X536749Y530185D01*
X536812Y530279D01*
X536880Y530369D01*
X536890Y530397D01*
X536907Y530421D01*
X536941Y530529D01*
X536981Y530635D01*
X536984Y530664D01*
X536992Y530692D01*
X536995Y530805D01*
X537005Y530918D01*
X536999Y530947D01*
X537000Y530976D01*
X536971Y531086D01*
X536949Y531197D01*
X536935Y531223D01*
X536928Y531251D01*
X536870Y531349D01*
X536818Y531449D01*
X536798Y531471D01*
X536783Y531496D01*
X536700Y531573D01*
X536622Y531655D01*
X536597Y531670D01*
X536575Y531690D01*
X536475Y531742D01*
X536377Y531799D01*
X536348Y531806D01*
X536322Y531820D01*
X536245Y531833D01*
X536101Y531869D01*
X536039Y531867D01*
X535991Y531875D01*
X531527Y531875D01*
X531498Y531871D01*
X531469Y531874D01*
X531358Y531851D01*
X531246Y531835D01*
X531219Y531823D01*
X531190Y531818D01*
X531090Y531765D01*
X530986Y531719D01*
X530964Y531700D01*
X530938Y531687D01*
X530856Y531609D01*
X530769Y531536D01*
X530753Y531511D01*
X530732Y531491D01*
X530675Y531393D01*
X530612Y531299D01*
X530603Y531271D01*
X530588Y531246D01*
X530560Y531136D01*
X530526Y531028D01*
X530525Y530998D01*
X530518Y530970D01*
X530522Y530857D01*
X530519Y530744D01*
X530526Y530715D01*
X530527Y530686D01*
X530562Y530578D01*
X530591Y530469D01*
X530605Y530443D01*
X530615Y530415D01*
X530660Y530351D01*
X530736Y530224D01*
X530757Y530205D01*
X530758Y530202D01*
X530784Y530177D01*
X530809Y530142D01*
X531369Y529583D01*
X531369Y511817D01*
X529583Y510031D01*
X511817Y510031D01*
X510031Y511817D01*
X510031Y529583D01*
X510591Y530142D01*
X510601Y530156D01*
X510608Y530162D01*
X510613Y530170D01*
X510631Y530185D01*
X510693Y530279D01*
X510761Y530369D01*
X510772Y530397D01*
X510788Y530421D01*
X510822Y530529D01*
X510863Y530635D01*
X510865Y530664D01*
X510874Y530692D01*
X510877Y530806D01*
X510886Y530918D01*
X510881Y530947D01*
X510881Y530976D01*
X510853Y531086D01*
X510830Y531197D01*
X510817Y531223D01*
X510809Y531251D01*
X510752Y531349D01*
X510699Y531449D01*
X510679Y531471D01*
X510664Y531496D01*
X510582Y531573D01*
X510504Y531655D01*
X510478Y531670D01*
X510457Y531690D01*
X510356Y531742D01*
X510258Y531799D01*
X510230Y531806D01*
X510204Y531820D01*
X510126Y531833D01*
X509983Y531869D01*
X509920Y531867D01*
X509873Y531875D01*
X492709Y531875D01*
X492680Y531871D01*
X492651Y531874D01*
X492540Y531851D01*
X492427Y531835D01*
X492401Y531823D01*
X492372Y531818D01*
X492271Y531765D01*
X492168Y531719D01*
X492146Y531700D01*
X492119Y531687D01*
X492037Y531609D01*
X491951Y531536D01*
X491935Y531511D01*
X491913Y531491D01*
X491856Y531393D01*
X491793Y531299D01*
X491784Y531271D01*
X491770Y531246D01*
X491742Y531136D01*
X491708Y531028D01*
X491707Y530999D01*
X491700Y530970D01*
X491703Y530857D01*
X491700Y530744D01*
X491708Y530715D01*
X491709Y530686D01*
X491744Y530578D01*
X491772Y530469D01*
X491787Y530443D01*
X491796Y530415D01*
X491842Y530352D01*
X491917Y530224D01*
X491938Y530205D01*
X491940Y530202D01*
X491966Y530177D01*
X491991Y530142D01*
X492253Y529880D01*
X492588Y529301D01*
X492761Y528654D01*
X492761Y522731D01*
X483616Y522731D01*
X483558Y522723D01*
X483500Y522725D01*
X483418Y522703D01*
X483335Y522691D01*
X483281Y522667D01*
X483225Y522653D01*
X483152Y522610D01*
X483075Y522575D01*
X483031Y522537D01*
X482980Y522507D01*
X482923Y522446D01*
X482858Y522391D01*
X482826Y522343D01*
X482786Y522300D01*
X482747Y522225D01*
X482701Y522155D01*
X482683Y522099D01*
X482656Y522047D01*
X482645Y521979D01*
X482615Y521884D01*
X482612Y521784D01*
X482601Y521716D01*
X482601Y520699D01*
X482599Y520699D01*
X482599Y521716D01*
X482591Y521771D01*
X482592Y521817D01*
X482592Y521818D01*
X482592Y521832D01*
X482571Y521914D01*
X482559Y521997D01*
X482535Y522051D01*
X482521Y522107D01*
X482478Y522180D01*
X482443Y522257D01*
X482405Y522302D01*
X482375Y522352D01*
X482314Y522410D01*
X482259Y522474D01*
X482211Y522506D01*
X482168Y522546D01*
X482093Y522585D01*
X482023Y522631D01*
X481967Y522649D01*
X481915Y522676D01*
X481847Y522687D01*
X481752Y522717D01*
X481652Y522720D01*
X481584Y522731D01*
X472439Y522731D01*
X472439Y528654D01*
X472612Y529301D01*
X472947Y529880D01*
X473209Y530142D01*
X473219Y530156D01*
X473227Y530162D01*
X473232Y530170D01*
X473249Y530185D01*
X473312Y530279D01*
X473380Y530369D01*
X473390Y530397D01*
X473407Y530421D01*
X473441Y530529D01*
X473481Y530635D01*
X473484Y530664D01*
X473492Y530692D01*
X473495Y530805D01*
X473505Y530918D01*
X473499Y530947D01*
X473500Y530976D01*
X473471Y531086D01*
X473449Y531197D01*
X473435Y531223D01*
X473428Y531251D01*
X473370Y531349D01*
X473318Y531449D01*
X473298Y531471D01*
X473283Y531496D01*
X473200Y531573D01*
X473122Y531655D01*
X473097Y531670D01*
X473075Y531690D01*
X472975Y531742D01*
X472877Y531799D01*
X472848Y531806D01*
X472822Y531820D01*
X472745Y531833D01*
X472601Y531869D01*
X472539Y531867D01*
X472491Y531875D01*
X469914Y531875D01*
X469827Y531863D01*
X469740Y531860D01*
X469687Y531843D01*
X469632Y531835D01*
X469552Y531800D01*
X469469Y531773D01*
X469430Y531745D01*
X469373Y531719D01*
X469259Y531623D01*
X469196Y531578D01*
X468166Y530548D01*
X468132Y530503D01*
X468126Y530498D01*
X468112Y530477D01*
X468054Y530415D01*
X468028Y530365D01*
X467995Y530321D01*
X467978Y530275D01*
X467968Y530261D01*
X467958Y530227D01*
X467924Y530161D01*
X467916Y530114D01*
X467894Y530055D01*
X467891Y530015D01*
X467883Y529990D01*
X467880Y529900D01*
X467869Y529830D01*
X467869Y511817D01*
X466083Y510031D01*
X448317Y510031D01*
X446531Y511817D01*
X446531Y536792D01*
X448155Y540713D01*
X455618Y548176D01*
X455636Y548200D01*
X455658Y548219D01*
X455721Y548313D01*
X455789Y548403D01*
X455800Y548431D01*
X455816Y548455D01*
X455850Y548563D01*
X455890Y548669D01*
X455893Y548698D01*
X455902Y548726D01*
X455905Y548840D01*
X455914Y548952D01*
X455908Y548981D01*
X455909Y549010D01*
X455880Y549120D01*
X455858Y549231D01*
X455845Y549257D01*
X455837Y549285D01*
X455779Y549383D01*
X455727Y549483D01*
X455707Y549505D01*
X455692Y549530D01*
X455609Y549607D01*
X455531Y549689D01*
X455506Y549704D01*
X455485Y549724D01*
X455384Y549776D01*
X455286Y549833D01*
X455258Y549840D01*
X455231Y549854D01*
X455154Y549867D01*
X455010Y549903D01*
X454948Y549901D01*
X454900Y549909D01*
X419368Y549909D01*
X419281Y549897D01*
X419194Y549894D01*
X419141Y549877D01*
X419086Y549869D01*
X419006Y549834D01*
X418923Y549807D01*
X418884Y549779D01*
X418827Y549753D01*
X418713Y549657D01*
X418650Y549612D01*
X404666Y535628D01*
X404614Y535558D01*
X404554Y535495D01*
X404528Y535445D01*
X404495Y535401D01*
X404474Y535346D01*
X404468Y535337D01*
X404461Y535313D01*
X404424Y535241D01*
X404416Y535194D01*
X404394Y535135D01*
X404390Y535090D01*
X404383Y535066D01*
X404381Y534981D01*
X404369Y534910D01*
X404369Y511817D01*
X402583Y510031D01*
X384817Y510031D01*
X383031Y511817D01*
X383031Y541872D01*
X384655Y545793D01*
X405326Y566464D01*
X405344Y566488D01*
X405366Y566507D01*
X405429Y566601D01*
X405497Y566691D01*
X405508Y566719D01*
X405524Y566743D01*
X405558Y566851D01*
X405598Y566957D01*
X405601Y566986D01*
X405610Y567014D01*
X405613Y567128D01*
X405622Y567240D01*
X405616Y567269D01*
X405617Y567298D01*
X405588Y567408D01*
X405566Y567519D01*
X405553Y567545D01*
X405545Y567573D01*
X405487Y567671D01*
X405435Y567771D01*
X405415Y567793D01*
X405400Y567818D01*
X405317Y567895D01*
X405239Y567977D01*
X405214Y567992D01*
X405193Y568012D01*
X405092Y568064D01*
X404994Y568121D01*
X404966Y568128D01*
X404939Y568142D01*
X404862Y568155D01*
X404718Y568191D01*
X404656Y568189D01*
X404608Y568197D01*
X371616Y568197D01*
X371529Y568185D01*
X371442Y568182D01*
X371389Y568165D01*
X371334Y568157D01*
X371254Y568122D01*
X371171Y568095D01*
X371132Y568067D01*
X371075Y568041D01*
X370961Y567945D01*
X370898Y567900D01*
X341166Y538168D01*
X341114Y538098D01*
X341054Y538035D01*
X341028Y537985D01*
X340995Y537941D01*
X340964Y537859D01*
X340924Y537781D01*
X340916Y537734D01*
X340894Y537675D01*
X340882Y537528D01*
X340869Y537450D01*
X340869Y511817D01*
X339083Y510031D01*
X321317Y510031D01*
X319531Y511817D01*
X319531Y544412D01*
X321156Y548333D01*
X357589Y584766D01*
X357589Y584767D01*
X358082Y585260D01*
X358100Y585284D01*
X358122Y585303D01*
X358185Y585397D01*
X358253Y585487D01*
X358264Y585515D01*
X358280Y585539D01*
X358314Y585647D01*
X358354Y585753D01*
X358357Y585782D01*
X358366Y585810D01*
X358369Y585923D01*
X358378Y586036D01*
X358372Y586065D01*
X358373Y586094D01*
X358344Y586204D01*
X358322Y586315D01*
X358309Y586341D01*
X358301Y586369D01*
X358243Y586467D01*
X358191Y586567D01*
X358171Y586589D01*
X358156Y586614D01*
X358073Y586691D01*
X357995Y586773D01*
X357970Y586788D01*
X357949Y586808D01*
X357848Y586860D01*
X357750Y586917D01*
X357722Y586924D01*
X357695Y586938D01*
X357618Y586951D01*
X357475Y586987D01*
X357412Y586985D01*
X357364Y586993D01*
X327674Y586993D01*
X327587Y586981D01*
X327500Y586978D01*
X327447Y586961D01*
X327392Y586953D01*
X327312Y586918D01*
X327229Y586891D01*
X327190Y586863D01*
X327133Y586837D01*
X327019Y586741D01*
X326956Y586696D01*
X277666Y537406D01*
X277614Y537336D01*
X277554Y537273D01*
X277528Y537223D01*
X277495Y537179D01*
X277464Y537097D01*
X277424Y537019D01*
X277416Y536972D01*
X277394Y536913D01*
X277382Y536766D01*
X277369Y536688D01*
X277369Y511817D01*
X275583Y510031D01*
X257817Y510031D01*
X256031Y511817D01*
X256031Y543650D01*
X257656Y547571D01*
X313886Y603802D01*
X313904Y603826D01*
X313926Y603845D01*
X313989Y603939D01*
X314057Y604029D01*
X314068Y604057D01*
X314084Y604081D01*
X314118Y604189D01*
X314158Y604295D01*
X314161Y604324D01*
X314170Y604352D01*
X314173Y604466D01*
X314182Y604578D01*
X314176Y604607D01*
X314177Y604636D01*
X314148Y604746D01*
X314126Y604857D01*
X314113Y604883D01*
X314105Y604911D01*
X314047Y605009D01*
X313995Y605109D01*
X313975Y605131D01*
X313960Y605156D01*
X313877Y605233D01*
X313799Y605315D01*
X313774Y605330D01*
X313753Y605350D01*
X313652Y605402D01*
X313554Y605459D01*
X313526Y605466D01*
X313499Y605480D01*
X313422Y605493D01*
X313278Y605529D01*
X313216Y605527D01*
X313168Y605535D01*
X281954Y605535D01*
X281867Y605523D01*
X281780Y605520D01*
X281727Y605503D01*
X281672Y605495D01*
X281592Y605460D01*
X281509Y605433D01*
X281470Y605405D01*
X281413Y605379D01*
X281299Y605283D01*
X281236Y605238D01*
X214166Y538168D01*
X214114Y538098D01*
X214054Y538035D01*
X214028Y537985D01*
X213995Y537941D01*
X213964Y537859D01*
X213924Y537781D01*
X213916Y537734D01*
X213894Y537675D01*
X213882Y537528D01*
X213869Y537450D01*
X213869Y511817D01*
X212083Y510031D01*
X194317Y510031D01*
X192531Y511817D01*
X192531Y544412D01*
X194156Y548333D01*
X197299Y551477D01*
X267912Y622090D01*
X267930Y622114D01*
X267952Y622133D01*
X268015Y622227D01*
X268083Y622317D01*
X268094Y622345D01*
X268110Y622369D01*
X268144Y622477D01*
X268184Y622583D01*
X268187Y622612D01*
X268196Y622640D01*
X268199Y622754D01*
X268208Y622866D01*
X268202Y622895D01*
X268203Y622924D01*
X268174Y623034D01*
X268152Y623145D01*
X268139Y623171D01*
X268131Y623199D01*
X268073Y623297D01*
X268021Y623397D01*
X268001Y623419D01*
X267986Y623444D01*
X267903Y623521D01*
X267825Y623603D01*
X267800Y623618D01*
X267779Y623638D01*
X267678Y623690D01*
X267580Y623747D01*
X267552Y623754D01*
X267525Y623768D01*
X267448Y623781D01*
X267304Y623817D01*
X267242Y623815D01*
X267194Y623823D01*
X244108Y623823D01*
X244021Y623811D01*
X243934Y623808D01*
X243881Y623791D01*
X243826Y623783D01*
X243746Y623748D01*
X243663Y623721D01*
X243624Y623693D01*
X243567Y623667D01*
X243453Y623571D01*
X243390Y623526D01*
X150666Y530802D01*
X150614Y530732D01*
X150554Y530669D01*
X150528Y530619D01*
X150495Y530575D01*
X150464Y530493D01*
X150424Y530415D01*
X150416Y530368D01*
X150394Y530309D01*
X150382Y530162D01*
X150369Y530084D01*
X150369Y511817D01*
X148583Y510031D01*
X130817Y510031D01*
X129031Y511817D01*
X129031Y537046D01*
X130656Y540967D01*
X233225Y643536D01*
X237146Y645161D01*
X1253834Y645161D01*
X1257755Y643536D01*
X1330002Y571290D01*
X1330072Y571238D01*
X1330135Y571178D01*
X1330185Y571152D01*
X1330229Y571119D01*
X1330311Y571088D01*
X1330389Y571048D01*
X1330436Y571040D01*
X1330495Y571018D01*
X1330642Y571006D01*
X1330720Y570993D01*
X1517486Y570993D01*
X1521407Y569368D01*
X1545744Y545031D01*
X1547369Y541110D01*
X1547369Y527670D01*
X1547373Y527640D01*
X1547371Y527609D01*
X1547388Y527532D01*
X1547409Y527389D01*
X1547435Y527330D01*
X1547446Y527282D01*
X1548769Y524089D01*
X1548804Y524029D01*
X1548830Y523965D01*
X1548876Y523907D01*
X1548913Y523844D01*
X1548963Y523796D01*
X1549006Y523742D01*
X1549066Y523699D01*
X1549120Y523649D01*
X1549181Y523617D01*
X1549238Y523577D01*
X1549307Y523552D01*
X1549373Y523518D01*
X1549440Y523505D01*
X1549506Y523482D01*
X1549579Y523478D01*
X1549652Y523463D01*
X1549720Y523469D01*
X1549789Y523465D01*
X1549861Y523481D01*
X1549935Y523488D01*
X1549999Y523513D01*
X1550067Y523528D01*
X1550131Y523563D01*
X1550200Y523590D01*
X1550255Y523631D01*
X1550316Y523665D01*
X1550368Y523717D01*
X1550427Y523761D01*
X1550468Y523817D01*
X1550517Y523866D01*
X1550546Y523921D01*
X1550597Y523989D01*
X1550638Y524097D01*
X1550672Y524163D01*
X1551036Y525283D01*
X1551889Y526957D01*
X1552994Y528478D01*
X1554322Y529806D01*
X1555843Y530911D01*
X1557517Y531764D01*
X1559304Y532345D01*
X1560069Y532466D01*
X1560069Y521716D01*
X1560077Y521658D01*
X1560075Y521600D01*
X1560097Y521518D01*
X1560109Y521435D01*
X1560133Y521381D01*
X1560147Y521325D01*
X1560190Y521252D01*
X1560225Y521175D01*
X1560263Y521131D01*
X1560293Y521080D01*
X1560354Y521023D01*
X1560409Y520958D01*
X1560457Y520926D01*
X1560500Y520886D01*
X1560575Y520847D01*
X1560645Y520801D01*
X1560701Y520783D01*
X1560753Y520756D01*
X1560821Y520745D01*
X1560916Y520715D01*
X1561016Y520712D01*
X1561084Y520701D01*
X1563116Y520701D01*
X1563174Y520709D01*
X1563232Y520708D01*
X1563314Y520729D01*
X1563397Y520741D01*
X1563451Y520765D01*
X1563507Y520779D01*
X1563580Y520822D01*
X1563657Y520857D01*
X1563702Y520895D01*
X1563752Y520925D01*
X1563810Y520986D01*
X1563874Y521041D01*
X1563906Y521089D01*
X1563946Y521132D01*
X1563985Y521207D01*
X1564031Y521277D01*
X1564049Y521333D01*
X1564076Y521385D01*
X1564087Y521453D01*
X1564117Y521548D01*
X1564120Y521648D01*
X1564131Y521716D01*
X1564131Y532466D01*
X1564896Y532345D01*
X1566683Y531764D01*
X1568357Y530911D01*
X1569878Y529806D01*
X1571206Y528478D01*
X1572311Y526957D01*
X1573164Y525283D01*
X1573528Y524163D01*
X1573558Y524101D01*
X1573579Y524035D01*
X1573620Y523974D01*
X1573653Y523908D01*
X1573699Y523857D01*
X1573738Y523799D01*
X1573794Y523752D01*
X1573843Y523697D01*
X1573902Y523661D01*
X1573955Y523616D01*
X1574022Y523586D01*
X1574085Y523547D01*
X1574152Y523529D01*
X1574215Y523501D01*
X1574288Y523491D01*
X1574359Y523471D01*
X1574428Y523471D01*
X1574497Y523462D01*
X1574569Y523472D01*
X1574643Y523473D01*
X1574710Y523493D01*
X1574778Y523502D01*
X1574845Y523533D01*
X1574916Y523554D01*
X1574974Y523591D01*
X1575037Y523620D01*
X1575093Y523667D01*
X1575155Y523707D01*
X1575201Y523759D01*
X1575253Y523804D01*
X1575286Y523857D01*
X1575343Y523921D01*
X1575392Y524025D01*
X1575431Y524089D01*
X1576948Y527751D01*
X1580449Y531252D01*
X1582809Y532229D01*
X1582810Y532230D01*
X1582811Y532230D01*
X1582932Y532302D01*
X1583053Y532373D01*
X1583054Y532375D01*
X1583056Y532375D01*
X1583151Y532477D01*
X1583249Y532580D01*
X1583249Y532582D01*
X1583250Y532583D01*
X1583314Y532706D01*
X1583379Y532833D01*
X1583379Y532834D01*
X1583380Y532836D01*
X1583382Y532851D01*
X1583434Y533112D01*
X1583431Y533142D01*
X1583435Y533167D01*
X1583435Y536122D01*
X1583423Y536208D01*
X1583420Y536296D01*
X1583403Y536348D01*
X1583395Y536403D01*
X1583360Y536483D01*
X1583333Y536566D01*
X1583305Y536606D01*
X1583279Y536663D01*
X1583183Y536776D01*
X1583138Y536840D01*
X1527440Y592538D01*
X1527370Y592590D01*
X1527306Y592650D01*
X1527257Y592676D01*
X1527212Y592709D01*
X1527131Y592740D01*
X1527053Y592780D01*
X1527005Y592788D01*
X1526947Y592810D01*
X1526799Y592822D01*
X1526722Y592835D01*
X1448656Y592835D01*
X1433714Y607778D01*
X1433713Y607778D01*
X1431035Y610456D01*
X1431035Y611824D01*
X1431022Y611915D01*
X1431019Y612007D01*
X1431003Y612056D01*
X1430995Y612106D01*
X1430958Y612190D01*
X1430929Y612277D01*
X1430900Y612319D01*
X1430879Y612365D01*
X1430820Y612435D01*
X1430768Y612511D01*
X1430728Y612543D01*
X1430696Y612582D01*
X1430619Y612633D01*
X1430548Y612692D01*
X1430501Y612712D01*
X1430459Y612740D01*
X1430371Y612768D01*
X1430287Y612804D01*
X1430236Y612810D01*
X1430188Y612826D01*
X1430096Y612828D01*
X1430005Y612839D01*
X1429954Y612832D01*
X1429904Y612833D01*
X1429815Y612810D01*
X1429724Y612795D01*
X1429684Y612775D01*
X1429629Y612761D01*
X1429492Y612680D01*
X1429423Y612646D01*
X1428657Y612089D01*
X1426983Y611236D01*
X1425196Y610655D01*
X1424431Y610534D01*
X1424431Y621284D01*
X1424423Y621342D01*
X1424425Y621400D01*
X1424403Y621482D01*
X1424391Y621565D01*
X1424367Y621619D01*
X1424353Y621675D01*
X1424310Y621748D01*
X1424275Y621825D01*
X1424237Y621869D01*
X1424207Y621920D01*
X1424146Y621977D01*
X1424091Y622042D01*
X1424043Y622074D01*
X1424000Y622114D01*
X1423925Y622153D01*
X1423855Y622199D01*
X1423799Y622217D01*
X1423747Y622244D01*
X1423679Y622255D01*
X1423584Y622285D01*
X1423484Y622288D01*
X1423416Y622299D01*
X1422399Y622299D01*
X1422399Y623316D01*
X1422391Y623374D01*
X1422392Y623432D01*
X1422371Y623514D01*
X1422359Y623597D01*
X1422335Y623651D01*
X1422321Y623707D01*
X1422278Y623780D01*
X1422243Y623857D01*
X1422205Y623902D01*
X1422175Y623952D01*
X1422114Y624010D01*
X1422059Y624074D01*
X1422011Y624106D01*
X1421968Y624146D01*
X1421893Y624185D01*
X1421823Y624231D01*
X1421767Y624249D01*
X1421715Y624276D01*
X1421647Y624287D01*
X1421552Y624317D01*
X1421452Y624320D01*
X1421384Y624331D01*
X1398016Y624331D01*
X1397958Y624323D01*
X1397900Y624325D01*
X1397818Y624303D01*
X1397735Y624291D01*
X1397681Y624267D01*
X1397625Y624253D01*
X1397552Y624210D01*
X1397475Y624175D01*
X1397431Y624137D01*
X1397380Y624107D01*
X1397323Y624046D01*
X1397258Y623991D01*
X1397226Y623943D01*
X1397186Y623900D01*
X1397147Y623825D01*
X1397101Y623755D01*
X1397083Y623699D01*
X1397056Y623647D01*
X1397045Y623579D01*
X1397015Y623484D01*
X1397012Y623384D01*
X1397001Y623316D01*
X1397001Y622299D01*
X1396999Y622299D01*
X1396999Y623316D01*
X1396991Y623374D01*
X1396992Y623432D01*
X1396971Y623514D01*
X1396959Y623597D01*
X1396935Y623651D01*
X1396921Y623707D01*
X1396878Y623780D01*
X1396843Y623857D01*
X1396805Y623902D01*
X1396775Y623952D01*
X1396714Y624010D01*
X1396659Y624074D01*
X1396611Y624106D01*
X1396568Y624146D01*
X1396493Y624185D01*
X1396423Y624231D01*
X1396367Y624249D01*
X1396315Y624276D01*
X1396247Y624287D01*
X1396152Y624317D01*
X1396052Y624320D01*
X1395984Y624331D01*
X1372616Y624331D01*
X1372558Y624323D01*
X1372500Y624325D01*
X1372418Y624303D01*
X1372335Y624291D01*
X1372281Y624267D01*
X1372225Y624253D01*
X1372152Y624210D01*
X1372075Y624175D01*
X1372031Y624137D01*
X1371980Y624107D01*
X1371923Y624046D01*
X1371858Y623991D01*
X1371826Y623943D01*
X1371786Y623900D01*
X1371747Y623825D01*
X1371701Y623755D01*
X1371683Y623699D01*
X1371656Y623647D01*
X1371645Y623579D01*
X1371615Y623484D01*
X1371612Y623384D01*
X1371601Y623316D01*
X1371601Y622299D01*
X1371599Y622299D01*
X1371599Y623316D01*
X1371591Y623374D01*
X1371592Y623432D01*
X1371571Y623514D01*
X1371559Y623597D01*
X1371535Y623651D01*
X1371521Y623707D01*
X1371478Y623780D01*
X1371443Y623857D01*
X1371405Y623902D01*
X1371375Y623952D01*
X1371314Y624010D01*
X1371259Y624074D01*
X1371211Y624106D01*
X1371168Y624146D01*
X1371093Y624185D01*
X1371023Y624231D01*
X1370967Y624249D01*
X1370915Y624276D01*
X1370847Y624287D01*
X1370752Y624317D01*
X1370652Y624320D01*
X1370584Y624331D01*
X1359834Y624331D01*
X1359955Y625096D01*
X1360536Y626883D01*
X1361389Y628557D01*
X1362494Y630078D01*
X1363822Y631406D01*
X1365343Y632511D01*
X1367017Y633364D01*
X1368137Y633728D01*
X1368199Y633758D01*
X1368265Y633779D01*
X1368326Y633820D01*
X1368392Y633853D01*
X1368443Y633899D01*
X1368501Y633938D01*
X1368548Y633994D01*
X1368603Y634043D01*
X1368639Y634102D01*
X1368684Y634155D01*
X1368714Y634223D01*
X1368753Y634285D01*
X1368771Y634352D01*
X1368799Y634415D01*
X1368809Y634488D01*
X1368829Y634559D01*
X1368829Y634628D01*
X1368838Y634697D01*
X1368828Y634770D01*
X1368827Y634843D01*
X1368807Y634909D01*
X1368798Y634978D01*
X1368767Y635045D01*
X1368746Y635116D01*
X1368709Y635174D01*
X1368680Y635237D01*
X1368633Y635293D01*
X1368593Y635355D01*
X1368541Y635401D01*
X1368496Y635453D01*
X1368443Y635486D01*
X1368379Y635543D01*
X1368275Y635592D01*
X1368211Y635631D01*
X1364549Y637148D01*
X1361048Y640649D01*
X1359153Y645224D01*
X1359153Y650176D01*
X1361048Y654751D01*
X1364549Y658252D01*
X1366909Y659229D01*
X1366910Y659230D01*
X1366911Y659230D01*
X1367032Y659302D01*
X1367153Y659373D01*
X1367154Y659375D01*
X1367156Y659375D01*
X1367251Y659477D01*
X1367349Y659580D01*
X1367349Y659582D01*
X1367350Y659583D01*
X1367414Y659707D01*
X1367479Y659833D01*
X1367479Y659834D01*
X1367480Y659836D01*
X1367482Y659851D01*
X1367534Y660112D01*
X1367531Y660142D01*
X1367535Y660167D01*
X1367535Y665640D01*
X1384902Y683007D01*
X1615346Y683007D01*
X1667765Y630588D01*
X1667765Y624848D01*
X1667765Y624846D01*
X1667765Y624845D01*
X1667785Y624705D01*
X1667805Y624566D01*
X1667805Y624565D01*
X1667805Y624563D01*
X1667862Y624437D01*
X1667921Y624307D01*
X1667922Y624306D01*
X1667923Y624304D01*
X1668014Y624197D01*
X1668104Y624090D01*
X1668106Y624089D01*
X1668107Y624088D01*
X1668120Y624080D01*
X1668341Y623932D01*
X1668370Y623923D01*
X1668391Y623910D01*
X1672414Y622244D01*
X1676282Y618376D01*
X1676329Y618340D01*
X1676369Y618298D01*
X1676442Y618255D01*
X1676509Y618205D01*
X1676564Y618184D01*
X1676614Y618154D01*
X1676696Y618133D01*
X1676775Y618103D01*
X1676833Y618099D01*
X1676890Y618084D01*
X1676974Y618087D01*
X1677058Y618080D01*
X1677116Y618091D01*
X1677174Y618093D01*
X1677254Y618119D01*
X1677337Y618136D01*
X1677389Y618163D01*
X1677445Y618181D01*
X1677501Y618221D01*
X1677589Y618267D01*
X1677662Y618335D01*
X1677718Y618376D01*
X1681586Y622244D01*
X1686721Y624371D01*
X1692279Y624371D01*
X1697414Y622244D01*
X1701344Y618314D01*
X1703471Y613179D01*
X1703471Y612522D01*
X1703483Y612437D01*
X1703485Y612351D01*
X1703503Y612297D01*
X1703511Y612241D01*
X1703546Y612163D01*
X1703572Y612081D01*
X1703604Y612033D01*
X1703627Y611982D01*
X1703682Y611916D01*
X1703730Y611845D01*
X1703774Y611808D01*
X1703810Y611765D01*
X1703882Y611717D01*
X1703948Y611662D01*
X1704000Y611638D01*
X1704047Y611607D01*
X1704129Y611581D01*
X1704208Y611546D01*
X1704264Y611538D01*
X1704318Y611521D01*
X1704404Y611519D01*
X1704489Y611507D01*
X1704545Y611515D01*
X1704602Y611514D01*
X1704685Y611536D01*
X1704770Y611548D01*
X1704822Y611571D01*
X1704877Y611586D01*
X1704951Y611630D01*
X1705030Y611665D01*
X1705073Y611702D01*
X1705122Y611731D01*
X1705181Y611794D01*
X1705246Y611849D01*
X1705272Y611891D01*
X1705316Y611938D01*
X1705382Y612067D01*
X1705424Y612134D01*
X1706829Y615526D01*
X1709374Y618071D01*
X1712700Y619449D01*
X1716300Y619449D01*
X1719626Y618071D01*
X1722171Y615526D01*
X1723576Y612134D01*
X1723620Y612060D01*
X1723655Y611982D01*
X1723692Y611938D01*
X1723721Y611889D01*
X1723783Y611830D01*
X1723839Y611765D01*
X1723886Y611733D01*
X1723927Y611694D01*
X1724004Y611655D01*
X1724075Y611607D01*
X1724129Y611590D01*
X1724180Y611564D01*
X1724264Y611547D01*
X1724346Y611521D01*
X1724403Y611520D01*
X1724459Y611509D01*
X1724544Y611516D01*
X1724630Y611514D01*
X1724685Y611528D01*
X1724742Y611533D01*
X1724822Y611564D01*
X1724905Y611586D01*
X1724954Y611615D01*
X1725007Y611635D01*
X1725076Y611687D01*
X1725150Y611731D01*
X1725189Y611772D01*
X1725234Y611807D01*
X1725286Y611876D01*
X1725344Y611938D01*
X1725370Y611989D01*
X1725404Y612034D01*
X1725435Y612115D01*
X1725474Y612191D01*
X1725482Y612240D01*
X1725505Y612300D01*
X1725516Y612445D01*
X1725529Y612522D01*
X1725529Y613179D01*
X1727656Y618314D01*
X1731586Y622244D01*
X1736721Y624371D01*
X1742279Y624371D01*
X1747414Y622244D01*
X1751282Y618376D01*
X1751329Y618340D01*
X1751369Y618298D01*
X1751442Y618255D01*
X1751509Y618205D01*
X1751564Y618184D01*
X1751614Y618154D01*
X1751696Y618133D01*
X1751775Y618103D01*
X1751833Y618099D01*
X1751890Y618084D01*
X1751974Y618087D01*
X1752058Y618080D01*
X1752116Y618091D01*
X1752174Y618093D01*
X1752254Y618119D01*
X1752337Y618136D01*
X1752389Y618163D01*
X1752445Y618181D01*
X1752501Y618221D01*
X1752589Y618267D01*
X1752662Y618335D01*
X1752718Y618376D01*
X1756586Y622244D01*
X1761721Y624371D01*
X1767279Y624371D01*
X1772531Y622195D01*
X1772643Y622166D01*
X1772752Y622132D01*
X1772780Y622131D01*
X1772807Y622124D01*
X1772921Y622127D01*
X1773036Y622124D01*
X1773063Y622131D01*
X1773091Y622132D01*
X1773200Y622167D01*
X1773311Y622196D01*
X1773335Y622210D01*
X1773362Y622219D01*
X1773457Y622283D01*
X1773556Y622342D01*
X1773575Y622362D01*
X1773598Y622377D01*
X1773672Y622465D01*
X1773750Y622549D01*
X1773763Y622574D01*
X1773781Y622595D01*
X1773827Y622700D01*
X1773880Y622802D01*
X1773884Y622827D01*
X1773896Y622855D01*
X1773933Y623118D01*
X1773935Y623133D01*
X1773935Y654587D01*
X1773931Y654617D01*
X1773934Y654646D01*
X1773911Y654757D01*
X1773895Y654869D01*
X1773883Y654896D01*
X1773878Y654924D01*
X1773825Y655025D01*
X1773779Y655128D01*
X1773760Y655151D01*
X1773747Y655177D01*
X1773669Y655259D01*
X1773596Y655345D01*
X1773571Y655362D01*
X1773551Y655383D01*
X1773453Y655440D01*
X1773359Y655503D01*
X1773331Y655512D01*
X1773306Y655527D01*
X1773196Y655554D01*
X1773088Y655589D01*
X1773058Y655589D01*
X1773030Y655597D01*
X1772917Y655593D01*
X1772804Y655596D01*
X1772775Y655589D01*
X1772746Y655588D01*
X1772638Y655553D01*
X1772529Y655524D01*
X1772503Y655509D01*
X1772475Y655500D01*
X1772412Y655455D01*
X1772284Y655379D01*
X1772241Y655333D01*
X1772202Y655305D01*
X1769626Y652729D01*
X1766300Y651351D01*
X1762700Y651351D01*
X1759374Y652729D01*
X1756829Y655274D01*
X1755451Y658600D01*
X1755451Y662200D01*
X1756829Y665526D01*
X1759374Y668071D01*
X1762700Y669449D01*
X1766300Y669449D01*
X1769626Y668071D01*
X1772202Y665495D01*
X1772226Y665477D01*
X1772245Y665455D01*
X1772339Y665392D01*
X1772429Y665324D01*
X1772457Y665313D01*
X1772481Y665297D01*
X1772589Y665263D01*
X1772695Y665223D01*
X1772724Y665220D01*
X1772752Y665211D01*
X1772866Y665208D01*
X1772978Y665199D01*
X1773007Y665205D01*
X1773036Y665204D01*
X1773146Y665233D01*
X1773257Y665255D01*
X1773283Y665268D01*
X1773311Y665276D01*
X1773409Y665334D01*
X1773509Y665386D01*
X1773531Y665406D01*
X1773556Y665421D01*
X1773633Y665504D01*
X1773715Y665582D01*
X1773730Y665607D01*
X1773750Y665628D01*
X1773802Y665729D01*
X1773859Y665827D01*
X1773866Y665855D01*
X1773880Y665882D01*
X1773893Y665959D01*
X1773929Y666102D01*
X1773927Y666165D01*
X1773935Y666213D01*
X1773935Y679587D01*
X1773931Y679617D01*
X1773934Y679646D01*
X1773911Y679757D01*
X1773895Y679869D01*
X1773883Y679896D01*
X1773878Y679924D01*
X1773825Y680025D01*
X1773779Y680128D01*
X1773760Y680151D01*
X1773747Y680177D01*
X1773669Y680259D01*
X1773596Y680345D01*
X1773571Y680362D01*
X1773551Y680383D01*
X1773453Y680440D01*
X1773359Y680503D01*
X1773331Y680512D01*
X1773306Y680527D01*
X1773196Y680554D01*
X1773088Y680589D01*
X1773058Y680589D01*
X1773030Y680597D01*
X1772917Y680593D01*
X1772804Y680596D01*
X1772775Y680589D01*
X1772746Y680588D01*
X1772638Y680553D01*
X1772529Y680524D01*
X1772503Y680509D01*
X1772475Y680500D01*
X1772412Y680455D01*
X1772284Y680379D01*
X1772241Y680333D01*
X1772202Y680305D01*
X1769626Y677729D01*
X1766300Y676351D01*
X1762700Y676351D01*
X1759374Y677729D01*
X1756829Y680274D01*
X1755451Y683600D01*
X1755451Y687200D01*
X1756829Y690526D01*
X1759005Y692702D01*
X1759023Y692726D01*
X1759045Y692745D01*
X1759108Y692839D01*
X1759176Y692929D01*
X1759187Y692957D01*
X1759203Y692981D01*
X1759237Y693089D01*
X1759277Y693195D01*
X1759280Y693224D01*
X1759289Y693252D01*
X1759292Y693366D01*
X1759301Y693478D01*
X1759295Y693507D01*
X1759296Y693536D01*
X1759267Y693646D01*
X1759245Y693757D01*
X1759232Y693783D01*
X1759224Y693811D01*
X1759166Y693909D01*
X1759114Y694009D01*
X1759094Y694031D01*
X1759079Y694056D01*
X1758996Y694133D01*
X1758918Y694215D01*
X1758893Y694230D01*
X1758872Y694250D01*
X1758771Y694302D01*
X1758673Y694359D01*
X1758645Y694366D01*
X1758618Y694380D01*
X1758541Y694393D01*
X1758398Y694429D01*
X1758335Y694427D01*
X1758287Y694435D01*
X1670713Y694435D01*
X1670683Y694431D01*
X1670654Y694434D01*
X1670543Y694411D01*
X1670431Y694395D01*
X1670404Y694383D01*
X1670376Y694378D01*
X1670275Y694325D01*
X1670172Y694279D01*
X1670149Y694260D01*
X1670123Y694247D01*
X1670041Y694169D01*
X1669955Y694096D01*
X1669938Y694071D01*
X1669917Y694051D01*
X1669860Y693953D01*
X1669797Y693859D01*
X1669788Y693831D01*
X1669773Y693806D01*
X1669746Y693696D01*
X1669711Y693588D01*
X1669711Y693558D01*
X1669703Y693530D01*
X1669707Y693417D01*
X1669704Y693304D01*
X1669711Y693275D01*
X1669712Y693246D01*
X1669747Y693138D01*
X1669776Y693029D01*
X1669791Y693003D01*
X1669800Y692975D01*
X1669845Y692912D01*
X1669921Y692784D01*
X1669967Y692741D01*
X1669995Y692702D01*
X1672171Y690526D01*
X1673549Y687200D01*
X1673549Y683600D01*
X1672171Y680274D01*
X1669626Y677729D01*
X1666300Y676351D01*
X1662700Y676351D01*
X1659374Y677729D01*
X1656829Y680274D01*
X1655451Y683600D01*
X1655451Y687200D01*
X1656829Y690526D01*
X1659005Y692702D01*
X1659023Y692726D01*
X1659045Y692745D01*
X1659108Y692839D01*
X1659176Y692929D01*
X1659187Y692957D01*
X1659203Y692981D01*
X1659237Y693089D01*
X1659277Y693195D01*
X1659280Y693224D01*
X1659289Y693252D01*
X1659292Y693366D01*
X1659301Y693478D01*
X1659295Y693507D01*
X1659296Y693536D01*
X1659267Y693646D01*
X1659245Y693757D01*
X1659232Y693783D01*
X1659224Y693811D01*
X1659166Y693909D01*
X1659114Y694009D01*
X1659094Y694031D01*
X1659079Y694056D01*
X1658996Y694133D01*
X1658918Y694215D01*
X1658893Y694230D01*
X1658872Y694250D01*
X1658771Y694302D01*
X1658673Y694359D01*
X1658645Y694366D01*
X1658618Y694380D01*
X1658541Y694393D01*
X1658398Y694429D01*
X1658335Y694427D01*
X1658287Y694435D01*
X838033Y694435D01*
X837960Y694425D01*
X837886Y694425D01*
X837820Y694405D01*
X837751Y694395D01*
X837684Y694365D01*
X837614Y694345D01*
X837555Y694308D01*
X837492Y694279D01*
X837436Y694232D01*
X837374Y694192D01*
X837328Y694140D01*
X837275Y694096D01*
X837234Y694034D01*
X837185Y693979D01*
X837156Y693917D01*
X837117Y693859D01*
X837095Y693789D01*
X837064Y693722D01*
X837052Y693654D01*
X837032Y693588D01*
X837030Y693514D01*
X837018Y693442D01*
X837026Y693373D01*
X837024Y693304D01*
X837043Y693233D01*
X837052Y693159D01*
X837079Y693096D01*
X837096Y693029D01*
X837134Y692965D01*
X837162Y692898D01*
X837201Y692853D01*
X837241Y692784D01*
X837331Y692700D01*
X837380Y692642D01*
X843085Y687856D01*
X847071Y680951D01*
X848455Y673100D01*
X847071Y665249D01*
X843085Y658345D01*
X836978Y653220D01*
X829486Y650493D01*
X821514Y650493D01*
X814022Y653220D01*
X807915Y658344D01*
X803929Y665249D01*
X802545Y673100D01*
X803929Y680951D01*
X807915Y687855D01*
X813620Y692642D01*
X813669Y692697D01*
X813725Y692745D01*
X813764Y692802D01*
X813810Y692854D01*
X813842Y692920D01*
X813883Y692981D01*
X813904Y693047D01*
X813934Y693110D01*
X813946Y693182D01*
X813968Y693252D01*
X813970Y693321D01*
X813982Y693390D01*
X813974Y693463D01*
X813976Y693536D01*
X813958Y693603D01*
X813951Y693672D01*
X813923Y693740D01*
X813904Y693811D01*
X813869Y693871D01*
X813842Y693935D01*
X813796Y693993D01*
X813759Y694056D01*
X813708Y694103D01*
X813665Y694157D01*
X813605Y694200D01*
X813551Y694250D01*
X813490Y694282D01*
X813433Y694322D01*
X813364Y694346D01*
X813298Y694380D01*
X813240Y694390D01*
X813165Y694416D01*
X813043Y694423D01*
X812967Y694435D01*
X68580Y694435D01*
X68522Y694427D01*
X68464Y694429D01*
X68382Y694407D01*
X68298Y694395D01*
X68245Y694372D01*
X68189Y694357D01*
X68116Y694314D01*
X68039Y694279D01*
X67994Y694241D01*
X67944Y694212D01*
X67886Y694150D01*
X67822Y694096D01*
X67790Y694047D01*
X67750Y694004D01*
X67711Y693929D01*
X67664Y693859D01*
X67647Y693803D01*
X67620Y693751D01*
X67609Y693683D01*
X67579Y693588D01*
X67576Y693488D01*
X67565Y693420D01*
X67565Y660328D01*
X67581Y660215D01*
X67590Y660101D01*
X67601Y660075D01*
X67605Y660047D01*
X67651Y659943D01*
X67692Y659836D01*
X67709Y659813D01*
X67721Y659787D01*
X67795Y659700D01*
X67863Y659609D01*
X67886Y659592D01*
X67904Y659570D01*
X68000Y659507D01*
X68091Y659439D01*
X68117Y659429D01*
X68141Y659413D01*
X68250Y659378D01*
X68357Y659338D01*
X68385Y659336D01*
X68412Y659327D01*
X68526Y659324D01*
X68640Y659315D01*
X68668Y659320D01*
X68696Y659320D01*
X68807Y659349D01*
X68919Y659371D01*
X68944Y659384D01*
X68971Y659392D01*
X69069Y659450D01*
X69171Y659503D01*
X69191Y659522D01*
X69216Y659537D01*
X69294Y659620D01*
X69377Y659699D01*
X69389Y659721D01*
X69410Y659744D01*
X69529Y659976D01*
X69538Y659993D01*
X69581Y660115D01*
X70183Y661366D01*
X70672Y662381D01*
X70708Y662455D01*
X72089Y664653D01*
X73708Y666683D01*
X75543Y668518D01*
X77573Y670137D01*
X79102Y671098D01*
X79103Y671098D01*
X79771Y671518D01*
X82110Y672645D01*
X84561Y673502D01*
X87092Y674080D01*
X88939Y674288D01*
X88939Y652272D01*
X88947Y652214D01*
X88945Y652156D01*
X88967Y652074D01*
X88979Y651991D01*
X89003Y651937D01*
X89017Y651881D01*
X89060Y651808D01*
X89095Y651731D01*
X89133Y651687D01*
X89163Y651636D01*
X89224Y651579D01*
X89279Y651514D01*
X89327Y651482D01*
X89370Y651442D01*
X89445Y651403D01*
X89515Y651357D01*
X89571Y651339D01*
X89623Y651312D01*
X89691Y651301D01*
X89786Y651271D01*
X89886Y651268D01*
X89954Y651257D01*
X90971Y651257D01*
X90971Y651255D01*
X89954Y651255D01*
X89896Y651247D01*
X89838Y651248D01*
X89756Y651227D01*
X89673Y651215D01*
X89619Y651191D01*
X89563Y651177D01*
X89490Y651134D01*
X89413Y651099D01*
X89368Y651061D01*
X89318Y651031D01*
X89260Y650970D01*
X89196Y650915D01*
X89164Y650867D01*
X89124Y650824D01*
X89085Y650749D01*
X89039Y650679D01*
X89021Y650623D01*
X88994Y650571D01*
X88983Y650503D01*
X88953Y650408D01*
X88950Y650308D01*
X88939Y650240D01*
X88939Y628224D01*
X87092Y628432D01*
X84561Y629010D01*
X82110Y629867D01*
X79771Y630994D01*
X77573Y632375D01*
X75543Y633994D01*
X73708Y635829D01*
X72089Y637859D01*
X70708Y640057D01*
X69581Y642396D01*
X69538Y642519D01*
X69486Y642620D01*
X69439Y642725D01*
X69421Y642746D01*
X69408Y642771D01*
X69329Y642854D01*
X69255Y642942D01*
X69232Y642957D01*
X69212Y642978D01*
X69114Y643036D01*
X69019Y643099D01*
X68992Y643108D01*
X68967Y643122D01*
X68857Y643150D01*
X68748Y643185D01*
X68719Y643186D01*
X68692Y643193D01*
X68578Y643189D01*
X68464Y643192D01*
X68436Y643185D01*
X68408Y643184D01*
X68299Y643149D01*
X68189Y643120D01*
X68164Y643106D01*
X68137Y643097D01*
X68042Y643033D01*
X67944Y642975D01*
X67925Y642954D01*
X67901Y642939D01*
X67828Y642851D01*
X67750Y642768D01*
X67737Y642743D01*
X67718Y642721D01*
X67672Y642616D01*
X67620Y642515D01*
X67616Y642490D01*
X67603Y642461D01*
X67568Y642203D01*
X67565Y642184D01*
X67565Y532749D01*
X67567Y532729D01*
X67565Y532710D01*
X67587Y532589D01*
X67605Y532467D01*
X67613Y532449D01*
X67616Y532430D01*
X67671Y532320D01*
X67721Y532208D01*
X67733Y532193D01*
X67742Y532175D01*
X67825Y532084D01*
X67904Y531991D01*
X67921Y531980D01*
X67934Y531965D01*
X68039Y531901D01*
X68141Y531833D01*
X68160Y531827D01*
X68176Y531817D01*
X68295Y531784D01*
X68412Y531747D01*
X68432Y531747D01*
X68451Y531742D01*
X68573Y531743D01*
X68696Y531740D01*
X68715Y531745D01*
X68735Y531745D01*
X68853Y531781D01*
X68971Y531812D01*
X68988Y531822D01*
X69007Y531828D01*
X69110Y531894D01*
X69216Y531957D01*
X69229Y531971D01*
X69246Y531982D01*
X69292Y532039D01*
X69410Y532164D01*
X69434Y532210D01*
X69459Y532241D01*
X71315Y535456D01*
X77422Y540580D01*
X84914Y543307D01*
X92886Y543307D01*
X100378Y540580D01*
X106485Y535456D01*
X110471Y528551D01*
X111855Y520700D01*
X110471Y512849D01*
X106485Y505945D01*
X100780Y501158D01*
X100731Y501103D01*
X100675Y501055D01*
X100636Y500998D01*
X100590Y500946D01*
X100558Y500880D01*
X100517Y500819D01*
X100496Y500753D01*
X100466Y500690D01*
X100454Y500618D01*
X100432Y500548D01*
X100430Y500479D01*
X100418Y500410D01*
X100426Y500337D01*
X100424Y500264D01*
X100442Y500197D01*
X100449Y500128D01*
X100477Y500060D01*
X100496Y499989D01*
X100531Y499929D01*
X100558Y499865D01*
X100604Y499807D01*
X100641Y499744D01*
X100692Y499697D01*
X100735Y499643D01*
X100795Y499600D01*
X100849Y499550D01*
X100910Y499518D01*
X100967Y499478D01*
X101036Y499454D01*
X101102Y499420D01*
X101160Y499410D01*
X101235Y499384D01*
X101357Y499377D01*
X101433Y499365D01*
X1740067Y499365D01*
X1740140Y499375D01*
G37*
%LPC*%
G36*
X134431Y615925D02*
X134431Y615925D01*
X134431Y636926D01*
X136278Y636718D01*
X138809Y636140D01*
X141260Y635283D01*
X143599Y634156D01*
X145797Y632775D01*
X146440Y632262D01*
X146514Y632219D01*
X146582Y632167D01*
X146636Y632147D01*
X146685Y632118D01*
X146768Y632097D01*
X146848Y632066D01*
X146905Y632061D01*
X146960Y632047D01*
X147046Y632050D01*
X147131Y632043D01*
X147187Y632054D01*
X147244Y632055D01*
X147326Y632082D01*
X147410Y632098D01*
X147461Y632125D01*
X147515Y632142D01*
X147586Y632190D01*
X147662Y632229D01*
X147704Y632269D01*
X147751Y632301D01*
X147806Y632366D01*
X147868Y632425D01*
X147897Y632474D01*
X147934Y632518D01*
X147969Y632597D01*
X148012Y632671D01*
X148026Y632726D01*
X148049Y632778D01*
X148061Y632863D01*
X148082Y632946D01*
X148080Y633003D01*
X148088Y633060D01*
X148076Y633145D01*
X148073Y633230D01*
X148056Y633285D01*
X148047Y633341D01*
X148012Y633419D01*
X147986Y633501D01*
X147957Y633541D01*
X147930Y633600D01*
X147856Y633683D01*
X147791Y633774D01*
X143723Y637842D01*
X140049Y646711D01*
X140049Y656309D01*
X143723Y665178D01*
X150510Y671965D01*
X159379Y675639D01*
X168977Y675639D01*
X177846Y671965D01*
X184633Y665178D01*
X188307Y656309D01*
X188307Y646711D01*
X184633Y637842D01*
X177846Y631055D01*
X168977Y627381D01*
X159379Y627381D01*
X150816Y630928D01*
X150787Y630935D01*
X150762Y630949D01*
X150650Y630971D01*
X150540Y630999D01*
X150511Y630998D01*
X150483Y631004D01*
X150370Y630994D01*
X150256Y630991D01*
X150229Y630982D01*
X150200Y630980D01*
X150094Y630939D01*
X149985Y630904D01*
X149961Y630888D01*
X149934Y630878D01*
X149844Y630809D01*
X149749Y630746D01*
X149731Y630724D01*
X149707Y630706D01*
X149639Y630615D01*
X149566Y630528D01*
X149555Y630502D01*
X149537Y630478D01*
X149497Y630372D01*
X149451Y630269D01*
X149447Y630240D01*
X149437Y630213D01*
X149427Y630100D01*
X149412Y629987D01*
X149416Y629958D01*
X149414Y629929D01*
X149436Y629818D01*
X149453Y629706D01*
X149465Y629679D01*
X149470Y629651D01*
X149508Y629582D01*
X149570Y629447D01*
X149610Y629399D01*
X149633Y629357D01*
X151281Y627291D01*
X152662Y625093D01*
X153789Y622754D01*
X154646Y620303D01*
X155224Y617772D01*
X155432Y615925D01*
X134431Y615925D01*
G37*
%LPD*%
G36*
X1296474Y520709D02*
X1296474Y520709D01*
X1296532Y520708D01*
X1296614Y520729D01*
X1296697Y520741D01*
X1296751Y520765D01*
X1296807Y520779D01*
X1296880Y520822D01*
X1296957Y520857D01*
X1297002Y520895D01*
X1297052Y520925D01*
X1297110Y520986D01*
X1297174Y521041D01*
X1297206Y521089D01*
X1297246Y521132D01*
X1297285Y521207D01*
X1297331Y521277D01*
X1297349Y521333D01*
X1297376Y521385D01*
X1297387Y521453D01*
X1297417Y521548D01*
X1297420Y521648D01*
X1297431Y521716D01*
X1297431Y532466D01*
X1298196Y532345D01*
X1299983Y531764D01*
X1301657Y530911D01*
X1303178Y529806D01*
X1304506Y528478D01*
X1305611Y526957D01*
X1306464Y525283D01*
X1306828Y524163D01*
X1306858Y524101D01*
X1306879Y524035D01*
X1306920Y523974D01*
X1306953Y523908D01*
X1306999Y523857D01*
X1307038Y523799D01*
X1307094Y523752D01*
X1307143Y523697D01*
X1307202Y523661D01*
X1307255Y523616D01*
X1307322Y523586D01*
X1307385Y523548D01*
X1307452Y523529D01*
X1307515Y523501D01*
X1307588Y523491D01*
X1307659Y523471D01*
X1307728Y523471D01*
X1307796Y523462D01*
X1307869Y523472D01*
X1307943Y523473D01*
X1308010Y523493D01*
X1308078Y523503D01*
X1308145Y523533D01*
X1308216Y523554D01*
X1308274Y523591D01*
X1308337Y523620D01*
X1308393Y523667D01*
X1308455Y523707D01*
X1308501Y523759D01*
X1308553Y523804D01*
X1308586Y523857D01*
X1308643Y523921D01*
X1308692Y524025D01*
X1308731Y524089D01*
X1310248Y527751D01*
X1312545Y530048D01*
X1312615Y530140D01*
X1312688Y530227D01*
X1312700Y530253D01*
X1312716Y530275D01*
X1312757Y530382D01*
X1312804Y530487D01*
X1312808Y530515D01*
X1312818Y530541D01*
X1312827Y530655D01*
X1312843Y530769D01*
X1312839Y530796D01*
X1312841Y530824D01*
X1312819Y530936D01*
X1312802Y531050D01*
X1312791Y531076D01*
X1312785Y531103D01*
X1312732Y531204D01*
X1312685Y531309D01*
X1312667Y531330D01*
X1312654Y531355D01*
X1312575Y531438D01*
X1312501Y531526D01*
X1312480Y531539D01*
X1312459Y531561D01*
X1312229Y531696D01*
X1312216Y531704D01*
X1310947Y532229D01*
X1282402Y560774D01*
X1282378Y560792D01*
X1282359Y560814D01*
X1282265Y560877D01*
X1282175Y560945D01*
X1282147Y560956D01*
X1282123Y560972D01*
X1282015Y561006D01*
X1281909Y561046D01*
X1281880Y561049D01*
X1281852Y561058D01*
X1281738Y561061D01*
X1281626Y561070D01*
X1281597Y561064D01*
X1281568Y561065D01*
X1281458Y561036D01*
X1281347Y561014D01*
X1281321Y561001D01*
X1281293Y560993D01*
X1281195Y560935D01*
X1281095Y560883D01*
X1281073Y560863D01*
X1281048Y560848D01*
X1280971Y560765D01*
X1280889Y560687D01*
X1280874Y560662D01*
X1280854Y560641D01*
X1280802Y560540D01*
X1280745Y560442D01*
X1280738Y560414D01*
X1280724Y560387D01*
X1280711Y560310D01*
X1280675Y560166D01*
X1280677Y560104D01*
X1280669Y560056D01*
X1280669Y527670D01*
X1280673Y527640D01*
X1280671Y527609D01*
X1280688Y527532D01*
X1280709Y527389D01*
X1280735Y527330D01*
X1280746Y527282D01*
X1282069Y524089D01*
X1282104Y524029D01*
X1282130Y523965D01*
X1282176Y523907D01*
X1282213Y523844D01*
X1282263Y523796D01*
X1282306Y523742D01*
X1282366Y523699D01*
X1282420Y523649D01*
X1282481Y523617D01*
X1282538Y523577D01*
X1282607Y523552D01*
X1282673Y523518D01*
X1282740Y523505D01*
X1282806Y523482D01*
X1282879Y523478D01*
X1282952Y523463D01*
X1283020Y523469D01*
X1283089Y523465D01*
X1283161Y523481D01*
X1283235Y523488D01*
X1283299Y523513D01*
X1283367Y523528D01*
X1283431Y523563D01*
X1283500Y523590D01*
X1283555Y523631D01*
X1283616Y523665D01*
X1283668Y523717D01*
X1283727Y523761D01*
X1283768Y523817D01*
X1283817Y523866D01*
X1283846Y523921D01*
X1283897Y523989D01*
X1283938Y524097D01*
X1283972Y524163D01*
X1284336Y525283D01*
X1285189Y526957D01*
X1286294Y528478D01*
X1287622Y529806D01*
X1289143Y530911D01*
X1290817Y531764D01*
X1292604Y532345D01*
X1293369Y532466D01*
X1293369Y521716D01*
X1293377Y521658D01*
X1293375Y521600D01*
X1293397Y521518D01*
X1293409Y521435D01*
X1293433Y521381D01*
X1293447Y521325D01*
X1293490Y521252D01*
X1293525Y521175D01*
X1293563Y521131D01*
X1293593Y521080D01*
X1293654Y521023D01*
X1293709Y520958D01*
X1293757Y520926D01*
X1293800Y520886D01*
X1293875Y520847D01*
X1293945Y520801D01*
X1294001Y520783D01*
X1294053Y520756D01*
X1294121Y520745D01*
X1294216Y520715D01*
X1294316Y520712D01*
X1294384Y520701D01*
X1296416Y520701D01*
X1296474Y520709D01*
G37*
%LPC*%
G36*
X232417Y661161D02*
X232417Y661161D01*
X230631Y662947D01*
X230631Y680713D01*
X232417Y682499D01*
X250183Y682499D01*
X251969Y680713D01*
X251969Y662947D01*
X250183Y661161D01*
X232417Y661161D01*
G37*
%LPD*%
%LPC*%
G36*
X93001Y653287D02*
X93001Y653287D01*
X93001Y674288D01*
X94848Y674080D01*
X97379Y673502D01*
X99830Y672645D01*
X102169Y671518D01*
X104367Y670137D01*
X106397Y668518D01*
X108232Y666683D01*
X109851Y664653D01*
X111232Y662455D01*
X112359Y660116D01*
X113216Y657665D01*
X113794Y655134D01*
X114002Y653287D01*
X93001Y653287D01*
G37*
%LPD*%
%LPC*%
G36*
X109368Y615925D02*
X109368Y615925D01*
X109576Y617772D01*
X110154Y620303D01*
X111011Y622754D01*
X112005Y624817D01*
X112138Y625093D01*
X113519Y627291D01*
X115138Y629321D01*
X116973Y631156D01*
X119003Y632775D01*
X120210Y633534D01*
X120211Y633534D01*
X121201Y634156D01*
X123540Y635283D01*
X125991Y636140D01*
X128522Y636718D01*
X130369Y636926D01*
X130369Y615925D01*
X109368Y615925D01*
G37*
%LPD*%
%LPC*%
G36*
X93001Y649225D02*
X93001Y649225D01*
X114002Y649225D01*
X113794Y647378D01*
X113216Y644847D01*
X112359Y642396D01*
X111232Y640057D01*
X109851Y637859D01*
X108232Y635829D01*
X106397Y633994D01*
X104367Y632375D01*
X104099Y632206D01*
X102483Y631191D01*
X102169Y630994D01*
X99830Y629867D01*
X97379Y629010D01*
X94848Y628432D01*
X93001Y628224D01*
X93001Y649225D01*
G37*
%LPD*%
%LPC*%
G36*
X134431Y611863D02*
X134431Y611863D01*
X155432Y611863D01*
X155224Y610016D01*
X154646Y607485D01*
X153789Y605034D01*
X152982Y603359D01*
X152662Y602695D01*
X151281Y600497D01*
X149662Y598467D01*
X147827Y596632D01*
X145797Y595013D01*
X145207Y594642D01*
X143599Y593632D01*
X141260Y592505D01*
X138809Y591648D01*
X136278Y591070D01*
X134431Y590862D01*
X134431Y611863D01*
G37*
%LPD*%
%LPC*%
G36*
X128522Y591070D02*
X128522Y591070D01*
X125991Y591648D01*
X123540Y592505D01*
X121201Y593632D01*
X119003Y595013D01*
X116973Y596632D01*
X115138Y598467D01*
X113519Y600497D01*
X112138Y602695D01*
X111011Y605034D01*
X110154Y607485D01*
X109576Y610016D01*
X109368Y611863D01*
X130369Y611863D01*
X130369Y590862D01*
X128522Y591070D01*
G37*
%LPD*%
%LPC*%
G36*
X1662700Y651351D02*
X1662700Y651351D01*
X1659374Y652729D01*
X1656829Y655274D01*
X1655451Y658600D01*
X1655451Y662200D01*
X1656829Y665526D01*
X1659374Y668071D01*
X1662700Y669449D01*
X1666300Y669449D01*
X1669626Y668071D01*
X1672171Y665526D01*
X1673549Y662200D01*
X1673549Y658600D01*
X1672171Y655274D01*
X1669626Y652729D01*
X1666300Y651351D01*
X1662700Y651351D01*
G37*
%LPD*%
G36*
X1465791Y600969D02*
X1465791Y600969D01*
X1465820Y600966D01*
X1465931Y600989D01*
X1466043Y601005D01*
X1466070Y601017D01*
X1466099Y601022D01*
X1466199Y601074D01*
X1466303Y601121D01*
X1466325Y601140D01*
X1466351Y601153D01*
X1466433Y601231D01*
X1466520Y601304D01*
X1466536Y601329D01*
X1466557Y601349D01*
X1466615Y601447D01*
X1466677Y601541D01*
X1466686Y601569D01*
X1466701Y601594D01*
X1466729Y601704D01*
X1466763Y601812D01*
X1466764Y601842D01*
X1466771Y601870D01*
X1466768Y601983D01*
X1466770Y602096D01*
X1466763Y602125D01*
X1466762Y602154D01*
X1466727Y602262D01*
X1466699Y602371D01*
X1466684Y602397D01*
X1466675Y602425D01*
X1466629Y602488D01*
X1466553Y602616D01*
X1466508Y602659D01*
X1466480Y602698D01*
X1456426Y612752D01*
X1456330Y612824D01*
X1456236Y612901D01*
X1456216Y612910D01*
X1456199Y612922D01*
X1456086Y612965D01*
X1455975Y613013D01*
X1455953Y613016D01*
X1455933Y613024D01*
X1455813Y613034D01*
X1455693Y613049D01*
X1455671Y613045D01*
X1455650Y613047D01*
X1455531Y613023D01*
X1455412Y613005D01*
X1455394Y612996D01*
X1455371Y612991D01*
X1455119Y612860D01*
X1455115Y612857D01*
X1455111Y612855D01*
X1454057Y612089D01*
X1452383Y611236D01*
X1450596Y610655D01*
X1449831Y610534D01*
X1449831Y621284D01*
X1449823Y621342D01*
X1449825Y621400D01*
X1449803Y621482D01*
X1449791Y621565D01*
X1449767Y621619D01*
X1449753Y621675D01*
X1449710Y621748D01*
X1449675Y621825D01*
X1449637Y621869D01*
X1449607Y621920D01*
X1449546Y621977D01*
X1449491Y622042D01*
X1449443Y622074D01*
X1449400Y622114D01*
X1449325Y622153D01*
X1449255Y622199D01*
X1449199Y622217D01*
X1449147Y622244D01*
X1449079Y622255D01*
X1448984Y622285D01*
X1448884Y622288D01*
X1448816Y622299D01*
X1446784Y622299D01*
X1446726Y622291D01*
X1446668Y622292D01*
X1446586Y622271D01*
X1446503Y622259D01*
X1446449Y622235D01*
X1446393Y622221D01*
X1446320Y622178D01*
X1446243Y622143D01*
X1446198Y622105D01*
X1446148Y622075D01*
X1446090Y622014D01*
X1446026Y621959D01*
X1445994Y621911D01*
X1445954Y621868D01*
X1445915Y621793D01*
X1445869Y621723D01*
X1445851Y621667D01*
X1445824Y621615D01*
X1445813Y621547D01*
X1445783Y621452D01*
X1445780Y621352D01*
X1445769Y621284D01*
X1445769Y610534D01*
X1444925Y610668D01*
X1444873Y610669D01*
X1444791Y610683D01*
X1444744Y610678D01*
X1444697Y610682D01*
X1444648Y610672D01*
X1444641Y610672D01*
X1444619Y610666D01*
X1444603Y610663D01*
X1444508Y610653D01*
X1444465Y610636D01*
X1444419Y610626D01*
X1444334Y610582D01*
X1444245Y610546D01*
X1444208Y610517D01*
X1444166Y610495D01*
X1444097Y610429D01*
X1444022Y610370D01*
X1443994Y610332D01*
X1443960Y610299D01*
X1443912Y610217D01*
X1443856Y610139D01*
X1443840Y610095D01*
X1443816Y610054D01*
X1443793Y609961D01*
X1443761Y609871D01*
X1443758Y609824D01*
X1443746Y609779D01*
X1443749Y609683D01*
X1443744Y609587D01*
X1443754Y609542D01*
X1443755Y609495D01*
X1443785Y609403D01*
X1443806Y609310D01*
X1443828Y609269D01*
X1443843Y609224D01*
X1443882Y609169D01*
X1443885Y609161D01*
X1443893Y609151D01*
X1443942Y609061D01*
X1444002Y609001D01*
X1444038Y608951D01*
X1451726Y601262D01*
X1451796Y601210D01*
X1451860Y601150D01*
X1451909Y601124D01*
X1451954Y601091D01*
X1452035Y601060D01*
X1452113Y601020D01*
X1452161Y601012D01*
X1452219Y600990D01*
X1452367Y600978D01*
X1452444Y600965D01*
X1465762Y600965D01*
X1465791Y600969D01*
G37*
%LPC*%
G36*
X1716531Y662431D02*
X1716531Y662431D01*
X1716531Y673709D01*
X1717653Y673531D01*
X1719668Y672876D01*
X1721556Y671914D01*
X1723270Y670669D01*
X1724769Y669170D01*
X1726014Y667456D01*
X1726976Y665568D01*
X1727631Y663553D01*
X1727809Y662431D01*
X1716531Y662431D01*
G37*
%LPD*%
%LPC*%
G36*
X1701191Y662431D02*
X1701191Y662431D01*
X1701369Y663553D01*
X1702024Y665568D01*
X1702986Y667456D01*
X1704231Y669170D01*
X1705730Y670669D01*
X1707444Y671914D01*
X1709332Y672876D01*
X1711347Y673531D01*
X1712469Y673709D01*
X1712469Y662431D01*
X1701191Y662431D01*
G37*
%LPD*%
%LPC*%
G36*
X1716531Y658369D02*
X1716531Y658369D01*
X1727809Y658369D01*
X1727631Y657247D01*
X1726976Y655232D01*
X1726014Y653344D01*
X1724769Y651630D01*
X1723270Y650131D01*
X1721556Y648886D01*
X1719668Y647924D01*
X1717653Y647269D01*
X1716531Y647091D01*
X1716531Y658369D01*
G37*
%LPD*%
%LPC*%
G36*
X1711347Y647269D02*
X1711347Y647269D01*
X1709332Y647924D01*
X1707444Y648886D01*
X1705730Y650131D01*
X1704231Y651630D01*
X1702986Y653344D01*
X1702024Y655232D01*
X1701369Y657247D01*
X1701191Y658369D01*
X1712469Y658369D01*
X1712469Y647091D01*
X1711347Y647269D01*
G37*
%LPD*%
%LPC*%
G36*
X1551431Y620269D02*
X1551431Y620269D01*
X1561287Y620269D01*
X1561278Y620255D01*
X1561204Y620154D01*
X1561199Y620139D01*
X1561188Y620124D01*
X1561100Y619854D01*
X1561100Y619844D01*
X1561097Y619836D01*
X1561045Y619504D01*
X1560464Y617717D01*
X1559611Y616043D01*
X1558506Y614522D01*
X1557178Y613194D01*
X1555657Y612089D01*
X1553983Y611236D01*
X1552196Y610655D01*
X1551431Y610534D01*
X1551431Y620269D01*
G37*
%LPD*%
%LPC*%
G36*
X1373631Y620269D02*
X1373631Y620269D01*
X1383487Y620269D01*
X1383478Y620255D01*
X1383404Y620154D01*
X1383399Y620139D01*
X1383388Y620124D01*
X1383300Y619854D01*
X1383300Y619844D01*
X1383297Y619836D01*
X1383245Y619504D01*
X1382664Y617717D01*
X1381811Y616043D01*
X1380706Y614522D01*
X1379378Y613194D01*
X1377857Y612089D01*
X1376183Y611236D01*
X1374396Y610655D01*
X1373631Y610534D01*
X1373631Y620269D01*
G37*
%LPD*%
%LPC*%
G36*
X1576831Y620269D02*
X1576831Y620269D01*
X1586687Y620269D01*
X1586678Y620255D01*
X1586604Y620154D01*
X1586599Y620139D01*
X1586588Y620124D01*
X1586500Y619854D01*
X1586500Y619844D01*
X1586497Y619836D01*
X1586445Y619504D01*
X1585864Y617717D01*
X1585011Y616043D01*
X1583906Y614522D01*
X1582578Y613194D01*
X1581057Y612089D01*
X1579383Y611236D01*
X1577596Y610655D01*
X1576831Y610534D01*
X1576831Y620269D01*
G37*
%LPD*%
%LPC*%
G36*
X1399031Y620269D02*
X1399031Y620269D01*
X1408887Y620269D01*
X1408878Y620255D01*
X1408804Y620154D01*
X1408799Y620139D01*
X1408788Y620124D01*
X1408700Y619854D01*
X1408700Y619844D01*
X1408697Y619836D01*
X1408645Y619504D01*
X1408064Y617717D01*
X1407211Y616043D01*
X1406106Y614522D01*
X1404778Y613194D01*
X1403257Y612089D01*
X1401583Y611236D01*
X1399796Y610655D01*
X1399031Y610534D01*
X1399031Y620269D01*
G37*
%LPD*%
%LPC*%
G36*
X1500631Y620269D02*
X1500631Y620269D01*
X1510487Y620269D01*
X1510478Y620255D01*
X1510404Y620154D01*
X1510399Y620139D01*
X1510388Y620124D01*
X1510300Y619854D01*
X1510300Y619845D01*
X1510297Y619836D01*
X1510245Y619504D01*
X1509664Y617717D01*
X1508811Y616043D01*
X1507706Y614522D01*
X1506378Y613194D01*
X1504857Y612089D01*
X1503183Y611236D01*
X1501396Y610655D01*
X1500631Y610534D01*
X1500631Y620269D01*
G37*
%LPD*%
%LPC*%
G36*
X1526031Y620269D02*
X1526031Y620269D01*
X1535887Y620269D01*
X1535878Y620255D01*
X1535804Y620154D01*
X1535799Y620139D01*
X1535788Y620124D01*
X1535700Y619854D01*
X1535700Y619845D01*
X1535697Y619836D01*
X1535645Y619504D01*
X1535064Y617717D01*
X1534211Y616043D01*
X1533106Y614522D01*
X1531778Y613194D01*
X1530257Y612089D01*
X1528583Y611236D01*
X1526796Y610655D01*
X1526031Y610534D01*
X1526031Y620269D01*
G37*
%LPD*%
%LPC*%
G36*
X1475231Y620269D02*
X1475231Y620269D01*
X1485087Y620269D01*
X1485078Y620255D01*
X1485004Y620154D01*
X1484999Y620139D01*
X1484988Y620124D01*
X1484900Y619854D01*
X1484900Y619845D01*
X1484897Y619836D01*
X1484845Y619504D01*
X1484264Y617717D01*
X1483411Y616043D01*
X1482306Y614522D01*
X1480978Y613194D01*
X1479457Y612089D01*
X1477783Y611236D01*
X1475996Y610655D01*
X1475231Y610534D01*
X1475231Y620269D01*
G37*
%LPD*%
%LPC*%
G36*
X1597404Y610655D02*
X1597404Y610655D01*
X1595617Y611236D01*
X1593943Y612089D01*
X1592422Y613194D01*
X1591094Y614522D01*
X1589989Y616043D01*
X1589136Y617717D01*
X1588555Y619504D01*
X1588503Y619836D01*
X1588466Y619956D01*
X1588433Y620077D01*
X1588424Y620091D01*
X1588419Y620108D01*
X1588351Y620212D01*
X1588317Y620269D01*
X1598169Y620269D01*
X1598169Y610534D01*
X1597404Y610655D01*
G37*
%LPD*%
%LPC*%
G36*
X1394204Y610655D02*
X1394204Y610655D01*
X1392417Y611236D01*
X1390743Y612089D01*
X1389222Y613194D01*
X1387894Y614522D01*
X1386789Y616043D01*
X1385936Y617717D01*
X1385355Y619504D01*
X1385303Y619836D01*
X1385266Y619956D01*
X1385233Y620077D01*
X1385224Y620091D01*
X1385219Y620108D01*
X1385151Y620212D01*
X1385117Y620269D01*
X1394969Y620269D01*
X1394969Y610534D01*
X1394204Y610655D01*
G37*
%LPD*%
%LPC*%
G36*
X1572004Y610655D02*
X1572004Y610655D01*
X1570217Y611236D01*
X1568543Y612089D01*
X1567022Y613194D01*
X1565694Y614522D01*
X1564589Y616043D01*
X1563736Y617717D01*
X1563155Y619504D01*
X1563103Y619836D01*
X1563066Y619956D01*
X1563033Y620077D01*
X1563024Y620091D01*
X1563019Y620108D01*
X1562951Y620212D01*
X1562917Y620269D01*
X1572769Y620269D01*
X1572769Y610534D01*
X1572004Y610655D01*
G37*
%LPD*%
%LPC*%
G36*
X1419604Y610655D02*
X1419604Y610655D01*
X1417817Y611236D01*
X1416143Y612089D01*
X1414622Y613194D01*
X1413294Y614522D01*
X1412189Y616043D01*
X1411336Y617717D01*
X1410755Y619504D01*
X1410703Y619836D01*
X1410666Y619956D01*
X1410633Y620077D01*
X1410624Y620091D01*
X1410619Y620108D01*
X1410551Y620212D01*
X1410517Y620269D01*
X1420369Y620269D01*
X1420369Y610534D01*
X1419604Y610655D01*
G37*
%LPD*%
%LPC*%
G36*
X1521204Y610655D02*
X1521204Y610655D01*
X1519417Y611236D01*
X1517743Y612089D01*
X1516222Y613194D01*
X1514894Y614522D01*
X1513789Y616043D01*
X1512936Y617717D01*
X1512355Y619504D01*
X1512303Y619836D01*
X1512266Y619956D01*
X1512233Y620077D01*
X1512224Y620091D01*
X1512219Y620108D01*
X1512151Y620213D01*
X1512117Y620269D01*
X1521969Y620269D01*
X1521969Y610534D01*
X1521204Y610655D01*
G37*
%LPD*%
%LPC*%
G36*
X1495804Y610655D02*
X1495804Y610655D01*
X1494017Y611236D01*
X1492343Y612089D01*
X1490822Y613194D01*
X1489494Y614522D01*
X1488389Y616043D01*
X1487536Y617717D01*
X1486955Y619504D01*
X1486903Y619836D01*
X1486866Y619956D01*
X1486833Y620077D01*
X1486824Y620091D01*
X1486819Y620108D01*
X1486751Y620213D01*
X1486717Y620269D01*
X1496569Y620269D01*
X1496569Y610534D01*
X1495804Y610655D01*
G37*
%LPD*%
%LPC*%
G36*
X1546604Y610655D02*
X1546604Y610655D01*
X1544817Y611236D01*
X1543143Y612089D01*
X1541622Y613194D01*
X1540294Y614522D01*
X1539189Y616043D01*
X1538336Y617717D01*
X1537755Y619504D01*
X1537703Y619836D01*
X1537666Y619956D01*
X1537633Y620077D01*
X1537624Y620091D01*
X1537619Y620108D01*
X1537551Y620213D01*
X1537517Y620269D01*
X1547369Y620269D01*
X1547369Y610534D01*
X1546604Y610655D01*
G37*
%LPD*%
%LPC*%
G36*
X1602231Y620269D02*
X1602231Y620269D01*
X1611966Y620269D01*
X1611845Y619504D01*
X1611264Y617717D01*
X1610411Y616043D01*
X1609306Y614522D01*
X1607978Y613194D01*
X1606457Y612089D01*
X1604783Y611236D01*
X1602996Y610655D01*
X1602231Y610534D01*
X1602231Y620269D01*
G37*
%LPD*%
%LPC*%
G36*
X1368804Y610655D02*
X1368804Y610655D01*
X1367017Y611236D01*
X1365343Y612089D01*
X1363822Y613194D01*
X1362494Y614522D01*
X1361389Y616043D01*
X1360536Y617717D01*
X1359955Y619504D01*
X1359834Y620269D01*
X1369569Y620269D01*
X1369569Y610534D01*
X1368804Y610655D01*
G37*
%LPD*%
%LPC*%
G36*
X268731Y673861D02*
X268731Y673861D01*
X268731Y681991D01*
X274654Y681991D01*
X275301Y681818D01*
X275880Y681483D01*
X276353Y681010D01*
X276688Y680431D01*
X276861Y679784D01*
X276861Y673861D01*
X268731Y673861D01*
G37*
%LPD*%
%LPC*%
G36*
X294131Y522731D02*
X294131Y522731D01*
X294131Y530861D01*
X300054Y530861D01*
X300701Y530688D01*
X301280Y530353D01*
X301753Y529880D01*
X302088Y529301D01*
X302261Y528654D01*
X302261Y522731D01*
X294131Y522731D01*
G37*
%LPD*%
%LPC*%
G36*
X167131Y522731D02*
X167131Y522731D01*
X167131Y530861D01*
X173054Y530861D01*
X173701Y530688D01*
X174280Y530353D01*
X174753Y529880D01*
X175088Y529301D01*
X175261Y528654D01*
X175261Y522731D01*
X167131Y522731D01*
G37*
%LPD*%
%LPC*%
G36*
X421131Y522731D02*
X421131Y522731D01*
X421131Y530861D01*
X427054Y530861D01*
X427701Y530688D01*
X428280Y530353D01*
X428753Y529880D01*
X429088Y529301D01*
X429261Y528654D01*
X429261Y522731D01*
X421131Y522731D01*
G37*
%LPD*%
%LPC*%
G36*
X230631Y522731D02*
X230631Y522731D01*
X230631Y530861D01*
X236554Y530861D01*
X237201Y530688D01*
X237780Y530353D01*
X238253Y529880D01*
X238588Y529301D01*
X238761Y528654D01*
X238761Y522731D01*
X230631Y522731D01*
G37*
%LPD*%
%LPC*%
G36*
X357631Y522731D02*
X357631Y522731D01*
X357631Y530861D01*
X363554Y530861D01*
X364201Y530688D01*
X364780Y530353D01*
X365253Y529880D01*
X365588Y529301D01*
X365761Y528654D01*
X365761Y522731D01*
X357631Y522731D01*
G37*
%LPD*%
%LPC*%
G36*
X256539Y673861D02*
X256539Y673861D01*
X256539Y679784D01*
X256712Y680431D01*
X257047Y681010D01*
X257520Y681483D01*
X258099Y681818D01*
X258746Y681991D01*
X264669Y681991D01*
X264669Y673861D01*
X256539Y673861D01*
G37*
%LPD*%
%LPC*%
G36*
X345439Y522731D02*
X345439Y522731D01*
X345439Y528654D01*
X345612Y529301D01*
X345947Y529880D01*
X346420Y530353D01*
X346999Y530688D01*
X347646Y530861D01*
X353569Y530861D01*
X353569Y522731D01*
X345439Y522731D01*
G37*
%LPD*%
%LPC*%
G36*
X408939Y522731D02*
X408939Y522731D01*
X408939Y528654D01*
X409112Y529301D01*
X409447Y529880D01*
X409920Y530353D01*
X410499Y530688D01*
X411146Y530861D01*
X417069Y530861D01*
X417069Y522731D01*
X408939Y522731D01*
G37*
%LPD*%
%LPC*%
G36*
X218439Y522731D02*
X218439Y522731D01*
X218439Y528654D01*
X218612Y529301D01*
X218947Y529880D01*
X219420Y530353D01*
X219999Y530688D01*
X220646Y530861D01*
X226569Y530861D01*
X226569Y522731D01*
X218439Y522731D01*
G37*
%LPD*%
%LPC*%
G36*
X154939Y522731D02*
X154939Y522731D01*
X154939Y528654D01*
X155112Y529301D01*
X155447Y529880D01*
X155920Y530353D01*
X156499Y530688D01*
X157146Y530861D01*
X163069Y530861D01*
X163069Y522731D01*
X154939Y522731D01*
G37*
%LPD*%
%LPC*%
G36*
X281939Y522731D02*
X281939Y522731D01*
X281939Y528654D01*
X282112Y529301D01*
X282447Y529880D01*
X282920Y530353D01*
X283499Y530688D01*
X284146Y530861D01*
X290069Y530861D01*
X290069Y522731D01*
X281939Y522731D01*
G37*
%LPD*%
%LPC*%
G36*
X268731Y661669D02*
X268731Y661669D01*
X268731Y669799D01*
X276861Y669799D01*
X276861Y663876D01*
X276688Y663229D01*
X276353Y662650D01*
X275880Y662177D01*
X275301Y661842D01*
X274654Y661669D01*
X268731Y661669D01*
G37*
%LPD*%
%LPC*%
G36*
X484631Y510539D02*
X484631Y510539D01*
X484631Y518669D01*
X492761Y518669D01*
X492761Y512746D01*
X492588Y512099D01*
X492253Y511520D01*
X491780Y511047D01*
X491201Y510712D01*
X490554Y510539D01*
X484631Y510539D01*
G37*
%LPD*%
%LPC*%
G36*
X421131Y510539D02*
X421131Y510539D01*
X421131Y518669D01*
X429261Y518669D01*
X429261Y512746D01*
X429088Y512099D01*
X428753Y511520D01*
X428280Y511047D01*
X427701Y510712D01*
X427054Y510539D01*
X421131Y510539D01*
G37*
%LPD*%
%LPC*%
G36*
X167131Y510539D02*
X167131Y510539D01*
X167131Y518669D01*
X175261Y518669D01*
X175261Y512746D01*
X175088Y512099D01*
X174753Y511520D01*
X174280Y511047D01*
X173701Y510712D01*
X173054Y510539D01*
X167131Y510539D01*
G37*
%LPD*%
%LPC*%
G36*
X357631Y510539D02*
X357631Y510539D01*
X357631Y518669D01*
X365761Y518669D01*
X365761Y512746D01*
X365588Y512099D01*
X365253Y511520D01*
X364780Y511047D01*
X364201Y510712D01*
X363554Y510539D01*
X357631Y510539D01*
G37*
%LPD*%
%LPC*%
G36*
X548131Y510539D02*
X548131Y510539D01*
X548131Y518669D01*
X556261Y518669D01*
X556261Y512746D01*
X556088Y512099D01*
X555753Y511520D01*
X555280Y511047D01*
X554701Y510712D01*
X554054Y510539D01*
X548131Y510539D01*
G37*
%LPD*%
%LPC*%
G36*
X294131Y510539D02*
X294131Y510539D01*
X294131Y518669D01*
X302261Y518669D01*
X302261Y512746D01*
X302088Y512099D01*
X301753Y511520D01*
X301280Y511047D01*
X300701Y510712D01*
X300054Y510539D01*
X294131Y510539D01*
G37*
%LPD*%
%LPC*%
G36*
X611631Y510539D02*
X611631Y510539D01*
X611631Y518669D01*
X619761Y518669D01*
X619761Y512746D01*
X619588Y512099D01*
X619253Y511520D01*
X618780Y511047D01*
X618201Y510712D01*
X617554Y510539D01*
X611631Y510539D01*
G37*
%LPD*%
%LPC*%
G36*
X230631Y510539D02*
X230631Y510539D01*
X230631Y518669D01*
X238761Y518669D01*
X238761Y512746D01*
X238588Y512099D01*
X238253Y511520D01*
X237780Y511047D01*
X237201Y510712D01*
X236554Y510539D01*
X230631Y510539D01*
G37*
%LPD*%
%LPC*%
G36*
X258746Y661669D02*
X258746Y661669D01*
X258099Y661842D01*
X257520Y662177D01*
X257047Y662650D01*
X256712Y663229D01*
X256539Y663876D01*
X256539Y669799D01*
X264669Y669799D01*
X264669Y661669D01*
X258746Y661669D01*
G37*
%LPD*%
%LPC*%
G36*
X157146Y510539D02*
X157146Y510539D01*
X156499Y510712D01*
X155920Y511047D01*
X155447Y511520D01*
X155112Y512099D01*
X154939Y512746D01*
X154939Y518669D01*
X163069Y518669D01*
X163069Y510539D01*
X157146Y510539D01*
G37*
%LPD*%
%LPC*%
G36*
X601646Y510539D02*
X601646Y510539D01*
X600999Y510712D01*
X600420Y511047D01*
X599947Y511520D01*
X599612Y512099D01*
X599439Y512746D01*
X599439Y518669D01*
X607569Y518669D01*
X607569Y510539D01*
X601646Y510539D01*
G37*
%LPD*%
%LPC*%
G36*
X474646Y510539D02*
X474646Y510539D01*
X473999Y510712D01*
X473420Y511047D01*
X472947Y511520D01*
X472612Y512099D01*
X472439Y512746D01*
X472439Y518669D01*
X480569Y518669D01*
X480569Y510539D01*
X474646Y510539D01*
G37*
%LPD*%
%LPC*%
G36*
X347646Y510539D02*
X347646Y510539D01*
X346999Y510712D01*
X346420Y511047D01*
X345947Y511520D01*
X345612Y512099D01*
X345439Y512746D01*
X345439Y518669D01*
X353569Y518669D01*
X353569Y510539D01*
X347646Y510539D01*
G37*
%LPD*%
%LPC*%
G36*
X284146Y510539D02*
X284146Y510539D01*
X283499Y510712D01*
X282920Y511047D01*
X282447Y511520D01*
X282112Y512099D01*
X281939Y512746D01*
X281939Y518669D01*
X290069Y518669D01*
X290069Y510539D01*
X284146Y510539D01*
G37*
%LPD*%
%LPC*%
G36*
X220646Y510539D02*
X220646Y510539D01*
X219999Y510712D01*
X219420Y511047D01*
X218947Y511520D01*
X218612Y512099D01*
X218439Y512746D01*
X218439Y518669D01*
X226569Y518669D01*
X226569Y510539D01*
X220646Y510539D01*
G37*
%LPD*%
%LPC*%
G36*
X538146Y510539D02*
X538146Y510539D01*
X537499Y510712D01*
X536920Y511047D01*
X536447Y511520D01*
X536112Y512099D01*
X535939Y512746D01*
X535939Y518669D01*
X544069Y518669D01*
X544069Y510539D01*
X538146Y510539D01*
G37*
%LPD*%
%LPC*%
G36*
X411146Y510539D02*
X411146Y510539D01*
X410499Y510712D01*
X409920Y511047D01*
X409447Y511520D01*
X409112Y512099D01*
X408939Y512746D01*
X408939Y518669D01*
X417069Y518669D01*
X417069Y510539D01*
X411146Y510539D01*
G37*
%LPD*%
%LPC*%
G36*
X132399Y613893D02*
X132399Y613893D01*
X132399Y613895D01*
X132401Y613895D01*
X132401Y613893D01*
X132399Y613893D01*
G37*
%LPD*%
%LPC*%
G36*
X266699Y671829D02*
X266699Y671829D01*
X266699Y671831D01*
X266701Y671831D01*
X266701Y671829D01*
X266699Y671829D01*
G37*
%LPD*%
%LPC*%
G36*
X1714499Y660399D02*
X1714499Y660399D01*
X1714499Y660401D01*
X1714501Y660401D01*
X1714501Y660399D01*
X1714499Y660399D01*
G37*
%LPD*%
%LPC*%
G36*
X228599Y520699D02*
X228599Y520699D01*
X228599Y520701D01*
X228601Y520701D01*
X228601Y520699D01*
X228599Y520699D01*
G37*
%LPD*%
%LPC*%
G36*
X292099Y520699D02*
X292099Y520699D01*
X292099Y520701D01*
X292101Y520701D01*
X292101Y520699D01*
X292099Y520699D01*
G37*
%LPD*%
%LPC*%
G36*
X355599Y520699D02*
X355599Y520699D01*
X355599Y520701D01*
X355601Y520701D01*
X355601Y520699D01*
X355599Y520699D01*
G37*
%LPD*%
%LPC*%
G36*
X165099Y520699D02*
X165099Y520699D01*
X165099Y520701D01*
X165101Y520701D01*
X165101Y520699D01*
X165099Y520699D01*
G37*
%LPD*%
%LPC*%
G36*
X419099Y520699D02*
X419099Y520699D01*
X419099Y520701D01*
X419101Y520701D01*
X419101Y520699D01*
X419099Y520699D01*
G37*
%LPD*%
D10*
X660400Y520700D03*
X685800Y520700D03*
X711200Y520700D03*
X736600Y520700D03*
X762000Y520700D03*
X787400Y520700D03*
X812800Y520700D03*
X838200Y520700D03*
X863600Y520700D03*
X889000Y520700D03*
X927100Y520700D03*
X952500Y520700D03*
X977900Y520700D03*
X1003300Y520700D03*
X1028700Y520700D03*
X1054100Y520700D03*
X1079500Y520700D03*
X1104900Y520700D03*
X1130300Y520700D03*
X1155700Y520700D03*
X1193800Y520700D03*
X1219200Y520700D03*
X1244600Y520700D03*
X1270000Y520700D03*
X1295400Y520700D03*
X1320800Y520700D03*
X1346200Y520700D03*
X1371600Y520700D03*
X1397000Y520700D03*
X1422400Y520700D03*
X1460500Y520700D03*
X1485900Y520700D03*
X1511300Y520700D03*
X1536700Y520700D03*
X1562100Y520700D03*
X1587500Y520700D03*
X1612900Y520700D03*
X1638300Y520700D03*
X1663700Y520700D03*
X1689100Y520700D03*
D11*
X609600Y520700D03*
X584200Y520700D03*
X546100Y520700D03*
X520700Y520700D03*
X482600Y520700D03*
X457200Y520700D03*
X419100Y520700D03*
X393700Y520700D03*
X355600Y520700D03*
X330200Y520700D03*
X292100Y520700D03*
X266700Y520700D03*
X228600Y520700D03*
X203200Y520700D03*
X165100Y520700D03*
X139700Y520700D03*
D12*
X164178Y651510D03*
D13*
X90970Y651256D03*
X132400Y613894D03*
D11*
X241300Y671830D03*
X266700Y671830D03*
D10*
X1397000Y647700D03*
X1371600Y647700D03*
X1422400Y647700D03*
X1447800Y647700D03*
X1473200Y647700D03*
X1498600Y647700D03*
X1524000Y647700D03*
X1549400Y647700D03*
X1574800Y647700D03*
X1600200Y647700D03*
X1371600Y622300D03*
X1397000Y622300D03*
X1422400Y622300D03*
X1447800Y622300D03*
X1473200Y622300D03*
X1498600Y622300D03*
X1524000Y622300D03*
X1549400Y622300D03*
X1574800Y622300D03*
X1600200Y622300D03*
D14*
X1714500Y660400D03*
X1739500Y610400D03*
X1764500Y610400D03*
X1689500Y610400D03*
X1664500Y610400D03*
D15*
X1689500Y610400D01*
X1664500Y610400D02*
X1663700Y611200D01*
X1663700Y628904D01*
X1613662Y678942D01*
X1386586Y678942D01*
X1371600Y663956D01*
X1371600Y647700D01*
X1397000Y647700D02*
X1397000Y660400D01*
X1409700Y673100D01*
X1610614Y673100D01*
X1648460Y603758D02*
X1659382Y592836D01*
X1721866Y592836D01*
X1739430Y610400D02*
X1739500Y610400D01*
X1739430Y610400D02*
X1721866Y592836D01*
X1648460Y635254D02*
X1610614Y673100D01*
X1648460Y635254D02*
X1648460Y603758D01*
X1739500Y610400D02*
X1764500Y610400D01*
X1587500Y538226D02*
X1587500Y520700D01*
X1587500Y538226D02*
X1528826Y596900D01*
X1450340Y596900D01*
X1435100Y612140D01*
X1435100Y635000D01*
X1422400Y647700D01*
X1447800Y647700D02*
X1460500Y635000D01*
X1460500Y614426D01*
X1472692Y602234D02*
X1531366Y602234D01*
X1612900Y520700D01*
X1472692Y602234D02*
X1460500Y614426D01*
X1531112Y665988D02*
X1549400Y647700D01*
X1531112Y665988D02*
X1489456Y665988D01*
D16*
X1489456Y665988D03*
D15*
X1582674Y665226D02*
X1600200Y647700D01*
X1582674Y665226D02*
X1545082Y665226D01*
D16*
X1545082Y665226D03*
D17*
X457200Y534670D02*
X457200Y520700D01*
X977900Y520700D02*
X977900Y534162D01*
X969518Y542544D01*
X465074Y542544D02*
X457200Y534670D01*
X465074Y542544D02*
X969518Y542544D01*
X393700Y539750D02*
X393700Y520700D01*
X1003300Y520700D02*
X1003300Y538480D01*
X981202Y560578D01*
X414528Y560578D01*
X393700Y539750D01*
X330200Y542290D02*
X330200Y520700D01*
X330200Y542290D02*
X366776Y578866D01*
X1244600Y558546D02*
X1244600Y520700D01*
X1244600Y558546D02*
X1224280Y578866D01*
X366776Y578866D01*
X266700Y541528D02*
X266700Y520700D01*
X1270000Y520700D02*
X1270000Y559816D01*
X1232154Y597662D01*
X322834Y597662D01*
X266700Y541528D01*
X203200Y542290D02*
X203200Y520700D01*
X1511300Y520700D02*
X1511300Y533654D01*
X1503680Y541274D01*
X1316990Y541274D01*
X1242060Y616204D01*
X277114Y616204D01*
X203200Y542290D01*
X139700Y534924D02*
X139700Y520700D01*
X1536700Y520700D02*
X1536700Y538988D01*
X1515364Y560324D01*
X1325880Y560324D01*
X1251712Y634492D01*
X239268Y634492D01*
X139700Y534924D01*
M02*
