G04 EAGLE Gerber RS-274X export*
G75*
%MOMM*%
%FSLAX34Y34*%
%LPD*%
%INBottom Copper*%
%IPPOS*%
%AMOC8*
5,1,8,0,0,1.08239X$1,22.5*%
G01*
%ADD10C,0.279400*%
%ADD11C,1.879600*%
%ADD12R,1.524000X1.524000*%
%ADD13C,4.216000*%
%ADD14C,4.114800*%
%ADD15C,2.184400*%
%ADD16C,0.203200*%
%ADD17C,0.736600*%
%ADD18C,1.524000*%

G36*
X1740140Y499375D02*
X1740140Y499375D01*
X1740214Y499375D01*
X1740280Y499395D01*
X1740349Y499405D01*
X1740416Y499435D01*
X1740486Y499455D01*
X1740545Y499492D01*
X1740608Y499521D01*
X1740664Y499568D01*
X1740726Y499608D01*
X1740772Y499660D01*
X1740825Y499704D01*
X1740866Y499766D01*
X1740915Y499821D01*
X1740944Y499883D01*
X1740983Y499941D01*
X1741005Y500011D01*
X1741036Y500078D01*
X1741048Y500146D01*
X1741068Y500212D01*
X1741070Y500286D01*
X1741082Y500358D01*
X1741074Y500427D01*
X1741076Y500496D01*
X1741057Y500567D01*
X1741048Y500641D01*
X1741021Y500704D01*
X1741004Y500771D01*
X1740966Y500835D01*
X1740938Y500902D01*
X1740899Y500947D01*
X1740859Y501016D01*
X1740769Y501100D01*
X1740720Y501158D01*
X1735015Y505944D01*
X1731029Y512849D01*
X1729645Y520700D01*
X1731029Y528551D01*
X1735015Y535455D01*
X1741122Y540580D01*
X1748614Y543307D01*
X1756586Y543307D01*
X1764078Y540580D01*
X1770185Y535456D01*
X1772041Y532241D01*
X1772053Y532226D01*
X1772061Y532208D01*
X1772140Y532114D01*
X1772216Y532017D01*
X1772232Y532006D01*
X1772245Y531991D01*
X1772347Y531922D01*
X1772446Y531851D01*
X1772465Y531844D01*
X1772481Y531833D01*
X1772599Y531796D01*
X1772714Y531754D01*
X1772734Y531753D01*
X1772752Y531747D01*
X1772875Y531744D01*
X1772998Y531736D01*
X1773017Y531741D01*
X1773036Y531740D01*
X1773155Y531771D01*
X1773275Y531798D01*
X1773293Y531807D01*
X1773311Y531812D01*
X1773417Y531874D01*
X1773525Y531933D01*
X1773539Y531947D01*
X1773556Y531957D01*
X1773640Y532047D01*
X1773727Y532133D01*
X1773737Y532150D01*
X1773750Y532164D01*
X1773806Y532274D01*
X1773866Y532381D01*
X1773871Y532400D01*
X1773880Y532418D01*
X1773892Y532490D01*
X1773931Y532658D01*
X1773929Y532709D01*
X1773935Y532749D01*
X1773935Y597667D01*
X1773919Y597781D01*
X1773909Y597895D01*
X1773899Y597921D01*
X1773895Y597948D01*
X1773848Y598053D01*
X1773807Y598160D01*
X1773791Y598183D01*
X1773779Y598208D01*
X1773705Y598295D01*
X1773636Y598387D01*
X1773613Y598404D01*
X1773596Y598425D01*
X1773500Y598489D01*
X1773408Y598557D01*
X1773382Y598567D01*
X1773359Y598582D01*
X1773249Y598617D01*
X1773142Y598658D01*
X1773114Y598660D01*
X1773088Y598668D01*
X1772973Y598671D01*
X1772859Y598680D01*
X1772834Y598675D01*
X1772804Y598676D01*
X1772547Y598608D01*
X1772531Y598605D01*
X1767279Y596429D01*
X1761721Y596429D01*
X1756586Y598556D01*
X1752718Y602424D01*
X1752671Y602460D01*
X1752631Y602502D01*
X1752558Y602545D01*
X1752491Y602595D01*
X1752436Y602616D01*
X1752386Y602646D01*
X1752304Y602667D01*
X1752225Y602697D01*
X1752167Y602701D01*
X1752110Y602716D01*
X1752026Y602713D01*
X1751942Y602720D01*
X1751884Y602709D01*
X1751826Y602707D01*
X1751746Y602681D01*
X1751663Y602664D01*
X1751611Y602637D01*
X1751555Y602619D01*
X1751499Y602579D01*
X1751411Y602533D01*
X1751338Y602465D01*
X1751282Y602424D01*
X1747414Y598556D01*
X1742279Y596429D01*
X1736721Y596429D01*
X1731586Y598556D01*
X1727656Y602486D01*
X1725529Y607621D01*
X1725529Y608278D01*
X1725517Y608363D01*
X1725515Y608448D01*
X1725497Y608503D01*
X1725489Y608559D01*
X1725454Y608637D01*
X1725428Y608719D01*
X1725396Y608767D01*
X1725373Y608818D01*
X1725318Y608884D01*
X1725270Y608955D01*
X1725226Y608992D01*
X1725190Y609035D01*
X1725118Y609083D01*
X1725052Y609138D01*
X1725000Y609162D01*
X1724953Y609193D01*
X1724871Y609219D01*
X1724792Y609254D01*
X1724736Y609262D01*
X1724682Y609279D01*
X1724596Y609281D01*
X1724511Y609293D01*
X1724455Y609285D01*
X1724398Y609286D01*
X1724315Y609264D01*
X1724230Y609252D01*
X1724178Y609229D01*
X1724123Y609214D01*
X1724049Y609170D01*
X1723970Y609135D01*
X1723927Y609098D01*
X1723878Y609069D01*
X1723819Y609006D01*
X1723754Y608951D01*
X1723728Y608909D01*
X1723684Y608862D01*
X1723618Y608733D01*
X1723576Y608666D01*
X1722171Y605274D01*
X1719626Y602729D01*
X1716300Y601351D01*
X1712700Y601351D01*
X1709374Y602729D01*
X1706829Y605274D01*
X1705424Y608666D01*
X1705380Y608740D01*
X1705345Y608818D01*
X1705308Y608862D01*
X1705279Y608911D01*
X1705217Y608970D01*
X1705161Y609035D01*
X1705114Y609067D01*
X1705073Y609106D01*
X1704996Y609145D01*
X1704925Y609193D01*
X1704871Y609210D01*
X1704820Y609236D01*
X1704736Y609253D01*
X1704654Y609279D01*
X1704597Y609280D01*
X1704541Y609291D01*
X1704456Y609284D01*
X1704370Y609286D01*
X1704315Y609272D01*
X1704258Y609267D01*
X1704178Y609236D01*
X1704095Y609214D01*
X1704046Y609185D01*
X1703993Y609165D01*
X1703924Y609113D01*
X1703850Y609069D01*
X1703811Y609028D01*
X1703766Y608993D01*
X1703715Y608924D01*
X1703656Y608862D01*
X1703630Y608811D01*
X1703596Y608765D01*
X1703565Y608685D01*
X1703526Y608609D01*
X1703518Y608560D01*
X1703495Y608500D01*
X1703484Y608355D01*
X1703471Y608278D01*
X1703471Y607621D01*
X1701344Y602486D01*
X1697414Y598556D01*
X1692279Y596429D01*
X1686721Y596429D01*
X1681586Y598556D01*
X1677718Y602424D01*
X1677671Y602460D01*
X1677631Y602502D01*
X1677558Y602545D01*
X1677491Y602595D01*
X1677436Y602616D01*
X1677386Y602646D01*
X1677304Y602667D01*
X1677225Y602697D01*
X1677167Y602701D01*
X1677110Y602716D01*
X1677026Y602713D01*
X1676942Y602720D01*
X1676884Y602709D01*
X1676826Y602707D01*
X1676746Y602681D01*
X1676663Y602664D01*
X1676611Y602637D01*
X1676555Y602619D01*
X1676499Y602579D01*
X1676411Y602533D01*
X1676338Y602465D01*
X1676282Y602424D01*
X1672414Y598556D01*
X1667279Y596429D01*
X1661721Y596429D01*
X1656586Y598556D01*
X1652656Y602486D01*
X1650529Y607621D01*
X1650529Y613179D01*
X1652656Y618314D01*
X1656586Y622244D01*
X1661721Y624371D01*
X1667279Y624371D01*
X1672414Y622244D01*
X1676282Y618376D01*
X1676329Y618340D01*
X1676369Y618298D01*
X1676442Y618255D01*
X1676509Y618205D01*
X1676564Y618184D01*
X1676614Y618154D01*
X1676696Y618133D01*
X1676775Y618103D01*
X1676833Y618099D01*
X1676890Y618084D01*
X1676974Y618087D01*
X1677058Y618080D01*
X1677116Y618091D01*
X1677174Y618093D01*
X1677254Y618119D01*
X1677337Y618136D01*
X1677389Y618163D01*
X1677445Y618181D01*
X1677501Y618221D01*
X1677589Y618267D01*
X1677662Y618335D01*
X1677718Y618376D01*
X1681586Y622244D01*
X1686721Y624371D01*
X1692279Y624371D01*
X1697414Y622244D01*
X1701344Y618314D01*
X1703471Y613179D01*
X1703471Y612522D01*
X1703483Y612437D01*
X1703485Y612352D01*
X1703503Y612297D01*
X1703511Y612241D01*
X1703546Y612163D01*
X1703572Y612081D01*
X1703604Y612033D01*
X1703627Y611982D01*
X1703682Y611916D01*
X1703730Y611845D01*
X1703774Y611808D01*
X1703810Y611765D01*
X1703882Y611717D01*
X1703948Y611662D01*
X1704000Y611638D01*
X1704047Y611607D01*
X1704129Y611581D01*
X1704208Y611546D01*
X1704264Y611538D01*
X1704318Y611521D01*
X1704404Y611519D01*
X1704489Y611507D01*
X1704545Y611515D01*
X1704602Y611514D01*
X1704685Y611536D01*
X1704770Y611548D01*
X1704822Y611571D01*
X1704877Y611586D01*
X1704951Y611630D01*
X1705030Y611665D01*
X1705073Y611702D01*
X1705122Y611731D01*
X1705181Y611794D01*
X1705246Y611849D01*
X1705272Y611891D01*
X1705316Y611938D01*
X1705382Y612067D01*
X1705424Y612134D01*
X1706829Y615526D01*
X1709374Y618071D01*
X1712700Y619449D01*
X1716300Y619449D01*
X1719626Y618071D01*
X1722171Y615526D01*
X1723576Y612134D01*
X1723620Y612060D01*
X1723655Y611982D01*
X1723692Y611938D01*
X1723721Y611889D01*
X1723783Y611830D01*
X1723839Y611765D01*
X1723886Y611733D01*
X1723927Y611694D01*
X1724004Y611655D01*
X1724075Y611607D01*
X1724129Y611590D01*
X1724180Y611564D01*
X1724264Y611547D01*
X1724346Y611521D01*
X1724403Y611520D01*
X1724459Y611509D01*
X1724544Y611516D01*
X1724630Y611514D01*
X1724685Y611528D01*
X1724742Y611533D01*
X1724822Y611564D01*
X1724905Y611586D01*
X1724954Y611615D01*
X1725007Y611635D01*
X1725076Y611687D01*
X1725150Y611731D01*
X1725189Y611772D01*
X1725234Y611807D01*
X1725285Y611876D01*
X1725344Y611938D01*
X1725370Y611989D01*
X1725404Y612035D01*
X1725435Y612115D01*
X1725474Y612191D01*
X1725482Y612240D01*
X1725505Y612300D01*
X1725516Y612445D01*
X1725529Y612522D01*
X1725529Y613179D01*
X1727656Y618314D01*
X1731586Y622244D01*
X1736721Y624371D01*
X1742279Y624371D01*
X1747414Y622244D01*
X1751282Y618376D01*
X1751329Y618340D01*
X1751369Y618298D01*
X1751442Y618255D01*
X1751509Y618205D01*
X1751564Y618184D01*
X1751614Y618154D01*
X1751696Y618133D01*
X1751775Y618103D01*
X1751833Y618099D01*
X1751890Y618084D01*
X1751974Y618087D01*
X1752058Y618080D01*
X1752116Y618091D01*
X1752174Y618093D01*
X1752254Y618119D01*
X1752337Y618136D01*
X1752389Y618163D01*
X1752445Y618181D01*
X1752501Y618221D01*
X1752589Y618267D01*
X1752662Y618335D01*
X1752718Y618376D01*
X1756586Y622244D01*
X1761721Y624371D01*
X1767279Y624371D01*
X1772531Y622195D01*
X1772643Y622166D01*
X1772752Y622132D01*
X1772780Y622131D01*
X1772807Y622124D01*
X1772921Y622127D01*
X1773036Y622124D01*
X1773063Y622131D01*
X1773091Y622132D01*
X1773200Y622167D01*
X1773311Y622196D01*
X1773335Y622210D01*
X1773362Y622219D01*
X1773457Y622283D01*
X1773556Y622342D01*
X1773575Y622362D01*
X1773598Y622377D01*
X1773672Y622465D01*
X1773750Y622549D01*
X1773763Y622574D01*
X1773781Y622595D01*
X1773827Y622700D01*
X1773880Y622802D01*
X1773884Y622827D01*
X1773896Y622855D01*
X1773933Y623118D01*
X1773935Y623133D01*
X1773935Y654587D01*
X1773931Y654617D01*
X1773934Y654646D01*
X1773911Y654757D01*
X1773895Y654869D01*
X1773883Y654896D01*
X1773878Y654924D01*
X1773825Y655025D01*
X1773779Y655128D01*
X1773760Y655151D01*
X1773747Y655177D01*
X1773669Y655259D01*
X1773596Y655345D01*
X1773571Y655362D01*
X1773551Y655383D01*
X1773453Y655440D01*
X1773359Y655503D01*
X1773331Y655512D01*
X1773306Y655527D01*
X1773196Y655554D01*
X1773088Y655589D01*
X1773058Y655589D01*
X1773030Y655597D01*
X1772917Y655593D01*
X1772804Y655596D01*
X1772775Y655589D01*
X1772746Y655588D01*
X1772638Y655553D01*
X1772529Y655524D01*
X1772503Y655509D01*
X1772475Y655500D01*
X1772412Y655455D01*
X1772284Y655379D01*
X1772241Y655333D01*
X1772202Y655305D01*
X1769626Y652729D01*
X1766300Y651351D01*
X1762700Y651351D01*
X1759374Y652729D01*
X1756829Y655274D01*
X1755451Y658600D01*
X1755451Y662200D01*
X1756829Y665526D01*
X1759374Y668071D01*
X1762700Y669449D01*
X1766300Y669449D01*
X1769626Y668071D01*
X1772202Y665495D01*
X1772226Y665477D01*
X1772245Y665455D01*
X1772339Y665392D01*
X1772429Y665324D01*
X1772457Y665313D01*
X1772481Y665297D01*
X1772589Y665263D01*
X1772695Y665223D01*
X1772724Y665220D01*
X1772752Y665211D01*
X1772866Y665208D01*
X1772978Y665199D01*
X1773007Y665205D01*
X1773036Y665204D01*
X1773146Y665233D01*
X1773257Y665255D01*
X1773283Y665268D01*
X1773311Y665276D01*
X1773409Y665334D01*
X1773509Y665386D01*
X1773531Y665406D01*
X1773556Y665421D01*
X1773633Y665504D01*
X1773715Y665582D01*
X1773730Y665607D01*
X1773750Y665628D01*
X1773802Y665729D01*
X1773859Y665827D01*
X1773866Y665855D01*
X1773880Y665882D01*
X1773893Y665959D01*
X1773929Y666102D01*
X1773927Y666165D01*
X1773935Y666213D01*
X1773935Y679587D01*
X1773931Y679617D01*
X1773934Y679646D01*
X1773911Y679757D01*
X1773895Y679869D01*
X1773883Y679896D01*
X1773878Y679924D01*
X1773825Y680025D01*
X1773779Y680128D01*
X1773760Y680151D01*
X1773747Y680177D01*
X1773669Y680259D01*
X1773596Y680345D01*
X1773571Y680362D01*
X1773551Y680383D01*
X1773453Y680440D01*
X1773359Y680503D01*
X1773331Y680512D01*
X1773306Y680527D01*
X1773196Y680554D01*
X1773088Y680589D01*
X1773058Y680589D01*
X1773030Y680597D01*
X1772917Y680593D01*
X1772804Y680596D01*
X1772775Y680589D01*
X1772746Y680588D01*
X1772638Y680553D01*
X1772529Y680524D01*
X1772503Y680509D01*
X1772475Y680500D01*
X1772412Y680455D01*
X1772284Y680379D01*
X1772241Y680333D01*
X1772202Y680305D01*
X1769626Y677729D01*
X1766300Y676351D01*
X1762700Y676351D01*
X1759374Y677729D01*
X1756829Y680274D01*
X1755451Y683600D01*
X1755451Y687200D01*
X1756829Y690526D01*
X1759005Y692702D01*
X1759023Y692726D01*
X1759045Y692745D01*
X1759108Y692839D01*
X1759176Y692929D01*
X1759187Y692957D01*
X1759203Y692981D01*
X1759237Y693089D01*
X1759277Y693195D01*
X1759280Y693224D01*
X1759289Y693252D01*
X1759292Y693366D01*
X1759301Y693478D01*
X1759295Y693507D01*
X1759296Y693536D01*
X1759267Y693646D01*
X1759245Y693757D01*
X1759232Y693783D01*
X1759224Y693811D01*
X1759166Y693909D01*
X1759114Y694009D01*
X1759094Y694031D01*
X1759079Y694056D01*
X1758996Y694133D01*
X1758918Y694215D01*
X1758893Y694230D01*
X1758872Y694250D01*
X1758771Y694302D01*
X1758673Y694359D01*
X1758645Y694366D01*
X1758618Y694380D01*
X1758541Y694393D01*
X1758398Y694429D01*
X1758335Y694427D01*
X1758287Y694435D01*
X1670713Y694435D01*
X1670683Y694431D01*
X1670654Y694434D01*
X1670543Y694411D01*
X1670431Y694395D01*
X1670404Y694383D01*
X1670376Y694378D01*
X1670275Y694325D01*
X1670172Y694279D01*
X1670149Y694260D01*
X1670123Y694247D01*
X1670041Y694169D01*
X1669955Y694096D01*
X1669938Y694071D01*
X1669917Y694051D01*
X1669860Y693953D01*
X1669797Y693859D01*
X1669788Y693831D01*
X1669773Y693806D01*
X1669746Y693696D01*
X1669711Y693588D01*
X1669711Y693558D01*
X1669703Y693530D01*
X1669707Y693417D01*
X1669704Y693304D01*
X1669711Y693275D01*
X1669712Y693246D01*
X1669747Y693138D01*
X1669776Y693029D01*
X1669791Y693003D01*
X1669800Y692975D01*
X1669845Y692912D01*
X1669921Y692784D01*
X1669967Y692741D01*
X1669995Y692702D01*
X1672171Y690526D01*
X1673549Y687200D01*
X1673549Y683600D01*
X1672171Y680274D01*
X1669626Y677729D01*
X1666300Y676351D01*
X1662700Y676351D01*
X1659374Y677729D01*
X1656829Y680274D01*
X1655451Y683600D01*
X1655451Y687200D01*
X1656829Y690526D01*
X1659005Y692702D01*
X1659023Y692726D01*
X1659045Y692745D01*
X1659108Y692839D01*
X1659176Y692929D01*
X1659187Y692957D01*
X1659203Y692981D01*
X1659237Y693089D01*
X1659277Y693195D01*
X1659280Y693224D01*
X1659289Y693252D01*
X1659292Y693366D01*
X1659301Y693478D01*
X1659295Y693507D01*
X1659296Y693536D01*
X1659267Y693646D01*
X1659245Y693757D01*
X1659232Y693783D01*
X1659224Y693811D01*
X1659166Y693909D01*
X1659114Y694009D01*
X1659094Y694031D01*
X1659079Y694056D01*
X1658996Y694133D01*
X1658918Y694215D01*
X1658893Y694230D01*
X1658872Y694250D01*
X1658771Y694302D01*
X1658673Y694359D01*
X1658645Y694366D01*
X1658618Y694380D01*
X1658541Y694393D01*
X1658398Y694429D01*
X1658335Y694427D01*
X1658287Y694435D01*
X900978Y694435D01*
X900949Y694431D01*
X900920Y694434D01*
X900809Y694411D01*
X900697Y694395D01*
X900670Y694383D01*
X900641Y694378D01*
X900540Y694325D01*
X900437Y694279D01*
X900415Y694260D01*
X900389Y694247D01*
X900306Y694169D01*
X900220Y694096D01*
X900204Y694071D01*
X900183Y694051D01*
X900125Y693953D01*
X900063Y693859D01*
X900054Y693831D01*
X900039Y693806D01*
X900011Y693696D01*
X899977Y693588D01*
X899976Y693559D01*
X899969Y693530D01*
X899972Y693417D01*
X899970Y693304D01*
X899977Y693275D01*
X899978Y693246D01*
X900013Y693138D01*
X900041Y693029D01*
X900056Y693003D01*
X900065Y692975D01*
X900111Y692912D01*
X900187Y692784D01*
X900232Y692741D01*
X900260Y692702D01*
X900328Y692635D01*
X900328Y678952D01*
X898155Y676780D01*
X898155Y676779D01*
X898154Y676779D01*
X898125Y676750D01*
X896853Y675478D01*
X895224Y673848D01*
X886541Y673848D01*
X884966Y675423D01*
X883639Y676750D01*
X881437Y678952D01*
X881437Y687832D01*
X881429Y687890D01*
X881430Y687948D01*
X881409Y688030D01*
X881397Y688114D01*
X881373Y688167D01*
X881359Y688223D01*
X881315Y688296D01*
X881281Y688373D01*
X881243Y688418D01*
X881213Y688468D01*
X881152Y688526D01*
X881097Y688590D01*
X881049Y688622D01*
X881006Y688662D01*
X880931Y688701D01*
X880861Y688748D01*
X880805Y688765D01*
X880753Y688792D01*
X880685Y688803D01*
X880590Y688833D01*
X880490Y688836D01*
X880422Y688847D01*
X879972Y688847D01*
X879914Y688839D01*
X879855Y688841D01*
X879774Y688819D01*
X879690Y688807D01*
X879637Y688784D01*
X879580Y688769D01*
X879508Y688726D01*
X879431Y688691D01*
X879386Y688653D01*
X879336Y688624D01*
X879278Y688562D01*
X879214Y688508D01*
X879181Y688459D01*
X879141Y688416D01*
X879103Y688341D01*
X879056Y688271D01*
X879039Y688215D01*
X879012Y688163D01*
X879001Y688095D01*
X878970Y688000D01*
X878968Y687900D01*
X878957Y687832D01*
X878957Y676453D01*
X876352Y673848D01*
X872669Y673848D01*
X867027Y679491D01*
X866996Y679514D01*
X866972Y679542D01*
X866883Y679599D01*
X866799Y679662D01*
X866764Y679675D01*
X866732Y679696D01*
X866632Y679726D01*
X866534Y679763D01*
X866496Y679766D01*
X866460Y679777D01*
X866355Y679778D01*
X866251Y679787D01*
X866214Y679779D01*
X866176Y679780D01*
X866101Y679757D01*
X865972Y679731D01*
X865907Y679697D01*
X865855Y679681D01*
X863480Y678494D01*
X859986Y679659D01*
X859047Y681536D01*
X858991Y681618D01*
X858941Y681704D01*
X858910Y681734D01*
X858886Y681770D01*
X858809Y681833D01*
X858737Y681902D01*
X858699Y681923D01*
X858666Y681950D01*
X858574Y681989D01*
X858486Y682036D01*
X858444Y682045D01*
X858404Y682062D01*
X858305Y682074D01*
X858208Y682095D01*
X858165Y682092D01*
X858122Y682097D01*
X858024Y682081D01*
X857924Y682074D01*
X857884Y682059D01*
X857842Y682053D01*
X857751Y682010D01*
X857658Y681976D01*
X857623Y681950D01*
X857584Y681932D01*
X857509Y681866D01*
X857429Y681807D01*
X857406Y681776D01*
X857370Y681745D01*
X857273Y681593D01*
X857231Y681536D01*
X856292Y679659D01*
X852798Y678494D01*
X849504Y680141D01*
X848340Y683635D01*
X853005Y692966D01*
X853008Y692974D01*
X853013Y692981D01*
X853053Y693109D01*
X853096Y693236D01*
X853096Y693244D01*
X853098Y693252D01*
X853102Y693386D01*
X853108Y693520D01*
X853106Y693528D01*
X853106Y693536D01*
X853072Y693666D01*
X853040Y693796D01*
X853036Y693803D01*
X853034Y693811D01*
X852966Y693926D01*
X852899Y694043D01*
X852893Y694049D01*
X852889Y694056D01*
X852791Y694148D01*
X852695Y694241D01*
X852688Y694244D01*
X852681Y694250D01*
X852562Y694311D01*
X852444Y694374D01*
X852436Y694376D01*
X852428Y694380D01*
X852376Y694388D01*
X852166Y694433D01*
X852128Y694430D01*
X852097Y694435D01*
X838033Y694435D01*
X837960Y694425D01*
X837886Y694425D01*
X837820Y694405D01*
X837751Y694395D01*
X837684Y694365D01*
X837614Y694345D01*
X837555Y694308D01*
X837492Y694279D01*
X837436Y694232D01*
X837374Y694192D01*
X837328Y694140D01*
X837275Y694096D01*
X837234Y694034D01*
X837185Y693979D01*
X837156Y693917D01*
X837117Y693859D01*
X837095Y693789D01*
X837064Y693722D01*
X837052Y693654D01*
X837032Y693588D01*
X837030Y693514D01*
X837018Y693442D01*
X837026Y693373D01*
X837024Y693304D01*
X837043Y693233D01*
X837052Y693159D01*
X837079Y693096D01*
X837096Y693029D01*
X837134Y692965D01*
X837162Y692898D01*
X837201Y692853D01*
X837241Y692784D01*
X837331Y692700D01*
X837380Y692642D01*
X843085Y687856D01*
X847071Y680951D01*
X848455Y673100D01*
X847071Y665249D01*
X843085Y658345D01*
X836978Y653220D01*
X829486Y650493D01*
X821514Y650493D01*
X814022Y653220D01*
X807915Y658344D01*
X803929Y665249D01*
X802545Y673100D01*
X803929Y680951D01*
X807915Y687855D01*
X813620Y692642D01*
X813669Y692697D01*
X813725Y692745D01*
X813764Y692802D01*
X813810Y692854D01*
X813842Y692920D01*
X813883Y692981D01*
X813904Y693047D01*
X813934Y693110D01*
X813946Y693182D01*
X813968Y693252D01*
X813970Y693321D01*
X813982Y693390D01*
X813974Y693463D01*
X813976Y693536D01*
X813958Y693603D01*
X813951Y693672D01*
X813923Y693740D01*
X813904Y693811D01*
X813869Y693871D01*
X813842Y693935D01*
X813796Y693993D01*
X813759Y694056D01*
X813708Y694103D01*
X813665Y694157D01*
X813605Y694200D01*
X813551Y694250D01*
X813490Y694282D01*
X813433Y694322D01*
X813364Y694346D01*
X813298Y694380D01*
X813240Y694390D01*
X813165Y694416D01*
X813043Y694423D01*
X812967Y694435D01*
X68580Y694435D01*
X68522Y694427D01*
X68464Y694429D01*
X68382Y694407D01*
X68298Y694395D01*
X68245Y694372D01*
X68189Y694357D01*
X68116Y694314D01*
X68039Y694279D01*
X67994Y694241D01*
X67944Y694212D01*
X67886Y694150D01*
X67822Y694096D01*
X67790Y694047D01*
X67750Y694004D01*
X67711Y693929D01*
X67664Y693859D01*
X67647Y693803D01*
X67620Y693751D01*
X67609Y693683D01*
X67579Y693588D01*
X67576Y693488D01*
X67565Y693420D01*
X67565Y661584D01*
X67577Y661499D01*
X67579Y661413D01*
X67597Y661359D01*
X67605Y661302D01*
X67640Y661224D01*
X67666Y661142D01*
X67698Y661095D01*
X67721Y661043D01*
X67776Y660977D01*
X67824Y660906D01*
X67868Y660869D01*
X67904Y660826D01*
X67976Y660778D01*
X68042Y660723D01*
X68094Y660700D01*
X68141Y660668D01*
X68223Y660642D01*
X68302Y660607D01*
X68358Y660600D01*
X68412Y660583D01*
X68498Y660580D01*
X68583Y660569D01*
X68639Y660577D01*
X68696Y660575D01*
X68779Y660597D01*
X68864Y660609D01*
X68916Y660633D01*
X68971Y660647D01*
X69045Y660691D01*
X69124Y660726D01*
X69167Y660763D01*
X69216Y660792D01*
X69275Y660855D01*
X69340Y660911D01*
X69366Y660953D01*
X69410Y661000D01*
X69476Y661129D01*
X69518Y661195D01*
X70944Y664637D01*
X77589Y671282D01*
X86271Y674879D01*
X95669Y674879D01*
X104351Y671282D01*
X110996Y664637D01*
X114593Y655955D01*
X114593Y646557D01*
X110996Y637875D01*
X104351Y631230D01*
X95669Y627633D01*
X86271Y627633D01*
X77589Y631230D01*
X70944Y637875D01*
X69518Y641317D01*
X69474Y641391D01*
X69439Y641469D01*
X69402Y641513D01*
X69373Y641562D01*
X69311Y641621D01*
X69255Y641686D01*
X69208Y641718D01*
X69167Y641757D01*
X69090Y641796D01*
X69019Y641844D01*
X68965Y641861D01*
X68914Y641887D01*
X68830Y641904D01*
X68748Y641929D01*
X68691Y641931D01*
X68635Y641942D01*
X68550Y641935D01*
X68464Y641937D01*
X68409Y641922D01*
X68352Y641917D01*
X68272Y641887D01*
X68189Y641865D01*
X68140Y641836D01*
X68087Y641815D01*
X68018Y641764D01*
X67944Y641720D01*
X67905Y641678D01*
X67860Y641644D01*
X67808Y641575D01*
X67750Y641512D01*
X67724Y641462D01*
X67690Y641416D01*
X67659Y641336D01*
X67620Y641259D01*
X67612Y641210D01*
X67589Y641150D01*
X67578Y641006D01*
X67565Y640928D01*
X67565Y532749D01*
X67567Y532729D01*
X67565Y532710D01*
X67587Y532589D01*
X67605Y532467D01*
X67613Y532449D01*
X67616Y532430D01*
X67671Y532320D01*
X67721Y532208D01*
X67733Y532193D01*
X67742Y532175D01*
X67825Y532084D01*
X67904Y531991D01*
X67921Y531980D01*
X67934Y531965D01*
X68039Y531901D01*
X68141Y531833D01*
X68160Y531827D01*
X68176Y531817D01*
X68295Y531784D01*
X68412Y531747D01*
X68432Y531747D01*
X68451Y531742D01*
X68573Y531743D01*
X68696Y531740D01*
X68715Y531745D01*
X68735Y531745D01*
X68853Y531781D01*
X68971Y531812D01*
X68988Y531822D01*
X69007Y531828D01*
X69110Y531894D01*
X69216Y531957D01*
X69229Y531971D01*
X69246Y531982D01*
X69292Y532039D01*
X69410Y532164D01*
X69434Y532210D01*
X69459Y532241D01*
X71315Y535456D01*
X77422Y540580D01*
X84914Y543307D01*
X92886Y543307D01*
X100378Y540580D01*
X106485Y535456D01*
X110471Y528551D01*
X111855Y520700D01*
X110471Y512849D01*
X106485Y505945D01*
X100780Y501158D01*
X100731Y501103D01*
X100675Y501055D01*
X100636Y500998D01*
X100590Y500946D01*
X100558Y500880D01*
X100517Y500819D01*
X100496Y500753D01*
X100466Y500690D01*
X100454Y500618D01*
X100432Y500548D01*
X100430Y500479D01*
X100418Y500410D01*
X100426Y500337D01*
X100424Y500264D01*
X100442Y500197D01*
X100449Y500128D01*
X100477Y500060D01*
X100496Y499989D01*
X100531Y499929D01*
X100558Y499865D01*
X100604Y499807D01*
X100641Y499744D01*
X100692Y499697D01*
X100735Y499643D01*
X100795Y499600D01*
X100849Y499550D01*
X100910Y499518D01*
X100967Y499478D01*
X101036Y499454D01*
X101102Y499420D01*
X101160Y499410D01*
X101235Y499384D01*
X101357Y499377D01*
X101433Y499365D01*
X1740067Y499365D01*
X1740140Y499375D01*
G37*
%LPC*%
G36*
X657924Y508253D02*
X657924Y508253D01*
X653349Y510148D01*
X649848Y513649D01*
X647953Y518224D01*
X647953Y523176D01*
X649848Y527751D01*
X653349Y531252D01*
X657924Y533147D01*
X662876Y533147D01*
X667451Y531252D01*
X670952Y527751D01*
X672162Y524829D01*
X672177Y524804D01*
X672186Y524776D01*
X672249Y524681D01*
X672307Y524584D01*
X672328Y524564D01*
X672344Y524539D01*
X672431Y524467D01*
X672513Y524389D01*
X672539Y524375D01*
X672562Y524357D01*
X672665Y524311D01*
X672766Y524259D01*
X672795Y524253D01*
X672822Y524241D01*
X672934Y524225D01*
X673045Y524204D01*
X673074Y524206D01*
X673103Y524202D01*
X673215Y524218D01*
X673328Y524228D01*
X673355Y524239D01*
X673384Y524243D01*
X673488Y524289D01*
X673593Y524330D01*
X673617Y524348D01*
X673644Y524360D01*
X673730Y524433D01*
X673820Y524502D01*
X673838Y524525D01*
X673860Y524544D01*
X673902Y524611D01*
X673990Y524729D01*
X674012Y524788D01*
X674038Y524829D01*
X675248Y527751D01*
X678749Y531252D01*
X683324Y533147D01*
X688276Y533147D01*
X692851Y531252D01*
X696352Y527751D01*
X697562Y524829D01*
X697577Y524804D01*
X697586Y524776D01*
X697649Y524681D01*
X697707Y524584D01*
X697728Y524564D01*
X697744Y524539D01*
X697831Y524467D01*
X697913Y524389D01*
X697939Y524375D01*
X697962Y524357D01*
X698065Y524311D01*
X698166Y524259D01*
X698195Y524253D01*
X698222Y524241D01*
X698334Y524225D01*
X698445Y524204D01*
X698474Y524206D01*
X698503Y524202D01*
X698615Y524218D01*
X698728Y524228D01*
X698755Y524239D01*
X698784Y524243D01*
X698888Y524289D01*
X698993Y524330D01*
X699017Y524348D01*
X699044Y524360D01*
X699130Y524433D01*
X699220Y524502D01*
X699238Y524525D01*
X699260Y524544D01*
X699302Y524611D01*
X699390Y524729D01*
X699412Y524788D01*
X699438Y524829D01*
X700454Y527282D01*
X700462Y527312D01*
X700476Y527339D01*
X700489Y527417D01*
X700525Y527557D01*
X700523Y527621D01*
X700531Y527670D01*
X700531Y534402D01*
X700519Y534489D01*
X700516Y534576D01*
X700499Y534629D01*
X700491Y534684D01*
X700456Y534764D01*
X700429Y534847D01*
X700401Y534886D01*
X700375Y534943D01*
X700279Y535057D01*
X700234Y535120D01*
X697680Y537674D01*
X697610Y537726D01*
X697547Y537786D01*
X697497Y537812D01*
X697453Y537845D01*
X697371Y537876D01*
X697293Y537916D01*
X697246Y537924D01*
X697187Y537946D01*
X697040Y537958D01*
X696962Y537971D01*
X600978Y537971D01*
X600891Y537959D01*
X600804Y537956D01*
X600751Y537939D01*
X600696Y537931D01*
X600616Y537896D01*
X600533Y537869D01*
X600494Y537841D01*
X600437Y537815D01*
X600323Y537719D01*
X600260Y537674D01*
X595166Y532580D01*
X595129Y532530D01*
X595126Y532528D01*
X595119Y532517D01*
X595114Y532510D01*
X595054Y532447D01*
X595028Y532397D01*
X594995Y532353D01*
X594976Y532303D01*
X594968Y532292D01*
X594959Y532261D01*
X594924Y532193D01*
X594916Y532146D01*
X594894Y532087D01*
X594890Y532045D01*
X594883Y532021D01*
X594880Y531932D01*
X594869Y531862D01*
X594869Y511817D01*
X593083Y510031D01*
X575317Y510031D01*
X573531Y511817D01*
X573531Y538824D01*
X575156Y542745D01*
X590095Y557684D01*
X594016Y559309D01*
X703924Y559309D01*
X707845Y557684D01*
X720244Y545285D01*
X721869Y541364D01*
X721869Y527670D01*
X721873Y527640D01*
X721871Y527609D01*
X721888Y527532D01*
X721909Y527389D01*
X721935Y527330D01*
X721946Y527282D01*
X722962Y524829D01*
X722977Y524804D01*
X722986Y524776D01*
X723049Y524681D01*
X723107Y524584D01*
X723128Y524564D01*
X723144Y524539D01*
X723231Y524467D01*
X723313Y524389D01*
X723339Y524375D01*
X723362Y524357D01*
X723465Y524311D01*
X723566Y524259D01*
X723595Y524253D01*
X723622Y524241D01*
X723734Y524225D01*
X723845Y524204D01*
X723874Y524206D01*
X723903Y524202D01*
X724015Y524218D01*
X724128Y524228D01*
X724155Y524239D01*
X724184Y524243D01*
X724288Y524289D01*
X724393Y524330D01*
X724417Y524348D01*
X724444Y524360D01*
X724530Y524433D01*
X724620Y524502D01*
X724638Y524525D01*
X724660Y524544D01*
X724702Y524611D01*
X724790Y524729D01*
X724812Y524788D01*
X724838Y524829D01*
X725854Y527282D01*
X725862Y527312D01*
X725876Y527339D01*
X725889Y527417D01*
X725925Y527557D01*
X725923Y527621D01*
X725931Y527670D01*
X725931Y550912D01*
X725919Y550999D01*
X725916Y551086D01*
X725899Y551139D01*
X725891Y551194D01*
X725856Y551274D01*
X725829Y551357D01*
X725801Y551396D01*
X725775Y551453D01*
X725679Y551567D01*
X725634Y551630D01*
X709872Y567392D01*
X709802Y567444D01*
X709739Y567504D01*
X709689Y567530D01*
X709645Y567563D01*
X709563Y567594D01*
X709485Y567634D01*
X709438Y567642D01*
X709379Y567664D01*
X709232Y567676D01*
X709154Y567689D01*
X564148Y567689D01*
X564061Y567677D01*
X563974Y567674D01*
X563921Y567657D01*
X563866Y567649D01*
X563786Y567614D01*
X563703Y567587D01*
X563664Y567559D01*
X563607Y567533D01*
X563493Y567437D01*
X563430Y567392D01*
X531666Y535628D01*
X531614Y535558D01*
X531554Y535495D01*
X531528Y535445D01*
X531495Y535401D01*
X531474Y535346D01*
X531468Y535337D01*
X531461Y535313D01*
X531424Y535241D01*
X531416Y535194D01*
X531394Y535135D01*
X531390Y535090D01*
X531383Y535066D01*
X531381Y534981D01*
X531369Y534910D01*
X531369Y511817D01*
X529583Y510031D01*
X511817Y510031D01*
X510031Y511817D01*
X510031Y541872D01*
X511656Y545793D01*
X553265Y587402D01*
X557186Y589027D01*
X716116Y589027D01*
X720037Y587402D01*
X745644Y561795D01*
X747269Y557874D01*
X747269Y527670D01*
X747273Y527640D01*
X747271Y527609D01*
X747288Y527532D01*
X747309Y527389D01*
X747335Y527330D01*
X747346Y527282D01*
X748362Y524829D01*
X748377Y524804D01*
X748386Y524776D01*
X748449Y524681D01*
X748507Y524584D01*
X748528Y524564D01*
X748544Y524539D01*
X748631Y524467D01*
X748713Y524389D01*
X748739Y524375D01*
X748762Y524357D01*
X748865Y524311D01*
X748966Y524259D01*
X748995Y524253D01*
X749022Y524241D01*
X749134Y524225D01*
X749245Y524204D01*
X749274Y524206D01*
X749303Y524202D01*
X749415Y524218D01*
X749528Y524228D01*
X749555Y524239D01*
X749584Y524243D01*
X749688Y524289D01*
X749793Y524330D01*
X749817Y524348D01*
X749844Y524360D01*
X749930Y524433D01*
X750020Y524502D01*
X750038Y524525D01*
X750060Y524544D01*
X750102Y524611D01*
X750190Y524729D01*
X750212Y524788D01*
X750238Y524829D01*
X751448Y527751D01*
X754949Y531252D01*
X759524Y533147D01*
X764476Y533147D01*
X769051Y531252D01*
X772552Y527751D01*
X773762Y524829D01*
X773777Y524804D01*
X773786Y524776D01*
X773849Y524681D01*
X773907Y524584D01*
X773928Y524564D01*
X773944Y524539D01*
X774031Y524467D01*
X774113Y524389D01*
X774139Y524375D01*
X774162Y524357D01*
X774265Y524311D01*
X774366Y524259D01*
X774395Y524253D01*
X774422Y524241D01*
X774534Y524225D01*
X774645Y524204D01*
X774674Y524206D01*
X774703Y524202D01*
X774815Y524218D01*
X774928Y524228D01*
X774955Y524239D01*
X774984Y524243D01*
X775088Y524289D01*
X775193Y524330D01*
X775217Y524348D01*
X775244Y524360D01*
X775330Y524433D01*
X775420Y524502D01*
X775438Y524525D01*
X775460Y524544D01*
X775502Y524611D01*
X775590Y524729D01*
X775612Y524788D01*
X775638Y524829D01*
X776848Y527751D01*
X780349Y531252D01*
X784924Y533147D01*
X789876Y533147D01*
X792235Y532170D01*
X792236Y532169D01*
X792238Y532168D01*
X792372Y532134D01*
X792510Y532099D01*
X792512Y532099D01*
X792513Y532098D01*
X792654Y532103D01*
X792794Y532107D01*
X792796Y532107D01*
X792797Y532107D01*
X792930Y532150D01*
X793065Y532193D01*
X793066Y532194D01*
X793068Y532195D01*
X793080Y532203D01*
X793301Y532352D01*
X793321Y532375D01*
X793341Y532390D01*
X945344Y684392D01*
X948022Y687071D01*
X1541178Y687071D01*
X1568859Y659390D01*
X1568860Y659389D01*
X1568861Y659387D01*
X1568980Y659298D01*
X1569086Y659219D01*
X1569087Y659218D01*
X1569089Y659217D01*
X1569222Y659167D01*
X1569352Y659118D01*
X1569353Y659117D01*
X1569355Y659117D01*
X1569499Y659105D01*
X1569635Y659094D01*
X1569636Y659094D01*
X1569638Y659094D01*
X1569654Y659098D01*
X1569914Y659150D01*
X1569941Y659164D01*
X1569965Y659170D01*
X1572324Y660147D01*
X1577276Y660147D01*
X1581851Y658252D01*
X1585352Y654751D01*
X1586562Y651829D01*
X1586577Y651804D01*
X1586586Y651776D01*
X1586649Y651681D01*
X1586707Y651584D01*
X1586728Y651564D01*
X1586744Y651539D01*
X1586831Y651466D01*
X1586913Y651389D01*
X1586939Y651375D01*
X1586962Y651356D01*
X1587065Y651310D01*
X1587166Y651259D01*
X1587195Y651253D01*
X1587222Y651241D01*
X1587334Y651225D01*
X1587445Y651204D01*
X1587474Y651206D01*
X1587503Y651202D01*
X1587615Y651218D01*
X1587728Y651228D01*
X1587755Y651239D01*
X1587784Y651243D01*
X1587888Y651289D01*
X1587993Y651330D01*
X1588017Y651348D01*
X1588044Y651360D01*
X1588130Y651433D01*
X1588220Y651502D01*
X1588238Y651525D01*
X1588260Y651544D01*
X1588301Y651611D01*
X1588390Y651729D01*
X1588412Y651788D01*
X1588438Y651829D01*
X1589648Y654751D01*
X1593149Y658252D01*
X1597724Y660147D01*
X1602676Y660147D01*
X1607251Y658252D01*
X1610752Y654751D01*
X1612647Y650176D01*
X1612647Y645224D01*
X1610752Y640649D01*
X1607251Y637148D01*
X1604329Y635938D01*
X1604304Y635923D01*
X1604276Y635914D01*
X1604181Y635851D01*
X1604084Y635793D01*
X1604064Y635772D01*
X1604039Y635756D01*
X1603966Y635669D01*
X1603889Y635587D01*
X1603875Y635561D01*
X1603856Y635538D01*
X1603810Y635435D01*
X1603759Y635334D01*
X1603753Y635305D01*
X1603741Y635278D01*
X1603725Y635166D01*
X1603704Y635055D01*
X1603706Y635026D01*
X1603702Y634997D01*
X1603718Y634885D01*
X1603728Y634772D01*
X1603739Y634745D01*
X1603743Y634716D01*
X1603789Y634612D01*
X1603830Y634507D01*
X1603848Y634483D01*
X1603860Y634456D01*
X1603933Y634370D01*
X1604002Y634280D01*
X1604025Y634262D01*
X1604044Y634240D01*
X1604111Y634198D01*
X1604229Y634110D01*
X1604288Y634088D01*
X1604329Y634062D01*
X1607251Y632852D01*
X1610752Y629351D01*
X1612647Y624776D01*
X1612647Y619824D01*
X1610752Y615249D01*
X1607251Y611748D01*
X1602676Y609853D01*
X1597724Y609853D01*
X1593149Y611748D01*
X1589648Y615249D01*
X1588438Y618171D01*
X1588423Y618196D01*
X1588414Y618224D01*
X1588351Y618319D01*
X1588293Y618416D01*
X1588272Y618436D01*
X1588256Y618461D01*
X1588169Y618534D01*
X1588087Y618611D01*
X1588061Y618625D01*
X1588038Y618644D01*
X1587935Y618690D01*
X1587834Y618741D01*
X1587805Y618747D01*
X1587778Y618759D01*
X1587666Y618775D01*
X1587555Y618796D01*
X1587526Y618794D01*
X1587497Y618798D01*
X1587385Y618782D01*
X1587272Y618772D01*
X1587245Y618761D01*
X1587215Y618757D01*
X1587112Y618711D01*
X1587007Y618670D01*
X1586983Y618652D01*
X1586956Y618640D01*
X1586870Y618567D01*
X1586780Y618498D01*
X1586762Y618475D01*
X1586740Y618456D01*
X1586698Y618389D01*
X1586610Y618271D01*
X1586588Y618212D01*
X1586562Y618171D01*
X1585352Y615249D01*
X1581851Y611748D01*
X1577276Y609853D01*
X1572324Y609853D01*
X1567749Y611748D01*
X1564248Y615249D01*
X1563038Y618171D01*
X1563023Y618196D01*
X1563014Y618224D01*
X1562951Y618319D01*
X1562893Y618416D01*
X1562872Y618436D01*
X1562856Y618461D01*
X1562769Y618534D01*
X1562687Y618611D01*
X1562661Y618625D01*
X1562638Y618644D01*
X1562535Y618690D01*
X1562434Y618741D01*
X1562405Y618747D01*
X1562378Y618759D01*
X1562266Y618775D01*
X1562155Y618796D01*
X1562126Y618794D01*
X1562097Y618798D01*
X1561985Y618782D01*
X1561872Y618772D01*
X1561845Y618761D01*
X1561815Y618757D01*
X1561712Y618711D01*
X1561607Y618670D01*
X1561583Y618652D01*
X1561556Y618640D01*
X1561470Y618567D01*
X1561380Y618498D01*
X1561362Y618475D01*
X1561340Y618456D01*
X1561298Y618389D01*
X1561210Y618271D01*
X1561188Y618212D01*
X1561162Y618171D01*
X1559952Y615249D01*
X1556451Y611748D01*
X1551876Y609853D01*
X1546924Y609853D01*
X1542349Y611748D01*
X1538848Y615249D01*
X1537638Y618171D01*
X1537623Y618196D01*
X1537614Y618224D01*
X1537551Y618319D01*
X1537493Y618416D01*
X1537472Y618436D01*
X1537456Y618461D01*
X1537369Y618534D01*
X1537287Y618611D01*
X1537261Y618625D01*
X1537238Y618644D01*
X1537135Y618690D01*
X1537034Y618741D01*
X1537005Y618747D01*
X1536978Y618759D01*
X1536866Y618775D01*
X1536755Y618796D01*
X1536726Y618794D01*
X1536697Y618798D01*
X1536585Y618782D01*
X1536472Y618772D01*
X1536445Y618761D01*
X1536415Y618757D01*
X1536312Y618711D01*
X1536207Y618670D01*
X1536183Y618652D01*
X1536156Y618640D01*
X1536070Y618567D01*
X1535980Y618498D01*
X1535962Y618475D01*
X1535940Y618456D01*
X1535898Y618389D01*
X1535810Y618271D01*
X1535788Y618212D01*
X1535762Y618171D01*
X1534552Y615249D01*
X1531051Y611748D01*
X1526476Y609853D01*
X1521524Y609853D01*
X1516769Y611823D01*
X1516657Y611852D01*
X1516548Y611886D01*
X1516520Y611887D01*
X1516493Y611894D01*
X1516379Y611891D01*
X1516264Y611894D01*
X1516237Y611887D01*
X1516209Y611886D01*
X1516100Y611851D01*
X1515989Y611822D01*
X1515965Y611808D01*
X1515938Y611799D01*
X1515843Y611735D01*
X1515744Y611677D01*
X1515725Y611656D01*
X1515702Y611641D01*
X1515628Y611553D01*
X1515550Y611469D01*
X1515537Y611445D01*
X1515519Y611423D01*
X1515473Y611319D01*
X1515420Y611216D01*
X1515416Y611192D01*
X1515404Y611164D01*
X1515367Y610900D01*
X1515365Y610885D01*
X1515365Y607916D01*
X1482758Y575309D01*
X1388436Y575309D01*
X1388350Y575297D01*
X1388262Y575294D01*
X1388209Y575277D01*
X1388155Y575269D01*
X1388075Y575234D01*
X1387992Y575207D01*
X1387952Y575179D01*
X1387895Y575153D01*
X1387782Y575057D01*
X1387718Y575012D01*
X1350562Y537856D01*
X1350510Y537786D01*
X1350450Y537722D01*
X1350424Y537673D01*
X1350391Y537629D01*
X1350360Y537547D01*
X1350320Y537469D01*
X1350312Y537421D01*
X1350290Y537363D01*
X1350278Y537215D01*
X1350265Y537138D01*
X1350265Y533167D01*
X1350265Y533165D01*
X1350265Y533164D01*
X1350286Y533020D01*
X1350305Y532885D01*
X1350305Y532884D01*
X1350305Y532882D01*
X1350362Y532757D01*
X1350421Y532626D01*
X1350422Y532625D01*
X1350423Y532623D01*
X1350514Y532516D01*
X1350604Y532409D01*
X1350606Y532408D01*
X1350607Y532407D01*
X1350620Y532399D01*
X1350841Y532251D01*
X1350870Y532242D01*
X1350891Y532229D01*
X1353251Y531252D01*
X1356752Y527751D01*
X1357962Y524829D01*
X1357977Y524804D01*
X1357986Y524776D01*
X1358049Y524681D01*
X1358107Y524584D01*
X1358128Y524564D01*
X1358144Y524539D01*
X1358231Y524467D01*
X1358313Y524389D01*
X1358339Y524375D01*
X1358362Y524357D01*
X1358465Y524311D01*
X1358566Y524259D01*
X1358595Y524253D01*
X1358622Y524241D01*
X1358734Y524225D01*
X1358845Y524204D01*
X1358874Y524206D01*
X1358903Y524202D01*
X1359015Y524218D01*
X1359128Y524228D01*
X1359155Y524239D01*
X1359184Y524243D01*
X1359288Y524289D01*
X1359393Y524330D01*
X1359417Y524348D01*
X1359444Y524360D01*
X1359530Y524433D01*
X1359620Y524502D01*
X1359638Y524525D01*
X1359660Y524544D01*
X1359702Y524611D01*
X1359790Y524729D01*
X1359812Y524788D01*
X1359838Y524829D01*
X1361048Y527751D01*
X1364549Y531252D01*
X1369124Y533147D01*
X1374076Y533147D01*
X1378651Y531252D01*
X1382152Y527751D01*
X1383362Y524829D01*
X1383377Y524804D01*
X1383386Y524776D01*
X1383449Y524681D01*
X1383507Y524584D01*
X1383528Y524564D01*
X1383544Y524539D01*
X1383631Y524467D01*
X1383713Y524389D01*
X1383739Y524375D01*
X1383762Y524357D01*
X1383865Y524311D01*
X1383966Y524259D01*
X1383995Y524253D01*
X1384022Y524241D01*
X1384134Y524225D01*
X1384245Y524204D01*
X1384274Y524206D01*
X1384303Y524202D01*
X1384415Y524218D01*
X1384528Y524228D01*
X1384555Y524239D01*
X1384584Y524243D01*
X1384688Y524289D01*
X1384793Y524330D01*
X1384817Y524348D01*
X1384844Y524360D01*
X1384930Y524433D01*
X1385020Y524502D01*
X1385038Y524525D01*
X1385060Y524544D01*
X1385102Y524611D01*
X1385190Y524729D01*
X1385212Y524788D01*
X1385238Y524829D01*
X1386448Y527751D01*
X1389949Y531252D01*
X1394524Y533147D01*
X1399476Y533147D01*
X1404051Y531252D01*
X1407552Y527751D01*
X1409069Y524089D01*
X1409104Y524029D01*
X1409130Y523965D01*
X1409176Y523907D01*
X1409213Y523844D01*
X1409263Y523796D01*
X1409306Y523742D01*
X1409366Y523699D01*
X1409420Y523649D01*
X1409481Y523617D01*
X1409538Y523577D01*
X1409607Y523552D01*
X1409673Y523518D01*
X1409740Y523505D01*
X1409806Y523482D01*
X1409879Y523478D01*
X1409952Y523463D01*
X1410020Y523469D01*
X1410089Y523465D01*
X1410161Y523481D01*
X1410235Y523488D01*
X1410299Y523513D01*
X1410367Y523528D01*
X1410431Y523563D01*
X1410500Y523590D01*
X1410555Y523631D01*
X1410616Y523665D01*
X1410668Y523717D01*
X1410727Y523761D01*
X1410768Y523817D01*
X1410817Y523866D01*
X1410846Y523921D01*
X1410897Y523989D01*
X1410938Y524097D01*
X1410972Y524163D01*
X1411336Y525283D01*
X1412189Y526957D01*
X1413294Y528478D01*
X1414622Y529806D01*
X1416143Y530911D01*
X1417817Y531764D01*
X1419604Y532345D01*
X1420369Y532466D01*
X1420369Y521716D01*
X1420377Y521658D01*
X1420375Y521600D01*
X1420397Y521518D01*
X1420409Y521435D01*
X1420433Y521381D01*
X1420447Y521325D01*
X1420490Y521252D01*
X1420525Y521175D01*
X1420563Y521131D01*
X1420593Y521080D01*
X1420654Y521023D01*
X1420709Y520958D01*
X1420757Y520926D01*
X1420800Y520886D01*
X1420875Y520847D01*
X1420945Y520801D01*
X1421001Y520783D01*
X1421053Y520756D01*
X1421121Y520745D01*
X1421216Y520715D01*
X1421316Y520712D01*
X1421384Y520701D01*
X1422401Y520701D01*
X1422401Y520699D01*
X1421384Y520699D01*
X1421326Y520691D01*
X1421268Y520692D01*
X1421186Y520671D01*
X1421103Y520659D01*
X1421049Y520635D01*
X1420993Y520621D01*
X1420920Y520578D01*
X1420843Y520543D01*
X1420798Y520505D01*
X1420748Y520475D01*
X1420690Y520414D01*
X1420626Y520359D01*
X1420594Y520311D01*
X1420554Y520268D01*
X1420515Y520193D01*
X1420469Y520123D01*
X1420451Y520067D01*
X1420424Y520015D01*
X1420413Y519947D01*
X1420383Y519852D01*
X1420380Y519752D01*
X1420369Y519684D01*
X1420369Y508934D01*
X1419604Y509055D01*
X1417817Y509636D01*
X1416143Y510489D01*
X1414622Y511594D01*
X1413294Y512922D01*
X1412189Y514443D01*
X1411336Y516117D01*
X1410972Y517237D01*
X1410942Y517299D01*
X1410921Y517365D01*
X1410880Y517426D01*
X1410847Y517492D01*
X1410801Y517543D01*
X1410762Y517601D01*
X1410706Y517648D01*
X1410657Y517703D01*
X1410598Y517739D01*
X1410545Y517784D01*
X1410478Y517814D01*
X1410415Y517853D01*
X1410348Y517871D01*
X1410285Y517899D01*
X1410212Y517909D01*
X1410141Y517929D01*
X1410072Y517929D01*
X1410003Y517938D01*
X1409931Y517928D01*
X1409857Y517927D01*
X1409790Y517907D01*
X1409722Y517898D01*
X1409655Y517867D01*
X1409584Y517846D01*
X1409526Y517809D01*
X1409463Y517780D01*
X1409407Y517733D01*
X1409345Y517693D01*
X1409299Y517641D01*
X1409247Y517596D01*
X1409214Y517543D01*
X1409157Y517479D01*
X1409108Y517375D01*
X1409069Y517311D01*
X1407552Y513649D01*
X1404051Y510148D01*
X1399476Y508253D01*
X1394524Y508253D01*
X1389949Y510148D01*
X1386448Y513649D01*
X1385238Y516571D01*
X1385223Y516596D01*
X1385214Y516624D01*
X1385151Y516719D01*
X1385093Y516816D01*
X1385072Y516836D01*
X1385056Y516861D01*
X1384969Y516934D01*
X1384887Y517011D01*
X1384861Y517025D01*
X1384838Y517044D01*
X1384735Y517090D01*
X1384634Y517141D01*
X1384605Y517147D01*
X1384578Y517159D01*
X1384466Y517175D01*
X1384355Y517196D01*
X1384326Y517194D01*
X1384297Y517198D01*
X1384185Y517182D01*
X1384072Y517172D01*
X1384045Y517161D01*
X1384015Y517157D01*
X1383912Y517111D01*
X1383807Y517070D01*
X1383783Y517052D01*
X1383756Y517040D01*
X1383670Y516967D01*
X1383580Y516898D01*
X1383562Y516875D01*
X1383540Y516856D01*
X1383498Y516789D01*
X1383410Y516671D01*
X1383388Y516612D01*
X1383362Y516571D01*
X1382152Y513649D01*
X1378651Y510148D01*
X1374076Y508253D01*
X1369124Y508253D01*
X1364549Y510148D01*
X1361048Y513649D01*
X1359838Y516571D01*
X1359823Y516596D01*
X1359814Y516624D01*
X1359751Y516719D01*
X1359693Y516816D01*
X1359672Y516836D01*
X1359656Y516861D01*
X1359569Y516934D01*
X1359487Y517011D01*
X1359461Y517025D01*
X1359438Y517044D01*
X1359335Y517090D01*
X1359234Y517141D01*
X1359205Y517147D01*
X1359178Y517159D01*
X1359066Y517175D01*
X1358955Y517196D01*
X1358926Y517194D01*
X1358897Y517198D01*
X1358785Y517182D01*
X1358672Y517172D01*
X1358645Y517161D01*
X1358615Y517157D01*
X1358512Y517111D01*
X1358407Y517070D01*
X1358383Y517052D01*
X1358356Y517040D01*
X1358270Y516967D01*
X1358180Y516898D01*
X1358162Y516875D01*
X1358140Y516856D01*
X1358098Y516789D01*
X1358010Y516671D01*
X1357988Y516612D01*
X1357962Y516571D01*
X1356752Y513649D01*
X1353251Y510148D01*
X1348676Y508253D01*
X1343724Y508253D01*
X1339149Y510148D01*
X1335648Y513649D01*
X1334438Y516571D01*
X1334423Y516596D01*
X1334414Y516624D01*
X1334351Y516719D01*
X1334293Y516816D01*
X1334272Y516836D01*
X1334256Y516861D01*
X1334169Y516934D01*
X1334087Y517011D01*
X1334061Y517025D01*
X1334038Y517044D01*
X1333935Y517090D01*
X1333834Y517141D01*
X1333805Y517147D01*
X1333778Y517159D01*
X1333666Y517175D01*
X1333555Y517196D01*
X1333526Y517194D01*
X1333497Y517198D01*
X1333385Y517182D01*
X1333272Y517172D01*
X1333245Y517161D01*
X1333215Y517157D01*
X1333112Y517111D01*
X1333007Y517070D01*
X1332983Y517052D01*
X1332956Y517040D01*
X1332870Y516967D01*
X1332780Y516898D01*
X1332762Y516875D01*
X1332740Y516856D01*
X1332698Y516789D01*
X1332610Y516671D01*
X1332588Y516612D01*
X1332562Y516571D01*
X1331352Y513649D01*
X1327851Y510148D01*
X1323276Y508253D01*
X1318324Y508253D01*
X1313749Y510148D01*
X1310248Y513649D01*
X1309038Y516571D01*
X1309023Y516596D01*
X1309014Y516624D01*
X1308951Y516719D01*
X1308893Y516816D01*
X1308872Y516836D01*
X1308856Y516861D01*
X1308769Y516934D01*
X1308687Y517011D01*
X1308661Y517025D01*
X1308638Y517044D01*
X1308535Y517090D01*
X1308434Y517141D01*
X1308405Y517147D01*
X1308378Y517159D01*
X1308266Y517175D01*
X1308155Y517196D01*
X1308126Y517194D01*
X1308097Y517198D01*
X1307985Y517182D01*
X1307872Y517172D01*
X1307845Y517161D01*
X1307815Y517157D01*
X1307712Y517111D01*
X1307607Y517070D01*
X1307583Y517052D01*
X1307556Y517040D01*
X1307470Y516967D01*
X1307380Y516898D01*
X1307362Y516875D01*
X1307340Y516856D01*
X1307298Y516789D01*
X1307210Y516671D01*
X1307188Y516612D01*
X1307162Y516571D01*
X1305952Y513649D01*
X1302451Y510148D01*
X1297876Y508253D01*
X1292924Y508253D01*
X1288349Y510148D01*
X1284848Y513649D01*
X1283638Y516571D01*
X1283623Y516596D01*
X1283614Y516624D01*
X1283551Y516719D01*
X1283493Y516816D01*
X1283472Y516836D01*
X1283456Y516861D01*
X1283369Y516934D01*
X1283287Y517011D01*
X1283261Y517025D01*
X1283238Y517044D01*
X1283135Y517090D01*
X1283034Y517141D01*
X1283005Y517147D01*
X1282978Y517159D01*
X1282866Y517175D01*
X1282755Y517196D01*
X1282726Y517194D01*
X1282697Y517198D01*
X1282585Y517182D01*
X1282472Y517172D01*
X1282445Y517161D01*
X1282415Y517157D01*
X1282312Y517111D01*
X1282207Y517070D01*
X1282183Y517052D01*
X1282156Y517040D01*
X1282070Y516967D01*
X1281980Y516898D01*
X1281962Y516875D01*
X1281940Y516856D01*
X1281898Y516789D01*
X1281810Y516671D01*
X1281788Y516612D01*
X1281762Y516571D01*
X1280552Y513649D01*
X1277051Y510148D01*
X1272476Y508253D01*
X1267524Y508253D01*
X1262949Y510148D01*
X1259448Y513649D01*
X1258238Y516571D01*
X1258223Y516596D01*
X1258214Y516624D01*
X1258151Y516719D01*
X1258093Y516816D01*
X1258072Y516836D01*
X1258056Y516861D01*
X1257969Y516934D01*
X1257887Y517011D01*
X1257861Y517025D01*
X1257838Y517044D01*
X1257735Y517090D01*
X1257634Y517141D01*
X1257605Y517147D01*
X1257578Y517159D01*
X1257466Y517175D01*
X1257355Y517196D01*
X1257326Y517194D01*
X1257297Y517198D01*
X1257185Y517182D01*
X1257072Y517172D01*
X1257045Y517161D01*
X1257015Y517157D01*
X1256912Y517111D01*
X1256807Y517070D01*
X1256783Y517052D01*
X1256756Y517040D01*
X1256670Y516967D01*
X1256580Y516898D01*
X1256562Y516875D01*
X1256540Y516856D01*
X1256498Y516789D01*
X1256410Y516671D01*
X1256388Y516612D01*
X1256362Y516571D01*
X1255152Y513649D01*
X1251651Y510148D01*
X1247076Y508253D01*
X1242124Y508253D01*
X1237549Y510148D01*
X1234048Y513649D01*
X1232838Y516571D01*
X1232823Y516596D01*
X1232814Y516624D01*
X1232751Y516719D01*
X1232693Y516816D01*
X1232672Y516836D01*
X1232656Y516861D01*
X1232569Y516934D01*
X1232487Y517011D01*
X1232461Y517025D01*
X1232438Y517044D01*
X1232335Y517090D01*
X1232234Y517141D01*
X1232205Y517147D01*
X1232178Y517159D01*
X1232066Y517175D01*
X1231955Y517196D01*
X1231926Y517194D01*
X1231897Y517198D01*
X1231785Y517182D01*
X1231672Y517172D01*
X1231645Y517161D01*
X1231615Y517157D01*
X1231512Y517111D01*
X1231407Y517070D01*
X1231383Y517052D01*
X1231356Y517040D01*
X1231270Y516967D01*
X1231180Y516898D01*
X1231162Y516875D01*
X1231140Y516856D01*
X1231098Y516789D01*
X1231010Y516671D01*
X1230988Y516612D01*
X1230962Y516571D01*
X1229752Y513649D01*
X1226251Y510148D01*
X1221676Y508253D01*
X1216724Y508253D01*
X1212149Y510148D01*
X1208648Y513649D01*
X1207438Y516571D01*
X1207423Y516596D01*
X1207414Y516624D01*
X1207351Y516719D01*
X1207293Y516816D01*
X1207272Y516836D01*
X1207256Y516861D01*
X1207169Y516934D01*
X1207087Y517011D01*
X1207061Y517025D01*
X1207038Y517044D01*
X1206935Y517090D01*
X1206834Y517141D01*
X1206805Y517147D01*
X1206778Y517159D01*
X1206666Y517175D01*
X1206555Y517196D01*
X1206526Y517194D01*
X1206497Y517198D01*
X1206385Y517182D01*
X1206272Y517172D01*
X1206245Y517161D01*
X1206215Y517157D01*
X1206112Y517111D01*
X1206007Y517070D01*
X1205983Y517052D01*
X1205956Y517040D01*
X1205870Y516967D01*
X1205780Y516898D01*
X1205762Y516875D01*
X1205740Y516856D01*
X1205698Y516789D01*
X1205610Y516671D01*
X1205588Y516612D01*
X1205562Y516571D01*
X1204352Y513649D01*
X1200851Y510148D01*
X1196276Y508253D01*
X1191324Y508253D01*
X1186749Y510148D01*
X1183248Y513649D01*
X1181353Y518224D01*
X1181353Y523176D01*
X1183248Y527751D01*
X1186749Y531252D01*
X1191324Y533147D01*
X1196276Y533147D01*
X1200851Y531252D01*
X1204352Y527751D01*
X1205562Y524829D01*
X1205577Y524804D01*
X1205586Y524776D01*
X1205649Y524681D01*
X1205707Y524584D01*
X1205728Y524564D01*
X1205744Y524539D01*
X1205831Y524466D01*
X1205913Y524389D01*
X1205939Y524375D01*
X1205962Y524356D01*
X1206065Y524310D01*
X1206166Y524259D01*
X1206195Y524253D01*
X1206222Y524241D01*
X1206334Y524225D01*
X1206445Y524204D01*
X1206474Y524206D01*
X1206503Y524202D01*
X1206615Y524218D01*
X1206728Y524228D01*
X1206755Y524239D01*
X1206784Y524243D01*
X1206888Y524289D01*
X1206993Y524330D01*
X1207017Y524348D01*
X1207044Y524360D01*
X1207130Y524433D01*
X1207220Y524502D01*
X1207238Y524525D01*
X1207260Y524544D01*
X1207302Y524611D01*
X1207390Y524729D01*
X1207412Y524788D01*
X1207438Y524829D01*
X1208648Y527751D01*
X1212149Y531252D01*
X1216724Y533147D01*
X1221676Y533147D01*
X1226251Y531252D01*
X1229752Y527751D01*
X1230962Y524829D01*
X1230977Y524804D01*
X1230986Y524776D01*
X1231049Y524681D01*
X1231107Y524584D01*
X1231128Y524564D01*
X1231144Y524539D01*
X1231231Y524466D01*
X1231313Y524389D01*
X1231339Y524375D01*
X1231362Y524356D01*
X1231465Y524310D01*
X1231566Y524259D01*
X1231595Y524253D01*
X1231622Y524241D01*
X1231734Y524225D01*
X1231845Y524204D01*
X1231874Y524206D01*
X1231903Y524202D01*
X1232015Y524218D01*
X1232128Y524228D01*
X1232155Y524239D01*
X1232184Y524243D01*
X1232288Y524289D01*
X1232393Y524330D01*
X1232417Y524348D01*
X1232444Y524360D01*
X1232530Y524433D01*
X1232620Y524502D01*
X1232638Y524525D01*
X1232660Y524544D01*
X1232702Y524611D01*
X1232790Y524729D01*
X1232812Y524788D01*
X1232838Y524829D01*
X1234048Y527751D01*
X1237549Y531252D01*
X1242124Y533147D01*
X1247076Y533147D01*
X1251651Y531252D01*
X1255152Y527751D01*
X1256362Y524829D01*
X1256377Y524804D01*
X1256386Y524776D01*
X1256449Y524681D01*
X1256507Y524584D01*
X1256528Y524564D01*
X1256544Y524539D01*
X1256631Y524466D01*
X1256713Y524389D01*
X1256739Y524375D01*
X1256762Y524356D01*
X1256865Y524310D01*
X1256966Y524259D01*
X1256995Y524253D01*
X1257022Y524241D01*
X1257134Y524225D01*
X1257245Y524204D01*
X1257274Y524206D01*
X1257303Y524202D01*
X1257415Y524218D01*
X1257528Y524228D01*
X1257555Y524239D01*
X1257584Y524243D01*
X1257688Y524289D01*
X1257793Y524330D01*
X1257817Y524348D01*
X1257844Y524360D01*
X1257930Y524433D01*
X1258020Y524502D01*
X1258038Y524525D01*
X1258060Y524544D01*
X1258102Y524611D01*
X1258190Y524729D01*
X1258212Y524788D01*
X1258238Y524829D01*
X1259448Y527751D01*
X1262949Y531252D01*
X1267524Y533147D01*
X1272476Y533147D01*
X1277051Y531252D01*
X1280552Y527751D01*
X1281762Y524829D01*
X1281777Y524804D01*
X1281786Y524776D01*
X1281849Y524681D01*
X1281907Y524584D01*
X1281928Y524564D01*
X1281944Y524539D01*
X1282031Y524467D01*
X1282113Y524389D01*
X1282139Y524375D01*
X1282162Y524357D01*
X1282265Y524311D01*
X1282366Y524259D01*
X1282395Y524253D01*
X1282422Y524241D01*
X1282534Y524225D01*
X1282645Y524204D01*
X1282674Y524206D01*
X1282703Y524202D01*
X1282815Y524218D01*
X1282928Y524228D01*
X1282955Y524239D01*
X1282984Y524243D01*
X1283088Y524289D01*
X1283193Y524330D01*
X1283217Y524348D01*
X1283244Y524360D01*
X1283330Y524433D01*
X1283420Y524502D01*
X1283438Y524525D01*
X1283460Y524544D01*
X1283502Y524611D01*
X1283590Y524729D01*
X1283612Y524788D01*
X1283638Y524829D01*
X1284848Y527751D01*
X1288349Y531252D01*
X1292924Y533147D01*
X1297876Y533147D01*
X1302451Y531252D01*
X1305952Y527751D01*
X1307162Y524829D01*
X1307177Y524804D01*
X1307186Y524776D01*
X1307249Y524681D01*
X1307307Y524584D01*
X1307328Y524564D01*
X1307344Y524539D01*
X1307431Y524467D01*
X1307513Y524389D01*
X1307539Y524375D01*
X1307562Y524357D01*
X1307665Y524311D01*
X1307766Y524259D01*
X1307795Y524253D01*
X1307822Y524241D01*
X1307934Y524225D01*
X1308045Y524204D01*
X1308074Y524206D01*
X1308103Y524202D01*
X1308215Y524218D01*
X1308328Y524228D01*
X1308355Y524239D01*
X1308384Y524243D01*
X1308488Y524289D01*
X1308593Y524330D01*
X1308617Y524348D01*
X1308644Y524360D01*
X1308730Y524433D01*
X1308820Y524502D01*
X1308838Y524525D01*
X1308860Y524544D01*
X1308902Y524611D01*
X1308990Y524729D01*
X1309012Y524788D01*
X1309038Y524829D01*
X1310248Y527751D01*
X1313749Y531252D01*
X1318324Y533147D01*
X1323276Y533147D01*
X1325635Y532170D01*
X1325636Y532169D01*
X1325638Y532168D01*
X1325772Y532134D01*
X1325910Y532099D01*
X1325912Y532099D01*
X1325913Y532098D01*
X1326054Y532103D01*
X1326194Y532107D01*
X1326196Y532107D01*
X1326197Y532107D01*
X1326330Y532150D01*
X1326465Y532193D01*
X1326466Y532194D01*
X1326468Y532195D01*
X1326480Y532203D01*
X1326701Y532352D01*
X1326721Y532375D01*
X1326741Y532390D01*
X1382616Y588265D01*
X1475668Y588265D01*
X1475754Y588277D01*
X1475842Y588280D01*
X1475894Y588297D01*
X1475949Y588305D01*
X1476029Y588340D01*
X1476112Y588367D01*
X1476152Y588395D01*
X1476209Y588421D01*
X1476322Y588517D01*
X1476386Y588562D01*
X1481538Y593714D01*
X1481590Y593784D01*
X1481650Y593848D01*
X1481676Y593897D01*
X1481709Y593942D01*
X1481740Y594023D01*
X1481780Y594101D01*
X1481788Y594149D01*
X1481810Y594207D01*
X1481822Y594355D01*
X1481835Y594432D01*
X1481835Y610885D01*
X1481819Y610999D01*
X1481809Y611113D01*
X1481799Y611139D01*
X1481795Y611167D01*
X1481748Y611272D01*
X1481707Y611379D01*
X1481691Y611401D01*
X1481679Y611426D01*
X1481605Y611514D01*
X1481536Y611605D01*
X1481513Y611622D01*
X1481496Y611643D01*
X1481400Y611707D01*
X1481308Y611776D01*
X1481282Y611785D01*
X1481259Y611801D01*
X1481149Y611835D01*
X1481042Y611876D01*
X1481014Y611878D01*
X1480988Y611886D01*
X1480873Y611889D01*
X1480759Y611899D01*
X1480734Y611893D01*
X1480704Y611894D01*
X1480447Y611827D01*
X1480431Y611823D01*
X1475676Y609853D01*
X1470724Y609853D01*
X1466149Y611748D01*
X1462648Y615249D01*
X1461438Y618171D01*
X1461423Y618196D01*
X1461414Y618224D01*
X1461351Y618319D01*
X1461293Y618416D01*
X1461272Y618436D01*
X1461256Y618461D01*
X1461169Y618534D01*
X1461087Y618611D01*
X1461061Y618625D01*
X1461038Y618644D01*
X1460935Y618690D01*
X1460834Y618741D01*
X1460805Y618747D01*
X1460778Y618759D01*
X1460666Y618775D01*
X1460555Y618796D01*
X1460526Y618794D01*
X1460497Y618798D01*
X1460385Y618782D01*
X1460272Y618772D01*
X1460245Y618761D01*
X1460215Y618757D01*
X1460112Y618711D01*
X1460007Y618670D01*
X1459983Y618652D01*
X1459956Y618640D01*
X1459870Y618567D01*
X1459780Y618498D01*
X1459762Y618475D01*
X1459740Y618456D01*
X1459698Y618389D01*
X1459610Y618271D01*
X1459588Y618212D01*
X1459562Y618171D01*
X1458352Y615249D01*
X1454851Y611748D01*
X1450276Y609853D01*
X1445324Y609853D01*
X1440749Y611748D01*
X1437248Y615249D01*
X1436038Y618171D01*
X1436023Y618196D01*
X1436014Y618224D01*
X1435951Y618319D01*
X1435893Y618416D01*
X1435872Y618436D01*
X1435856Y618461D01*
X1435769Y618534D01*
X1435687Y618611D01*
X1435661Y618625D01*
X1435638Y618644D01*
X1435535Y618690D01*
X1435434Y618741D01*
X1435405Y618747D01*
X1435378Y618759D01*
X1435266Y618775D01*
X1435155Y618796D01*
X1435126Y618794D01*
X1435097Y618798D01*
X1434985Y618782D01*
X1434872Y618772D01*
X1434845Y618761D01*
X1434815Y618757D01*
X1434712Y618711D01*
X1434607Y618670D01*
X1434583Y618652D01*
X1434556Y618640D01*
X1434470Y618567D01*
X1434380Y618498D01*
X1434362Y618475D01*
X1434340Y618456D01*
X1434298Y618389D01*
X1434210Y618271D01*
X1434188Y618212D01*
X1434162Y618171D01*
X1432952Y615249D01*
X1429451Y611748D01*
X1424876Y609853D01*
X1419924Y609853D01*
X1415349Y611748D01*
X1411848Y615249D01*
X1410638Y618171D01*
X1410623Y618196D01*
X1410614Y618224D01*
X1410551Y618319D01*
X1410493Y618416D01*
X1410472Y618436D01*
X1410456Y618461D01*
X1410369Y618534D01*
X1410287Y618611D01*
X1410261Y618625D01*
X1410238Y618644D01*
X1410135Y618690D01*
X1410034Y618741D01*
X1410005Y618747D01*
X1409978Y618759D01*
X1409866Y618775D01*
X1409755Y618796D01*
X1409726Y618794D01*
X1409697Y618798D01*
X1409585Y618782D01*
X1409472Y618772D01*
X1409445Y618761D01*
X1409415Y618757D01*
X1409312Y618711D01*
X1409207Y618670D01*
X1409183Y618652D01*
X1409156Y618640D01*
X1409070Y618567D01*
X1408980Y618498D01*
X1408962Y618475D01*
X1408940Y618456D01*
X1408898Y618389D01*
X1408810Y618271D01*
X1408788Y618212D01*
X1408762Y618171D01*
X1407552Y615249D01*
X1404051Y611748D01*
X1399476Y609853D01*
X1394524Y609853D01*
X1389949Y611748D01*
X1386448Y615249D01*
X1385238Y618171D01*
X1385223Y618196D01*
X1385214Y618224D01*
X1385151Y618319D01*
X1385093Y618416D01*
X1385072Y618436D01*
X1385056Y618461D01*
X1384969Y618534D01*
X1384887Y618611D01*
X1384861Y618625D01*
X1384838Y618644D01*
X1384735Y618690D01*
X1384634Y618741D01*
X1384605Y618747D01*
X1384578Y618759D01*
X1384466Y618775D01*
X1384355Y618796D01*
X1384326Y618794D01*
X1384297Y618798D01*
X1384185Y618782D01*
X1384072Y618772D01*
X1384045Y618761D01*
X1384015Y618757D01*
X1383912Y618711D01*
X1383807Y618670D01*
X1383783Y618652D01*
X1383756Y618640D01*
X1383670Y618567D01*
X1383580Y618498D01*
X1383562Y618475D01*
X1383540Y618456D01*
X1383498Y618389D01*
X1383410Y618271D01*
X1383388Y618212D01*
X1383362Y618171D01*
X1382152Y615249D01*
X1378651Y611748D01*
X1374076Y609853D01*
X1369124Y609853D01*
X1364549Y611748D01*
X1361048Y615249D01*
X1359153Y619824D01*
X1359153Y624776D01*
X1361048Y629351D01*
X1364549Y632852D01*
X1367471Y634062D01*
X1367496Y634077D01*
X1367524Y634086D01*
X1367619Y634149D01*
X1367716Y634207D01*
X1367736Y634228D01*
X1367761Y634244D01*
X1367833Y634331D01*
X1367911Y634413D01*
X1367925Y634439D01*
X1367943Y634462D01*
X1367989Y634565D01*
X1368041Y634666D01*
X1368047Y634695D01*
X1368059Y634722D01*
X1368075Y634834D01*
X1368096Y634945D01*
X1368094Y634974D01*
X1368098Y635003D01*
X1368082Y635115D01*
X1368072Y635228D01*
X1368061Y635255D01*
X1368057Y635284D01*
X1368011Y635388D01*
X1367970Y635493D01*
X1367952Y635517D01*
X1367940Y635544D01*
X1367867Y635630D01*
X1367798Y635720D01*
X1367775Y635738D01*
X1367756Y635760D01*
X1367689Y635802D01*
X1367571Y635890D01*
X1367512Y635912D01*
X1367471Y635938D01*
X1364549Y637148D01*
X1361048Y640649D01*
X1359153Y645224D01*
X1359153Y650176D01*
X1361048Y654751D01*
X1364549Y658252D01*
X1368698Y659970D01*
X1368772Y660014D01*
X1368850Y660049D01*
X1368894Y660086D01*
X1368943Y660115D01*
X1369001Y660177D01*
X1369067Y660233D01*
X1369099Y660280D01*
X1369138Y660321D01*
X1369177Y660398D01*
X1369225Y660469D01*
X1369242Y660523D01*
X1369268Y660574D01*
X1369285Y660658D01*
X1369310Y660740D01*
X1369312Y660797D01*
X1369323Y660853D01*
X1369316Y660938D01*
X1369318Y661024D01*
X1369303Y661079D01*
X1369298Y661136D01*
X1369268Y661216D01*
X1369246Y661299D01*
X1369217Y661348D01*
X1369196Y661401D01*
X1369145Y661470D01*
X1369101Y661544D01*
X1369059Y661583D01*
X1369025Y661628D01*
X1368956Y661680D01*
X1368893Y661738D01*
X1368843Y661764D01*
X1368797Y661798D01*
X1368717Y661829D01*
X1368640Y661868D01*
X1368591Y661876D01*
X1368531Y661899D01*
X1368387Y661910D01*
X1368309Y661923D01*
X1211144Y661923D01*
X1211058Y661911D01*
X1210970Y661908D01*
X1210918Y661891D01*
X1210863Y661883D01*
X1210783Y661848D01*
X1210700Y661821D01*
X1210660Y661793D01*
X1210603Y661767D01*
X1210490Y661671D01*
X1210426Y661626D01*
X1083862Y535062D01*
X1083810Y534992D01*
X1083750Y534928D01*
X1083724Y534879D01*
X1083691Y534834D01*
X1083660Y534753D01*
X1083620Y534675D01*
X1083612Y534627D01*
X1083590Y534569D01*
X1083578Y534421D01*
X1083565Y534344D01*
X1083565Y533167D01*
X1083565Y533165D01*
X1083565Y533164D01*
X1083586Y533020D01*
X1083605Y532885D01*
X1083605Y532884D01*
X1083605Y532882D01*
X1083662Y532757D01*
X1083721Y532626D01*
X1083722Y532625D01*
X1083723Y532623D01*
X1083814Y532516D01*
X1083904Y532409D01*
X1083906Y532408D01*
X1083907Y532407D01*
X1083920Y532399D01*
X1084141Y532251D01*
X1084170Y532242D01*
X1084191Y532229D01*
X1086551Y531252D01*
X1090052Y527751D01*
X1091262Y524829D01*
X1091277Y524804D01*
X1091286Y524776D01*
X1091349Y524681D01*
X1091407Y524584D01*
X1091428Y524564D01*
X1091444Y524539D01*
X1091531Y524466D01*
X1091613Y524389D01*
X1091639Y524375D01*
X1091662Y524356D01*
X1091765Y524310D01*
X1091866Y524259D01*
X1091895Y524253D01*
X1091922Y524241D01*
X1092034Y524225D01*
X1092145Y524204D01*
X1092174Y524206D01*
X1092203Y524202D01*
X1092315Y524218D01*
X1092428Y524228D01*
X1092455Y524239D01*
X1092484Y524243D01*
X1092588Y524289D01*
X1092693Y524330D01*
X1092717Y524348D01*
X1092744Y524360D01*
X1092830Y524433D01*
X1092920Y524502D01*
X1092938Y524525D01*
X1092960Y524544D01*
X1093002Y524611D01*
X1093090Y524729D01*
X1093112Y524788D01*
X1093138Y524829D01*
X1094348Y527751D01*
X1097849Y531252D01*
X1102424Y533147D01*
X1107376Y533147D01*
X1111951Y531252D01*
X1115452Y527751D01*
X1116662Y524829D01*
X1116677Y524804D01*
X1116686Y524776D01*
X1116749Y524681D01*
X1116807Y524584D01*
X1116828Y524564D01*
X1116844Y524539D01*
X1116931Y524466D01*
X1117013Y524389D01*
X1117039Y524375D01*
X1117062Y524356D01*
X1117165Y524310D01*
X1117266Y524259D01*
X1117295Y524253D01*
X1117322Y524241D01*
X1117434Y524225D01*
X1117545Y524204D01*
X1117574Y524206D01*
X1117603Y524202D01*
X1117715Y524218D01*
X1117828Y524228D01*
X1117855Y524239D01*
X1117884Y524243D01*
X1117988Y524289D01*
X1118093Y524330D01*
X1118117Y524348D01*
X1118144Y524360D01*
X1118230Y524433D01*
X1118320Y524502D01*
X1118338Y524525D01*
X1118360Y524544D01*
X1118402Y524611D01*
X1118490Y524729D01*
X1118512Y524788D01*
X1118538Y524829D01*
X1119748Y527751D01*
X1123249Y531252D01*
X1127824Y533147D01*
X1132776Y533147D01*
X1137351Y531252D01*
X1140852Y527751D01*
X1142369Y524089D01*
X1142404Y524029D01*
X1142430Y523965D01*
X1142476Y523907D01*
X1142513Y523844D01*
X1142563Y523796D01*
X1142606Y523742D01*
X1142666Y523699D01*
X1142720Y523649D01*
X1142781Y523617D01*
X1142838Y523577D01*
X1142907Y523552D01*
X1142973Y523518D01*
X1143040Y523505D01*
X1143106Y523482D01*
X1143179Y523478D01*
X1143252Y523463D01*
X1143320Y523469D01*
X1143389Y523465D01*
X1143461Y523481D01*
X1143535Y523488D01*
X1143599Y523513D01*
X1143667Y523528D01*
X1143731Y523563D01*
X1143800Y523590D01*
X1143855Y523631D01*
X1143916Y523665D01*
X1143968Y523717D01*
X1144027Y523761D01*
X1144068Y523817D01*
X1144117Y523866D01*
X1144146Y523921D01*
X1144197Y523989D01*
X1144238Y524097D01*
X1144272Y524163D01*
X1144636Y525283D01*
X1145489Y526957D01*
X1146594Y528478D01*
X1147922Y529806D01*
X1149443Y530911D01*
X1151117Y531764D01*
X1152904Y532345D01*
X1153669Y532466D01*
X1153669Y521716D01*
X1153677Y521658D01*
X1153675Y521600D01*
X1153697Y521518D01*
X1153709Y521435D01*
X1153733Y521381D01*
X1153747Y521325D01*
X1153790Y521252D01*
X1153825Y521175D01*
X1153863Y521131D01*
X1153893Y521080D01*
X1153954Y521023D01*
X1154009Y520958D01*
X1154057Y520926D01*
X1154100Y520886D01*
X1154175Y520847D01*
X1154245Y520801D01*
X1154301Y520783D01*
X1154353Y520756D01*
X1154421Y520745D01*
X1154516Y520715D01*
X1154616Y520712D01*
X1154684Y520701D01*
X1155701Y520701D01*
X1155701Y520699D01*
X1154684Y520699D01*
X1154626Y520691D01*
X1154568Y520692D01*
X1154486Y520671D01*
X1154403Y520659D01*
X1154349Y520635D01*
X1154293Y520621D01*
X1154220Y520578D01*
X1154143Y520543D01*
X1154098Y520505D01*
X1154048Y520475D01*
X1153990Y520414D01*
X1153926Y520359D01*
X1153894Y520311D01*
X1153854Y520268D01*
X1153815Y520193D01*
X1153769Y520123D01*
X1153751Y520067D01*
X1153724Y520015D01*
X1153713Y519947D01*
X1153683Y519852D01*
X1153680Y519752D01*
X1153669Y519684D01*
X1153669Y508934D01*
X1152904Y509055D01*
X1151117Y509636D01*
X1149443Y510489D01*
X1147922Y511594D01*
X1146594Y512922D01*
X1145489Y514443D01*
X1144636Y516117D01*
X1144272Y517237D01*
X1144242Y517299D01*
X1144221Y517365D01*
X1144180Y517426D01*
X1144147Y517492D01*
X1144101Y517543D01*
X1144062Y517601D01*
X1144006Y517648D01*
X1143957Y517703D01*
X1143898Y517739D01*
X1143845Y517784D01*
X1143778Y517814D01*
X1143715Y517853D01*
X1143648Y517871D01*
X1143585Y517899D01*
X1143512Y517909D01*
X1143441Y517929D01*
X1143372Y517929D01*
X1143303Y517938D01*
X1143231Y517928D01*
X1143157Y517927D01*
X1143090Y517907D01*
X1143022Y517898D01*
X1142955Y517867D01*
X1142884Y517846D01*
X1142826Y517809D01*
X1142763Y517780D01*
X1142707Y517733D01*
X1142645Y517693D01*
X1142599Y517641D01*
X1142547Y517596D01*
X1142514Y517543D01*
X1142457Y517479D01*
X1142408Y517375D01*
X1142369Y517311D01*
X1140852Y513649D01*
X1137351Y510148D01*
X1132776Y508253D01*
X1127824Y508253D01*
X1123249Y510148D01*
X1119748Y513649D01*
X1118538Y516571D01*
X1118523Y516596D01*
X1118514Y516624D01*
X1118451Y516719D01*
X1118393Y516816D01*
X1118372Y516836D01*
X1118356Y516861D01*
X1118269Y516934D01*
X1118187Y517011D01*
X1118161Y517025D01*
X1118138Y517044D01*
X1118035Y517090D01*
X1117934Y517141D01*
X1117905Y517147D01*
X1117878Y517159D01*
X1117766Y517175D01*
X1117655Y517196D01*
X1117626Y517194D01*
X1117597Y517198D01*
X1117485Y517182D01*
X1117372Y517172D01*
X1117345Y517161D01*
X1117315Y517157D01*
X1117212Y517111D01*
X1117107Y517070D01*
X1117083Y517052D01*
X1117056Y517040D01*
X1116970Y516967D01*
X1116880Y516898D01*
X1116862Y516875D01*
X1116840Y516856D01*
X1116798Y516789D01*
X1116710Y516671D01*
X1116688Y516612D01*
X1116662Y516571D01*
X1115452Y513649D01*
X1111951Y510148D01*
X1107376Y508253D01*
X1102424Y508253D01*
X1097849Y510148D01*
X1094348Y513649D01*
X1093138Y516571D01*
X1093123Y516596D01*
X1093114Y516624D01*
X1093051Y516719D01*
X1092993Y516816D01*
X1092972Y516836D01*
X1092956Y516861D01*
X1092869Y516934D01*
X1092787Y517011D01*
X1092761Y517025D01*
X1092738Y517044D01*
X1092635Y517090D01*
X1092534Y517141D01*
X1092505Y517147D01*
X1092478Y517159D01*
X1092366Y517175D01*
X1092255Y517196D01*
X1092226Y517194D01*
X1092197Y517198D01*
X1092085Y517182D01*
X1091972Y517172D01*
X1091945Y517161D01*
X1091915Y517157D01*
X1091812Y517111D01*
X1091707Y517070D01*
X1091683Y517052D01*
X1091656Y517040D01*
X1091570Y516967D01*
X1091480Y516898D01*
X1091462Y516875D01*
X1091440Y516856D01*
X1091398Y516789D01*
X1091310Y516671D01*
X1091288Y516612D01*
X1091262Y516571D01*
X1090052Y513649D01*
X1086551Y510148D01*
X1081976Y508253D01*
X1077024Y508253D01*
X1072449Y510148D01*
X1068948Y513649D01*
X1067738Y516571D01*
X1067723Y516596D01*
X1067714Y516624D01*
X1067651Y516719D01*
X1067593Y516816D01*
X1067572Y516836D01*
X1067556Y516861D01*
X1067469Y516934D01*
X1067387Y517011D01*
X1067361Y517025D01*
X1067338Y517044D01*
X1067235Y517090D01*
X1067134Y517141D01*
X1067105Y517147D01*
X1067078Y517159D01*
X1066966Y517175D01*
X1066855Y517196D01*
X1066826Y517194D01*
X1066797Y517198D01*
X1066685Y517182D01*
X1066572Y517172D01*
X1066545Y517161D01*
X1066515Y517157D01*
X1066412Y517111D01*
X1066307Y517070D01*
X1066283Y517052D01*
X1066256Y517040D01*
X1066170Y516967D01*
X1066080Y516898D01*
X1066062Y516875D01*
X1066040Y516856D01*
X1065998Y516789D01*
X1065910Y516671D01*
X1065888Y516612D01*
X1065862Y516571D01*
X1064652Y513649D01*
X1061151Y510148D01*
X1056576Y508253D01*
X1051624Y508253D01*
X1047049Y510148D01*
X1043548Y513649D01*
X1042338Y516571D01*
X1042323Y516596D01*
X1042314Y516624D01*
X1042251Y516719D01*
X1042193Y516816D01*
X1042172Y516836D01*
X1042156Y516861D01*
X1042069Y516933D01*
X1041987Y517011D01*
X1041961Y517025D01*
X1041938Y517043D01*
X1041835Y517089D01*
X1041734Y517141D01*
X1041705Y517147D01*
X1041678Y517159D01*
X1041566Y517175D01*
X1041455Y517196D01*
X1041426Y517194D01*
X1041397Y517198D01*
X1041285Y517182D01*
X1041172Y517172D01*
X1041145Y517161D01*
X1041116Y517157D01*
X1041012Y517111D01*
X1040907Y517070D01*
X1040883Y517052D01*
X1040856Y517040D01*
X1040770Y516967D01*
X1040680Y516898D01*
X1040662Y516875D01*
X1040640Y516856D01*
X1040598Y516789D01*
X1040510Y516671D01*
X1040488Y516612D01*
X1040462Y516571D01*
X1039252Y513649D01*
X1035751Y510148D01*
X1031176Y508253D01*
X1026224Y508253D01*
X1021649Y510148D01*
X1018148Y513649D01*
X1016938Y516571D01*
X1016923Y516596D01*
X1016914Y516624D01*
X1016851Y516719D01*
X1016793Y516816D01*
X1016772Y516836D01*
X1016756Y516861D01*
X1016669Y516934D01*
X1016587Y517011D01*
X1016561Y517025D01*
X1016538Y517044D01*
X1016435Y517090D01*
X1016334Y517141D01*
X1016305Y517147D01*
X1016278Y517159D01*
X1016166Y517175D01*
X1016055Y517196D01*
X1016026Y517194D01*
X1015997Y517198D01*
X1015885Y517182D01*
X1015772Y517172D01*
X1015745Y517161D01*
X1015715Y517157D01*
X1015612Y517111D01*
X1015507Y517070D01*
X1015483Y517052D01*
X1015456Y517040D01*
X1015370Y516967D01*
X1015280Y516898D01*
X1015262Y516875D01*
X1015240Y516856D01*
X1015198Y516789D01*
X1015110Y516671D01*
X1015088Y516612D01*
X1015062Y516571D01*
X1013852Y513649D01*
X1010351Y510148D01*
X1005776Y508253D01*
X1000824Y508253D01*
X996249Y510148D01*
X992748Y513649D01*
X991538Y516571D01*
X991523Y516596D01*
X991514Y516624D01*
X991451Y516719D01*
X991393Y516816D01*
X991372Y516836D01*
X991356Y516861D01*
X991269Y516934D01*
X991187Y517011D01*
X991161Y517025D01*
X991138Y517044D01*
X991035Y517090D01*
X990934Y517141D01*
X990905Y517147D01*
X990878Y517159D01*
X990766Y517175D01*
X990655Y517196D01*
X990626Y517194D01*
X990597Y517198D01*
X990485Y517182D01*
X990372Y517172D01*
X990345Y517161D01*
X990315Y517157D01*
X990212Y517111D01*
X990107Y517070D01*
X990083Y517052D01*
X990056Y517040D01*
X989970Y516967D01*
X989880Y516898D01*
X989862Y516875D01*
X989840Y516856D01*
X989798Y516789D01*
X989710Y516671D01*
X989688Y516612D01*
X989662Y516571D01*
X988452Y513649D01*
X984951Y510148D01*
X980376Y508253D01*
X975424Y508253D01*
X970849Y510148D01*
X967348Y513649D01*
X966138Y516571D01*
X966123Y516596D01*
X966114Y516624D01*
X966051Y516719D01*
X965993Y516816D01*
X965972Y516836D01*
X965956Y516861D01*
X965869Y516934D01*
X965787Y517011D01*
X965761Y517025D01*
X965738Y517044D01*
X965635Y517090D01*
X965534Y517141D01*
X965505Y517147D01*
X965478Y517159D01*
X965366Y517175D01*
X965255Y517196D01*
X965226Y517194D01*
X965197Y517198D01*
X965085Y517182D01*
X964972Y517172D01*
X964945Y517161D01*
X964915Y517157D01*
X964812Y517111D01*
X964707Y517070D01*
X964683Y517052D01*
X964656Y517040D01*
X964570Y516967D01*
X964480Y516898D01*
X964462Y516875D01*
X964440Y516856D01*
X964398Y516789D01*
X964310Y516671D01*
X964288Y516612D01*
X964262Y516571D01*
X963052Y513649D01*
X959551Y510148D01*
X954976Y508253D01*
X950024Y508253D01*
X945449Y510148D01*
X941948Y513649D01*
X940738Y516571D01*
X940723Y516596D01*
X940714Y516624D01*
X940651Y516719D01*
X940593Y516816D01*
X940572Y516836D01*
X940556Y516861D01*
X940469Y516934D01*
X940387Y517011D01*
X940361Y517025D01*
X940338Y517044D01*
X940235Y517090D01*
X940134Y517141D01*
X940105Y517147D01*
X940078Y517159D01*
X939966Y517175D01*
X939855Y517196D01*
X939826Y517194D01*
X939797Y517198D01*
X939685Y517182D01*
X939572Y517172D01*
X939545Y517161D01*
X939515Y517157D01*
X939412Y517111D01*
X939307Y517070D01*
X939283Y517052D01*
X939256Y517040D01*
X939170Y516967D01*
X939080Y516898D01*
X939062Y516875D01*
X939040Y516856D01*
X938998Y516789D01*
X938910Y516671D01*
X938888Y516612D01*
X938862Y516571D01*
X937652Y513649D01*
X934151Y510148D01*
X929576Y508253D01*
X924624Y508253D01*
X920049Y510148D01*
X916548Y513649D01*
X914653Y518224D01*
X914653Y523176D01*
X916548Y527751D01*
X920049Y531252D01*
X924624Y533147D01*
X929576Y533147D01*
X934151Y531252D01*
X937652Y527751D01*
X938862Y524829D01*
X938877Y524804D01*
X938886Y524776D01*
X938949Y524681D01*
X939007Y524584D01*
X939028Y524564D01*
X939044Y524539D01*
X939131Y524467D01*
X939213Y524389D01*
X939239Y524375D01*
X939262Y524357D01*
X939365Y524311D01*
X939466Y524259D01*
X939495Y524253D01*
X939522Y524241D01*
X939634Y524225D01*
X939745Y524204D01*
X939774Y524206D01*
X939803Y524202D01*
X939915Y524218D01*
X940028Y524228D01*
X940055Y524239D01*
X940084Y524243D01*
X940188Y524289D01*
X940293Y524330D01*
X940317Y524348D01*
X940344Y524360D01*
X940430Y524433D01*
X940520Y524502D01*
X940538Y524525D01*
X940560Y524544D01*
X940602Y524611D01*
X940690Y524729D01*
X940712Y524788D01*
X940738Y524829D01*
X941948Y527751D01*
X945449Y531252D01*
X950024Y533147D01*
X954976Y533147D01*
X959551Y531252D01*
X963052Y527751D01*
X964262Y524829D01*
X964277Y524804D01*
X964286Y524776D01*
X964349Y524681D01*
X964407Y524584D01*
X964428Y524564D01*
X964444Y524539D01*
X964531Y524467D01*
X964613Y524389D01*
X964639Y524375D01*
X964662Y524357D01*
X964765Y524311D01*
X964866Y524259D01*
X964895Y524253D01*
X964922Y524241D01*
X965034Y524225D01*
X965145Y524204D01*
X965174Y524206D01*
X965203Y524202D01*
X965315Y524218D01*
X965428Y524228D01*
X965455Y524239D01*
X965484Y524243D01*
X965588Y524289D01*
X965693Y524330D01*
X965717Y524348D01*
X965744Y524360D01*
X965830Y524433D01*
X965920Y524502D01*
X965938Y524525D01*
X965960Y524544D01*
X966002Y524611D01*
X966090Y524729D01*
X966112Y524788D01*
X966138Y524829D01*
X967348Y527751D01*
X970849Y531252D01*
X975424Y533147D01*
X980376Y533147D01*
X984951Y531252D01*
X988452Y527751D01*
X989662Y524829D01*
X989677Y524804D01*
X989686Y524776D01*
X989749Y524681D01*
X989807Y524584D01*
X989828Y524564D01*
X989844Y524539D01*
X989931Y524467D01*
X990013Y524389D01*
X990039Y524375D01*
X990062Y524357D01*
X990165Y524311D01*
X990266Y524259D01*
X990295Y524253D01*
X990322Y524241D01*
X990434Y524225D01*
X990545Y524204D01*
X990574Y524206D01*
X990603Y524202D01*
X990715Y524218D01*
X990828Y524228D01*
X990855Y524239D01*
X990884Y524243D01*
X990988Y524289D01*
X991093Y524330D01*
X991117Y524348D01*
X991144Y524360D01*
X991230Y524433D01*
X991320Y524502D01*
X991338Y524525D01*
X991360Y524544D01*
X991402Y524611D01*
X991490Y524729D01*
X991512Y524788D01*
X991538Y524829D01*
X992748Y527751D01*
X996249Y531252D01*
X1000824Y533147D01*
X1005776Y533147D01*
X1010351Y531252D01*
X1013852Y527751D01*
X1015062Y524829D01*
X1015077Y524804D01*
X1015086Y524776D01*
X1015149Y524681D01*
X1015207Y524584D01*
X1015228Y524564D01*
X1015244Y524539D01*
X1015331Y524467D01*
X1015413Y524389D01*
X1015439Y524375D01*
X1015462Y524357D01*
X1015565Y524311D01*
X1015666Y524259D01*
X1015695Y524253D01*
X1015722Y524241D01*
X1015834Y524225D01*
X1015945Y524204D01*
X1015974Y524206D01*
X1016003Y524202D01*
X1016115Y524218D01*
X1016228Y524228D01*
X1016255Y524239D01*
X1016284Y524243D01*
X1016388Y524289D01*
X1016493Y524330D01*
X1016517Y524348D01*
X1016544Y524360D01*
X1016630Y524433D01*
X1016720Y524502D01*
X1016738Y524525D01*
X1016760Y524544D01*
X1016802Y524611D01*
X1016890Y524729D01*
X1016912Y524788D01*
X1016938Y524829D01*
X1018148Y527751D01*
X1021649Y531252D01*
X1026224Y533147D01*
X1031176Y533147D01*
X1035751Y531252D01*
X1039252Y527751D01*
X1040462Y524829D01*
X1040477Y524804D01*
X1040486Y524776D01*
X1040549Y524681D01*
X1040607Y524584D01*
X1040628Y524564D01*
X1040644Y524539D01*
X1040731Y524466D01*
X1040813Y524389D01*
X1040839Y524375D01*
X1040862Y524356D01*
X1040965Y524310D01*
X1041066Y524259D01*
X1041095Y524253D01*
X1041122Y524241D01*
X1041234Y524225D01*
X1041345Y524204D01*
X1041374Y524206D01*
X1041403Y524202D01*
X1041515Y524218D01*
X1041628Y524228D01*
X1041655Y524239D01*
X1041685Y524243D01*
X1041788Y524289D01*
X1041893Y524330D01*
X1041917Y524348D01*
X1041944Y524360D01*
X1042030Y524433D01*
X1042120Y524502D01*
X1042138Y524525D01*
X1042160Y524544D01*
X1042202Y524611D01*
X1042290Y524729D01*
X1042312Y524788D01*
X1042338Y524829D01*
X1043548Y527751D01*
X1047049Y531252D01*
X1051624Y533147D01*
X1056576Y533147D01*
X1058935Y532170D01*
X1058936Y532169D01*
X1058938Y532168D01*
X1059072Y532134D01*
X1059210Y532099D01*
X1059212Y532099D01*
X1059213Y532098D01*
X1059354Y532103D01*
X1059494Y532107D01*
X1059496Y532107D01*
X1059497Y532107D01*
X1059630Y532150D01*
X1059765Y532193D01*
X1059766Y532194D01*
X1059768Y532195D01*
X1059780Y532203D01*
X1060001Y532352D01*
X1060021Y532375D01*
X1060041Y532390D01*
X1199272Y671620D01*
X1199289Y671644D01*
X1199312Y671663D01*
X1199375Y671757D01*
X1199443Y671847D01*
X1199453Y671875D01*
X1199469Y671899D01*
X1199504Y672007D01*
X1199544Y672113D01*
X1199546Y672142D01*
X1199555Y672170D01*
X1199558Y672284D01*
X1199567Y672396D01*
X1199562Y672425D01*
X1199562Y672454D01*
X1199534Y672564D01*
X1199512Y672675D01*
X1199498Y672701D01*
X1199491Y672729D01*
X1199433Y672827D01*
X1199381Y672927D01*
X1199360Y672949D01*
X1199345Y672974D01*
X1199263Y673051D01*
X1199185Y673133D01*
X1199159Y673148D01*
X1199138Y673168D01*
X1199037Y673220D01*
X1198939Y673277D01*
X1198911Y673284D01*
X1198885Y673298D01*
X1198808Y673311D01*
X1198664Y673347D01*
X1198601Y673345D01*
X1198554Y673353D01*
X954858Y673353D01*
X954772Y673341D01*
X954684Y673338D01*
X954632Y673321D01*
X954577Y673313D01*
X954497Y673278D01*
X954414Y673251D01*
X954374Y673223D01*
X954317Y673197D01*
X954204Y673101D01*
X954140Y673056D01*
X817162Y536078D01*
X817110Y536008D01*
X817050Y535944D01*
X817024Y535895D01*
X816991Y535850D01*
X816960Y535769D01*
X816920Y535691D01*
X816912Y535643D01*
X816890Y535585D01*
X816878Y535437D01*
X816865Y535360D01*
X816865Y533167D01*
X816865Y533165D01*
X816865Y533164D01*
X816886Y533020D01*
X816905Y532885D01*
X816905Y532884D01*
X816905Y532882D01*
X816962Y532757D01*
X817021Y532626D01*
X817022Y532625D01*
X817023Y532623D01*
X817114Y532516D01*
X817204Y532409D01*
X817206Y532408D01*
X817207Y532407D01*
X817220Y532399D01*
X817441Y532251D01*
X817470Y532242D01*
X817491Y532229D01*
X819851Y531252D01*
X823352Y527751D01*
X824562Y524829D01*
X824577Y524804D01*
X824586Y524776D01*
X824649Y524681D01*
X824707Y524584D01*
X824728Y524564D01*
X824744Y524539D01*
X824831Y524467D01*
X824913Y524389D01*
X824939Y524375D01*
X824962Y524357D01*
X825065Y524311D01*
X825166Y524259D01*
X825195Y524253D01*
X825222Y524241D01*
X825334Y524225D01*
X825445Y524204D01*
X825474Y524206D01*
X825503Y524202D01*
X825615Y524218D01*
X825728Y524228D01*
X825755Y524239D01*
X825784Y524243D01*
X825888Y524289D01*
X825993Y524330D01*
X826017Y524348D01*
X826044Y524360D01*
X826130Y524433D01*
X826220Y524502D01*
X826238Y524525D01*
X826260Y524544D01*
X826302Y524611D01*
X826390Y524729D01*
X826412Y524788D01*
X826438Y524829D01*
X827648Y527751D01*
X831149Y531252D01*
X835724Y533147D01*
X840676Y533147D01*
X845251Y531252D01*
X848752Y527751D01*
X849962Y524829D01*
X849977Y524804D01*
X849986Y524776D01*
X850049Y524681D01*
X850107Y524584D01*
X850128Y524564D01*
X850144Y524539D01*
X850231Y524467D01*
X850313Y524389D01*
X850339Y524375D01*
X850362Y524357D01*
X850465Y524311D01*
X850566Y524259D01*
X850595Y524253D01*
X850622Y524241D01*
X850734Y524225D01*
X850845Y524204D01*
X850874Y524206D01*
X850903Y524202D01*
X851015Y524218D01*
X851128Y524228D01*
X851155Y524239D01*
X851184Y524243D01*
X851288Y524289D01*
X851393Y524330D01*
X851417Y524348D01*
X851444Y524360D01*
X851530Y524433D01*
X851620Y524502D01*
X851638Y524525D01*
X851660Y524544D01*
X851702Y524611D01*
X851790Y524729D01*
X851812Y524788D01*
X851838Y524829D01*
X853048Y527751D01*
X856549Y531252D01*
X861124Y533147D01*
X866076Y533147D01*
X870651Y531252D01*
X874152Y527751D01*
X875669Y524089D01*
X875704Y524029D01*
X875730Y523965D01*
X875776Y523907D01*
X875813Y523844D01*
X875863Y523796D01*
X875906Y523742D01*
X875966Y523699D01*
X876020Y523649D01*
X876081Y523617D01*
X876138Y523577D01*
X876207Y523552D01*
X876273Y523518D01*
X876340Y523505D01*
X876406Y523482D01*
X876479Y523478D01*
X876552Y523463D01*
X876620Y523469D01*
X876689Y523465D01*
X876761Y523481D01*
X876835Y523488D01*
X876899Y523513D01*
X876967Y523528D01*
X877031Y523563D01*
X877100Y523590D01*
X877155Y523632D01*
X877216Y523665D01*
X877268Y523717D01*
X877327Y523761D01*
X877368Y523817D01*
X877417Y523866D01*
X877446Y523921D01*
X877497Y523989D01*
X877538Y524097D01*
X877572Y524163D01*
X877936Y525283D01*
X878789Y526957D01*
X879894Y528478D01*
X881222Y529806D01*
X882743Y530911D01*
X884417Y531764D01*
X886204Y532345D01*
X886969Y532466D01*
X886969Y521716D01*
X886977Y521658D01*
X886975Y521600D01*
X886997Y521518D01*
X887009Y521435D01*
X887033Y521381D01*
X887047Y521325D01*
X887090Y521252D01*
X887125Y521175D01*
X887163Y521131D01*
X887193Y521080D01*
X887254Y521023D01*
X887309Y520958D01*
X887357Y520926D01*
X887400Y520886D01*
X887475Y520847D01*
X887545Y520801D01*
X887601Y520783D01*
X887653Y520756D01*
X887721Y520745D01*
X887816Y520715D01*
X887916Y520712D01*
X887984Y520701D01*
X889001Y520701D01*
X889001Y520699D01*
X887984Y520699D01*
X887926Y520691D01*
X887868Y520692D01*
X887786Y520671D01*
X887703Y520659D01*
X887649Y520635D01*
X887593Y520621D01*
X887520Y520578D01*
X887443Y520543D01*
X887398Y520505D01*
X887348Y520475D01*
X887290Y520414D01*
X887226Y520359D01*
X887194Y520311D01*
X887154Y520268D01*
X887115Y520193D01*
X887069Y520123D01*
X887051Y520067D01*
X887024Y520015D01*
X887013Y519947D01*
X886983Y519852D01*
X886980Y519752D01*
X886969Y519684D01*
X886969Y508934D01*
X886204Y509055D01*
X884417Y509636D01*
X882743Y510489D01*
X881222Y511594D01*
X879894Y512922D01*
X878789Y514443D01*
X877936Y516117D01*
X877572Y517237D01*
X877542Y517299D01*
X877521Y517365D01*
X877480Y517426D01*
X877447Y517492D01*
X877401Y517543D01*
X877362Y517601D01*
X877306Y517648D01*
X877257Y517703D01*
X877198Y517739D01*
X877145Y517784D01*
X877077Y517814D01*
X877015Y517852D01*
X876948Y517871D01*
X876885Y517899D01*
X876812Y517909D01*
X876741Y517929D01*
X876672Y517929D01*
X876603Y517938D01*
X876530Y517928D01*
X876457Y517927D01*
X876391Y517907D01*
X876322Y517897D01*
X876255Y517867D01*
X876184Y517846D01*
X876126Y517809D01*
X876063Y517780D01*
X876007Y517733D01*
X875945Y517693D01*
X875899Y517641D01*
X875847Y517596D01*
X875814Y517543D01*
X875757Y517479D01*
X875708Y517375D01*
X875669Y517311D01*
X874152Y513649D01*
X870651Y510148D01*
X866076Y508253D01*
X861124Y508253D01*
X856549Y510148D01*
X853048Y513649D01*
X851838Y516571D01*
X851823Y516596D01*
X851814Y516624D01*
X851751Y516719D01*
X851693Y516816D01*
X851672Y516836D01*
X851656Y516861D01*
X851569Y516934D01*
X851487Y517011D01*
X851461Y517025D01*
X851438Y517044D01*
X851335Y517090D01*
X851234Y517141D01*
X851205Y517147D01*
X851178Y517159D01*
X851066Y517175D01*
X850955Y517196D01*
X850926Y517194D01*
X850897Y517198D01*
X850785Y517182D01*
X850672Y517172D01*
X850645Y517161D01*
X850615Y517157D01*
X850512Y517111D01*
X850407Y517070D01*
X850383Y517052D01*
X850356Y517040D01*
X850270Y516967D01*
X850180Y516898D01*
X850162Y516875D01*
X850140Y516856D01*
X850098Y516789D01*
X850010Y516671D01*
X849988Y516612D01*
X849962Y516571D01*
X848752Y513649D01*
X845251Y510148D01*
X840676Y508253D01*
X835724Y508253D01*
X831149Y510148D01*
X827648Y513649D01*
X826438Y516571D01*
X826423Y516596D01*
X826414Y516624D01*
X826351Y516719D01*
X826293Y516816D01*
X826272Y516836D01*
X826256Y516861D01*
X826169Y516934D01*
X826087Y517011D01*
X826061Y517025D01*
X826038Y517044D01*
X825935Y517090D01*
X825834Y517141D01*
X825805Y517147D01*
X825778Y517159D01*
X825666Y517175D01*
X825555Y517196D01*
X825526Y517194D01*
X825497Y517198D01*
X825385Y517182D01*
X825272Y517172D01*
X825245Y517161D01*
X825215Y517157D01*
X825112Y517111D01*
X825007Y517070D01*
X824983Y517052D01*
X824956Y517040D01*
X824870Y516967D01*
X824780Y516898D01*
X824762Y516875D01*
X824740Y516856D01*
X824698Y516789D01*
X824610Y516671D01*
X824588Y516612D01*
X824562Y516571D01*
X823352Y513649D01*
X819851Y510148D01*
X815276Y508253D01*
X810324Y508253D01*
X805749Y510148D01*
X802248Y513649D01*
X801038Y516571D01*
X801023Y516596D01*
X801014Y516624D01*
X800951Y516719D01*
X800893Y516816D01*
X800872Y516836D01*
X800856Y516861D01*
X800769Y516934D01*
X800687Y517011D01*
X800661Y517025D01*
X800638Y517044D01*
X800535Y517090D01*
X800434Y517141D01*
X800405Y517147D01*
X800378Y517159D01*
X800266Y517175D01*
X800155Y517196D01*
X800126Y517194D01*
X800097Y517198D01*
X799985Y517182D01*
X799872Y517172D01*
X799845Y517161D01*
X799815Y517157D01*
X799712Y517111D01*
X799607Y517070D01*
X799583Y517052D01*
X799556Y517040D01*
X799470Y516967D01*
X799380Y516898D01*
X799362Y516875D01*
X799340Y516856D01*
X799298Y516789D01*
X799210Y516671D01*
X799188Y516612D01*
X799162Y516571D01*
X797952Y513649D01*
X794451Y510148D01*
X789876Y508253D01*
X784924Y508253D01*
X780349Y510148D01*
X776848Y513649D01*
X775638Y516571D01*
X775623Y516596D01*
X775614Y516624D01*
X775551Y516719D01*
X775493Y516816D01*
X775472Y516836D01*
X775456Y516861D01*
X775369Y516934D01*
X775287Y517011D01*
X775261Y517025D01*
X775238Y517044D01*
X775135Y517090D01*
X775034Y517141D01*
X775005Y517147D01*
X774978Y517159D01*
X774866Y517175D01*
X774755Y517196D01*
X774726Y517194D01*
X774697Y517198D01*
X774585Y517182D01*
X774472Y517172D01*
X774445Y517161D01*
X774415Y517157D01*
X774312Y517111D01*
X774207Y517070D01*
X774183Y517052D01*
X774156Y517040D01*
X774070Y516967D01*
X773980Y516898D01*
X773962Y516875D01*
X773940Y516856D01*
X773898Y516789D01*
X773810Y516671D01*
X773788Y516612D01*
X773762Y516571D01*
X772552Y513649D01*
X769051Y510148D01*
X764476Y508253D01*
X759524Y508253D01*
X754949Y510148D01*
X751448Y513649D01*
X750238Y516571D01*
X750223Y516596D01*
X750214Y516624D01*
X750151Y516719D01*
X750093Y516816D01*
X750072Y516836D01*
X750056Y516861D01*
X749969Y516934D01*
X749887Y517011D01*
X749861Y517025D01*
X749838Y517044D01*
X749735Y517090D01*
X749634Y517141D01*
X749605Y517147D01*
X749578Y517159D01*
X749466Y517175D01*
X749355Y517196D01*
X749326Y517194D01*
X749297Y517198D01*
X749185Y517182D01*
X749072Y517172D01*
X749045Y517161D01*
X749015Y517157D01*
X748912Y517111D01*
X748807Y517070D01*
X748783Y517052D01*
X748756Y517040D01*
X748670Y516967D01*
X748580Y516898D01*
X748562Y516875D01*
X748540Y516856D01*
X748498Y516789D01*
X748410Y516671D01*
X748388Y516612D01*
X748362Y516571D01*
X747152Y513649D01*
X743651Y510148D01*
X739076Y508253D01*
X734124Y508253D01*
X729549Y510148D01*
X726048Y513649D01*
X724838Y516571D01*
X724823Y516596D01*
X724814Y516624D01*
X724751Y516719D01*
X724693Y516816D01*
X724672Y516836D01*
X724656Y516861D01*
X724569Y516934D01*
X724487Y517011D01*
X724461Y517025D01*
X724438Y517044D01*
X724335Y517090D01*
X724234Y517141D01*
X724205Y517147D01*
X724178Y517159D01*
X724066Y517175D01*
X723955Y517196D01*
X723926Y517194D01*
X723897Y517198D01*
X723785Y517182D01*
X723672Y517172D01*
X723645Y517161D01*
X723615Y517157D01*
X723512Y517111D01*
X723407Y517070D01*
X723383Y517052D01*
X723356Y517040D01*
X723270Y516967D01*
X723180Y516898D01*
X723162Y516875D01*
X723140Y516856D01*
X723098Y516789D01*
X723010Y516671D01*
X722988Y516612D01*
X722962Y516571D01*
X721752Y513649D01*
X718251Y510148D01*
X713676Y508253D01*
X708724Y508253D01*
X704149Y510148D01*
X700648Y513649D01*
X699438Y516571D01*
X699423Y516596D01*
X699414Y516624D01*
X699351Y516719D01*
X699293Y516816D01*
X699272Y516836D01*
X699256Y516861D01*
X699169Y516934D01*
X699087Y517011D01*
X699061Y517025D01*
X699038Y517044D01*
X698935Y517090D01*
X698834Y517141D01*
X698805Y517147D01*
X698778Y517159D01*
X698666Y517175D01*
X698555Y517196D01*
X698526Y517194D01*
X698497Y517198D01*
X698385Y517182D01*
X698272Y517172D01*
X698245Y517161D01*
X698215Y517157D01*
X698112Y517111D01*
X698007Y517070D01*
X697983Y517052D01*
X697956Y517040D01*
X697870Y516967D01*
X697780Y516898D01*
X697762Y516875D01*
X697740Y516856D01*
X697698Y516789D01*
X697610Y516671D01*
X697588Y516612D01*
X697562Y516571D01*
X696352Y513649D01*
X692851Y510148D01*
X688276Y508253D01*
X683324Y508253D01*
X678749Y510148D01*
X675248Y513649D01*
X674038Y516571D01*
X674023Y516596D01*
X674014Y516624D01*
X673951Y516719D01*
X673893Y516816D01*
X673872Y516836D01*
X673856Y516861D01*
X673769Y516934D01*
X673687Y517011D01*
X673661Y517025D01*
X673638Y517044D01*
X673535Y517090D01*
X673434Y517141D01*
X673405Y517147D01*
X673378Y517159D01*
X673266Y517175D01*
X673155Y517196D01*
X673126Y517194D01*
X673097Y517198D01*
X672985Y517182D01*
X672872Y517172D01*
X672845Y517161D01*
X672815Y517157D01*
X672712Y517111D01*
X672607Y517070D01*
X672583Y517052D01*
X672556Y517040D01*
X672470Y516967D01*
X672380Y516898D01*
X672362Y516875D01*
X672340Y516856D01*
X672298Y516789D01*
X672210Y516671D01*
X672188Y516612D01*
X672162Y516571D01*
X670952Y513649D01*
X667451Y510148D01*
X662876Y508253D01*
X657924Y508253D01*
G37*
%LPD*%
%LPC*%
G36*
X1458024Y508253D02*
X1458024Y508253D01*
X1453449Y510148D01*
X1449948Y513649D01*
X1448053Y518224D01*
X1448053Y523176D01*
X1449948Y527751D01*
X1453449Y531252D01*
X1458024Y533147D01*
X1462976Y533147D01*
X1467551Y531252D01*
X1471052Y527751D01*
X1472262Y524829D01*
X1472277Y524804D01*
X1472286Y524776D01*
X1472349Y524681D01*
X1472407Y524584D01*
X1472428Y524564D01*
X1472444Y524539D01*
X1472531Y524467D01*
X1472613Y524389D01*
X1472639Y524375D01*
X1472662Y524357D01*
X1472765Y524311D01*
X1472866Y524259D01*
X1472895Y524253D01*
X1472922Y524241D01*
X1473034Y524225D01*
X1473145Y524204D01*
X1473174Y524206D01*
X1473203Y524202D01*
X1473315Y524218D01*
X1473428Y524228D01*
X1473455Y524239D01*
X1473484Y524243D01*
X1473588Y524289D01*
X1473693Y524330D01*
X1473717Y524348D01*
X1473744Y524360D01*
X1473830Y524433D01*
X1473920Y524502D01*
X1473938Y524525D01*
X1473960Y524544D01*
X1474002Y524611D01*
X1474090Y524729D01*
X1474112Y524788D01*
X1474138Y524829D01*
X1475348Y527751D01*
X1478849Y531252D01*
X1483424Y533147D01*
X1488376Y533147D01*
X1492951Y531252D01*
X1496452Y527751D01*
X1497662Y524829D01*
X1497677Y524804D01*
X1497686Y524776D01*
X1497749Y524681D01*
X1497807Y524584D01*
X1497828Y524564D01*
X1497844Y524539D01*
X1497931Y524467D01*
X1498013Y524389D01*
X1498039Y524375D01*
X1498062Y524357D01*
X1498165Y524311D01*
X1498266Y524259D01*
X1498295Y524253D01*
X1498322Y524241D01*
X1498434Y524225D01*
X1498545Y524204D01*
X1498574Y524206D01*
X1498603Y524202D01*
X1498715Y524218D01*
X1498828Y524228D01*
X1498855Y524239D01*
X1498884Y524243D01*
X1498988Y524289D01*
X1499093Y524330D01*
X1499117Y524348D01*
X1499144Y524360D01*
X1499230Y524433D01*
X1499320Y524502D01*
X1499338Y524525D01*
X1499360Y524544D01*
X1499402Y524611D01*
X1499490Y524729D01*
X1499512Y524788D01*
X1499538Y524829D01*
X1500748Y527751D01*
X1504249Y531252D01*
X1508824Y533147D01*
X1513776Y533147D01*
X1518351Y531252D01*
X1521852Y527751D01*
X1523062Y524829D01*
X1523077Y524804D01*
X1523086Y524776D01*
X1523149Y524681D01*
X1523207Y524584D01*
X1523228Y524564D01*
X1523244Y524539D01*
X1523331Y524467D01*
X1523413Y524389D01*
X1523439Y524375D01*
X1523462Y524357D01*
X1523565Y524311D01*
X1523666Y524259D01*
X1523695Y524253D01*
X1523722Y524241D01*
X1523834Y524225D01*
X1523945Y524204D01*
X1523974Y524206D01*
X1524003Y524202D01*
X1524115Y524218D01*
X1524228Y524228D01*
X1524255Y524239D01*
X1524284Y524243D01*
X1524388Y524289D01*
X1524493Y524330D01*
X1524517Y524348D01*
X1524544Y524360D01*
X1524630Y524433D01*
X1524720Y524502D01*
X1524738Y524525D01*
X1524760Y524544D01*
X1524802Y524611D01*
X1524890Y524729D01*
X1524912Y524788D01*
X1524938Y524829D01*
X1526148Y527751D01*
X1529649Y531252D01*
X1534224Y533147D01*
X1539176Y533147D01*
X1543751Y531252D01*
X1547252Y527751D01*
X1548462Y524829D01*
X1548477Y524804D01*
X1548486Y524776D01*
X1548549Y524681D01*
X1548607Y524584D01*
X1548628Y524564D01*
X1548644Y524539D01*
X1548731Y524467D01*
X1548813Y524389D01*
X1548839Y524375D01*
X1548862Y524357D01*
X1548965Y524311D01*
X1549066Y524259D01*
X1549095Y524253D01*
X1549122Y524241D01*
X1549234Y524225D01*
X1549345Y524204D01*
X1549374Y524206D01*
X1549403Y524202D01*
X1549515Y524218D01*
X1549628Y524228D01*
X1549655Y524239D01*
X1549684Y524243D01*
X1549788Y524289D01*
X1549893Y524330D01*
X1549917Y524348D01*
X1549944Y524360D01*
X1550030Y524433D01*
X1550120Y524502D01*
X1550138Y524525D01*
X1550160Y524544D01*
X1550202Y524611D01*
X1550290Y524729D01*
X1550312Y524788D01*
X1550338Y524829D01*
X1551548Y527751D01*
X1555049Y531252D01*
X1559624Y533147D01*
X1564576Y533147D01*
X1569151Y531252D01*
X1572652Y527751D01*
X1573862Y524829D01*
X1573877Y524804D01*
X1573886Y524776D01*
X1573949Y524681D01*
X1574007Y524584D01*
X1574028Y524564D01*
X1574044Y524539D01*
X1574131Y524467D01*
X1574213Y524389D01*
X1574239Y524375D01*
X1574262Y524357D01*
X1574365Y524311D01*
X1574466Y524259D01*
X1574495Y524253D01*
X1574522Y524241D01*
X1574634Y524225D01*
X1574745Y524204D01*
X1574774Y524206D01*
X1574803Y524202D01*
X1574915Y524218D01*
X1575028Y524228D01*
X1575055Y524239D01*
X1575084Y524243D01*
X1575188Y524289D01*
X1575293Y524330D01*
X1575317Y524348D01*
X1575344Y524360D01*
X1575430Y524433D01*
X1575520Y524502D01*
X1575538Y524525D01*
X1575560Y524544D01*
X1575602Y524611D01*
X1575690Y524729D01*
X1575712Y524788D01*
X1575738Y524829D01*
X1576948Y527751D01*
X1580449Y531252D01*
X1585024Y533147D01*
X1589976Y533147D01*
X1594551Y531252D01*
X1598052Y527751D01*
X1599262Y524829D01*
X1599277Y524804D01*
X1599286Y524776D01*
X1599349Y524681D01*
X1599407Y524584D01*
X1599428Y524564D01*
X1599444Y524539D01*
X1599531Y524467D01*
X1599613Y524389D01*
X1599639Y524375D01*
X1599662Y524357D01*
X1599765Y524311D01*
X1599866Y524259D01*
X1599895Y524253D01*
X1599922Y524241D01*
X1600034Y524225D01*
X1600145Y524204D01*
X1600174Y524206D01*
X1600203Y524202D01*
X1600315Y524218D01*
X1600428Y524228D01*
X1600455Y524239D01*
X1600484Y524243D01*
X1600588Y524289D01*
X1600693Y524330D01*
X1600717Y524348D01*
X1600744Y524360D01*
X1600830Y524433D01*
X1600920Y524502D01*
X1600938Y524525D01*
X1600960Y524544D01*
X1601002Y524611D01*
X1601090Y524729D01*
X1601112Y524788D01*
X1601138Y524829D01*
X1602348Y527751D01*
X1605849Y531252D01*
X1610424Y533147D01*
X1615376Y533147D01*
X1619951Y531252D01*
X1623452Y527751D01*
X1624662Y524829D01*
X1624677Y524804D01*
X1624686Y524776D01*
X1624749Y524681D01*
X1624807Y524584D01*
X1624828Y524564D01*
X1624844Y524539D01*
X1624931Y524467D01*
X1625013Y524389D01*
X1625039Y524375D01*
X1625062Y524357D01*
X1625165Y524311D01*
X1625266Y524259D01*
X1625295Y524253D01*
X1625322Y524241D01*
X1625434Y524225D01*
X1625545Y524204D01*
X1625574Y524206D01*
X1625603Y524202D01*
X1625715Y524218D01*
X1625828Y524228D01*
X1625855Y524239D01*
X1625884Y524243D01*
X1625988Y524289D01*
X1626093Y524330D01*
X1626117Y524348D01*
X1626144Y524360D01*
X1626230Y524433D01*
X1626320Y524502D01*
X1626338Y524525D01*
X1626360Y524544D01*
X1626402Y524611D01*
X1626490Y524729D01*
X1626512Y524788D01*
X1626538Y524829D01*
X1627748Y527751D01*
X1631249Y531252D01*
X1635824Y533147D01*
X1640776Y533147D01*
X1645351Y531252D01*
X1648852Y527751D01*
X1650062Y524829D01*
X1650077Y524804D01*
X1650086Y524776D01*
X1650149Y524681D01*
X1650207Y524584D01*
X1650228Y524564D01*
X1650244Y524539D01*
X1650331Y524467D01*
X1650413Y524389D01*
X1650439Y524375D01*
X1650462Y524357D01*
X1650565Y524311D01*
X1650666Y524259D01*
X1650695Y524253D01*
X1650722Y524241D01*
X1650834Y524225D01*
X1650945Y524204D01*
X1650974Y524206D01*
X1651003Y524202D01*
X1651115Y524218D01*
X1651228Y524228D01*
X1651255Y524239D01*
X1651284Y524243D01*
X1651388Y524289D01*
X1651493Y524330D01*
X1651517Y524348D01*
X1651544Y524360D01*
X1651630Y524433D01*
X1651720Y524502D01*
X1651738Y524525D01*
X1651760Y524544D01*
X1651802Y524611D01*
X1651890Y524729D01*
X1651912Y524788D01*
X1651938Y524829D01*
X1653148Y527751D01*
X1656649Y531252D01*
X1661224Y533147D01*
X1666176Y533147D01*
X1670751Y531252D01*
X1674252Y527751D01*
X1675769Y524089D01*
X1675804Y524029D01*
X1675830Y523965D01*
X1675876Y523907D01*
X1675913Y523844D01*
X1675963Y523796D01*
X1676006Y523742D01*
X1676066Y523699D01*
X1676120Y523649D01*
X1676181Y523617D01*
X1676238Y523577D01*
X1676307Y523552D01*
X1676373Y523518D01*
X1676440Y523505D01*
X1676506Y523482D01*
X1676579Y523478D01*
X1676652Y523463D01*
X1676720Y523469D01*
X1676789Y523465D01*
X1676861Y523481D01*
X1676935Y523488D01*
X1676999Y523513D01*
X1677067Y523528D01*
X1677131Y523563D01*
X1677200Y523590D01*
X1677255Y523632D01*
X1677316Y523665D01*
X1677368Y523717D01*
X1677427Y523761D01*
X1677468Y523817D01*
X1677517Y523866D01*
X1677546Y523921D01*
X1677597Y523989D01*
X1677638Y524097D01*
X1677672Y524163D01*
X1678036Y525283D01*
X1678889Y526957D01*
X1679994Y528478D01*
X1681322Y529806D01*
X1682843Y530911D01*
X1684517Y531764D01*
X1686304Y532345D01*
X1687069Y532466D01*
X1687069Y521716D01*
X1687077Y521658D01*
X1687075Y521600D01*
X1687097Y521518D01*
X1687109Y521435D01*
X1687133Y521381D01*
X1687147Y521325D01*
X1687190Y521252D01*
X1687225Y521175D01*
X1687263Y521131D01*
X1687293Y521080D01*
X1687354Y521023D01*
X1687409Y520958D01*
X1687457Y520926D01*
X1687500Y520886D01*
X1687575Y520847D01*
X1687645Y520801D01*
X1687701Y520783D01*
X1687753Y520756D01*
X1687821Y520745D01*
X1687916Y520715D01*
X1688016Y520712D01*
X1688084Y520701D01*
X1689101Y520701D01*
X1689101Y520699D01*
X1688084Y520699D01*
X1688026Y520691D01*
X1687968Y520692D01*
X1687886Y520671D01*
X1687803Y520659D01*
X1687749Y520635D01*
X1687693Y520621D01*
X1687620Y520578D01*
X1687543Y520543D01*
X1687498Y520505D01*
X1687448Y520475D01*
X1687390Y520414D01*
X1687326Y520359D01*
X1687294Y520311D01*
X1687254Y520268D01*
X1687215Y520193D01*
X1687169Y520123D01*
X1687151Y520067D01*
X1687124Y520015D01*
X1687113Y519947D01*
X1687083Y519852D01*
X1687080Y519752D01*
X1687069Y519684D01*
X1687069Y508934D01*
X1686304Y509055D01*
X1684517Y509636D01*
X1682843Y510489D01*
X1681322Y511594D01*
X1679994Y512922D01*
X1678889Y514443D01*
X1678036Y516117D01*
X1677672Y517237D01*
X1677642Y517299D01*
X1677621Y517365D01*
X1677580Y517426D01*
X1677547Y517492D01*
X1677501Y517543D01*
X1677462Y517601D01*
X1677406Y517648D01*
X1677357Y517703D01*
X1677298Y517739D01*
X1677245Y517784D01*
X1677177Y517814D01*
X1677115Y517852D01*
X1677048Y517871D01*
X1676985Y517899D01*
X1676912Y517909D01*
X1676841Y517929D01*
X1676772Y517929D01*
X1676703Y517938D01*
X1676630Y517928D01*
X1676557Y517927D01*
X1676491Y517907D01*
X1676422Y517897D01*
X1676355Y517867D01*
X1676284Y517846D01*
X1676226Y517809D01*
X1676163Y517780D01*
X1676107Y517733D01*
X1676045Y517693D01*
X1675999Y517641D01*
X1675947Y517596D01*
X1675914Y517543D01*
X1675857Y517479D01*
X1675808Y517375D01*
X1675769Y517311D01*
X1674252Y513649D01*
X1670751Y510148D01*
X1666176Y508253D01*
X1661224Y508253D01*
X1656649Y510148D01*
X1653148Y513649D01*
X1651938Y516571D01*
X1651923Y516596D01*
X1651914Y516624D01*
X1651851Y516719D01*
X1651793Y516816D01*
X1651772Y516836D01*
X1651756Y516861D01*
X1651669Y516934D01*
X1651587Y517011D01*
X1651561Y517025D01*
X1651538Y517044D01*
X1651435Y517090D01*
X1651334Y517141D01*
X1651305Y517147D01*
X1651278Y517159D01*
X1651166Y517175D01*
X1651055Y517196D01*
X1651026Y517194D01*
X1650997Y517198D01*
X1650885Y517182D01*
X1650772Y517172D01*
X1650745Y517161D01*
X1650715Y517157D01*
X1650612Y517111D01*
X1650507Y517070D01*
X1650483Y517052D01*
X1650456Y517040D01*
X1650370Y516967D01*
X1650280Y516898D01*
X1650262Y516875D01*
X1650240Y516856D01*
X1650198Y516789D01*
X1650110Y516671D01*
X1650088Y516612D01*
X1650062Y516571D01*
X1648852Y513649D01*
X1645351Y510148D01*
X1640776Y508253D01*
X1635824Y508253D01*
X1631249Y510148D01*
X1627748Y513649D01*
X1626538Y516571D01*
X1626523Y516596D01*
X1626514Y516624D01*
X1626451Y516719D01*
X1626393Y516816D01*
X1626372Y516836D01*
X1626356Y516861D01*
X1626269Y516934D01*
X1626187Y517011D01*
X1626161Y517025D01*
X1626138Y517044D01*
X1626035Y517090D01*
X1625934Y517141D01*
X1625905Y517147D01*
X1625878Y517159D01*
X1625766Y517175D01*
X1625655Y517196D01*
X1625626Y517194D01*
X1625597Y517198D01*
X1625485Y517182D01*
X1625372Y517172D01*
X1625345Y517161D01*
X1625315Y517157D01*
X1625212Y517111D01*
X1625107Y517070D01*
X1625083Y517052D01*
X1625056Y517040D01*
X1624970Y516967D01*
X1624880Y516898D01*
X1624862Y516875D01*
X1624840Y516856D01*
X1624798Y516789D01*
X1624710Y516671D01*
X1624688Y516612D01*
X1624662Y516571D01*
X1623452Y513649D01*
X1619951Y510148D01*
X1615376Y508253D01*
X1610424Y508253D01*
X1605849Y510148D01*
X1602348Y513649D01*
X1601138Y516571D01*
X1601123Y516596D01*
X1601114Y516624D01*
X1601051Y516719D01*
X1600993Y516816D01*
X1600972Y516836D01*
X1600956Y516861D01*
X1600869Y516934D01*
X1600787Y517011D01*
X1600761Y517025D01*
X1600738Y517044D01*
X1600635Y517090D01*
X1600534Y517141D01*
X1600505Y517147D01*
X1600478Y517159D01*
X1600366Y517175D01*
X1600255Y517196D01*
X1600226Y517194D01*
X1600197Y517198D01*
X1600085Y517182D01*
X1599972Y517172D01*
X1599945Y517161D01*
X1599915Y517157D01*
X1599812Y517111D01*
X1599707Y517070D01*
X1599683Y517052D01*
X1599656Y517040D01*
X1599570Y516967D01*
X1599480Y516898D01*
X1599462Y516875D01*
X1599440Y516856D01*
X1599398Y516789D01*
X1599310Y516671D01*
X1599288Y516612D01*
X1599262Y516571D01*
X1598052Y513649D01*
X1594551Y510148D01*
X1589976Y508253D01*
X1585024Y508253D01*
X1580449Y510148D01*
X1576948Y513649D01*
X1575738Y516571D01*
X1575723Y516596D01*
X1575714Y516624D01*
X1575651Y516719D01*
X1575593Y516816D01*
X1575572Y516836D01*
X1575556Y516861D01*
X1575469Y516934D01*
X1575387Y517011D01*
X1575361Y517025D01*
X1575338Y517044D01*
X1575235Y517090D01*
X1575134Y517141D01*
X1575105Y517147D01*
X1575078Y517159D01*
X1574966Y517175D01*
X1574855Y517196D01*
X1574826Y517194D01*
X1574797Y517198D01*
X1574685Y517182D01*
X1574572Y517172D01*
X1574545Y517161D01*
X1574515Y517157D01*
X1574412Y517111D01*
X1574307Y517070D01*
X1574283Y517052D01*
X1574256Y517040D01*
X1574170Y516967D01*
X1574080Y516898D01*
X1574062Y516875D01*
X1574040Y516856D01*
X1573998Y516789D01*
X1573910Y516671D01*
X1573888Y516612D01*
X1573862Y516571D01*
X1572652Y513649D01*
X1569151Y510148D01*
X1564576Y508253D01*
X1559624Y508253D01*
X1555049Y510148D01*
X1551548Y513649D01*
X1550338Y516571D01*
X1550323Y516596D01*
X1550314Y516624D01*
X1550251Y516719D01*
X1550193Y516816D01*
X1550172Y516836D01*
X1550156Y516861D01*
X1550069Y516934D01*
X1549987Y517011D01*
X1549961Y517025D01*
X1549938Y517044D01*
X1549835Y517090D01*
X1549734Y517141D01*
X1549705Y517147D01*
X1549678Y517159D01*
X1549566Y517175D01*
X1549455Y517196D01*
X1549426Y517194D01*
X1549397Y517198D01*
X1549285Y517182D01*
X1549172Y517172D01*
X1549145Y517161D01*
X1549115Y517157D01*
X1549012Y517111D01*
X1548907Y517070D01*
X1548883Y517052D01*
X1548856Y517040D01*
X1548770Y516967D01*
X1548680Y516898D01*
X1548662Y516875D01*
X1548640Y516856D01*
X1548598Y516789D01*
X1548510Y516671D01*
X1548488Y516612D01*
X1548462Y516571D01*
X1547252Y513649D01*
X1543751Y510148D01*
X1539176Y508253D01*
X1534224Y508253D01*
X1529649Y510148D01*
X1526148Y513649D01*
X1524938Y516571D01*
X1524923Y516596D01*
X1524914Y516624D01*
X1524851Y516719D01*
X1524793Y516816D01*
X1524772Y516836D01*
X1524756Y516861D01*
X1524669Y516934D01*
X1524587Y517011D01*
X1524561Y517025D01*
X1524538Y517044D01*
X1524435Y517090D01*
X1524334Y517141D01*
X1524305Y517147D01*
X1524278Y517159D01*
X1524166Y517175D01*
X1524055Y517196D01*
X1524026Y517194D01*
X1523997Y517198D01*
X1523885Y517182D01*
X1523772Y517172D01*
X1523745Y517161D01*
X1523715Y517157D01*
X1523612Y517111D01*
X1523507Y517070D01*
X1523483Y517052D01*
X1523456Y517040D01*
X1523370Y516967D01*
X1523280Y516898D01*
X1523262Y516875D01*
X1523240Y516856D01*
X1523198Y516789D01*
X1523110Y516671D01*
X1523088Y516612D01*
X1523062Y516571D01*
X1521852Y513649D01*
X1518351Y510148D01*
X1513776Y508253D01*
X1508824Y508253D01*
X1504249Y510148D01*
X1500748Y513649D01*
X1499538Y516571D01*
X1499523Y516596D01*
X1499514Y516624D01*
X1499451Y516719D01*
X1499393Y516816D01*
X1499372Y516836D01*
X1499356Y516861D01*
X1499269Y516934D01*
X1499187Y517011D01*
X1499161Y517025D01*
X1499138Y517044D01*
X1499035Y517090D01*
X1498934Y517141D01*
X1498905Y517147D01*
X1498878Y517159D01*
X1498766Y517175D01*
X1498655Y517196D01*
X1498626Y517194D01*
X1498597Y517198D01*
X1498485Y517182D01*
X1498372Y517172D01*
X1498345Y517161D01*
X1498315Y517157D01*
X1498212Y517111D01*
X1498107Y517070D01*
X1498083Y517052D01*
X1498056Y517040D01*
X1497970Y516967D01*
X1497880Y516898D01*
X1497862Y516875D01*
X1497840Y516856D01*
X1497798Y516789D01*
X1497710Y516671D01*
X1497688Y516612D01*
X1497662Y516571D01*
X1496452Y513649D01*
X1492951Y510148D01*
X1488376Y508253D01*
X1483424Y508253D01*
X1478849Y510148D01*
X1475348Y513649D01*
X1474138Y516571D01*
X1474123Y516596D01*
X1474114Y516624D01*
X1474051Y516719D01*
X1473993Y516816D01*
X1473972Y516836D01*
X1473956Y516861D01*
X1473869Y516934D01*
X1473787Y517011D01*
X1473761Y517025D01*
X1473738Y517044D01*
X1473635Y517090D01*
X1473534Y517141D01*
X1473505Y517147D01*
X1473478Y517159D01*
X1473366Y517175D01*
X1473255Y517196D01*
X1473226Y517194D01*
X1473197Y517198D01*
X1473085Y517182D01*
X1472972Y517172D01*
X1472945Y517161D01*
X1472915Y517157D01*
X1472812Y517111D01*
X1472707Y517070D01*
X1472683Y517052D01*
X1472656Y517040D01*
X1472570Y516967D01*
X1472480Y516898D01*
X1472462Y516875D01*
X1472440Y516856D01*
X1472398Y516789D01*
X1472310Y516671D01*
X1472288Y516612D01*
X1472262Y516571D01*
X1471052Y513649D01*
X1467551Y510148D01*
X1462976Y508253D01*
X1458024Y508253D01*
G37*
%LPD*%
%LPC*%
G36*
X127701Y590271D02*
X127701Y590271D01*
X119019Y593868D01*
X112374Y600513D01*
X108777Y609195D01*
X108777Y618593D01*
X112374Y627275D01*
X119019Y633920D01*
X127701Y637517D01*
X137099Y637517D01*
X145473Y634048D01*
X145556Y634027D01*
X145636Y633996D01*
X145693Y633991D01*
X145748Y633977D01*
X145834Y633980D01*
X145920Y633972D01*
X145975Y633984D01*
X146032Y633985D01*
X146114Y634011D01*
X146198Y634028D01*
X146249Y634055D01*
X146303Y634072D01*
X146375Y634120D01*
X146451Y634159D01*
X146492Y634199D01*
X146539Y634230D01*
X146594Y634296D01*
X146657Y634355D01*
X146686Y634404D01*
X146722Y634448D01*
X146757Y634526D01*
X146801Y634600D01*
X146815Y634656D01*
X146838Y634708D01*
X146849Y634793D01*
X146871Y634876D01*
X146869Y634933D01*
X146877Y634989D01*
X146864Y635074D01*
X146862Y635160D01*
X146844Y635214D01*
X146836Y635271D01*
X146801Y635349D01*
X146774Y635431D01*
X146745Y635471D01*
X146719Y635530D01*
X146625Y635640D01*
X146579Y635704D01*
X146538Y635745D01*
X144883Y637820D01*
X143472Y640066D01*
X142321Y642457D01*
X141445Y644961D01*
X140854Y647547D01*
X140637Y649479D01*
X162147Y649479D01*
X162147Y627969D01*
X160215Y628186D01*
X157629Y628777D01*
X155125Y629653D01*
X152734Y630804D01*
X150488Y632215D01*
X149800Y632764D01*
X149726Y632807D01*
X149658Y632859D01*
X149605Y632879D01*
X149556Y632908D01*
X149473Y632929D01*
X149392Y632960D01*
X149336Y632965D01*
X149280Y632979D01*
X149194Y632976D01*
X149109Y632984D01*
X149053Y632972D01*
X148996Y632971D01*
X148914Y632945D01*
X148830Y632928D01*
X148780Y632901D01*
X148725Y632884D01*
X148654Y632836D01*
X148578Y632797D01*
X148537Y632757D01*
X148489Y632726D01*
X148434Y632660D01*
X148372Y632601D01*
X148343Y632552D01*
X148306Y632508D01*
X148272Y632430D01*
X148228Y632356D01*
X148214Y632300D01*
X148191Y632248D01*
X148179Y632163D01*
X148158Y632080D01*
X148160Y632023D01*
X148152Y631966D01*
X148164Y631882D01*
X148167Y631796D01*
X148185Y631742D01*
X148193Y631685D01*
X148228Y631607D01*
X148255Y631525D01*
X148283Y631485D01*
X148310Y631426D01*
X148385Y631343D01*
X148450Y631252D01*
X152426Y627275D01*
X156023Y618593D01*
X156023Y609195D01*
X152426Y600513D01*
X145781Y593868D01*
X137099Y590271D01*
X127701Y590271D01*
G37*
%LPD*%
%LPC*%
G36*
X1711721Y646429D02*
X1711721Y646429D01*
X1706586Y648556D01*
X1702656Y652486D01*
X1700529Y657621D01*
X1700529Y663179D01*
X1702656Y668314D01*
X1706586Y672244D01*
X1711721Y674371D01*
X1717279Y674371D01*
X1722414Y672244D01*
X1726344Y668314D01*
X1728471Y663179D01*
X1728471Y657621D01*
X1726344Y652486D01*
X1722414Y648556D01*
X1717279Y646429D01*
X1711721Y646429D01*
G37*
%LPD*%
%LPC*%
G36*
X257817Y661161D02*
X257817Y661161D01*
X256031Y662947D01*
X256031Y680713D01*
X257817Y682499D01*
X275583Y682499D01*
X277369Y680713D01*
X277369Y662947D01*
X275583Y661161D01*
X257817Y661161D01*
G37*
%LPD*%
%LPC*%
G36*
X537217Y510031D02*
X537217Y510031D01*
X535431Y511817D01*
X535431Y529583D01*
X537217Y531369D01*
X554983Y531369D01*
X556769Y529583D01*
X556769Y511817D01*
X554983Y510031D01*
X537217Y510031D01*
G37*
%LPD*%
%LPC*%
G36*
X473717Y510031D02*
X473717Y510031D01*
X471931Y511817D01*
X471931Y529583D01*
X473717Y531369D01*
X491483Y531369D01*
X493269Y529583D01*
X493269Y511817D01*
X491483Y510031D01*
X473717Y510031D01*
G37*
%LPD*%
%LPC*%
G36*
X448317Y510031D02*
X448317Y510031D01*
X446531Y511817D01*
X446531Y529583D01*
X448317Y531369D01*
X466083Y531369D01*
X467869Y529583D01*
X467869Y511817D01*
X466083Y510031D01*
X448317Y510031D01*
G37*
%LPD*%
%LPC*%
G36*
X410217Y510031D02*
X410217Y510031D01*
X408431Y511817D01*
X408431Y529583D01*
X410217Y531369D01*
X427983Y531369D01*
X429769Y529583D01*
X429769Y511817D01*
X427983Y510031D01*
X410217Y510031D01*
G37*
%LPD*%
%LPC*%
G36*
X130817Y510031D02*
X130817Y510031D01*
X129031Y511817D01*
X129031Y529583D01*
X130817Y531369D01*
X148583Y531369D01*
X150369Y529583D01*
X150369Y511817D01*
X148583Y510031D01*
X130817Y510031D01*
G37*
%LPD*%
%LPC*%
G36*
X600717Y510031D02*
X600717Y510031D01*
X598931Y511817D01*
X598931Y529583D01*
X600717Y531369D01*
X618483Y531369D01*
X620269Y529583D01*
X620269Y511817D01*
X618483Y510031D01*
X600717Y510031D01*
G37*
%LPD*%
%LPC*%
G36*
X321317Y510031D02*
X321317Y510031D01*
X319531Y511817D01*
X319531Y529583D01*
X321317Y531369D01*
X339083Y531369D01*
X340869Y529583D01*
X340869Y511817D01*
X339083Y510031D01*
X321317Y510031D01*
G37*
%LPD*%
%LPC*%
G36*
X384817Y510031D02*
X384817Y510031D01*
X383031Y511817D01*
X383031Y529583D01*
X384817Y531369D01*
X402583Y531369D01*
X404369Y529583D01*
X404369Y511817D01*
X402583Y510031D01*
X384817Y510031D01*
G37*
%LPD*%
%LPC*%
G36*
X346717Y510031D02*
X346717Y510031D01*
X344931Y511817D01*
X344931Y529583D01*
X346717Y531369D01*
X364483Y531369D01*
X366269Y529583D01*
X366269Y511817D01*
X364483Y510031D01*
X346717Y510031D01*
G37*
%LPD*%
%LPC*%
G36*
X283217Y510031D02*
X283217Y510031D01*
X281431Y511817D01*
X281431Y529583D01*
X283217Y531369D01*
X300983Y531369D01*
X302769Y529583D01*
X302769Y511817D01*
X300983Y510031D01*
X283217Y510031D01*
G37*
%LPD*%
%LPC*%
G36*
X257817Y510031D02*
X257817Y510031D01*
X256031Y511817D01*
X256031Y529583D01*
X257817Y531369D01*
X275583Y531369D01*
X277369Y529583D01*
X277369Y511817D01*
X275583Y510031D01*
X257817Y510031D01*
G37*
%LPD*%
%LPC*%
G36*
X219717Y510031D02*
X219717Y510031D01*
X217931Y511817D01*
X217931Y529583D01*
X219717Y531369D01*
X237483Y531369D01*
X239269Y529583D01*
X239269Y511817D01*
X237483Y510031D01*
X219717Y510031D01*
G37*
%LPD*%
%LPC*%
G36*
X194317Y510031D02*
X194317Y510031D01*
X192531Y511817D01*
X192531Y529583D01*
X194317Y531369D01*
X212083Y531369D01*
X213869Y529583D01*
X213869Y511817D01*
X212083Y510031D01*
X194317Y510031D01*
G37*
%LPD*%
%LPC*%
G36*
X156217Y510031D02*
X156217Y510031D01*
X154431Y511817D01*
X154431Y529583D01*
X156217Y531369D01*
X173983Y531369D01*
X175769Y529583D01*
X175769Y511817D01*
X173983Y510031D01*
X156217Y510031D01*
G37*
%LPD*%
%LPC*%
G36*
X166209Y653541D02*
X166209Y653541D01*
X166209Y675051D01*
X168141Y674834D01*
X170727Y674243D01*
X173231Y673367D01*
X175622Y672216D01*
X177868Y670805D01*
X179943Y669150D01*
X181818Y667275D01*
X183473Y665200D01*
X184884Y662954D01*
X186035Y660563D01*
X186911Y658059D01*
X187502Y655473D01*
X187719Y653541D01*
X166209Y653541D01*
G37*
%LPD*%
%LPC*%
G36*
X140637Y653541D02*
X140637Y653541D01*
X140854Y655473D01*
X141445Y658059D01*
X142321Y660563D01*
X142707Y661366D01*
X143472Y662954D01*
X144883Y665200D01*
X146538Y667275D01*
X148413Y669150D01*
X150488Y670805D01*
X150955Y671098D01*
X152734Y672216D01*
X155125Y673367D01*
X157629Y674243D01*
X160215Y674834D01*
X162147Y675051D01*
X162147Y653541D01*
X140637Y653541D01*
G37*
%LPD*%
%LPC*%
G36*
X166209Y649479D02*
X166209Y649479D01*
X187719Y649479D01*
X187502Y647547D01*
X186911Y644961D01*
X186035Y642457D01*
X185786Y641939D01*
X184884Y640066D01*
X183473Y637820D01*
X181818Y635745D01*
X179943Y633870D01*
X177868Y632215D01*
X177854Y632206D01*
X176238Y631191D01*
X175622Y630804D01*
X173231Y629653D01*
X170727Y628777D01*
X168141Y628186D01*
X166209Y627969D01*
X166209Y649479D01*
G37*
%LPD*%
%LPC*%
G36*
X1662700Y651351D02*
X1662700Y651351D01*
X1659374Y652729D01*
X1656829Y655274D01*
X1655451Y658600D01*
X1655451Y662200D01*
X1656829Y665526D01*
X1659374Y668071D01*
X1662700Y669449D01*
X1666300Y669449D01*
X1669626Y668071D01*
X1672171Y665526D01*
X1673549Y662200D01*
X1673549Y658600D01*
X1672171Y655274D01*
X1669626Y652729D01*
X1666300Y651351D01*
X1662700Y651351D01*
G37*
%LPD*%
%LPC*%
G36*
X1424431Y522731D02*
X1424431Y522731D01*
X1424431Y532466D01*
X1425196Y532345D01*
X1426983Y531764D01*
X1428657Y530911D01*
X1430178Y529806D01*
X1431506Y528478D01*
X1432611Y526957D01*
X1433464Y525283D01*
X1434045Y523496D01*
X1434166Y522731D01*
X1424431Y522731D01*
G37*
%LPD*%
%LPC*%
G36*
X1691131Y522731D02*
X1691131Y522731D01*
X1691131Y532466D01*
X1691896Y532345D01*
X1693683Y531764D01*
X1695357Y530911D01*
X1696878Y529806D01*
X1698206Y528478D01*
X1699311Y526957D01*
X1700164Y525283D01*
X1700745Y523496D01*
X1700866Y522731D01*
X1691131Y522731D01*
G37*
%LPD*%
%LPC*%
G36*
X891031Y522731D02*
X891031Y522731D01*
X891031Y532466D01*
X891796Y532345D01*
X893583Y531764D01*
X895257Y530911D01*
X896778Y529806D01*
X898106Y528478D01*
X899211Y526957D01*
X900064Y525283D01*
X900645Y523496D01*
X900766Y522731D01*
X891031Y522731D01*
G37*
%LPD*%
%LPC*%
G36*
X1157731Y522731D02*
X1157731Y522731D01*
X1157731Y532466D01*
X1158496Y532345D01*
X1160283Y531764D01*
X1161957Y530911D01*
X1163478Y529806D01*
X1164806Y528478D01*
X1165911Y526957D01*
X1166764Y525283D01*
X1167345Y523496D01*
X1167466Y522731D01*
X1157731Y522731D01*
G37*
%LPD*%
%LPC*%
G36*
X891031Y518669D02*
X891031Y518669D01*
X900766Y518669D01*
X900645Y517904D01*
X900064Y516117D01*
X899211Y514443D01*
X898106Y512922D01*
X896778Y511594D01*
X895257Y510489D01*
X893583Y509636D01*
X891796Y509055D01*
X891031Y508934D01*
X891031Y518669D01*
G37*
%LPD*%
%LPC*%
G36*
X1157731Y518669D02*
X1157731Y518669D01*
X1167466Y518669D01*
X1167345Y517904D01*
X1166764Y516117D01*
X1165911Y514443D01*
X1164806Y512922D01*
X1163478Y511594D01*
X1161957Y510489D01*
X1160283Y509636D01*
X1158496Y509055D01*
X1157731Y508934D01*
X1157731Y518669D01*
G37*
%LPD*%
%LPC*%
G36*
X1424431Y518669D02*
X1424431Y518669D01*
X1434166Y518669D01*
X1434045Y517904D01*
X1433464Y516117D01*
X1432611Y514443D01*
X1431506Y512922D01*
X1430178Y511594D01*
X1428657Y510489D01*
X1426983Y509636D01*
X1425196Y509055D01*
X1424431Y508934D01*
X1424431Y518669D01*
G37*
%LPD*%
%LPC*%
G36*
X1691131Y518669D02*
X1691131Y518669D01*
X1700866Y518669D01*
X1700745Y517904D01*
X1700164Y516117D01*
X1699311Y514443D01*
X1698206Y512922D01*
X1696878Y511594D01*
X1695357Y510489D01*
X1693683Y509636D01*
X1691896Y509055D01*
X1691131Y508934D01*
X1691131Y518669D01*
G37*
%LPD*%
%LPC*%
G36*
X243331Y673861D02*
X243331Y673861D01*
X243331Y681991D01*
X249254Y681991D01*
X249901Y681818D01*
X250480Y681483D01*
X250953Y681010D01*
X251288Y680431D01*
X251461Y679784D01*
X251461Y673861D01*
X243331Y673861D01*
G37*
%LPD*%
%LPC*%
G36*
X231139Y673861D02*
X231139Y673861D01*
X231139Y679784D01*
X231312Y680431D01*
X231647Y681010D01*
X232120Y681483D01*
X232699Y681818D01*
X233346Y681991D01*
X239269Y681991D01*
X239269Y673861D01*
X231139Y673861D01*
G37*
%LPD*%
%LPC*%
G36*
X243331Y661669D02*
X243331Y661669D01*
X243331Y669799D01*
X251461Y669799D01*
X251461Y663876D01*
X251288Y663229D01*
X250953Y662650D01*
X250480Y662177D01*
X249901Y661842D01*
X249254Y661669D01*
X243331Y661669D01*
G37*
%LPD*%
%LPC*%
G36*
X233346Y661669D02*
X233346Y661669D01*
X232699Y661842D01*
X232120Y662177D01*
X231647Y662650D01*
X231312Y663229D01*
X231139Y663876D01*
X231139Y669799D01*
X239269Y669799D01*
X239269Y661669D01*
X233346Y661669D01*
G37*
%LPD*%
%LPC*%
G36*
X241299Y671829D02*
X241299Y671829D01*
X241299Y671831D01*
X241301Y671831D01*
X241301Y671829D01*
X241299Y671829D01*
G37*
%LPD*%
%LPC*%
G36*
X164177Y651509D02*
X164177Y651509D01*
X164177Y651511D01*
X164179Y651511D01*
X164179Y651509D01*
X164177Y651509D01*
G37*
%LPD*%
D10*
X853140Y683294D02*
X858139Y693293D01*
X863139Y683294D01*
X869511Y683294D02*
X874511Y678294D01*
X874511Y693293D01*
X879510Y693293D02*
X869511Y693293D01*
X885883Y690793D02*
X885883Y680794D01*
X888383Y678294D01*
X893382Y678294D01*
X895882Y680794D01*
X895882Y690793D01*
X893382Y693293D01*
X888383Y693293D01*
X885883Y690793D01*
X895882Y680794D01*
D11*
X660400Y520700D03*
X685800Y520700D03*
X711200Y520700D03*
X736600Y520700D03*
X762000Y520700D03*
X787400Y520700D03*
X812800Y520700D03*
X838200Y520700D03*
X863600Y520700D03*
X889000Y520700D03*
X927100Y520700D03*
X952500Y520700D03*
X977900Y520700D03*
X1003300Y520700D03*
X1028700Y520700D03*
X1054100Y520700D03*
X1079500Y520700D03*
X1104900Y520700D03*
X1130300Y520700D03*
X1155700Y520700D03*
X1193800Y520700D03*
X1219200Y520700D03*
X1244600Y520700D03*
X1270000Y520700D03*
X1295400Y520700D03*
X1320800Y520700D03*
X1346200Y520700D03*
X1371600Y520700D03*
X1397000Y520700D03*
X1422400Y520700D03*
X1460500Y520700D03*
X1485900Y520700D03*
X1511300Y520700D03*
X1536700Y520700D03*
X1562100Y520700D03*
X1587500Y520700D03*
X1612900Y520700D03*
X1638300Y520700D03*
X1663700Y520700D03*
X1689100Y520700D03*
D12*
X609600Y520700D03*
X584200Y520700D03*
X546100Y520700D03*
X520700Y520700D03*
X482600Y520700D03*
X457200Y520700D03*
X419100Y520700D03*
X393700Y520700D03*
X355600Y520700D03*
X330200Y520700D03*
X292100Y520700D03*
X266700Y520700D03*
X228600Y520700D03*
X203200Y520700D03*
X165100Y520700D03*
X139700Y520700D03*
D13*
X164178Y651510D03*
D14*
X90970Y651256D03*
X132400Y613894D03*
D12*
X241300Y671830D03*
X266700Y671830D03*
D11*
X1397000Y647700D03*
X1371600Y647700D03*
X1422400Y647700D03*
X1447800Y647700D03*
X1473200Y647700D03*
X1498600Y647700D03*
X1524000Y647700D03*
X1549400Y647700D03*
X1574800Y647700D03*
X1600200Y647700D03*
X1371600Y622300D03*
X1397000Y622300D03*
X1422400Y622300D03*
X1447800Y622300D03*
X1473200Y622300D03*
X1498600Y622300D03*
X1524000Y622300D03*
X1549400Y622300D03*
X1574800Y622300D03*
X1600200Y622300D03*
D15*
X1714500Y660400D03*
X1739500Y610400D03*
X1764500Y610400D03*
X1689500Y610400D03*
X1664500Y610400D03*
D16*
X1485900Y635000D02*
X1473200Y647700D01*
X1485900Y635000D02*
X1485900Y592328D01*
X1384300Y584200D02*
X1320800Y520700D01*
X1477772Y584200D02*
X1485900Y592328D01*
X1477772Y584200D02*
X1384300Y584200D01*
X1498600Y647700D02*
X1511300Y635000D01*
X1511300Y609600D01*
X1481074Y579374D01*
X1386332Y579374D01*
X1346200Y539242D01*
X1346200Y520700D01*
X1498854Y672846D02*
X1524000Y647700D01*
X1206246Y672846D02*
X1054100Y520700D01*
X1206246Y672846D02*
X1498854Y672846D01*
D17*
X1489456Y665988D03*
D16*
X1209040Y665988D01*
X1079500Y536448D01*
X1079500Y520700D01*
X1539494Y683006D02*
X1574800Y647700D01*
X949706Y683006D02*
X787400Y520700D01*
X949706Y683006D02*
X1539494Y683006D01*
D17*
X1545082Y665226D03*
D16*
X1532890Y677418D01*
X952754Y677418D01*
X812800Y537464D01*
X812800Y520700D01*
D18*
X736600Y520700D02*
X736600Y555752D01*
X713994Y578358D01*
X559308Y578358D01*
X520700Y539750D02*
X520700Y520700D01*
X520700Y539750D02*
X559308Y578358D01*
X711200Y539242D02*
X711200Y520700D01*
X711200Y539242D02*
X701802Y548640D01*
X596138Y548640D01*
X584200Y536702D02*
X584200Y520700D01*
X584200Y536702D02*
X596138Y548640D01*
M02*
