G04 EAGLE Gerber RS-274X export*
G75*
%MOMM*%
%FSLAX34Y34*%
%LPD*%
%INSoldermask Bottom*%
%IPPOS*%
%AMOC8*
5,1,8,0,0,1.08239X$1,22.5*%
G01*
%ADD10C,2.032000*%
%ADD11R,1.676400X1.676400*%
%ADD12C,4.368400*%
%ADD13C,4.267200*%
%ADD14C,2.336800*%
%ADD15C,1.352400*%
%ADD16C,3.200400*%


D10*
X660400Y520700D03*
X685800Y520700D03*
X711200Y520700D03*
X736600Y520700D03*
X762000Y520700D03*
X787400Y520700D03*
X812800Y520700D03*
X838200Y520700D03*
X863600Y520700D03*
X889000Y520700D03*
X927100Y520700D03*
X952500Y520700D03*
X977900Y520700D03*
X1003300Y520700D03*
X1028700Y520700D03*
X1054100Y520700D03*
X1079500Y520700D03*
X1104900Y520700D03*
X1130300Y520700D03*
X1155700Y520700D03*
X1193800Y520700D03*
X1219200Y520700D03*
X1244600Y520700D03*
X1270000Y520700D03*
X1295400Y520700D03*
X1320800Y520700D03*
X1346200Y520700D03*
X1371600Y520700D03*
X1397000Y520700D03*
X1422400Y520700D03*
X1460500Y520700D03*
X1485900Y520700D03*
X1511300Y520700D03*
X1536700Y520700D03*
X1562100Y520700D03*
X1587500Y520700D03*
X1612900Y520700D03*
X1638300Y520700D03*
X1663700Y520700D03*
X1689100Y520700D03*
D11*
X609600Y520700D03*
X584200Y520700D03*
X546100Y520700D03*
X520700Y520700D03*
X482600Y520700D03*
X457200Y520700D03*
X419100Y520700D03*
X393700Y520700D03*
X355600Y520700D03*
X330200Y520700D03*
X292100Y520700D03*
X266700Y520700D03*
X228600Y520700D03*
X203200Y520700D03*
X165100Y520700D03*
X139700Y520700D03*
D12*
X164178Y651510D03*
D13*
X90970Y651256D03*
X132400Y613894D03*
D11*
X241300Y671830D03*
X266700Y671830D03*
D10*
X1397000Y647700D03*
X1371600Y647700D03*
X1422400Y647700D03*
X1447800Y647700D03*
X1473200Y647700D03*
X1498600Y647700D03*
X1524000Y647700D03*
X1549400Y647700D03*
X1574800Y647700D03*
X1600200Y647700D03*
X1371600Y622300D03*
X1397000Y622300D03*
X1422400Y622300D03*
X1447800Y622300D03*
X1473200Y622300D03*
X1498600Y622300D03*
X1524000Y622300D03*
X1549400Y622300D03*
X1574800Y622300D03*
X1600200Y622300D03*
D14*
X1714500Y660400D03*
X1739500Y610400D03*
X1764500Y610400D03*
X1689500Y610400D03*
X1664500Y610400D03*
D15*
X1764500Y660400D03*
X1764500Y685400D03*
X1664500Y685400D03*
X1664500Y660400D03*
X1714500Y610400D03*
D16*
X88900Y520700D03*
X825500Y673100D03*
X1752600Y520700D03*
M02*
