M48
;GenerationSoftware,Autodesk,EAGLE,9.6.2*%
;CreationDate,2021-06-14T22:24:07Z*%
FMAT,2
ICI,OFF
METRIC,TZ,000.000
T9C0.381
T8C1.016
T7C1.041
T6C1.118
T5C1.200
T4C1.300
T3C2.997
T2C3.048
T1C3.200
%
G90
M71
T1
X16418Y65151
T2
X8890Y52070
X82550Y67310
X175260Y52070
T3
X9097Y65126
X13240Y61389
T4
X166450Y61040
X171450Y66040
X173950Y61040
X176450Y61040
X168950Y61040
T5
X176450Y66040
X176450Y68540
X166450Y68540
X166450Y66040
X171450Y61040
T6
X147320Y64770
X149860Y64770
X152400Y64770
X154940Y64770
X157480Y64770
X160020Y64770
X137160Y62230
X139700Y62230
X144780Y62230
X147320Y62230
X149860Y62230
X152400Y62230
X154940Y62230
X157480Y62230
X160020Y62230
X139700Y64770
X137160Y64770
X142240Y64770
X144780Y64770
X142240Y62230
T7
X134620Y52070
X137160Y52070
X139700Y52070
X142240Y52070
X146050Y52070
X148590Y52070
X151130Y52070
X153670Y52070
X156210Y52070
X158750Y52070
X161290Y52070
X163830Y52070
X102870Y52070
X168910Y52070
X71120Y52070
X66040Y52070
X68580Y52070
X73660Y52070
X76200Y52070
X78740Y52070
X81280Y52070
X83820Y52070
X86360Y52070
X88900Y52070
X92710Y52070
X95250Y52070
X97790Y52070
X166370Y52070
X100330Y52070
X105410Y52070
X107950Y52070
X110490Y52070
X113030Y52070
X115570Y52070
X119380Y52070
X121920Y52070
X124460Y52070
X127000Y52070
X129540Y52070
X132080Y52070
T8
X41910Y52070
X39370Y52070
X35560Y52070
X33020Y52070
X29210Y52070
X26670Y52070
X22860Y52070
X20320Y52070
X16510Y52070
X13970Y52070
X60960Y52070
X24130Y67183
X26670Y67183
X58420Y52070
X54610Y52070
X52070Y52070
X48260Y52070
X45720Y52070
T9
X148946Y66599
X154508Y66523
M30